<?xml version="1.0" encoding="UTF-8" standalone="no"?>
<!DOCTYPE svg PUBLIC "-//W3C//DTD SVG 1.1//EN"
 "http://www.w3.org/Graphics/SVG/1.1/DTD/svg11.dtd">
<!-- Generated by graphviz version 2.47.3 (20210619.1520)
 -->
<!-- Title: dependencies Pages: 1 -->
<svg width="494pt" height="174pt"
 viewBox="0.00 0.00 494.00 173.80" xmlns="http://www.w3.org/2000/svg" xmlns:xlink="http://www.w3.org/1999/xlink">
<g id="graph0" class="graph" transform="scale(1 1) rotate(0) translate(4 169.8)">
<title>dependencies</title>
<polygon fill="white" stroke="transparent" points="-4,4 -4,-169.8 490,-169.8 490,4 -4,4"/>
<text text-anchor="middle" x="243" y="-8.2" font-family="sans-serif" font-size="14.00">dependencies</text>
<g id="clust1" class="cluster">
<title>cluster_InputTextModule</title>
<polygon fill="none" stroke="black" stroke-dasharray="1,5" points="8,-32.8 8,-157.8 478,-157.8 478,-32.8 8,-32.8"/>
</g>
<g id="clust2" class="cluster">
<title>cluster_InputTextModule_declarations</title>
<polygon fill="none" stroke="black" points="318,-40.8 318,-92.8 470,-92.8 470,-40.8 318,-40.8"/>
</g>
<g id="clust4" class="cluster">
<title>cluster_InputTextModule_imports</title>
<polygon fill="none" stroke="black" points="16,-40.8 16,-92.8 310,-92.8 310,-40.8 16,-40.8"/>
</g>
<!-- InputTextComponent -->
<g id="node1" class="node">
<title>InputTextComponent</title>
<polygon fill="#ffffb3" stroke="black" points="462.04,-84.8 325.96,-84.8 325.96,-48.8 462.04,-48.8 462.04,-84.8"/>
<text text-anchor="middle" x="394" y="-62.6" font-family="Times,serif" font-size="14.00">InputTextComponent</text>
</g>
<!-- InputTextModule -->
<g id="node2" class="node">
<title>InputTextModule</title>
<polygon fill="#8dd3c7" stroke="black" points="309.26,-149.8 306.26,-153.8 285.26,-153.8 282.26,-149.8 194.74,-149.8 194.74,-113.8 309.26,-113.8 309.26,-149.8"/>
<text text-anchor="middle" x="252" y="-127.6" font-family="Times,serif" font-size="14.00">InputTextModule</text>
</g>
<!-- InputTextComponent&#45;&gt;InputTextModule -->
<g id="edge1" class="edge">
<title>InputTextComponent&#45;&gt;InputTextModule</title>
<path fill="none" stroke="black" d="M394,-84.91C394,-104.14 394,-131.8 394,-131.8 394,-131.8 319.35,-131.8 319.35,-131.8"/>
<polygon fill="black" stroke="black" points="319.35,-128.3 309.35,-131.8 319.35,-135.3 319.35,-128.3"/>
</g>
<!-- ComunModule -->
<g id="node3" class="node">
<title>ComunModule</title>
<polygon fill="#8dd3c7" stroke="black" points="302.28,-84.8 299.28,-88.8 278.28,-88.8 275.28,-84.8 201.72,-84.8 201.72,-48.8 302.28,-48.8 302.28,-84.8"/>
<text text-anchor="middle" x="252" y="-62.6" font-family="Times,serif" font-size="14.00">ComunModule</text>
</g>
<!-- ComunModule&#45;&gt;InputTextModule -->
<g id="edge2" class="edge">
<title>ComunModule&#45;&gt;InputTextModule</title>
<path fill="none" stroke="black" d="M252,-84.91C252,-84.91 252,-103.79 252,-103.79"/>
<polygon fill="black" stroke="black" points="248.5,-103.79 252,-113.79 255.5,-103.79 248.5,-103.79"/>
</g>
<!-- InputTextRoutingModule -->
<g id="node4" class="node">
<title>InputTextRoutingModule</title>
<polygon fill="#8dd3c7" stroke="black" points="183.88,-84.8 180.88,-88.8 159.88,-88.8 156.88,-84.8 24.12,-84.8 24.12,-48.8 183.88,-48.8 183.88,-84.8"/>
<text text-anchor="middle" x="104" y="-62.6" font-family="Times,serif" font-size="14.00">InputTextRoutingModule</text>
</g>
<!-- InputTextRoutingModule&#45;&gt;InputTextModule -->
<g id="edge3" class="edge">
<title>InputTextRoutingModule&#45;&gt;InputTextModule</title>
<path fill="none" stroke="black" d="M104,-84.91C104,-104.14 104,-131.8 104,-131.8 104,-131.8 184.36,-131.8 184.36,-131.8"/>
<polygon fill="black" stroke="black" points="184.36,-135.3 194.36,-131.8 184.36,-128.3 184.36,-135.3"/>
</g>
</g>
</svg>
