<?xml version="1.0" encoding="UTF-8" standalone="no"?>
<!DOCTYPE svg PUBLIC "-//W3C//DTD SVG 1.1//EN"
 "http://www.w3.org/Graphics/SVG/1.1/DTD/svg11.dtd">
<!-- Generated by graphviz version 2.47.3 (20210619.1520)
 -->
<!-- Title: dependencies Pages: 1 -->
<svg width="2398pt" height="174pt"
 viewBox="0.00 0.00 2398.00 173.80" xmlns="http://www.w3.org/2000/svg" xmlns:xlink="http://www.w3.org/1999/xlink">
<g id="graph0" class="graph" transform="scale(1 1) rotate(0) translate(4 169.8)">
<title>dependencies</title>
<polygon fill="white" stroke="transparent" points="-4,4 -4,-169.8 2394,-169.8 2394,4 -4,4"/>
<text text-anchor="middle" x="1195" y="-8.2" font-family="sans-serif" font-size="14.00">dependencies</text>
<g id="clust1" class="cluster">
<title>cluster_InputTextModule</title>
<polygon fill="none" stroke="black" stroke-dasharray="1,5" points="8,-32.8 8,-157.8 2382,-157.8 2382,-32.8 8,-32.8"/>
</g>
<g id="clust15" class="cluster">
<title>cluster_InputTextModule_providers</title>
<polygon fill="none" stroke="black" points="2176,-40.8 2176,-92.8 2374,-92.8 2374,-40.8 2176,-40.8"/>
</g>
<g id="clust12" class="cluster">
<title>cluster_InputTextModule_imports</title>
<polygon fill="none" stroke="black" points="1876,-40.8 1876,-92.8 2168,-92.8 2168,-40.8 1876,-40.8"/>
</g>
<g id="clust2" class="cluster">
<title>cluster_InputTextModule_declarations</title>
<polygon fill="none" stroke="black" points="16,-40.8 16,-92.8 1868,-92.8 1868,-40.8 16,-40.8"/>
</g>
<!-- CVAInputTextComponent -->
<g id="node1" class="node">
<title>CVAInputTextComponent</title>
<polygon fill="#ffffb3" stroke="black" points="1860.09,-84.8 1693.91,-84.8 1693.91,-48.8 1860.09,-48.8 1860.09,-84.8"/>
<text text-anchor="middle" x="1777" y="-62.6" font-family="Times,serif" font-size="14.00">CVAInputTextComponent</text>
</g>
<!-- InputTextModule -->
<g id="node10" class="node">
<title>InputTextModule</title>
<polygon fill="#8dd3c7" stroke="black" points="1301.26,-149.8 1298.26,-153.8 1277.26,-153.8 1274.26,-149.8 1186.74,-149.8 1186.74,-113.8 1301.26,-113.8 1301.26,-149.8"/>
<text text-anchor="middle" x="1244" y="-127.6" font-family="Times,serif" font-size="14.00">InputTextModule</text>
</g>
<!-- CVAInputTextComponent&#45;&gt;InputTextModule -->
<g id="edge1" class="edge">
<title>CVAInputTextComponent&#45;&gt;InputTextModule</title>
<path fill="none" stroke="black" d="M1777,-84.82C1777,-102.17 1777,-125.8 1777,-125.8 1777,-125.8 1311.29,-125.8 1311.29,-125.8"/>
<polygon fill="black" stroke="black" points="1311.29,-122.3 1301.29,-125.8 1311.29,-129.3 1311.29,-122.3"/>
</g>
<!-- CVAInputTextExampleComponent -->
<g id="node2" class="node">
<title>CVAInputTextExampleComponent</title>
<polygon fill="#ffffb3" stroke="black" points="1675.85,-84.8 1460.15,-84.8 1460.15,-48.8 1675.85,-48.8 1675.85,-84.8"/>
<text text-anchor="middle" x="1568" y="-62.6" font-family="Times,serif" font-size="14.00">CVAInputTextExampleComponent</text>
</g>
<!-- CVAInputTextExampleComponent&#45;&gt;InputTextModule -->
<g id="edge2" class="edge">
<title>CVAInputTextExampleComponent&#45;&gt;InputTextModule</title>
<path fill="none" stroke="black" d="M1568,-85.04C1568,-100.37 1568,-119.8 1568,-119.8 1568,-119.8 1311.55,-119.8 1311.55,-119.8"/>
<polygon fill="black" stroke="black" points="1311.55,-116.3 1301.55,-119.8 1311.55,-123.3 1311.55,-116.3"/>
</g>
<!-- InputNumberMinMaxComponent -->
<g id="node3" class="node">
<title>InputNumberMinMaxComponent</title>
<polygon fill="#ffffb3" stroke="black" points="1441.75,-84.8 1236.25,-84.8 1236.25,-48.8 1441.75,-48.8 1441.75,-84.8"/>
<text text-anchor="middle" x="1339" y="-62.6" font-family="Times,serif" font-size="14.00">InputNumberMinMaxComponent</text>
</g>
<!-- InputNumberMinMaxComponent&#45;&gt;InputTextModule -->
<g id="edge3" class="edge">
<title>InputNumberMinMaxComponent&#45;&gt;InputTextModule</title>
<path fill="none" stroke="black" d="M1268.75,-84.91C1268.75,-84.91 1268.75,-103.79 1268.75,-103.79"/>
<polygon fill="black" stroke="black" points="1265.25,-103.79 1268.75,-113.79 1272.25,-103.79 1265.25,-103.79"/>
</g>
<!-- InputTextComponent -->
<g id="node4" class="node">
<title>InputTextComponent</title>
<polygon fill="#ffffb3" stroke="black" points="1218.04,-84.8 1081.96,-84.8 1081.96,-48.8 1218.04,-48.8 1218.04,-84.8"/>
<text text-anchor="middle" x="1150" y="-62.6" font-family="Times,serif" font-size="14.00">InputTextComponent</text>
</g>
<!-- InputTextComponent&#45;&gt;InputTextModule -->
<g id="edge4" class="edge">
<title>InputTextComponent&#45;&gt;InputTextModule</title>
<path fill="none" stroke="black" d="M1202.45,-84.91C1202.45,-84.91 1202.45,-103.79 1202.45,-103.79"/>
<polygon fill="black" stroke="black" points="1198.95,-103.79 1202.45,-113.79 1205.95,-103.79 1198.95,-103.79"/>
</g>
<!-- InputTextEmailComponent -->
<g id="node5" class="node">
<title>InputTextEmailComponent</title>
<polygon fill="#ffffb3" stroke="black" points="1063.98,-84.8 894.02,-84.8 894.02,-48.8 1063.98,-48.8 1063.98,-84.8"/>
<text text-anchor="middle" x="979" y="-62.6" font-family="Times,serif" font-size="14.00">InputTextEmailComponent</text>
</g>
<!-- InputTextEmailComponent&#45;&gt;InputTextModule -->
<g id="edge5" class="edge">
<title>InputTextEmailComponent&#45;&gt;InputTextModule</title>
<path fill="none" stroke="black" d="M979,-85.04C979,-100.37 979,-119.8 979,-119.8 979,-119.8 1176.5,-119.8 1176.5,-119.8"/>
<polygon fill="black" stroke="black" points="1176.5,-123.3 1186.5,-119.8 1176.5,-116.3 1176.5,-123.3"/>
</g>
<!-- InputTextMinMaxLengthComponent -->
<g id="node6" class="node">
<title>InputTextMinMaxLengthComponent</title>
<polygon fill="#ffffb3" stroke="black" points="875.69,-84.8 650.31,-84.8 650.31,-48.8 875.69,-48.8 875.69,-84.8"/>
<text text-anchor="middle" x="763" y="-62.6" font-family="Times,serif" font-size="14.00">InputTextMinMaxLengthComponent</text>
</g>
<!-- InputTextMinMaxLengthComponent&#45;&gt;InputTextModule -->
<g id="edge6" class="edge">
<title>InputTextMinMaxLengthComponent&#45;&gt;InputTextModule</title>
<path fill="none" stroke="black" d="M763,-84.82C763,-102.17 763,-125.8 763,-125.8 763,-125.8 1176.46,-125.8 1176.46,-125.8"/>
<polygon fill="black" stroke="black" points="1176.46,-129.3 1186.46,-125.8 1176.46,-122.3 1176.46,-129.3"/>
</g>
<!-- InputTextRequiredComponent -->
<g id="node7" class="node">
<title>InputTextRequiredComponent</title>
<polygon fill="#ffffb3" stroke="black" points="631.86,-84.8 444.14,-84.8 444.14,-48.8 631.86,-48.8 631.86,-84.8"/>
<text text-anchor="middle" x="538" y="-62.6" font-family="Times,serif" font-size="14.00">InputTextRequiredComponent</text>
</g>
<!-- InputTextRequiredComponent&#45;&gt;InputTextModule -->
<g id="edge7" class="edge">
<title>InputTextRequiredComponent&#45;&gt;InputTextModule</title>
<path fill="none" stroke="black" d="M538,-84.91C538,-104.14 538,-131.8 538,-131.8 538,-131.8 1176.52,-131.8 1176.52,-131.8"/>
<polygon fill="black" stroke="black" points="1176.52,-135.3 1186.52,-131.8 1176.52,-128.3 1176.52,-135.3"/>
</g>
<!-- InputTextSimpleComponent -->
<g id="node8" class="node">
<title>InputTextSimpleComponent</title>
<polygon fill="#ffffb3" stroke="black" points="426.21,-84.8 249.79,-84.8 249.79,-48.8 426.21,-48.8 426.21,-84.8"/>
<text text-anchor="middle" x="338" y="-62.6" font-family="Times,serif" font-size="14.00">InputTextSimpleComponent</text>
</g>
<!-- InputTextSimpleComponent&#45;&gt;InputTextModule -->
<g id="edge8" class="edge">
<title>InputTextSimpleComponent&#45;&gt;InputTextModule</title>
<path fill="none" stroke="black" d="M338,-85.08C338,-106.12 338,-137.8 338,-137.8 338,-137.8 1176.64,-137.8 1176.64,-137.8"/>
<polygon fill="black" stroke="black" points="1176.64,-141.3 1186.64,-137.8 1176.64,-134.3 1176.64,-141.3"/>
</g>
<!-- InputTextValidPatternComponent -->
<g id="node9" class="node">
<title>InputTextValidPatternComponent</title>
<polygon fill="#ffffb3" stroke="black" points="231.8,-84.8 24.2,-84.8 24.2,-48.8 231.8,-48.8 231.8,-84.8"/>
<text text-anchor="middle" x="128" y="-62.6" font-family="Times,serif" font-size="14.00">InputTextValidPatternComponent</text>
</g>
<!-- InputTextValidPatternComponent&#45;&gt;InputTextModule -->
<g id="edge9" class="edge">
<title>InputTextValidPatternComponent&#45;&gt;InputTextModule</title>
<path fill="none" stroke="black" d="M128,-84.89C128,-107.93 128,-144.8 128,-144.8 128,-144.8 1176.74,-144.8 1176.74,-144.8"/>
<polygon fill="black" stroke="black" points="1176.74,-148.3 1186.74,-144.8 1176.74,-141.3 1176.74,-148.3"/>
</g>
<!-- InputTextRoutingModule -->
<g id="node11" class="node">
<title>InputTextRoutingModule</title>
<polygon fill="#8dd3c7" stroke="black" points="2159.88,-84.8 2156.88,-88.8 2135.88,-88.8 2132.88,-84.8 2000.12,-84.8 2000.12,-48.8 2159.88,-48.8 2159.88,-84.8"/>
<text text-anchor="middle" x="2080" y="-62.6" font-family="Times,serif" font-size="14.00">InputTextRoutingModule</text>
</g>
<!-- InputTextRoutingModule&#45;&gt;InputTextModule -->
<g id="edge10" class="edge">
<title>InputTextRoutingModule&#45;&gt;InputTextModule</title>
<path fill="none" stroke="black" d="M2080,-85.08C2080,-106.12 2080,-137.8 2080,-137.8 2080,-137.8 1311.46,-137.8 1311.46,-137.8"/>
<polygon fill="black" stroke="black" points="1311.46,-134.3 1301.46,-137.8 1311.46,-141.3 1311.46,-134.3"/>
</g>
<!-- SharedModule -->
<g id="node12" class="node">
<title>SharedModule</title>
<polygon fill="#8dd3c7" stroke="black" points="1982.42,-84.8 1979.42,-88.8 1958.42,-88.8 1955.42,-84.8 1883.58,-84.8 1883.58,-48.8 1982.42,-48.8 1982.42,-84.8"/>
<text text-anchor="middle" x="1933" y="-62.6" font-family="Times,serif" font-size="14.00">SharedModule</text>
</g>
<!-- SharedModule&#45;&gt;InputTextModule -->
<g id="edge11" class="edge">
<title>SharedModule&#45;&gt;InputTextModule</title>
<path fill="none" stroke="black" d="M1933,-84.91C1933,-104.14 1933,-131.8 1933,-131.8 1933,-131.8 1311.26,-131.8 1311.26,-131.8"/>
<polygon fill="black" stroke="black" points="1311.26,-128.3 1301.26,-131.8 1311.26,-135.3 1311.26,-128.3"/>
</g>
<!-- StyleSelectorService -->
<g id="node13" class="node">
<title>StyleSelectorService</title>
<ellipse fill="#fdb462" stroke="black" cx="2275" cy="-66.8" rx="91.46" ry="18"/>
<text text-anchor="middle" x="2275" y="-62.6" font-family="Times,serif" font-size="14.00">StyleSelectorService</text>
</g>
<!-- StyleSelectorService&#45;&gt;InputTextModule -->
<g id="edge12" class="edge">
<title>StyleSelectorService&#45;&gt;InputTextModule</title>
<path fill="none" stroke="black" d="M2275,-84.89C2275,-107.93 2275,-144.8 2275,-144.8 2275,-144.8 1311.27,-144.8 1311.27,-144.8"/>
<polygon fill="black" stroke="black" points="1311.27,-141.3 1301.27,-144.8 1311.27,-148.3 1311.27,-141.3"/>
</g>
</g>
</svg>
