<?xml version="1.0" encoding="UTF-8" standalone="no"?>
<!DOCTYPE svg PUBLIC "-//W3C//DTD SVG 1.1//EN"
 "http://www.w3.org/Graphics/SVG/1.1/DTD/svg11.dtd">
<!-- Generated by graphviz version 2.47.3 (20210619.1520)
 -->
<!-- Title: dependencies Pages: 1 -->
<svg width="2398pt" height="174pt"
 viewBox="0.00 0.00 2398.00 173.80" xmlns="http://www.w3.org/2000/svg" xmlns:xlink="http://www.w3.org/1999/xlink">
<g id="graph0" class="graph" transform="scale(1 1) rotate(0) translate(4 169.8)">
<title>dependencies</title>
<polygon fill="white" stroke="transparent" points="-4,4 -4,-169.8 2394,-169.8 2394,4 -4,4"/>
<text text-anchor="middle" x="1195" y="-8.2" font-family="sans-serif" font-size="14.00">dependencies</text>
<g id="clust1" class="cluster">
<title>cluster_InputTextModule</title>
<polygon fill="none" stroke="black" stroke-dasharray="1,5" points="8,-32.8 8,-157.8 2382,-157.8 2382,-32.8 8,-32.8"/>
</g>
<g id="clust2" class="cluster">
<title>cluster_InputTextModule_declarations</title>
<polygon fill="none" stroke="black" points="522,-40.8 522,-92.8 2374,-92.8 2374,-40.8 522,-40.8"/>
</g>
<g id="clust15" class="cluster">
<title>cluster_InputTextModule_providers</title>
<polygon fill="none" stroke="black" points="316,-40.8 316,-92.8 514,-92.8 514,-40.8 316,-40.8"/>
</g>
<g id="clust12" class="cluster">
<title>cluster_InputTextModule_imports</title>
<polygon fill="none" stroke="black" points="16,-40.8 16,-92.8 308,-92.8 308,-40.8 16,-40.8"/>
</g>
<!-- CVAInputTextComponent -->
<g id="node1" class="node">
<title>CVAInputTextComponent</title>
<polygon fill="#ffffb3" stroke="black" points="2366.09,-84.8 2199.91,-84.8 2199.91,-48.8 2366.09,-48.8 2366.09,-84.8"/>
<text text-anchor="middle" x="2283" y="-62.6" font-family="Times,serif" font-size="14.00">CVAInputTextComponent</text>
</g>
<!-- InputTextModule -->
<g id="node10" class="node">
<title>InputTextModule</title>
<polygon fill="#8dd3c7" stroke="black" points="1213.26,-149.8 1210.26,-153.8 1189.26,-153.8 1186.26,-149.8 1098.74,-149.8 1098.74,-113.8 1213.26,-113.8 1213.26,-149.8"/>
<text text-anchor="middle" x="1156" y="-127.6" font-family="Times,serif" font-size="14.00">InputTextModule</text>
</g>
<!-- CVAInputTextComponent&#45;&gt;InputTextModule -->
<g id="edge1" class="edge">
<title>CVAInputTextComponent&#45;&gt;InputTextModule</title>
<path fill="none" stroke="black" d="M2283,-84.89C2283,-107.93 2283,-144.8 2283,-144.8 2283,-144.8 1223.44,-144.8 1223.44,-144.8"/>
<polygon fill="black" stroke="black" points="1223.44,-141.3 1213.44,-144.8 1223.44,-148.3 1223.44,-141.3"/>
</g>
<!-- CVAInputTextExampleComponent -->
<g id="node2" class="node">
<title>CVAInputTextExampleComponent</title>
<polygon fill="#ffffb3" stroke="black" points="2181.85,-84.8 1966.15,-84.8 1966.15,-48.8 2181.85,-48.8 2181.85,-84.8"/>
<text text-anchor="middle" x="2074" y="-62.6" font-family="Times,serif" font-size="14.00">CVAInputTextExampleComponent</text>
</g>
<!-- CVAInputTextExampleComponent&#45;&gt;InputTextModule -->
<g id="edge2" class="edge">
<title>CVAInputTextExampleComponent&#45;&gt;InputTextModule</title>
<path fill="none" stroke="black" d="M2074,-85.08C2074,-106.12 2074,-137.8 2074,-137.8 2074,-137.8 1223.43,-137.8 1223.43,-137.8"/>
<polygon fill="black" stroke="black" points="1223.43,-134.3 1213.43,-137.8 1223.42,-141.3 1223.43,-134.3"/>
</g>
<!-- InputNumberMinMaxComponent -->
<g id="node3" class="node">
<title>InputNumberMinMaxComponent</title>
<polygon fill="#ffffb3" stroke="black" points="1947.75,-84.8 1742.25,-84.8 1742.25,-48.8 1947.75,-48.8 1947.75,-84.8"/>
<text text-anchor="middle" x="1845" y="-62.6" font-family="Times,serif" font-size="14.00">InputNumberMinMaxComponent</text>
</g>
<!-- InputNumberMinMaxComponent&#45;&gt;InputTextModule -->
<g id="edge3" class="edge">
<title>InputNumberMinMaxComponent&#45;&gt;InputTextModule</title>
<path fill="none" stroke="black" d="M1845,-84.91C1845,-104.14 1845,-131.8 1845,-131.8 1845,-131.8 1223.26,-131.8 1223.26,-131.8"/>
<polygon fill="black" stroke="black" points="1223.26,-128.3 1213.26,-131.8 1223.26,-135.3 1223.26,-128.3"/>
</g>
<!-- InputTextComponent -->
<g id="node4" class="node">
<title>InputTextComponent</title>
<polygon fill="#ffffb3" stroke="black" points="1724.04,-84.8 1587.96,-84.8 1587.96,-48.8 1724.04,-48.8 1724.04,-84.8"/>
<text text-anchor="middle" x="1656" y="-62.6" font-family="Times,serif" font-size="14.00">InputTextComponent</text>
</g>
<!-- InputTextComponent&#45;&gt;InputTextModule -->
<g id="edge4" class="edge">
<title>InputTextComponent&#45;&gt;InputTextModule</title>
<path fill="none" stroke="black" d="M1656,-84.82C1656,-102.17 1656,-125.8 1656,-125.8 1656,-125.8 1223.36,-125.8 1223.36,-125.8"/>
<polygon fill="black" stroke="black" points="1223.36,-122.3 1213.36,-125.8 1223.36,-129.3 1223.36,-122.3"/>
</g>
<!-- InputTextEmailComponent -->
<g id="node5" class="node">
<title>InputTextEmailComponent</title>
<polygon fill="#ffffb3" stroke="black" points="1569.98,-84.8 1400.02,-84.8 1400.02,-48.8 1569.98,-48.8 1569.98,-84.8"/>
<text text-anchor="middle" x="1485" y="-62.6" font-family="Times,serif" font-size="14.00">InputTextEmailComponent</text>
</g>
<!-- InputTextEmailComponent&#45;&gt;InputTextModule -->
<g id="edge5" class="edge">
<title>InputTextEmailComponent&#45;&gt;InputTextModule</title>
<path fill="none" stroke="black" d="M1485,-85.04C1485,-100.37 1485,-119.8 1485,-119.8 1485,-119.8 1223.31,-119.8 1223.31,-119.8"/>
<polygon fill="black" stroke="black" points="1223.31,-116.3 1213.31,-119.8 1223.31,-123.3 1223.31,-116.3"/>
</g>
<!-- InputTextMinMaxLengthComponent -->
<g id="node6" class="node">
<title>InputTextMinMaxLengthComponent</title>
<polygon fill="#ffffb3" stroke="black" points="1381.69,-84.8 1156.31,-84.8 1156.31,-48.8 1381.69,-48.8 1381.69,-84.8"/>
<text text-anchor="middle" x="1269" y="-62.6" font-family="Times,serif" font-size="14.00">InputTextMinMaxLengthComponent</text>
</g>
<!-- InputTextMinMaxLengthComponent&#45;&gt;InputTextModule -->
<g id="edge6" class="edge">
<title>InputTextMinMaxLengthComponent&#45;&gt;InputTextModule</title>
<path fill="none" stroke="black" d="M1184.89,-84.91C1184.89,-84.91 1184.89,-103.79 1184.89,-103.79"/>
<polygon fill="black" stroke="black" points="1181.39,-103.79 1184.89,-113.79 1188.39,-103.79 1181.39,-103.79"/>
</g>
<!-- InputTextRequiredComponent -->
<g id="node7" class="node">
<title>InputTextRequiredComponent</title>
<polygon fill="#ffffb3" stroke="black" points="1137.86,-84.8 950.14,-84.8 950.14,-48.8 1137.86,-48.8 1137.86,-84.8"/>
<text text-anchor="middle" x="1044" y="-62.6" font-family="Times,serif" font-size="14.00">InputTextRequiredComponent</text>
</g>
<!-- InputTextRequiredComponent&#45;&gt;InputTextModule -->
<g id="edge7" class="edge">
<title>InputTextRequiredComponent&#45;&gt;InputTextModule</title>
<path fill="none" stroke="black" d="M1118.27,-84.91C1118.27,-84.91 1118.27,-103.79 1118.27,-103.79"/>
<polygon fill="black" stroke="black" points="1114.77,-103.79 1118.27,-113.79 1121.77,-103.79 1114.77,-103.79"/>
</g>
<!-- InputTextSimpleComponent -->
<g id="node8" class="node">
<title>InputTextSimpleComponent</title>
<polygon fill="#ffffb3" stroke="black" points="932.21,-84.8 755.79,-84.8 755.79,-48.8 932.21,-48.8 932.21,-84.8"/>
<text text-anchor="middle" x="844" y="-62.6" font-family="Times,serif" font-size="14.00">InputTextSimpleComponent</text>
</g>
<!-- InputTextSimpleComponent&#45;&gt;InputTextModule -->
<g id="edge8" class="edge">
<title>InputTextSimpleComponent&#45;&gt;InputTextModule</title>
<path fill="none" stroke="black" d="M844,-85.04C844,-100.37 844,-119.8 844,-119.8 844,-119.8 1088.41,-119.8 1088.41,-119.8"/>
<polygon fill="black" stroke="black" points="1088.41,-123.3 1098.41,-119.8 1088.41,-116.3 1088.41,-123.3"/>
</g>
<!-- InputTextValidPatternComponent -->
<g id="node9" class="node">
<title>InputTextValidPatternComponent</title>
<polygon fill="#ffffb3" stroke="black" points="737.8,-84.8 530.2,-84.8 530.2,-48.8 737.8,-48.8 737.8,-84.8"/>
<text text-anchor="middle" x="634" y="-62.6" font-family="Times,serif" font-size="14.00">InputTextValidPatternComponent</text>
</g>
<!-- InputTextValidPatternComponent&#45;&gt;InputTextModule -->
<g id="edge9" class="edge">
<title>InputTextValidPatternComponent&#45;&gt;InputTextModule</title>
<path fill="none" stroke="black" d="M634,-84.82C634,-102.17 634,-125.8 634,-125.8 634,-125.8 1088.64,-125.8 1088.64,-125.8"/>
<polygon fill="black" stroke="black" points="1088.64,-129.3 1098.64,-125.8 1088.64,-122.3 1088.64,-129.3"/>
</g>
<!-- InputTextRoutingModule -->
<g id="node11" class="node">
<title>InputTextRoutingModule</title>
<polygon fill="#8dd3c7" stroke="black" points="299.88,-84.8 296.88,-88.8 275.88,-88.8 272.88,-84.8 140.12,-84.8 140.12,-48.8 299.88,-48.8 299.88,-84.8"/>
<text text-anchor="middle" x="220" y="-62.6" font-family="Times,serif" font-size="14.00">InputTextRoutingModule</text>
</g>
<!-- InputTextRoutingModule&#45;&gt;InputTextModule -->
<g id="edge10" class="edge">
<title>InputTextRoutingModule&#45;&gt;InputTextModule</title>
<path fill="none" stroke="black" d="M220,-85.08C220,-106.12 220,-137.8 220,-137.8 220,-137.8 1088.51,-137.8 1088.51,-137.8"/>
<polygon fill="black" stroke="black" points="1088.51,-141.3 1098.51,-137.8 1088.51,-134.3 1088.51,-141.3"/>
</g>
<!-- SharedModule -->
<g id="node12" class="node">
<title>SharedModule</title>
<polygon fill="#8dd3c7" stroke="black" points="122.42,-84.8 119.42,-88.8 98.42,-88.8 95.42,-84.8 23.58,-84.8 23.58,-48.8 122.42,-48.8 122.42,-84.8"/>
<text text-anchor="middle" x="73" y="-62.6" font-family="Times,serif" font-size="14.00">SharedModule</text>
</g>
<!-- SharedModule&#45;&gt;InputTextModule -->
<g id="edge11" class="edge">
<title>SharedModule&#45;&gt;InputTextModule</title>
<path fill="none" stroke="black" d="M73,-84.89C73,-107.93 73,-144.8 73,-144.8 73,-144.8 1088.54,-144.8 1088.54,-144.8"/>
<polygon fill="black" stroke="black" points="1088.54,-148.3 1098.54,-144.8 1088.54,-141.3 1088.54,-148.3"/>
</g>
<!-- StyleSelectorService -->
<g id="node13" class="node">
<title>StyleSelectorService</title>
<ellipse fill="#fdb462" stroke="black" cx="415" cy="-66.8" rx="91.46" ry="18"/>
<text text-anchor="middle" x="415" y="-62.6" font-family="Times,serif" font-size="14.00">StyleSelectorService</text>
</g>
<!-- StyleSelectorService&#45;&gt;InputTextModule -->
<g id="edge12" class="edge">
<title>StyleSelectorService&#45;&gt;InputTextModule</title>
<path fill="none" stroke="black" d="M415,-84.91C415,-104.14 415,-131.8 415,-131.8 415,-131.8 1088.47,-131.8 1088.47,-131.8"/>
<polygon fill="black" stroke="black" points="1088.47,-135.3 1098.47,-131.8 1088.47,-128.3 1088.47,-135.3"/>
</g>
</g>
</svg>
