<?xml version="1.0" encoding="UTF-8" standalone="no"?>
<!DOCTYPE svg PUBLIC "-//W3C//DTD SVG 1.1//EN"
 "http://www.w3.org/Graphics/SVG/1.1/DTD/svg11.dtd">
<!-- Generated by graphviz version 2.47.3 (20210619.1520)
 -->
<!-- Title: dependencies Pages: 1 -->
<svg width="678pt" height="174pt"
 viewBox="0.00 0.00 678.00 173.80" xmlns="http://www.w3.org/2000/svg" xmlns:xlink="http://www.w3.org/1999/xlink">
<g id="graph0" class="graph" transform="scale(1 1) rotate(0) translate(4 169.8)">
<title>dependencies</title>
<polygon fill="white" stroke="transparent" points="-4,4 -4,-169.8 674,-169.8 674,4 -4,4"/>
<text text-anchor="middle" x="335" y="-8.2" font-family="sans-serif" font-size="14.00">dependencies</text>
<g id="clust1" class="cluster">
<title>cluster_InputTextModule</title>
<polygon fill="none" stroke="black" stroke-dasharray="1,5" points="8,-32.8 8,-157.8 662,-157.8 662,-32.8 8,-32.8"/>
</g>
<g id="clust5" class="cluster">
<title>cluster_InputTextModule_imports</title>
<polygon fill="none" stroke="black" points="360,-40.8 360,-92.8 654,-92.8 654,-40.8 360,-40.8"/>
</g>
<g id="clust2" class="cluster">
<title>cluster_InputTextModule_declarations</title>
<polygon fill="none" stroke="black" points="16,-40.8 16,-92.8 352,-92.8 352,-40.8 16,-40.8"/>
</g>
<!-- CVAInputTextComponent -->
<g id="node1" class="node">
<title>CVAInputTextComponent</title>
<polygon fill="#ffffb3" stroke="black" points="344.09,-84.8 177.91,-84.8 177.91,-48.8 344.09,-48.8 344.09,-84.8"/>
<text text-anchor="middle" x="261" y="-62.6" font-family="Times,serif" font-size="14.00">CVAInputTextComponent</text>
</g>
<!-- InputTextModule -->
<g id="node3" class="node">
<title>InputTextModule</title>
<polygon fill="#8dd3c7" stroke="black" points="411.26,-149.8 408.26,-153.8 387.26,-153.8 384.26,-149.8 296.74,-149.8 296.74,-113.8 411.26,-113.8 411.26,-149.8"/>
<text text-anchor="middle" x="354" y="-127.6" font-family="Times,serif" font-size="14.00">InputTextModule</text>
</g>
<!-- CVAInputTextComponent&#45;&gt;InputTextModule -->
<g id="edge1" class="edge">
<title>CVAInputTextComponent&#45;&gt;InputTextModule</title>
<path fill="none" stroke="black" d="M320.33,-84.91C320.33,-84.91 320.33,-103.79 320.33,-103.79"/>
<polygon fill="black" stroke="black" points="316.83,-103.79 320.33,-113.79 323.83,-103.79 316.83,-103.79"/>
</g>
<!-- InputTextComponent -->
<g id="node2" class="node">
<title>InputTextComponent</title>
<polygon fill="#ffffb3" stroke="black" points="160.04,-84.8 23.96,-84.8 23.96,-48.8 160.04,-48.8 160.04,-84.8"/>
<text text-anchor="middle" x="92" y="-62.6" font-family="Times,serif" font-size="14.00">InputTextComponent</text>
</g>
<!-- InputTextComponent&#45;&gt;InputTextModule -->
<g id="edge2" class="edge">
<title>InputTextComponent&#45;&gt;InputTextModule</title>
<path fill="none" stroke="black" d="M92,-84.91C92,-104.14 92,-131.8 92,-131.8 92,-131.8 286.5,-131.8 286.5,-131.8"/>
<polygon fill="black" stroke="black" points="286.5,-135.3 296.5,-131.8 286.5,-128.3 286.5,-135.3"/>
</g>
<!-- ComunModule -->
<g id="node4" class="node">
<title>ComunModule</title>
<polygon fill="#8dd3c7" stroke="black" points="646.28,-84.8 643.28,-88.8 622.28,-88.8 619.28,-84.8 545.72,-84.8 545.72,-48.8 646.28,-48.8 646.28,-84.8"/>
<text text-anchor="middle" x="596" y="-62.6" font-family="Times,serif" font-size="14.00">ComunModule</text>
</g>
<!-- ComunModule&#45;&gt;InputTextModule -->
<g id="edge3" class="edge">
<title>ComunModule&#45;&gt;InputTextModule</title>
<path fill="none" stroke="black" d="M596,-84.91C596,-104.14 596,-131.8 596,-131.8 596,-131.8 421.35,-131.8 421.35,-131.8"/>
<polygon fill="black" stroke="black" points="421.35,-128.3 411.35,-131.8 421.35,-135.3 421.35,-128.3"/>
</g>
<!-- InputTextRoutingModule -->
<g id="node5" class="node">
<title>InputTextRoutingModule</title>
<polygon fill="#8dd3c7" stroke="black" points="527.88,-84.8 524.88,-88.8 503.88,-88.8 500.88,-84.8 368.12,-84.8 368.12,-48.8 527.88,-48.8 527.88,-84.8"/>
<text text-anchor="middle" x="448" y="-62.6" font-family="Times,serif" font-size="14.00">InputTextRoutingModule</text>
</g>
<!-- InputTextRoutingModule&#45;&gt;InputTextModule -->
<g id="edge4" class="edge">
<title>InputTextRoutingModule&#45;&gt;InputTextModule</title>
<path fill="none" stroke="black" d="M389.72,-84.91C389.72,-84.91 389.72,-103.79 389.72,-103.79"/>
<polygon fill="black" stroke="black" points="386.22,-103.79 389.72,-113.79 393.22,-103.79 386.22,-103.79"/>
</g>
</g>
</svg>
