<?xml version="1.0" encoding="UTF-8" standalone="no"?>
<!DOCTYPE svg PUBLIC "-//W3C//DTD SVG 1.1//EN"
 "http://www.w3.org/Graphics/SVG/1.1/DTD/svg11.dtd">
<!-- Generated by graphviz version 2.47.3 (20210619.1520)
 -->
<!-- Title: dependencies Pages: 1 -->
<svg width="420pt" height="247pt"
 viewBox="0.00 0.00 420.00 246.80" xmlns="http://www.w3.org/2000/svg" xmlns:xlink="http://www.w3.org/1999/xlink">
<g id="graph0" class="graph" transform="scale(1 1) rotate(0) translate(4 242.8)">
<title>dependencies</title>
<polygon fill="white" stroke="transparent" points="-4,4 -4,-242.8 416,-242.8 416,4 -4,4"/>
<text text-anchor="middle" x="206" y="-8.2" font-family="sans-serif" font-size="14.00">dependencies</text>
<g id="clust1" class="cluster">
<title>cluster_SharedModule</title>
<polygon fill="none" stroke="black" stroke-dasharray="1,5" points="8,-32.8 8,-230.8 404,-230.8 404,-32.8 8,-32.8"/>
</g>
<g id="clust6" class="cluster">
<title>cluster_SharedModule_exports</title>
<polygon fill="none" stroke="black" points="16,-170.8 16,-222.8 396,-222.8 396,-170.8 16,-170.8"/>
</g>
<g id="clust2" class="cluster">
<title>cluster_SharedModule_declarations</title>
<polygon fill="none" stroke="black" points="20,-40.8 20,-92.8 392,-92.8 392,-40.8 20,-40.8"/>
</g>
<!-- ControlDataTableComponent -->
<g id="node1" class="node">
<title>ControlDataTableComponent</title>
<polygon fill="#ffffb3" stroke="black" points="384.41,-84.8 201.59,-84.8 201.59,-48.8 384.41,-48.8 384.41,-84.8"/>
<text text-anchor="middle" x="293" y="-62.6" font-family="Times,serif" font-size="14.00">ControlDataTableComponent</text>
</g>
<!-- SharedModule -->
<g id="node3" class="node">
<title>SharedModule</title>
<polygon fill="#8dd3c7" stroke="black" points="156.42,-149.8 153.42,-153.8 132.42,-153.8 129.42,-149.8 57.58,-149.8 57.58,-113.8 156.42,-113.8 156.42,-149.8"/>
<text text-anchor="middle" x="107" y="-127.6" font-family="Times,serif" font-size="14.00">SharedModule</text>
</g>
<!-- ControlDataTableComponent&#45;&gt;SharedModule -->
<g id="edge1" class="edge">
<title>ControlDataTableComponent&#45;&gt;SharedModule</title>
<path fill="none" stroke="black" d="M323.48,-84.82C323.48,-102.17 323.48,-125.8 323.48,-125.8 323.48,-125.8 166.39,-125.8 166.39,-125.8"/>
<polygon fill="black" stroke="black" points="166.39,-122.3 156.39,-125.8 166.39,-129.3 166.39,-122.3"/>
</g>
<!-- StyleSelectorComponent -->
<g id="node2" class="node">
<title>StyleSelectorComponent</title>
<polygon fill="#ffffb3" stroke="black" points="183.98,-84.8 28.02,-84.8 28.02,-48.8 183.98,-48.8 183.98,-84.8"/>
<text text-anchor="middle" x="106" y="-62.6" font-family="Times,serif" font-size="14.00">StyleSelectorComponent</text>
</g>
<!-- StyleSelectorComponent&#45;&gt;SharedModule -->
<g id="edge2" class="edge">
<title>StyleSelectorComponent&#45;&gt;SharedModule</title>
<path fill="none" stroke="black" d="M107,-84.91C107,-84.91 107,-103.79 107,-103.79"/>
<polygon fill="black" stroke="black" points="103.5,-103.79 107,-113.79 110.5,-103.79 103.5,-103.79"/>
</g>
<!-- ControlDataTableComponent  -->
<g id="node4" class="node">
<title>ControlDataTableComponent </title>
<polygon fill="#fb8072" stroke="black" points="387.91,-214.8 202.09,-214.8 202.09,-178.8 387.91,-178.8 387.91,-214.8"/>
<text text-anchor="middle" x="295" y="-192.6" font-family="Times,serif" font-size="14.00">ControlDataTableComponent </text>
</g>
<!-- SharedModule&#45;&gt;ControlDataTableComponent  -->
<g id="edge3" class="edge">
<title>SharedModule&#45;&gt;ControlDataTableComponent </title>
<path fill="none" stroke="black" stroke-dasharray="5,2" d="M156.29,-137.8C201.92,-137.8 262.77,-137.8 262.77,-137.8 262.77,-137.8 262.77,-168.78 262.77,-168.78"/>
<polygon fill="black" stroke="black" points="259.27,-168.78 262.77,-178.78 266.27,-168.78 259.27,-168.78"/>
</g>
<!-- StyleSelectorComponent  -->
<g id="node5" class="node">
<title>StyleSelectorComponent </title>
<polygon fill="#fb8072" stroke="black" points="183.98,-214.8 24.02,-214.8 24.02,-178.8 183.98,-178.8 183.98,-214.8"/>
<text text-anchor="middle" x="104" y="-192.6" font-family="Times,serif" font-size="14.00">StyleSelectorComponent </text>
</g>
<!-- SharedModule&#45;&gt;StyleSelectorComponent  -->
<g id="edge4" class="edge">
<title>SharedModule&#45;&gt;StyleSelectorComponent </title>
<path fill="none" stroke="black" stroke-dasharray="5,2" d="M107,-149.91C107,-149.91 107,-168.79 107,-168.79"/>
<polygon fill="black" stroke="black" points="103.5,-168.79 107,-178.79 110.5,-168.79 103.5,-168.79"/>
</g>
</g>
</svg>
