<?xml version="1.0" encoding="UTF-8" standalone="no"?>
<!DOCTYPE svg PUBLIC "-//W3C//DTD SVG 1.1//EN"
 "http://www.w3.org/Graphics/SVG/1.1/DTD/svg11.dtd">
<!-- Generated by graphviz version 2.47.3 (20210619.1520)
 -->
<!-- Title: dependencies Pages: 1 -->
<svg width="206pt" height="247pt"
 viewBox="0.00 0.00 206.00 246.80" xmlns="http://www.w3.org/2000/svg" xmlns:xlink="http://www.w3.org/1999/xlink">
<g id="graph0" class="graph" transform="scale(1 1) rotate(0) translate(4 242.8)">
<title>dependencies</title>
<polygon fill="white" stroke="transparent" points="-4,4 -4,-242.8 202,-242.8 202,4 -4,4"/>
<text text-anchor="middle" x="99" y="-8.2" font-family="sans-serif" font-size="14.00">dependencies</text>
<g id="clust1" class="cluster">
<title>cluster_ComunModule</title>
<polygon fill="none" stroke="black" stroke-dasharray="1,5" points="8,-32.8 8,-230.8 190,-230.8 190,-32.8 8,-32.8"/>
</g>
<g id="clust5" class="cluster">
<title>cluster_ComunModule_exports</title>
<polygon fill="none" stroke="black" points="16,-170.8 16,-222.8 182,-222.8 182,-170.8 16,-170.8"/>
</g>
<g id="clust2" class="cluster">
<title>cluster_ComunModule_declarations</title>
<polygon fill="none" stroke="black" points="18,-40.8 18,-92.8 180,-92.8 180,-40.8 18,-40.8"/>
</g>
<!-- TablaDatosComponent -->
<g id="node1" class="node">
<title>TablaDatosComponent</title>
<polygon fill="#ffffb3" stroke="black" points="171.86,-84.8 26.14,-84.8 26.14,-48.8 171.86,-48.8 171.86,-84.8"/>
<text text-anchor="middle" x="99" y="-62.6" font-family="Times,serif" font-size="14.00">TablaDatosComponent</text>
</g>
<!-- ComunModule -->
<g id="node2" class="node">
<title>ComunModule</title>
<polygon fill="#8dd3c7" stroke="black" points="149.28,-149.8 146.28,-153.8 125.28,-153.8 122.28,-149.8 48.72,-149.8 48.72,-113.8 149.28,-113.8 149.28,-149.8"/>
<text text-anchor="middle" x="99" y="-127.6" font-family="Times,serif" font-size="14.00">ComunModule</text>
</g>
<!-- TablaDatosComponent&#45;&gt;ComunModule -->
<g id="edge1" class="edge">
<title>TablaDatosComponent&#45;&gt;ComunModule</title>
<path fill="none" stroke="black" d="M99,-84.91C99,-84.91 99,-103.79 99,-103.79"/>
<polygon fill="black" stroke="black" points="95.5,-103.79 99,-113.79 102.5,-103.79 95.5,-103.79"/>
</g>
<!-- TablaDatosComponent  -->
<g id="node3" class="node">
<title>TablaDatosComponent </title>
<polygon fill="#fb8072" stroke="black" points="173.86,-214.8 24.14,-214.8 24.14,-178.8 173.86,-178.8 173.86,-214.8"/>
<text text-anchor="middle" x="99" y="-192.6" font-family="Times,serif" font-size="14.00">TablaDatosComponent </text>
</g>
<!-- ComunModule&#45;&gt;TablaDatosComponent  -->
<g id="edge2" class="edge">
<title>ComunModule&#45;&gt;TablaDatosComponent </title>
<path fill="none" stroke="black" stroke-dasharray="5,2" d="M99,-149.91C99,-149.91 99,-168.79 99,-168.79"/>
<polygon fill="black" stroke="black" points="95.5,-168.79 99,-178.79 102.5,-168.79 95.5,-168.79"/>
</g>
</g>
</svg>
