<?xml version="1.0" encoding="UTF-8" standalone="no"?>
<!DOCTYPE svg PUBLIC "-//W3C//DTD SVG 1.1//EN"
 "http://www.w3.org/Graphics/SVG/1.1/DTD/svg11.dtd">
<!-- Generated by graphviz version 2.47.3 (20210619.1520)
 -->
<!-- Title: dependencies Pages: 1 -->
<svg width="1047pt" height="174pt"
 viewBox="0.00 0.00 1047.00 173.80" xmlns="http://www.w3.org/2000/svg" xmlns:xlink="http://www.w3.org/1999/xlink">
<g id="graph0" class="graph" transform="scale(1 1) rotate(0) translate(4 169.8)">
<title>dependencies</title>
<polygon fill="white" stroke="transparent" points="-4,4 -4,-169.8 1043,-169.8 1043,4 -4,4"/>
<text text-anchor="middle" x="519.5" y="-8.2" font-family="sans-serif" font-size="14.00">dependencies</text>
<g id="clust1" class="cluster">
<title>cluster_SelectorModule</title>
<polygon fill="none" stroke="black" stroke-dasharray="1,5" points="8,-32.8 8,-157.8 1031,-157.8 1031,-32.8 8,-32.8"/>
</g>
<g id="clust6" class="cluster">
<title>cluster_SelectorModule_imports</title>
<polygon fill="none" stroke="black" points="741,-40.8 741,-92.8 1023,-92.8 1023,-40.8 741,-40.8"/>
</g>
<g id="clust9" class="cluster">
<title>cluster_SelectorModule_providers</title>
<polygon fill="none" stroke="black" points="535,-40.8 535,-92.8 733,-92.8 733,-40.8 535,-40.8"/>
</g>
<g id="clust2" class="cluster">
<title>cluster_SelectorModule_declarations</title>
<polygon fill="none" stroke="black" points="16,-40.8 16,-92.8 527,-92.8 527,-40.8 16,-40.8"/>
</g>
<!-- CVASelectorComponent -->
<g id="node1" class="node">
<title>CVASelectorComponent</title>
<polygon fill="#ffffb3" stroke="black" points="519.25,-84.8 362.75,-84.8 362.75,-48.8 519.25,-48.8 519.25,-84.8"/>
<text text-anchor="middle" x="441" y="-62.6" font-family="Times,serif" font-size="14.00">CVASelectorComponent</text>
</g>
<!-- SelectorModule -->
<g id="node4" class="node">
<title>SelectorModule</title>
<polygon fill="#8dd3c7" stroke="black" points="589.92,-149.8 586.92,-153.8 565.92,-153.8 562.92,-149.8 484.08,-149.8 484.08,-113.8 589.92,-113.8 589.92,-149.8"/>
<text text-anchor="middle" x="537" y="-127.6" font-family="Times,serif" font-size="14.00">SelectorModule</text>
</g>
<!-- CVASelectorComponent&#45;&gt;SelectorModule -->
<g id="edge1" class="edge">
<title>CVASelectorComponent&#45;&gt;SelectorModule</title>
<path fill="none" stroke="black" d="M501.83,-84.91C501.83,-84.91 501.83,-103.79 501.83,-103.79"/>
<polygon fill="black" stroke="black" points="498.33,-103.79 501.83,-113.79 505.33,-103.79 498.33,-103.79"/>
</g>
<!-- MaterialSelectorComponent -->
<g id="node2" class="node">
<title>MaterialSelectorComponent</title>
<polygon fill="#ffffb3" stroke="black" points="344.12,-84.8 169.88,-84.8 169.88,-48.8 344.12,-48.8 344.12,-84.8"/>
<text text-anchor="middle" x="257" y="-62.6" font-family="Times,serif" font-size="14.00">MaterialSelectorComponent</text>
</g>
<!-- MaterialSelectorComponent&#45;&gt;SelectorModule -->
<g id="edge2" class="edge">
<title>MaterialSelectorComponent&#45;&gt;SelectorModule</title>
<path fill="none" stroke="black" d="M257,-84.82C257,-102.17 257,-125.8 257,-125.8 257,-125.8 474,-125.8 474,-125.8"/>
<polygon fill="black" stroke="black" points="474,-129.3 484,-125.8 474,-122.3 474,-129.3"/>
</g>
<!-- SelectorComponent -->
<g id="node3" class="node">
<title>SelectorComponent</title>
<polygon fill="#ffffb3" stroke="black" points="151.7,-84.8 24.3,-84.8 24.3,-48.8 151.7,-48.8 151.7,-84.8"/>
<text text-anchor="middle" x="88" y="-62.6" font-family="Times,serif" font-size="14.00">SelectorComponent</text>
</g>
<!-- SelectorComponent&#45;&gt;SelectorModule -->
<g id="edge3" class="edge">
<title>SelectorComponent&#45;&gt;SelectorModule</title>
<path fill="none" stroke="black" d="M88,-85.08C88,-106.12 88,-137.8 88,-137.8 88,-137.8 474.17,-137.8 474.17,-137.8"/>
<polygon fill="black" stroke="black" points="474.17,-141.3 484.17,-137.8 474.17,-134.3 474.17,-141.3"/>
</g>
<!-- SelectorRoutingModule -->
<g id="node5" class="node">
<title>SelectorRoutingModule</title>
<polygon fill="#8dd3c7" stroke="black" points="1015.04,-84.8 1012.04,-88.8 991.04,-88.8 988.04,-84.8 864.96,-84.8 864.96,-48.8 1015.04,-48.8 1015.04,-84.8"/>
<text text-anchor="middle" x="940" y="-62.6" font-family="Times,serif" font-size="14.00">SelectorRoutingModule</text>
</g>
<!-- SelectorRoutingModule&#45;&gt;SelectorModule -->
<g id="edge4" class="edge">
<title>SelectorRoutingModule&#45;&gt;SelectorModule</title>
<path fill="none" stroke="black" d="M940,-85.08C940,-106.12 940,-137.8 940,-137.8 940,-137.8 600.1,-137.8 600.1,-137.8"/>
<polygon fill="black" stroke="black" points="600.1,-134.3 590.1,-137.8 600.1,-141.3 600.1,-134.3"/>
</g>
<!-- SharedModule -->
<g id="node6" class="node">
<title>SharedModule</title>
<polygon fill="#8dd3c7" stroke="black" points="847.42,-84.8 844.42,-88.8 823.42,-88.8 820.42,-84.8 748.58,-84.8 748.58,-48.8 847.42,-48.8 847.42,-84.8"/>
<text text-anchor="middle" x="798" y="-62.6" font-family="Times,serif" font-size="14.00">SharedModule</text>
</g>
<!-- SharedModule&#45;&gt;SelectorModule -->
<g id="edge5" class="edge">
<title>SharedModule&#45;&gt;SelectorModule</title>
<path fill="none" stroke="black" d="M798,-84.82C798,-102.17 798,-125.8 798,-125.8 798,-125.8 599.82,-125.8 599.82,-125.8"/>
<polygon fill="black" stroke="black" points="599.82,-122.3 589.82,-125.8 599.82,-129.3 599.82,-122.3"/>
</g>
<!-- StyleSelectorService -->
<g id="node7" class="node">
<title>StyleSelectorService</title>
<ellipse fill="#fdb462" stroke="black" cx="634" cy="-66.8" rx="91.46" ry="18"/>
<text text-anchor="middle" x="634" y="-62.6" font-family="Times,serif" font-size="14.00">StyleSelectorService</text>
</g>
<!-- StyleSelectorService&#45;&gt;SelectorModule -->
<g id="edge6" class="edge">
<title>StyleSelectorService&#45;&gt;SelectorModule</title>
<path fill="none" stroke="black" d="M566.11,-79.03C566.11,-79.03 566.11,-103.48 566.11,-103.48"/>
<polygon fill="black" stroke="black" points="562.61,-103.48 566.11,-113.48 569.61,-103.48 562.61,-103.48"/>
</g>
</g>
</svg>
