<?xml version="1.0" encoding="UTF-8" standalone="no"?>
<!DOCTYPE svg PUBLIC "-//W3C//DTD SVG 1.1//EN"
 "http://www.w3.org/Graphics/SVG/1.1/DTD/svg11.dtd">
<!-- Generated by graphviz version 2.47.3 (20210619.1520)
 -->
<!-- Title: dependencies Pages: 1 -->
<svg width="651pt" height="174pt"
 viewBox="0.00 0.00 651.00 173.80" xmlns="http://www.w3.org/2000/svg" xmlns:xlink="http://www.w3.org/1999/xlink">
<g id="graph0" class="graph" transform="scale(1 1) rotate(0) translate(4 169.8)">
<title>dependencies</title>
<polygon fill="white" stroke="transparent" points="-4,4 -4,-169.8 647,-169.8 647,4 -4,4"/>
<text text-anchor="middle" x="321.5" y="-8.2" font-family="sans-serif" font-size="14.00">dependencies</text>
<g id="clust1" class="cluster">
<title>cluster_SelectorModule</title>
<polygon fill="none" stroke="black" stroke-dasharray="1,5" points="8,-32.8 8,-157.8 635,-157.8 635,-32.8 8,-32.8"/>
</g>
<g id="clust2" class="cluster">
<title>cluster_SelectorModule_declarations</title>
<polygon fill="none" stroke="black" points="309,-40.8 309,-92.8 627,-92.8 627,-40.8 309,-40.8"/>
</g>
<g id="clust5" class="cluster">
<title>cluster_SelectorModule_imports</title>
<polygon fill="none" stroke="black" points="16,-40.8 16,-92.8 301,-92.8 301,-40.8 16,-40.8"/>
</g>
<!-- CVASelectorComponent -->
<g id="node1" class="node">
<title>CVASelectorComponent</title>
<polygon fill="#ffffb3" stroke="black" points="619.25,-84.8 462.75,-84.8 462.75,-48.8 619.25,-48.8 619.25,-84.8"/>
<text text-anchor="middle" x="541" y="-62.6" font-family="Times,serif" font-size="14.00">CVASelectorComponent</text>
</g>
<!-- SelectorModule -->
<g id="node3" class="node">
<title>SelectorModule</title>
<polygon fill="#8dd3c7" stroke="black" points="364.92,-149.8 361.92,-153.8 340.92,-153.8 337.92,-149.8 259.08,-149.8 259.08,-113.8 364.92,-113.8 364.92,-149.8"/>
<text text-anchor="middle" x="312" y="-127.6" font-family="Times,serif" font-size="14.00">SelectorModule</text>
</g>
<!-- CVASelectorComponent&#45;&gt;SelectorModule -->
<g id="edge1" class="edge">
<title>CVASelectorComponent&#45;&gt;SelectorModule</title>
<path fill="none" stroke="black" d="M541,-84.91C541,-104.14 541,-131.8 541,-131.8 541,-131.8 374.82,-131.8 374.82,-131.8"/>
<polygon fill="black" stroke="black" points="374.82,-128.3 364.82,-131.8 374.82,-135.3 374.82,-128.3"/>
</g>
<!-- SelectorComponent -->
<g id="node2" class="node">
<title>SelectorComponent</title>
<polygon fill="#ffffb3" stroke="black" points="444.7,-84.8 317.3,-84.8 317.3,-48.8 444.7,-48.8 444.7,-84.8"/>
<text text-anchor="middle" x="381" y="-62.6" font-family="Times,serif" font-size="14.00">SelectorComponent</text>
</g>
<!-- SelectorComponent&#45;&gt;SelectorModule -->
<g id="edge2" class="edge">
<title>SelectorComponent&#45;&gt;SelectorModule</title>
<path fill="none" stroke="black" d="M341.05,-84.91C341.05,-84.91 341.05,-103.79 341.05,-103.79"/>
<polygon fill="black" stroke="black" points="337.55,-103.79 341.05,-113.79 344.55,-103.79 337.55,-103.79"/>
</g>
<!-- ComunModule -->
<g id="node4" class="node">
<title>ComunModule</title>
<polygon fill="#8dd3c7" stroke="black" points="293.28,-84.8 290.28,-88.8 269.28,-88.8 266.28,-84.8 192.72,-84.8 192.72,-48.8 293.28,-48.8 293.28,-84.8"/>
<text text-anchor="middle" x="243" y="-62.6" font-family="Times,serif" font-size="14.00">ComunModule</text>
</g>
<!-- ComunModule&#45;&gt;SelectorModule -->
<g id="edge3" class="edge">
<title>ComunModule&#45;&gt;SelectorModule</title>
<path fill="none" stroke="black" d="M276.34,-84.91C276.34,-84.91 276.34,-103.79 276.34,-103.79"/>
<polygon fill="black" stroke="black" points="272.84,-103.79 276.34,-113.79 279.84,-103.79 272.84,-103.79"/>
</g>
<!-- SelectorRoutingModule -->
<g id="node5" class="node">
<title>SelectorRoutingModule</title>
<polygon fill="#8dd3c7" stroke="black" points="174.04,-84.8 171.04,-88.8 150.04,-88.8 147.04,-84.8 23.96,-84.8 23.96,-48.8 174.04,-48.8 174.04,-84.8"/>
<text text-anchor="middle" x="99" y="-62.6" font-family="Times,serif" font-size="14.00">SelectorRoutingModule</text>
</g>
<!-- SelectorRoutingModule&#45;&gt;SelectorModule -->
<g id="edge4" class="edge">
<title>SelectorRoutingModule&#45;&gt;SelectorModule</title>
<path fill="none" stroke="black" d="M99,-84.91C99,-104.14 99,-131.8 99,-131.8 99,-131.8 249.07,-131.8 249.07,-131.8"/>
<polygon fill="black" stroke="black" points="249.07,-135.3 259.07,-131.8 249.07,-128.3 249.07,-135.3"/>
</g>
</g>
</svg>
