<?xml version="1.0" encoding="UTF-8" standalone="no"?>
<!DOCTYPE svg PUBLIC "-//W3C//DTD SVG 1.1//EN"
 "http://www.w3.org/Graphics/SVG/1.1/DTD/svg11.dtd">
<!-- Generated by graphviz version 2.47.3 (20210619.1520)
 -->
<!-- Title: dependencies Pages: 1 -->
<svg width="841pt" height="174pt"
 viewBox="0.00 0.00 841.00 173.80" xmlns="http://www.w3.org/2000/svg" xmlns:xlink="http://www.w3.org/1999/xlink">
<g id="graph0" class="graph" transform="scale(1 1) rotate(0) translate(4 169.8)">
<title>dependencies</title>
<polygon fill="white" stroke="transparent" points="-4,4 -4,-169.8 837,-169.8 837,4 -4,4"/>
<text text-anchor="middle" x="416.5" y="-8.2" font-family="sans-serif" font-size="14.00">dependencies</text>
<g id="clust1" class="cluster">
<title>cluster_SelectorModule</title>
<polygon fill="none" stroke="black" stroke-dasharray="1,5" points="8,-32.8 8,-157.8 825,-157.8 825,-32.8 8,-32.8"/>
</g>
<g id="clust2" class="cluster">
<title>cluster_SelectorModule_declarations</title>
<polygon fill="none" stroke="black" points="306,-40.8 306,-92.8 817,-92.8 817,-40.8 306,-40.8"/>
</g>
<g id="clust6" class="cluster">
<title>cluster_SelectorModule_imports</title>
<polygon fill="none" stroke="black" points="16,-40.8 16,-92.8 298,-92.8 298,-40.8 16,-40.8"/>
</g>
<!-- CVASelectorComponent -->
<g id="node1" class="node">
<title>CVASelectorComponent</title>
<polygon fill="#ffffb3" stroke="black" points="809.25,-84.8 652.75,-84.8 652.75,-48.8 809.25,-48.8 809.25,-84.8"/>
<text text-anchor="middle" x="731" y="-62.6" font-family="Times,serif" font-size="14.00">CVASelectorComponent</text>
</g>
<!-- SelectorModule -->
<g id="node4" class="node">
<title>SelectorModule</title>
<polygon fill="#8dd3c7" stroke="black" points="430.92,-149.8 427.92,-153.8 406.92,-153.8 403.92,-149.8 325.08,-149.8 325.08,-113.8 430.92,-113.8 430.92,-149.8"/>
<text text-anchor="middle" x="378" y="-127.6" font-family="Times,serif" font-size="14.00">SelectorModule</text>
</g>
<!-- CVASelectorComponent&#45;&gt;SelectorModule -->
<g id="edge1" class="edge">
<title>CVASelectorComponent&#45;&gt;SelectorModule</title>
<path fill="none" stroke="black" d="M731,-85.08C731,-106.12 731,-137.8 731,-137.8 731,-137.8 440.85,-137.8 440.85,-137.8"/>
<polygon fill="black" stroke="black" points="440.85,-134.3 430.85,-137.8 440.85,-141.3 440.85,-134.3"/>
</g>
<!-- MaterialSelectorComponent -->
<g id="node2" class="node">
<title>MaterialSelectorComponent</title>
<polygon fill="#ffffb3" stroke="black" points="634.12,-84.8 459.88,-84.8 459.88,-48.8 634.12,-48.8 634.12,-84.8"/>
<text text-anchor="middle" x="547" y="-62.6" font-family="Times,serif" font-size="14.00">MaterialSelectorComponent</text>
</g>
<!-- MaterialSelectorComponent&#45;&gt;SelectorModule -->
<g id="edge2" class="edge">
<title>MaterialSelectorComponent&#45;&gt;SelectorModule</title>
<path fill="none" stroke="black" d="M547,-84.82C547,-102.17 547,-125.8 547,-125.8 547,-125.8 441.01,-125.8 441.01,-125.8"/>
<polygon fill="black" stroke="black" points="441.01,-122.3 431.01,-125.8 441.01,-129.3 441.01,-122.3"/>
</g>
<!-- SelectorComponent -->
<g id="node3" class="node">
<title>SelectorComponent</title>
<polygon fill="#ffffb3" stroke="black" points="441.7,-84.8 314.3,-84.8 314.3,-48.8 441.7,-48.8 441.7,-84.8"/>
<text text-anchor="middle" x="378" y="-62.6" font-family="Times,serif" font-size="14.00">SelectorComponent</text>
</g>
<!-- SelectorComponent&#45;&gt;SelectorModule -->
<g id="edge3" class="edge">
<title>SelectorComponent&#45;&gt;SelectorModule</title>
<path fill="none" stroke="black" d="M378,-84.91C378,-84.91 378,-103.79 378,-103.79"/>
<polygon fill="black" stroke="black" points="374.5,-103.79 378,-113.79 381.5,-103.79 374.5,-103.79"/>
</g>
<!-- SelectorRoutingModule -->
<g id="node5" class="node">
<title>SelectorRoutingModule</title>
<polygon fill="#8dd3c7" stroke="black" points="290.04,-84.8 287.04,-88.8 266.04,-88.8 263.04,-84.8 139.96,-84.8 139.96,-48.8 290.04,-48.8 290.04,-84.8"/>
<text text-anchor="middle" x="215" y="-62.6" font-family="Times,serif" font-size="14.00">SelectorRoutingModule</text>
</g>
<!-- SelectorRoutingModule&#45;&gt;SelectorModule -->
<g id="edge4" class="edge">
<title>SelectorRoutingModule&#45;&gt;SelectorModule</title>
<path fill="none" stroke="black" d="M215,-84.82C215,-102.17 215,-125.8 215,-125.8 215,-125.8 315.08,-125.8 315.08,-125.8"/>
<polygon fill="black" stroke="black" points="315.08,-129.3 325.08,-125.8 315.08,-122.3 315.08,-129.3"/>
</g>
<!-- SharedModule -->
<g id="node6" class="node">
<title>SharedModule</title>
<polygon fill="#8dd3c7" stroke="black" points="122.42,-84.8 119.42,-88.8 98.42,-88.8 95.42,-84.8 23.58,-84.8 23.58,-48.8 122.42,-48.8 122.42,-84.8"/>
<text text-anchor="middle" x="73" y="-62.6" font-family="Times,serif" font-size="14.00">SharedModule</text>
</g>
<!-- SharedModule&#45;&gt;SelectorModule -->
<g id="edge5" class="edge">
<title>SharedModule&#45;&gt;SelectorModule</title>
<path fill="none" stroke="black" d="M73,-85.08C73,-106.12 73,-137.8 73,-137.8 73,-137.8 315.22,-137.8 315.22,-137.8"/>
<polygon fill="black" stroke="black" points="315.22,-141.3 325.22,-137.8 315.22,-134.3 315.22,-141.3"/>
</g>
</g>
</svg>
