<?xml version="1.0" encoding="UTF-8" standalone="no"?>
<!DOCTYPE svg PUBLIC "-//W3C//DTD SVG 1.1//EN"
 "http://www.w3.org/Graphics/SVG/1.1/DTD/svg11.dtd">
<!-- Generated by graphviz version 2.47.3 (20210619.1520)
 -->
<!-- Title: dependencies Pages: 1 -->
<svg width="1231pt" height="174pt"
 viewBox="0.00 0.00 1231.00 173.80" xmlns="http://www.w3.org/2000/svg" xmlns:xlink="http://www.w3.org/1999/xlink">
<g id="graph0" class="graph" transform="scale(1 1) rotate(0) translate(4 169.8)">
<title>dependencies</title>
<polygon fill="white" stroke="transparent" points="-4,4 -4,-169.8 1227,-169.8 1227,4 -4,4"/>
<text text-anchor="middle" x="611.5" y="-8.2" font-family="sans-serif" font-size="14.00">dependencies</text>
<g id="clust1" class="cluster">
<title>cluster_SelectorModule</title>
<polygon fill="none" stroke="black" stroke-dasharray="1,5" points="8,-32.8 8,-157.8 1215,-157.8 1215,-32.8 8,-32.8"/>
</g>
<g id="clust10" class="cluster">
<title>cluster_SelectorModule_providers</title>
<polygon fill="none" stroke="black" points="1009,-40.8 1009,-92.8 1207,-92.8 1207,-40.8 1009,-40.8"/>
</g>
<g id="clust7" class="cluster">
<title>cluster_SelectorModule_imports</title>
<polygon fill="none" stroke="black" points="719,-40.8 719,-92.8 1001,-92.8 1001,-40.8 719,-40.8"/>
</g>
<g id="clust2" class="cluster">
<title>cluster_SelectorModule_declarations</title>
<polygon fill="none" stroke="black" points="16,-40.8 16,-92.8 711,-92.8 711,-40.8 16,-40.8"/>
</g>
<!-- CVASelectorComponent -->
<g id="node1" class="node">
<title>CVASelectorComponent</title>
<polygon fill="#ffffb3" stroke="black" points="703.25,-84.8 546.75,-84.8 546.75,-48.8 703.25,-48.8 703.25,-84.8"/>
<text text-anchor="middle" x="625" y="-62.6" font-family="Times,serif" font-size="14.00">CVASelectorComponent</text>
</g>
<!-- SelectorModule -->
<g id="node5" class="node">
<title>SelectorModule</title>
<polygon fill="#8dd3c7" stroke="black" points="677.92,-149.8 674.92,-153.8 653.92,-153.8 650.92,-149.8 572.08,-149.8 572.08,-113.8 677.92,-113.8 677.92,-149.8"/>
<text text-anchor="middle" x="625" y="-127.6" font-family="Times,serif" font-size="14.00">SelectorModule</text>
</g>
<!-- CVASelectorComponent&#45;&gt;SelectorModule -->
<g id="edge1" class="edge">
<title>CVASelectorComponent&#45;&gt;SelectorModule</title>
<path fill="none" stroke="black" d="M625,-84.91C625,-84.91 625,-103.79 625,-103.79"/>
<polygon fill="black" stroke="black" points="621.5,-103.79 625,-113.79 628.5,-103.79 621.5,-103.79"/>
</g>
<!-- MaterialSelectorComponent -->
<g id="node2" class="node">
<title>MaterialSelectorComponent</title>
<polygon fill="#ffffb3" stroke="black" points="528.12,-84.8 353.88,-84.8 353.88,-48.8 528.12,-48.8 528.12,-84.8"/>
<text text-anchor="middle" x="441" y="-62.6" font-family="Times,serif" font-size="14.00">MaterialSelectorComponent</text>
</g>
<!-- MaterialSelectorComponent&#45;&gt;SelectorModule -->
<g id="edge2" class="edge">
<title>MaterialSelectorComponent&#45;&gt;SelectorModule</title>
<path fill="none" stroke="black" d="M441,-84.83C441,-101.2 441,-122.8 441,-122.8 441,-122.8 562.27,-122.8 562.27,-122.8"/>
<polygon fill="black" stroke="black" points="562.27,-126.3 572.27,-122.8 562.27,-119.3 562.27,-126.3"/>
</g>
<!-- SelectorComponent -->
<g id="node3" class="node">
<title>SelectorComponent</title>
<polygon fill="#ffffb3" stroke="black" points="335.7,-84.8 208.3,-84.8 208.3,-48.8 335.7,-48.8 335.7,-84.8"/>
<text text-anchor="middle" x="272" y="-62.6" font-family="Times,serif" font-size="14.00">SelectorComponent</text>
</g>
<!-- SelectorComponent&#45;&gt;SelectorModule -->
<g id="edge3" class="edge">
<title>SelectorComponent&#45;&gt;SelectorModule</title>
<path fill="none" stroke="black" d="M272,-84.91C272,-104.14 272,-131.8 272,-131.8 272,-131.8 562.15,-131.8 562.15,-131.8"/>
<polygon fill="black" stroke="black" points="562.15,-135.3 572.15,-131.8 562.15,-128.3 562.15,-135.3"/>
</g>
<!-- SimpleSelectorComponent -->
<g id="node4" class="node">
<title>SimpleSelectorComponent</title>
<polygon fill="#ffffb3" stroke="black" points="190.37,-84.8 23.63,-84.8 23.63,-48.8 190.37,-48.8 190.37,-84.8"/>
<text text-anchor="middle" x="107" y="-62.6" font-family="Times,serif" font-size="14.00">SimpleSelectorComponent</text>
</g>
<!-- SimpleSelectorComponent&#45;&gt;SelectorModule -->
<g id="edge4" class="edge">
<title>SimpleSelectorComponent&#45;&gt;SelectorModule</title>
<path fill="none" stroke="black" d="M107,-85.09C107,-107.01 107,-140.8 107,-140.8 107,-140.8 562,-140.8 562,-140.8"/>
<polygon fill="black" stroke="black" points="562,-144.3 572,-140.8 562,-137.3 562,-144.3"/>
</g>
<!-- SelectorRoutingModule -->
<g id="node6" class="node">
<title>SelectorRoutingModule</title>
<polygon fill="#8dd3c7" stroke="black" points="993.04,-84.8 990.04,-88.8 969.04,-88.8 966.04,-84.8 842.96,-84.8 842.96,-48.8 993.04,-48.8 993.04,-84.8"/>
<text text-anchor="middle" x="918" y="-62.6" font-family="Times,serif" font-size="14.00">SelectorRoutingModule</text>
</g>
<!-- SelectorRoutingModule&#45;&gt;SelectorModule -->
<g id="edge5" class="edge">
<title>SelectorRoutingModule&#45;&gt;SelectorModule</title>
<path fill="none" stroke="black" d="M918,-84.91C918,-104.14 918,-131.8 918,-131.8 918,-131.8 687.72,-131.8 687.72,-131.8"/>
<polygon fill="black" stroke="black" points="687.72,-128.3 677.72,-131.8 687.72,-135.3 687.72,-128.3"/>
</g>
<!-- SharedModule -->
<g id="node7" class="node">
<title>SharedModule</title>
<polygon fill="#8dd3c7" stroke="black" points="825.42,-84.8 822.42,-88.8 801.42,-88.8 798.42,-84.8 726.58,-84.8 726.58,-48.8 825.42,-48.8 825.42,-84.8"/>
<text text-anchor="middle" x="776" y="-62.6" font-family="Times,serif" font-size="14.00">SharedModule</text>
</g>
<!-- SharedModule&#45;&gt;SelectorModule -->
<g id="edge6" class="edge">
<title>SharedModule&#45;&gt;SelectorModule</title>
<path fill="none" stroke="black" d="M776,-84.83C776,-101.2 776,-122.8 776,-122.8 776,-122.8 687.81,-122.8 687.81,-122.8"/>
<polygon fill="black" stroke="black" points="687.81,-119.3 677.81,-122.8 687.81,-126.3 687.81,-119.3"/>
</g>
<!-- StyleSelectorService -->
<g id="node8" class="node">
<title>StyleSelectorService</title>
<ellipse fill="#fdb462" stroke="black" cx="1108" cy="-66.8" rx="91.46" ry="18"/>
<text text-anchor="middle" x="1108" y="-62.6" font-family="Times,serif" font-size="14.00">StyleSelectorService</text>
</g>
<!-- StyleSelectorService&#45;&gt;SelectorModule -->
<g id="edge7" class="edge">
<title>StyleSelectorService&#45;&gt;SelectorModule</title>
<path fill="none" stroke="black" d="M1108,-85.09C1108,-107.01 1108,-140.8 1108,-140.8 1108,-140.8 688.07,-140.8 688.07,-140.8"/>
<polygon fill="black" stroke="black" points="688.07,-137.3 678.07,-140.8 688.07,-144.3 688.07,-137.3"/>
</g>
</g>
</svg>
