<?xml version="1.0" encoding="UTF-8" standalone="no"?>
<!DOCTYPE svg PUBLIC "-//W3C//DTD SVG 1.1//EN"
 "http://www.w3.org/Graphics/SVG/1.1/DTD/svg11.dtd">
<!-- Generated by graphviz version 2.47.3 (20210619.1520)
 -->
<!-- Title: dependencies Pages: 1 -->
<svg width="358pt" height="174pt"
 viewBox="0.00 0.00 358.00 173.80" xmlns="http://www.w3.org/2000/svg" xmlns:xlink="http://www.w3.org/1999/xlink">
<g id="graph0" class="graph" transform="scale(1 1) rotate(0) translate(4 169.8)">
<title>dependencies</title>
<polygon fill="white" stroke="transparent" points="-4,4 -4,-169.8 354,-169.8 354,4 -4,4"/>
<text text-anchor="middle" x="175" y="-8.2" font-family="sans-serif" font-size="14.00">dependencies</text>
<g id="clust1" class="cluster">
<title>cluster_SelectorModule</title>
<polygon fill="none" stroke="black" stroke-dasharray="1,5" points="8,-32.8 8,-157.8 342,-157.8 342,-32.8 8,-32.8"/>
</g>
<g id="clust4" class="cluster">
<title>cluster_SelectorModule_imports</title>
<polygon fill="none" stroke="black" points="168,-40.8 168,-92.8 334,-92.8 334,-40.8 168,-40.8"/>
</g>
<g id="clust2" class="cluster">
<title>cluster_SelectorModule_declarations</title>
<polygon fill="none" stroke="black" points="16,-40.8 16,-92.8 160,-92.8 160,-40.8 16,-40.8"/>
</g>
<!-- SelectorComponent -->
<g id="node1" class="node">
<title>SelectorComponent</title>
<polygon fill="#ffffb3" stroke="black" points="151.7,-84.8 24.3,-84.8 24.3,-48.8 151.7,-48.8 151.7,-84.8"/>
<text text-anchor="middle" x="88" y="-62.6" font-family="Times,serif" font-size="14.00">SelectorComponent</text>
</g>
<!-- SelectorModule -->
<g id="node2" class="node">
<title>SelectorModule</title>
<polygon fill="#8dd3c7" stroke="black" points="221.92,-149.8 218.92,-153.8 197.92,-153.8 194.92,-149.8 116.08,-149.8 116.08,-113.8 221.92,-113.8 221.92,-149.8"/>
<text text-anchor="middle" x="169" y="-127.6" font-family="Times,serif" font-size="14.00">SelectorModule</text>
</g>
<!-- SelectorComponent&#45;&gt;SelectorModule -->
<g id="edge1" class="edge">
<title>SelectorComponent&#45;&gt;SelectorModule</title>
<path fill="none" stroke="black" d="M133.95,-84.91C133.95,-84.91 133.95,-103.79 133.95,-103.79"/>
<polygon fill="black" stroke="black" points="130.45,-103.79 133.95,-113.79 137.45,-103.79 130.45,-103.79"/>
</g>
<!-- SelectorRoutingModule -->
<g id="node3" class="node">
<title>SelectorRoutingModule</title>
<polygon fill="#8dd3c7" stroke="black" points="326.04,-84.8 323.04,-88.8 302.04,-88.8 299.04,-84.8 175.96,-84.8 175.96,-48.8 326.04,-48.8 326.04,-84.8"/>
<text text-anchor="middle" x="251" y="-62.6" font-family="Times,serif" font-size="14.00">SelectorRoutingModule</text>
</g>
<!-- SelectorRoutingModule&#45;&gt;SelectorModule -->
<g id="edge2" class="edge">
<title>SelectorRoutingModule&#45;&gt;SelectorModule</title>
<path fill="none" stroke="black" d="M198.72,-84.91C198.72,-84.91 198.72,-103.79 198.72,-103.79"/>
<polygon fill="black" stroke="black" points="195.22,-103.79 198.72,-113.79 202.22,-103.79 195.22,-103.79"/>
</g>
</g>
</svg>
