<?xml version="1.0" encoding="UTF-8" standalone="no"?>
<!DOCTYPE svg PUBLIC "-//W3C//DTD SVG 1.1//EN"
 "http://www.w3.org/Graphics/SVG/1.1/DTD/svg11.dtd">
<!-- Generated by graphviz version 2.47.3 (20210619.1520)
 -->
<!-- Title: dependencies Pages: 1 -->
<svg width="2194pt" height="174pt"
 viewBox="0.00 0.00 2194.00 173.80" xmlns="http://www.w3.org/2000/svg" xmlns:xlink="http://www.w3.org/1999/xlink">
<g id="graph0" class="graph" transform="scale(1 1) rotate(0) translate(4 169.8)">
<title>dependencies</title>
<polygon fill="white" stroke="transparent" points="-4,4 -4,-169.8 2190,-169.8 2190,4 -4,4"/>
<text text-anchor="middle" x="1093" y="-8.2" font-family="sans-serif" font-size="14.00">dependencies</text>
<g id="clust1" class="cluster">
<title>cluster_InputTextModule</title>
<polygon fill="none" stroke="black" stroke-dasharray="1,5" points="8,-32.8 8,-157.8 2178,-157.8 2178,-32.8 8,-32.8"/>
</g>
<g id="clust12" class="cluster">
<title>cluster_InputTextModule_imports</title>
<polygon fill="none" stroke="black" points="1876,-40.8 1876,-92.8 2170,-92.8 2170,-40.8 1876,-40.8"/>
</g>
<g id="clust2" class="cluster">
<title>cluster_InputTextModule_declarations</title>
<polygon fill="none" stroke="black" points="16,-40.8 16,-92.8 1868,-92.8 1868,-40.8 16,-40.8"/>
</g>
<!-- CVAInputTextComponent -->
<g id="node1" class="node">
<title>CVAInputTextComponent</title>
<polygon fill="#ffffb3" stroke="black" points="1860.09,-84.8 1693.91,-84.8 1693.91,-48.8 1860.09,-48.8 1860.09,-84.8"/>
<text text-anchor="middle" x="1777" y="-62.6" font-family="Times,serif" font-size="14.00">CVAInputTextComponent</text>
</g>
<!-- InputTextModule -->
<g id="node10" class="node">
<title>InputTextModule</title>
<polygon fill="#8dd3c7" stroke="black" points="1207.26,-149.8 1204.26,-153.8 1183.26,-153.8 1180.26,-149.8 1092.74,-149.8 1092.74,-113.8 1207.26,-113.8 1207.26,-149.8"/>
<text text-anchor="middle" x="1150" y="-127.6" font-family="Times,serif" font-size="14.00">InputTextModule</text>
</g>
<!-- CVAInputTextComponent&#45;&gt;InputTextModule -->
<g id="edge1" class="edge">
<title>CVAInputTextComponent&#45;&gt;InputTextModule</title>
<path fill="none" stroke="black" d="M1777,-84.91C1777,-104.14 1777,-131.8 1777,-131.8 1777,-131.8 1217.3,-131.8 1217.3,-131.8"/>
<polygon fill="black" stroke="black" points="1217.3,-128.3 1207.3,-131.8 1217.3,-135.3 1217.3,-128.3"/>
</g>
<!-- CVAInputTextExampleComponent -->
<g id="node2" class="node">
<title>CVAInputTextExampleComponent</title>
<polygon fill="#ffffb3" stroke="black" points="1675.85,-84.8 1460.15,-84.8 1460.15,-48.8 1675.85,-48.8 1675.85,-84.8"/>
<text text-anchor="middle" x="1568" y="-62.6" font-family="Times,serif" font-size="14.00">CVAInputTextExampleComponent</text>
</g>
<!-- CVAInputTextExampleComponent&#45;&gt;InputTextModule -->
<g id="edge2" class="edge">
<title>CVAInputTextExampleComponent&#45;&gt;InputTextModule</title>
<path fill="none" stroke="black" d="M1568,-84.82C1568,-102.17 1568,-125.8 1568,-125.8 1568,-125.8 1217.68,-125.8 1217.68,-125.8"/>
<polygon fill="black" stroke="black" points="1217.68,-122.3 1207.68,-125.8 1217.68,-129.3 1217.68,-122.3"/>
</g>
<!-- InputNumberMinMaxComponent -->
<g id="node3" class="node">
<title>InputNumberMinMaxComponent</title>
<polygon fill="#ffffb3" stroke="black" points="1441.75,-84.8 1236.25,-84.8 1236.25,-48.8 1441.75,-48.8 1441.75,-84.8"/>
<text text-anchor="middle" x="1339" y="-62.6" font-family="Times,serif" font-size="14.00">InputNumberMinMaxComponent</text>
</g>
<!-- InputNumberMinMaxComponent&#45;&gt;InputTextModule -->
<g id="edge3" class="edge">
<title>InputNumberMinMaxComponent&#45;&gt;InputTextModule</title>
<path fill="none" stroke="black" d="M1339,-85.04C1339,-100.37 1339,-119.8 1339,-119.8 1339,-119.8 1217.48,-119.8 1217.48,-119.8"/>
<polygon fill="black" stroke="black" points="1217.48,-116.3 1207.48,-119.8 1217.48,-123.3 1217.48,-116.3"/>
</g>
<!-- InputTextComponent -->
<g id="node4" class="node">
<title>InputTextComponent</title>
<polygon fill="#ffffb3" stroke="black" points="1218.04,-84.8 1081.96,-84.8 1081.96,-48.8 1218.04,-48.8 1218.04,-84.8"/>
<text text-anchor="middle" x="1150" y="-62.6" font-family="Times,serif" font-size="14.00">InputTextComponent</text>
</g>
<!-- InputTextComponent&#45;&gt;InputTextModule -->
<g id="edge4" class="edge">
<title>InputTextComponent&#45;&gt;InputTextModule</title>
<path fill="none" stroke="black" d="M1150,-84.91C1150,-84.91 1150,-103.79 1150,-103.79"/>
<polygon fill="black" stroke="black" points="1146.5,-103.79 1150,-113.79 1153.5,-103.79 1146.5,-103.79"/>
</g>
<!-- InputTextEmailComponent -->
<g id="node5" class="node">
<title>InputTextEmailComponent</title>
<polygon fill="#ffffb3" stroke="black" points="1063.98,-84.8 894.02,-84.8 894.02,-48.8 1063.98,-48.8 1063.98,-84.8"/>
<text text-anchor="middle" x="979" y="-62.6" font-family="Times,serif" font-size="14.00">InputTextEmailComponent</text>
</g>
<!-- InputTextEmailComponent&#45;&gt;InputTextModule -->
<g id="edge5" class="edge">
<title>InputTextEmailComponent&#45;&gt;InputTextModule</title>
<path fill="none" stroke="black" d="M979,-85.04C979,-100.37 979,-119.8 979,-119.8 979,-119.8 1082.58,-119.8 1082.58,-119.8"/>
<polygon fill="black" stroke="black" points="1082.58,-123.3 1092.58,-119.8 1082.58,-116.3 1082.58,-123.3"/>
</g>
<!-- InputTextMinMaxLengthComponent -->
<g id="node6" class="node">
<title>InputTextMinMaxLengthComponent</title>
<polygon fill="#ffffb3" stroke="black" points="875.69,-84.8 650.31,-84.8 650.31,-48.8 875.69,-48.8 875.69,-84.8"/>
<text text-anchor="middle" x="763" y="-62.6" font-family="Times,serif" font-size="14.00">InputTextMinMaxLengthComponent</text>
</g>
<!-- InputTextMinMaxLengthComponent&#45;&gt;InputTextModule -->
<g id="edge6" class="edge">
<title>InputTextMinMaxLengthComponent&#45;&gt;InputTextModule</title>
<path fill="none" stroke="black" d="M763,-84.82C763,-102.17 763,-125.8 763,-125.8 763,-125.8 1082.48,-125.8 1082.48,-125.8"/>
<polygon fill="black" stroke="black" points="1082.48,-129.3 1092.48,-125.8 1082.48,-122.3 1082.48,-129.3"/>
</g>
<!-- InputTextRequiredComponent -->
<g id="node7" class="node">
<title>InputTextRequiredComponent</title>
<polygon fill="#ffffb3" stroke="black" points="631.86,-84.8 444.14,-84.8 444.14,-48.8 631.86,-48.8 631.86,-84.8"/>
<text text-anchor="middle" x="538" y="-62.6" font-family="Times,serif" font-size="14.00">InputTextRequiredComponent</text>
</g>
<!-- InputTextRequiredComponent&#45;&gt;InputTextModule -->
<g id="edge7" class="edge">
<title>InputTextRequiredComponent&#45;&gt;InputTextModule</title>
<path fill="none" stroke="black" d="M538,-84.91C538,-104.14 538,-131.8 538,-131.8 538,-131.8 1082.7,-131.8 1082.7,-131.8"/>
<polygon fill="black" stroke="black" points="1082.7,-135.3 1092.7,-131.8 1082.7,-128.3 1082.7,-135.3"/>
</g>
<!-- InputTextSimpleComponent -->
<g id="node8" class="node">
<title>InputTextSimpleComponent</title>
<polygon fill="#ffffb3" stroke="black" points="426.21,-84.8 249.79,-84.8 249.79,-48.8 426.21,-48.8 426.21,-84.8"/>
<text text-anchor="middle" x="338" y="-62.6" font-family="Times,serif" font-size="14.00">InputTextSimpleComponent</text>
</g>
<!-- InputTextSimpleComponent&#45;&gt;InputTextModule -->
<g id="edge8" class="edge">
<title>InputTextSimpleComponent&#45;&gt;InputTextModule</title>
<path fill="none" stroke="black" d="M338,-85.08C338,-106.12 338,-137.8 338,-137.8 338,-137.8 1082.58,-137.8 1082.58,-137.8"/>
<polygon fill="black" stroke="black" points="1082.58,-141.3 1092.58,-137.8 1082.58,-134.3 1082.58,-141.3"/>
</g>
<!-- InputTextValidPatternComponent -->
<g id="node9" class="node">
<title>InputTextValidPatternComponent</title>
<polygon fill="#ffffb3" stroke="black" points="231.8,-84.8 24.2,-84.8 24.2,-48.8 231.8,-48.8 231.8,-84.8"/>
<text text-anchor="middle" x="128" y="-62.6" font-family="Times,serif" font-size="14.00">InputTextValidPatternComponent</text>
</g>
<!-- InputTextValidPatternComponent&#45;&gt;InputTextModule -->
<g id="edge9" class="edge">
<title>InputTextValidPatternComponent&#45;&gt;InputTextModule</title>
<path fill="none" stroke="black" d="M128,-84.89C128,-107.93 128,-144.8 128,-144.8 128,-144.8 1082.49,-144.8 1082.49,-144.8"/>
<polygon fill="black" stroke="black" points="1082.49,-148.3 1092.49,-144.8 1082.49,-141.3 1082.49,-148.3"/>
</g>
<!-- ComunModule -->
<g id="node11" class="node">
<title>ComunModule</title>
<polygon fill="#8dd3c7" stroke="black" points="2162.28,-84.8 2159.28,-88.8 2138.28,-88.8 2135.28,-84.8 2061.72,-84.8 2061.72,-48.8 2162.28,-48.8 2162.28,-84.8"/>
<text text-anchor="middle" x="2112" y="-62.6" font-family="Times,serif" font-size="14.00">ComunModule</text>
</g>
<!-- ComunModule&#45;&gt;InputTextModule -->
<g id="edge10" class="edge">
<title>ComunModule&#45;&gt;InputTextModule</title>
<path fill="none" stroke="black" d="M2112,-84.89C2112,-107.93 2112,-144.8 2112,-144.8 2112,-144.8 1217.3,-144.8 1217.3,-144.8"/>
<polygon fill="black" stroke="black" points="1217.3,-141.3 1207.3,-144.8 1217.3,-148.3 1217.3,-141.3"/>
</g>
<!-- InputTextRoutingModule -->
<g id="node12" class="node">
<title>InputTextRoutingModule</title>
<polygon fill="#8dd3c7" stroke="black" points="2043.88,-84.8 2040.88,-88.8 2019.88,-88.8 2016.88,-84.8 1884.12,-84.8 1884.12,-48.8 2043.88,-48.8 2043.88,-84.8"/>
<text text-anchor="middle" x="1964" y="-62.6" font-family="Times,serif" font-size="14.00">InputTextRoutingModule</text>
</g>
<!-- InputTextRoutingModule&#45;&gt;InputTextModule -->
<g id="edge11" class="edge">
<title>InputTextRoutingModule&#45;&gt;InputTextModule</title>
<path fill="none" stroke="black" d="M1964,-85.08C1964,-106.12 1964,-137.8 1964,-137.8 1964,-137.8 1217.56,-137.8 1217.56,-137.8"/>
<polygon fill="black" stroke="black" points="1217.56,-134.3 1207.56,-137.8 1217.56,-141.3 1217.56,-134.3"/>
</g>
</g>
</svg>
