<?xml version="1.0" encoding="UTF-8" standalone="no"?>
<!DOCTYPE svg PUBLIC "-//W3C//DTD SVG 1.1//EN"
 "http://www.w3.org/Graphics/SVG/1.1/DTD/svg11.dtd">
<!-- Generated by graphviz version 2.47.3 (20210619.1520)
 -->
<!-- Title: dependencies Pages: 1 -->
<svg width="2398pt" height="174pt"
 viewBox="0.00 0.00 2398.00 173.80" xmlns="http://www.w3.org/2000/svg" xmlns:xlink="http://www.w3.org/1999/xlink">
<g id="graph0" class="graph" transform="scale(1 1) rotate(0) translate(4 169.8)">
<title>dependencies</title>
<polygon fill="white" stroke="transparent" points="-4,4 -4,-169.8 2394,-169.8 2394,4 -4,4"/>
<text text-anchor="middle" x="1195" y="-8.2" font-family="sans-serif" font-size="14.00">dependencies</text>
<g id="clust1" class="cluster">
<title>cluster_InputTextModule</title>
<polygon fill="none" stroke="black" stroke-dasharray="1,5" points="8,-32.8 8,-157.8 2382,-157.8 2382,-32.8 8,-32.8"/>
</g>
<g id="clust12" class="cluster">
<title>cluster_InputTextModule_imports</title>
<polygon fill="none" stroke="black" points="2082,-40.8 2082,-92.8 2374,-92.8 2374,-40.8 2082,-40.8"/>
</g>
<g id="clust2" class="cluster">
<title>cluster_InputTextModule_declarations</title>
<polygon fill="none" stroke="black" points="222,-40.8 222,-92.8 2074,-92.8 2074,-40.8 222,-40.8"/>
</g>
<g id="clust15" class="cluster">
<title>cluster_InputTextModule_providers</title>
<polygon fill="none" stroke="black" points="16,-40.8 16,-92.8 214,-92.8 214,-40.8 16,-40.8"/>
</g>
<!-- CVAInputTextComponent -->
<g id="node1" class="node">
<title>CVAInputTextComponent</title>
<polygon fill="#ffffb3" stroke="black" points="2066.09,-84.8 1899.91,-84.8 1899.91,-48.8 2066.09,-48.8 2066.09,-84.8"/>
<text text-anchor="middle" x="1983" y="-62.6" font-family="Times,serif" font-size="14.00">CVAInputTextComponent</text>
</g>
<!-- InputTextModule -->
<g id="node10" class="node">
<title>InputTextModule</title>
<polygon fill="#8dd3c7" stroke="black" points="1327.26,-149.8 1324.26,-153.8 1303.26,-153.8 1300.26,-149.8 1212.74,-149.8 1212.74,-113.8 1327.26,-113.8 1327.26,-149.8"/>
<text text-anchor="middle" x="1270" y="-127.6" font-family="Times,serif" font-size="14.00">InputTextModule</text>
</g>
<!-- CVAInputTextComponent&#45;&gt;InputTextModule -->
<g id="edge1" class="edge">
<title>CVAInputTextComponent&#45;&gt;InputTextModule</title>
<path fill="none" stroke="black" d="M1983,-84.91C1983,-104.14 1983,-131.8 1983,-131.8 1983,-131.8 1337.44,-131.8 1337.44,-131.8"/>
<polygon fill="black" stroke="black" points="1337.44,-128.3 1327.44,-131.8 1337.44,-135.3 1337.44,-128.3"/>
</g>
<!-- CVAInputTextExampleComponent -->
<g id="node2" class="node">
<title>CVAInputTextExampleComponent</title>
<polygon fill="#ffffb3" stroke="black" points="1881.85,-84.8 1666.15,-84.8 1666.15,-48.8 1881.85,-48.8 1881.85,-84.8"/>
<text text-anchor="middle" x="1774" y="-62.6" font-family="Times,serif" font-size="14.00">CVAInputTextExampleComponent</text>
</g>
<!-- CVAInputTextExampleComponent&#45;&gt;InputTextModule -->
<g id="edge2" class="edge">
<title>CVAInputTextExampleComponent&#45;&gt;InputTextModule</title>
<path fill="none" stroke="black" d="M1774,-84.82C1774,-102.17 1774,-125.8 1774,-125.8 1774,-125.8 1337.32,-125.8 1337.32,-125.8"/>
<polygon fill="black" stroke="black" points="1337.32,-122.3 1327.32,-125.8 1337.32,-129.3 1337.32,-122.3"/>
</g>
<!-- InputNumberMinMaxComponent -->
<g id="node3" class="node">
<title>InputNumberMinMaxComponent</title>
<polygon fill="#ffffb3" stroke="black" points="1647.75,-84.8 1442.25,-84.8 1442.25,-48.8 1647.75,-48.8 1647.75,-84.8"/>
<text text-anchor="middle" x="1545" y="-62.6" font-family="Times,serif" font-size="14.00">InputNumberMinMaxComponent</text>
</g>
<!-- InputNumberMinMaxComponent&#45;&gt;InputTextModule -->
<g id="edge3" class="edge">
<title>InputNumberMinMaxComponent&#45;&gt;InputTextModule</title>
<path fill="none" stroke="black" d="M1545,-85.04C1545,-100.37 1545,-119.8 1545,-119.8 1545,-119.8 1337.31,-119.8 1337.31,-119.8"/>
<polygon fill="black" stroke="black" points="1337.31,-116.3 1327.31,-119.8 1337.31,-123.3 1337.31,-116.3"/>
</g>
<!-- InputTextComponent -->
<g id="node4" class="node">
<title>InputTextComponent</title>
<polygon fill="#ffffb3" stroke="black" points="1424.04,-84.8 1287.96,-84.8 1287.96,-48.8 1424.04,-48.8 1424.04,-84.8"/>
<text text-anchor="middle" x="1356" y="-62.6" font-family="Times,serif" font-size="14.00">InputTextComponent</text>
</g>
<!-- InputTextComponent&#45;&gt;InputTextModule -->
<g id="edge4" class="edge">
<title>InputTextComponent&#45;&gt;InputTextModule</title>
<path fill="none" stroke="black" d="M1307.55,-84.91C1307.55,-84.91 1307.55,-103.79 1307.55,-103.79"/>
<polygon fill="black" stroke="black" points="1304.05,-103.79 1307.55,-113.79 1311.05,-103.79 1304.05,-103.79"/>
</g>
<!-- InputTextEmailComponent -->
<g id="node5" class="node">
<title>InputTextEmailComponent</title>
<polygon fill="#ffffb3" stroke="black" points="1269.98,-84.8 1100.02,-84.8 1100.02,-48.8 1269.98,-48.8 1269.98,-84.8"/>
<text text-anchor="middle" x="1185" y="-62.6" font-family="Times,serif" font-size="14.00">InputTextEmailComponent</text>
</g>
<!-- InputTextEmailComponent&#45;&gt;InputTextModule -->
<g id="edge5" class="edge">
<title>InputTextEmailComponent&#45;&gt;InputTextModule</title>
<path fill="none" stroke="black" d="M1241.31,-84.91C1241.31,-84.91 1241.31,-103.79 1241.31,-103.79"/>
<polygon fill="black" stroke="black" points="1237.81,-103.79 1241.31,-113.79 1244.81,-103.79 1237.81,-103.79"/>
</g>
<!-- InputTextMinMaxLengthComponent -->
<g id="node6" class="node">
<title>InputTextMinMaxLengthComponent</title>
<polygon fill="#ffffb3" stroke="black" points="1081.69,-84.8 856.31,-84.8 856.31,-48.8 1081.69,-48.8 1081.69,-84.8"/>
<text text-anchor="middle" x="969" y="-62.6" font-family="Times,serif" font-size="14.00">InputTextMinMaxLengthComponent</text>
</g>
<!-- InputTextMinMaxLengthComponent&#45;&gt;InputTextModule -->
<g id="edge6" class="edge">
<title>InputTextMinMaxLengthComponent&#45;&gt;InputTextModule</title>
<path fill="none" stroke="black" d="M969,-85.04C969,-100.37 969,-119.8 969,-119.8 969,-119.8 1202.68,-119.8 1202.68,-119.8"/>
<polygon fill="black" stroke="black" points="1202.68,-123.3 1212.68,-119.8 1202.68,-116.3 1202.68,-123.3"/>
</g>
<!-- InputTextRequiredComponent -->
<g id="node7" class="node">
<title>InputTextRequiredComponent</title>
<polygon fill="#ffffb3" stroke="black" points="837.86,-84.8 650.14,-84.8 650.14,-48.8 837.86,-48.8 837.86,-84.8"/>
<text text-anchor="middle" x="744" y="-62.6" font-family="Times,serif" font-size="14.00">InputTextRequiredComponent</text>
</g>
<!-- InputTextRequiredComponent&#45;&gt;InputTextModule -->
<g id="edge7" class="edge">
<title>InputTextRequiredComponent&#45;&gt;InputTextModule</title>
<path fill="none" stroke="black" d="M744,-84.82C744,-102.17 744,-125.8 744,-125.8 744,-125.8 1202.71,-125.8 1202.71,-125.8"/>
<polygon fill="black" stroke="black" points="1202.71,-129.3 1212.71,-125.8 1202.71,-122.3 1202.71,-129.3"/>
</g>
<!-- InputTextSimpleComponent -->
<g id="node8" class="node">
<title>InputTextSimpleComponent</title>
<polygon fill="#ffffb3" stroke="black" points="632.21,-84.8 455.79,-84.8 455.79,-48.8 632.21,-48.8 632.21,-84.8"/>
<text text-anchor="middle" x="544" y="-62.6" font-family="Times,serif" font-size="14.00">InputTextSimpleComponent</text>
</g>
<!-- InputTextSimpleComponent&#45;&gt;InputTextModule -->
<g id="edge8" class="edge">
<title>InputTextSimpleComponent&#45;&gt;InputTextModule</title>
<path fill="none" stroke="black" d="M544,-84.91C544,-104.14 544,-131.8 544,-131.8 544,-131.8 1202.73,-131.8 1202.73,-131.8"/>
<polygon fill="black" stroke="black" points="1202.73,-135.3 1212.73,-131.8 1202.73,-128.3 1202.73,-135.3"/>
</g>
<!-- InputTextValidPatternComponent -->
<g id="node9" class="node">
<title>InputTextValidPatternComponent</title>
<polygon fill="#ffffb3" stroke="black" points="437.8,-84.8 230.2,-84.8 230.2,-48.8 437.8,-48.8 437.8,-84.8"/>
<text text-anchor="middle" x="334" y="-62.6" font-family="Times,serif" font-size="14.00">InputTextValidPatternComponent</text>
</g>
<!-- InputTextValidPatternComponent&#45;&gt;InputTextModule -->
<g id="edge9" class="edge">
<title>InputTextValidPatternComponent&#45;&gt;InputTextModule</title>
<path fill="none" stroke="black" d="M334,-85.08C334,-106.12 334,-137.8 334,-137.8 334,-137.8 1202.51,-137.8 1202.51,-137.8"/>
<polygon fill="black" stroke="black" points="1202.51,-141.3 1212.51,-137.8 1202.51,-134.3 1202.51,-141.3"/>
</g>
<!-- InputTextRoutingModule -->
<g id="node11" class="node">
<title>InputTextRoutingModule</title>
<polygon fill="#8dd3c7" stroke="black" points="2365.88,-84.8 2362.88,-88.8 2341.88,-88.8 2338.88,-84.8 2206.12,-84.8 2206.12,-48.8 2365.88,-48.8 2365.88,-84.8"/>
<text text-anchor="middle" x="2286" y="-62.6" font-family="Times,serif" font-size="14.00">InputTextRoutingModule</text>
</g>
<!-- InputTextRoutingModule&#45;&gt;InputTextModule -->
<g id="edge10" class="edge">
<title>InputTextRoutingModule&#45;&gt;InputTextModule</title>
<path fill="none" stroke="black" d="M2286,-84.89C2286,-107.93 2286,-144.8 2286,-144.8 2286,-144.8 1337.54,-144.8 1337.54,-144.8"/>
<polygon fill="black" stroke="black" points="1337.54,-141.3 1327.54,-144.8 1337.54,-148.3 1337.54,-141.3"/>
</g>
<!-- SharedModule -->
<g id="node12" class="node">
<title>SharedModule</title>
<polygon fill="#8dd3c7" stroke="black" points="2188.42,-84.8 2185.42,-88.8 2164.42,-88.8 2161.42,-84.8 2089.58,-84.8 2089.58,-48.8 2188.42,-48.8 2188.42,-84.8"/>
<text text-anchor="middle" x="2139" y="-62.6" font-family="Times,serif" font-size="14.00">SharedModule</text>
</g>
<!-- SharedModule&#45;&gt;InputTextModule -->
<g id="edge11" class="edge">
<title>SharedModule&#45;&gt;InputTextModule</title>
<path fill="none" stroke="black" d="M2139,-85.08C2139,-106.12 2139,-137.8 2139,-137.8 2139,-137.8 1337.35,-137.8 1337.35,-137.8"/>
<polygon fill="black" stroke="black" points="1337.35,-134.3 1327.35,-137.8 1337.35,-141.3 1337.35,-134.3"/>
</g>
<!-- StyleSelectorService -->
<g id="node13" class="node">
<title>StyleSelectorService</title>
<ellipse fill="#fdb462" stroke="black" cx="115" cy="-66.8" rx="91.46" ry="18"/>
<text text-anchor="middle" x="115" y="-62.6" font-family="Times,serif" font-size="14.00">StyleSelectorService</text>
</g>
<!-- StyleSelectorService&#45;&gt;InputTextModule -->
<g id="edge12" class="edge">
<title>StyleSelectorService&#45;&gt;InputTextModule</title>
<path fill="none" stroke="black" d="M115,-84.89C115,-107.93 115,-144.8 115,-144.8 115,-144.8 1202.72,-144.8 1202.72,-144.8"/>
<polygon fill="black" stroke="black" points="1202.72,-148.3 1212.72,-144.8 1202.72,-141.3 1202.72,-148.3"/>
</g>
</g>
</svg>
