<?xml version="1.0" encoding="UTF-8" standalone="no"?>
<!DOCTYPE svg PUBLIC "-//W3C//DTD SVG 1.1//EN"
 "http://www.w3.org/Graphics/SVG/1.1/DTD/svg11.dtd">
<!-- Generated by graphviz version 2.47.3 (20210619.1520)
 -->
<!-- Title: dependencies Pages: 1 -->
<svg width="2192pt" height="174pt"
 viewBox="0.00 0.00 2192.00 173.80" xmlns="http://www.w3.org/2000/svg" xmlns:xlink="http://www.w3.org/1999/xlink">
<g id="graph0" class="graph" transform="scale(1 1) rotate(0) translate(4 169.8)">
<title>dependencies</title>
<polygon fill="white" stroke="transparent" points="-4,4 -4,-169.8 2188,-169.8 2188,4 -4,4"/>
<text text-anchor="middle" x="1092" y="-8.2" font-family="sans-serif" font-size="14.00">dependencies</text>
<g id="clust1" class="cluster">
<title>cluster_InputTextModule</title>
<polygon fill="none" stroke="black" stroke-dasharray="1,5" points="8,-32.8 8,-157.8 2176,-157.8 2176,-32.8 8,-32.8"/>
</g>
<g id="clust2" class="cluster">
<title>cluster_InputTextModule_declarations</title>
<polygon fill="none" stroke="black" points="316,-40.8 316,-92.8 2168,-92.8 2168,-40.8 316,-40.8"/>
</g>
<g id="clust12" class="cluster">
<title>cluster_InputTextModule_imports</title>
<polygon fill="none" stroke="black" points="16,-40.8 16,-92.8 308,-92.8 308,-40.8 16,-40.8"/>
</g>
<!-- CVAInputTextComponent -->
<g id="node1" class="node">
<title>CVAInputTextComponent</title>
<polygon fill="#ffffb3" stroke="black" points="2160.09,-84.8 1993.91,-84.8 1993.91,-48.8 2160.09,-48.8 2160.09,-84.8"/>
<text text-anchor="middle" x="2077" y="-62.6" font-family="Times,serif" font-size="14.00">CVAInputTextComponent</text>
</g>
<!-- InputTextModule -->
<g id="node10" class="node">
<title>InputTextModule</title>
<polygon fill="#8dd3c7" stroke="black" points="1120.26,-149.8 1117.26,-153.8 1096.26,-153.8 1093.26,-149.8 1005.74,-149.8 1005.74,-113.8 1120.26,-113.8 1120.26,-149.8"/>
<text text-anchor="middle" x="1063" y="-127.6" font-family="Times,serif" font-size="14.00">InputTextModule</text>
</g>
<!-- CVAInputTextComponent&#45;&gt;InputTextModule -->
<g id="edge1" class="edge">
<title>CVAInputTextComponent&#45;&gt;InputTextModule</title>
<path fill="none" stroke="black" d="M2077,-84.89C2077,-107.93 2077,-144.8 2077,-144.8 2077,-144.8 1130.42,-144.8 1130.42,-144.8"/>
<polygon fill="black" stroke="black" points="1130.42,-141.3 1120.42,-144.8 1130.42,-148.3 1130.42,-141.3"/>
</g>
<!-- CVAInputTextExampleComponent -->
<g id="node2" class="node">
<title>CVAInputTextExampleComponent</title>
<polygon fill="#ffffb3" stroke="black" points="1975.85,-84.8 1760.15,-84.8 1760.15,-48.8 1975.85,-48.8 1975.85,-84.8"/>
<text text-anchor="middle" x="1868" y="-62.6" font-family="Times,serif" font-size="14.00">CVAInputTextExampleComponent</text>
</g>
<!-- CVAInputTextExampleComponent&#45;&gt;InputTextModule -->
<g id="edge2" class="edge">
<title>CVAInputTextExampleComponent&#45;&gt;InputTextModule</title>
<path fill="none" stroke="black" d="M1868,-85.08C1868,-106.12 1868,-137.8 1868,-137.8 1868,-137.8 1130.57,-137.8 1130.57,-137.8"/>
<polygon fill="black" stroke="black" points="1130.57,-134.3 1120.57,-137.8 1130.57,-141.3 1130.57,-134.3"/>
</g>
<!-- InputNumberMinMaxComponent -->
<g id="node3" class="node">
<title>InputNumberMinMaxComponent</title>
<polygon fill="#ffffb3" stroke="black" points="1741.75,-84.8 1536.25,-84.8 1536.25,-48.8 1741.75,-48.8 1741.75,-84.8"/>
<text text-anchor="middle" x="1639" y="-62.6" font-family="Times,serif" font-size="14.00">InputNumberMinMaxComponent</text>
</g>
<!-- InputNumberMinMaxComponent&#45;&gt;InputTextModule -->
<g id="edge3" class="edge">
<title>InputNumberMinMaxComponent&#45;&gt;InputTextModule</title>
<path fill="none" stroke="black" d="M1639,-84.91C1639,-104.14 1639,-131.8 1639,-131.8 1639,-131.8 1130.33,-131.8 1130.33,-131.8"/>
<polygon fill="black" stroke="black" points="1130.33,-128.3 1120.33,-131.8 1130.33,-135.3 1130.33,-128.3"/>
</g>
<!-- InputTextComponent -->
<g id="node4" class="node">
<title>InputTextComponent</title>
<polygon fill="#ffffb3" stroke="black" points="1518.04,-84.8 1381.96,-84.8 1381.96,-48.8 1518.04,-48.8 1518.04,-84.8"/>
<text text-anchor="middle" x="1450" y="-62.6" font-family="Times,serif" font-size="14.00">InputTextComponent</text>
</g>
<!-- InputTextComponent&#45;&gt;InputTextModule -->
<g id="edge4" class="edge">
<title>InputTextComponent&#45;&gt;InputTextModule</title>
<path fill="none" stroke="black" d="M1450,-84.82C1450,-102.17 1450,-125.8 1450,-125.8 1450,-125.8 1130.52,-125.8 1130.52,-125.8"/>
<polygon fill="black" stroke="black" points="1130.52,-122.3 1120.52,-125.8 1130.52,-129.3 1130.52,-122.3"/>
</g>
<!-- InputTextEmailComponent -->
<g id="node5" class="node">
<title>InputTextEmailComponent</title>
<polygon fill="#ffffb3" stroke="black" points="1363.98,-84.8 1194.02,-84.8 1194.02,-48.8 1363.98,-48.8 1363.98,-84.8"/>
<text text-anchor="middle" x="1279" y="-62.6" font-family="Times,serif" font-size="14.00">InputTextEmailComponent</text>
</g>
<!-- InputTextEmailComponent&#45;&gt;InputTextModule -->
<g id="edge5" class="edge">
<title>InputTextEmailComponent&#45;&gt;InputTextModule</title>
<path fill="none" stroke="black" d="M1279,-85.04C1279,-100.37 1279,-119.8 1279,-119.8 1279,-119.8 1130.32,-119.8 1130.32,-119.8"/>
<polygon fill="black" stroke="black" points="1130.32,-116.3 1120.32,-119.8 1130.32,-123.3 1130.32,-116.3"/>
</g>
<!-- InputTextMinMaxLengthComponent -->
<g id="node6" class="node">
<title>InputTextMinMaxLengthComponent</title>
<polygon fill="#ffffb3" stroke="black" points="1175.69,-84.8 950.31,-84.8 950.31,-48.8 1175.69,-48.8 1175.69,-84.8"/>
<text text-anchor="middle" x="1063" y="-62.6" font-family="Times,serif" font-size="14.00">InputTextMinMaxLengthComponent</text>
</g>
<!-- InputTextMinMaxLengthComponent&#45;&gt;InputTextModule -->
<g id="edge6" class="edge">
<title>InputTextMinMaxLengthComponent&#45;&gt;InputTextModule</title>
<path fill="none" stroke="black" d="M1063,-84.91C1063,-84.91 1063,-103.79 1063,-103.79"/>
<polygon fill="black" stroke="black" points="1059.5,-103.79 1063,-113.79 1066.5,-103.79 1059.5,-103.79"/>
</g>
<!-- InputTextRequiredComponent -->
<g id="node7" class="node">
<title>InputTextRequiredComponent</title>
<polygon fill="#ffffb3" stroke="black" points="931.86,-84.8 744.14,-84.8 744.14,-48.8 931.86,-48.8 931.86,-84.8"/>
<text text-anchor="middle" x="838" y="-62.6" font-family="Times,serif" font-size="14.00">InputTextRequiredComponent</text>
</g>
<!-- InputTextRequiredComponent&#45;&gt;InputTextModule -->
<g id="edge7" class="edge">
<title>InputTextRequiredComponent&#45;&gt;InputTextModule</title>
<path fill="none" stroke="black" d="M838,-85.04C838,-100.37 838,-119.8 838,-119.8 838,-119.8 995.64,-119.8 995.64,-119.8"/>
<polygon fill="black" stroke="black" points="995.64,-123.3 1005.64,-119.8 995.64,-116.3 995.64,-123.3"/>
</g>
<!-- InputTextSimpleComponent -->
<g id="node8" class="node">
<title>InputTextSimpleComponent</title>
<polygon fill="#ffffb3" stroke="black" points="726.21,-84.8 549.79,-84.8 549.79,-48.8 726.21,-48.8 726.21,-84.8"/>
<text text-anchor="middle" x="638" y="-62.6" font-family="Times,serif" font-size="14.00">InputTextSimpleComponent</text>
</g>
<!-- InputTextSimpleComponent&#45;&gt;InputTextModule -->
<g id="edge8" class="edge">
<title>InputTextSimpleComponent&#45;&gt;InputTextModule</title>
<path fill="none" stroke="black" d="M638,-84.82C638,-102.17 638,-125.8 638,-125.8 638,-125.8 995.68,-125.8 995.68,-125.8"/>
<polygon fill="black" stroke="black" points="995.68,-129.3 1005.68,-125.8 995.68,-122.3 995.68,-129.3"/>
</g>
<!-- InputTextValidPatternComponent -->
<g id="node9" class="node">
<title>InputTextValidPatternComponent</title>
<polygon fill="#ffffb3" stroke="black" points="531.8,-84.8 324.2,-84.8 324.2,-48.8 531.8,-48.8 531.8,-84.8"/>
<text text-anchor="middle" x="428" y="-62.6" font-family="Times,serif" font-size="14.00">InputTextValidPatternComponent</text>
</g>
<!-- InputTextValidPatternComponent&#45;&gt;InputTextModule -->
<g id="edge9" class="edge">
<title>InputTextValidPatternComponent&#45;&gt;InputTextModule</title>
<path fill="none" stroke="black" d="M428,-84.91C428,-104.14 428,-131.8 428,-131.8 428,-131.8 995.53,-131.8 995.53,-131.8"/>
<polygon fill="black" stroke="black" points="995.53,-135.3 1005.53,-131.8 995.53,-128.3 995.53,-135.3"/>
</g>
<!-- InputTextRoutingModule -->
<g id="node11" class="node">
<title>InputTextRoutingModule</title>
<polygon fill="#8dd3c7" stroke="black" points="299.88,-84.8 296.88,-88.8 275.88,-88.8 272.88,-84.8 140.12,-84.8 140.12,-48.8 299.88,-48.8 299.88,-84.8"/>
<text text-anchor="middle" x="220" y="-62.6" font-family="Times,serif" font-size="14.00">InputTextRoutingModule</text>
</g>
<!-- InputTextRoutingModule&#45;&gt;InputTextModule -->
<g id="edge10" class="edge">
<title>InputTextRoutingModule&#45;&gt;InputTextModule</title>
<path fill="none" stroke="black" d="M220,-85.08C220,-106.12 220,-137.8 220,-137.8 220,-137.8 995.72,-137.8 995.72,-137.8"/>
<polygon fill="black" stroke="black" points="995.72,-141.3 1005.72,-137.8 995.72,-134.3 995.72,-141.3"/>
</g>
<!-- SharedModule -->
<g id="node12" class="node">
<title>SharedModule</title>
<polygon fill="#8dd3c7" stroke="black" points="122.42,-84.8 119.42,-88.8 98.42,-88.8 95.42,-84.8 23.58,-84.8 23.58,-48.8 122.42,-48.8 122.42,-84.8"/>
<text text-anchor="middle" x="73" y="-62.6" font-family="Times,serif" font-size="14.00">SharedModule</text>
</g>
<!-- SharedModule&#45;&gt;InputTextModule -->
<g id="edge11" class="edge">
<title>SharedModule&#45;&gt;InputTextModule</title>
<path fill="none" stroke="black" d="M73,-84.89C73,-107.93 73,-144.8 73,-144.8 73,-144.8 995.49,-144.8 995.49,-144.8"/>
<polygon fill="black" stroke="black" points="995.49,-148.3 1005.49,-144.8 995.49,-141.3 995.49,-148.3"/>
</g>
</g>
</svg>
