<?xml version="1.0" encoding="UTF-8" standalone="no"?>
<!DOCTYPE svg PUBLIC "-//W3C//DTD SVG 1.1//EN"
 "http://www.w3.org/Graphics/SVG/1.1/DTD/svg11.dtd">
<!-- Generated by graphviz version 2.47.3 (20210619.1520)
 -->
<!-- Title: dependencies Pages: 1 -->
<svg width="1259pt" height="174pt"
 viewBox="0.00 0.00 1259.00 173.80" xmlns="http://www.w3.org/2000/svg" xmlns:xlink="http://www.w3.org/1999/xlink">
<g id="graph0" class="graph" transform="scale(1 1) rotate(0) translate(4 169.8)">
<title>dependencies</title>
<polygon fill="white" stroke="transparent" points="-4,4 -4,-169.8 1255,-169.8 1255,4 -4,4"/>
<text text-anchor="middle" x="625.5" y="-8.2" font-family="sans-serif" font-size="14.00">dependencies</text>
<g id="clust1" class="cluster">
<title>cluster_RadioButtonCheckboxModule</title>
<polygon fill="none" stroke="black" stroke-dasharray="1,5" points="8,-32.8 8,-157.8 1243,-157.8 1243,-32.8 8,-32.8"/>
</g>
<g id="clust2" class="cluster">
<title>cluster_RadioButtonCheckboxModule_declarations</title>
<polygon fill="none" stroke="black" points="595,-40.8 595,-92.8 1235,-92.8 1235,-40.8 595,-40.8"/>
</g>
<g id="clust6" class="cluster">
<title>cluster_RadioButtonCheckboxModule_imports</title>
<polygon fill="none" stroke="black" points="222,-40.8 222,-92.8 587,-92.8 587,-40.8 222,-40.8"/>
</g>
<g id="clust9" class="cluster">
<title>cluster_RadioButtonCheckboxModule_providers</title>
<polygon fill="none" stroke="black" points="16,-40.8 16,-92.8 214,-92.8 214,-40.8 16,-40.8"/>
</g>
<!-- CVARadioButtonComponent -->
<g id="node1" class="node">
<title>CVARadioButtonComponent</title>
<polygon fill="#ffffb3" stroke="black" points="1227.44,-84.8 1044.56,-84.8 1044.56,-48.8 1227.44,-48.8 1227.44,-84.8"/>
<text text-anchor="middle" x="1136" y="-62.6" font-family="Times,serif" font-size="14.00">CVARadioButtonComponent</text>
</g>
<!-- RadioButtonCheckboxModule -->
<g id="node4" class="node">
<title>RadioButtonCheckboxModule</title>
<polygon fill="#8dd3c7" stroke="black" points="678.88,-149.8 675.88,-153.8 654.88,-153.8 651.88,-149.8 491.12,-149.8 491.12,-113.8 678.88,-113.8 678.88,-149.8"/>
<text text-anchor="middle" x="585" y="-127.6" font-family="Times,serif" font-size="14.00">RadioButtonCheckboxModule</text>
</g>
<!-- CVARadioButtonComponent&#45;&gt;RadioButtonCheckboxModule -->
<g id="edge1" class="edge">
<title>CVARadioButtonComponent&#45;&gt;RadioButtonCheckboxModule</title>
<path fill="none" stroke="black" d="M1136,-85.08C1136,-106.12 1136,-137.8 1136,-137.8 1136,-137.8 689.09,-137.8 689.09,-137.8"/>
<polygon fill="black" stroke="black" points="689.09,-134.3 679.09,-137.8 689.09,-141.3 689.09,-134.3"/>
</g>
<!-- CustomRadioButtonComponent -->
<g id="node2" class="node">
<title>CustomRadioButtonComponent</title>
<polygon fill="#ffffb3" stroke="black" points="1027.45,-84.8 830.55,-84.8 830.55,-48.8 1027.45,-48.8 1027.45,-84.8"/>
<text text-anchor="middle" x="929" y="-62.6" font-family="Times,serif" font-size="14.00">CustomRadioButtonComponent</text>
</g>
<!-- CustomRadioButtonComponent&#45;&gt;RadioButtonCheckboxModule -->
<g id="edge2" class="edge">
<title>CustomRadioButtonComponent&#45;&gt;RadioButtonCheckboxModule</title>
<path fill="none" stroke="black" d="M929,-84.82C929,-102.17 929,-125.8 929,-125.8 929,-125.8 689,-125.8 689,-125.8"/>
<polygon fill="black" stroke="black" points="689,-122.3 679,-125.8 689,-129.3 689,-122.3"/>
</g>
<!-- RadioButtonCheckboxComponent -->
<g id="node3" class="node">
<title>RadioButtonCheckboxComponent</title>
<polygon fill="#ffffb3" stroke="black" points="812.66,-84.8 603.34,-84.8 603.34,-48.8 812.66,-48.8 812.66,-84.8"/>
<text text-anchor="middle" x="708" y="-62.6" font-family="Times,serif" font-size="14.00">RadioButtonCheckboxComponent</text>
</g>
<!-- RadioButtonCheckboxComponent&#45;&gt;RadioButtonCheckboxModule -->
<g id="edge3" class="edge">
<title>RadioButtonCheckboxComponent&#45;&gt;RadioButtonCheckboxModule</title>
<path fill="none" stroke="black" d="M641.05,-84.91C641.05,-84.91 641.05,-103.79 641.05,-103.79"/>
<polygon fill="black" stroke="black" points="637.55,-103.79 641.05,-113.79 644.55,-103.79 637.55,-103.79"/>
</g>
<!-- RadioButtonCheckboxRoutingModule -->
<g id="node5" class="node">
<title>RadioButtonCheckboxRoutingModule</title>
<polygon fill="#8dd3c7" stroke="black" points="579.49,-84.8 576.49,-88.8 555.49,-88.8 552.49,-84.8 346.51,-84.8 346.51,-48.8 579.49,-48.8 579.49,-84.8"/>
<text text-anchor="middle" x="463" y="-62.6" font-family="Times,serif" font-size="14.00">RadioButtonCheckboxRoutingModule</text>
</g>
<!-- RadioButtonCheckboxRoutingModule&#45;&gt;RadioButtonCheckboxModule -->
<g id="edge4" class="edge">
<title>RadioButtonCheckboxRoutingModule&#45;&gt;RadioButtonCheckboxModule</title>
<path fill="none" stroke="black" d="M535.28,-84.91C535.28,-84.91 535.28,-103.79 535.28,-103.79"/>
<polygon fill="black" stroke="black" points="531.78,-103.79 535.28,-113.79 538.78,-103.79 531.78,-103.79"/>
</g>
<!-- SharedModule -->
<g id="node6" class="node">
<title>SharedModule</title>
<polygon fill="#8dd3c7" stroke="black" points="328.42,-84.8 325.42,-88.8 304.42,-88.8 301.42,-84.8 229.58,-84.8 229.58,-48.8 328.42,-48.8 328.42,-84.8"/>
<text text-anchor="middle" x="279" y="-62.6" font-family="Times,serif" font-size="14.00">SharedModule</text>
</g>
<!-- SharedModule&#45;&gt;RadioButtonCheckboxModule -->
<g id="edge5" class="edge">
<title>SharedModule&#45;&gt;RadioButtonCheckboxModule</title>
<path fill="none" stroke="black" d="M279,-84.82C279,-102.17 279,-125.8 279,-125.8 279,-125.8 481.11,-125.8 481.11,-125.8"/>
<polygon fill="black" stroke="black" points="481.11,-129.3 491.11,-125.8 481.11,-122.3 481.11,-129.3"/>
</g>
<!-- StyleSelectorService -->
<g id="node7" class="node">
<title>StyleSelectorService</title>
<ellipse fill="#fdb462" stroke="black" cx="115" cy="-66.8" rx="91.46" ry="18"/>
<text text-anchor="middle" x="115" y="-62.6" font-family="Times,serif" font-size="14.00">StyleSelectorService</text>
</g>
<!-- StyleSelectorService&#45;&gt;RadioButtonCheckboxModule -->
<g id="edge6" class="edge">
<title>StyleSelectorService&#45;&gt;RadioButtonCheckboxModule</title>
<path fill="none" stroke="black" d="M115,-85.08C115,-106.12 115,-137.8 115,-137.8 115,-137.8 481.02,-137.8 481.02,-137.8"/>
<polygon fill="black" stroke="black" points="481.02,-141.3 491.02,-137.8 481.02,-134.3 481.02,-141.3"/>
</g>
</g>
</svg>
