<?xml version="1.0" encoding="UTF-8" standalone="no"?>
<!DOCTYPE svg PUBLIC "-//W3C//DTD SVG 1.1//EN"
 "http://www.w3.org/Graphics/SVG/1.1/DTD/svg11.dtd">
<!-- Generated by graphviz version 2.47.3 (20210619.1520)
 -->
<!-- Title: dependencies Pages: 1 -->
<svg width="855pt" height="174pt"
 viewBox="0.00 0.00 855.00 173.80" xmlns="http://www.w3.org/2000/svg" xmlns:xlink="http://www.w3.org/1999/xlink">
<g id="graph0" class="graph" transform="scale(1 1) rotate(0) translate(4 169.8)">
<title>dependencies</title>
<polygon fill="white" stroke="transparent" points="-4,4 -4,-169.8 851,-169.8 851,4 -4,4"/>
<text text-anchor="middle" x="423.5" y="-8.2" font-family="sans-serif" font-size="14.00">dependencies</text>
<g id="clust1" class="cluster">
<title>cluster_RadioButtonCheckboxModule</title>
<polygon fill="none" stroke="black" stroke-dasharray="1,5" points="8,-32.8 8,-157.8 839,-157.8 839,-32.8 8,-32.8"/>
</g>
<g id="clust5" class="cluster">
<title>cluster_RadioButtonCheckboxModule_imports</title>
<polygon fill="none" stroke="black" points="464,-40.8 464,-92.8 831,-92.8 831,-40.8 464,-40.8"/>
</g>
<g id="clust2" class="cluster">
<title>cluster_RadioButtonCheckboxModule_declarations</title>
<polygon fill="none" stroke="black" points="16,-40.8 16,-92.8 456,-92.8 456,-40.8 16,-40.8"/>
</g>
<!-- CustomRadioButtonComponent -->
<g id="node1" class="node">
<title>CustomRadioButtonComponent</title>
<polygon fill="#ffffb3" stroke="black" points="448.45,-84.8 251.55,-84.8 251.55,-48.8 448.45,-48.8 448.45,-84.8"/>
<text text-anchor="middle" x="350" y="-62.6" font-family="Times,serif" font-size="14.00">CustomRadioButtonComponent</text>
</g>
<!-- RadioButtonCheckboxModule -->
<g id="node3" class="node">
<title>RadioButtonCheckboxModule</title>
<polygon fill="#8dd3c7" stroke="black" points="562.88,-149.8 559.88,-153.8 538.88,-153.8 535.88,-149.8 375.12,-149.8 375.12,-113.8 562.88,-113.8 562.88,-149.8"/>
<text text-anchor="middle" x="469" y="-127.6" font-family="Times,serif" font-size="14.00">RadioButtonCheckboxModule</text>
</g>
<!-- CustomRadioButtonComponent&#45;&gt;RadioButtonCheckboxModule -->
<g id="edge1" class="edge">
<title>CustomRadioButtonComponent&#45;&gt;RadioButtonCheckboxModule</title>
<path fill="none" stroke="black" d="M411.64,-84.91C411.64,-84.91 411.64,-103.79 411.64,-103.79"/>
<polygon fill="black" stroke="black" points="408.14,-103.79 411.64,-113.79 415.14,-103.79 408.14,-103.79"/>
</g>
<!-- RadioButtonCheckboxComponent -->
<g id="node2" class="node">
<title>RadioButtonCheckboxComponent</title>
<polygon fill="#ffffb3" stroke="black" points="233.66,-84.8 24.34,-84.8 24.34,-48.8 233.66,-48.8 233.66,-84.8"/>
<text text-anchor="middle" x="129" y="-62.6" font-family="Times,serif" font-size="14.00">RadioButtonCheckboxComponent</text>
</g>
<!-- RadioButtonCheckboxComponent&#45;&gt;RadioButtonCheckboxModule -->
<g id="edge2" class="edge">
<title>RadioButtonCheckboxComponent&#45;&gt;RadioButtonCheckboxModule</title>
<path fill="none" stroke="black" d="M129,-84.91C129,-104.14 129,-131.8 129,-131.8 129,-131.8 364.74,-131.8 364.74,-131.8"/>
<polygon fill="black" stroke="black" points="364.74,-135.3 374.74,-131.8 364.74,-128.3 364.74,-135.3"/>
</g>
<!-- ComunModule -->
<g id="node4" class="node">
<title>ComunModule</title>
<polygon fill="#8dd3c7" stroke="black" points="823.28,-84.8 820.28,-88.8 799.28,-88.8 796.28,-84.8 722.72,-84.8 722.72,-48.8 823.28,-48.8 823.28,-84.8"/>
<text text-anchor="middle" x="773" y="-62.6" font-family="Times,serif" font-size="14.00">ComunModule</text>
</g>
<!-- ComunModule&#45;&gt;RadioButtonCheckboxModule -->
<g id="edge3" class="edge">
<title>ComunModule&#45;&gt;RadioButtonCheckboxModule</title>
<path fill="none" stroke="black" d="M773,-84.91C773,-104.14 773,-131.8 773,-131.8 773,-131.8 573.11,-131.8 573.11,-131.8"/>
<polygon fill="black" stroke="black" points="573.11,-128.3 563.11,-131.8 573.11,-135.3 573.11,-128.3"/>
</g>
<!-- RadioButtonCheckboxRoutingModule -->
<g id="node5" class="node">
<title>RadioButtonCheckboxRoutingModule</title>
<polygon fill="#8dd3c7" stroke="black" points="704.49,-84.8 701.49,-88.8 680.49,-88.8 677.49,-84.8 471.51,-84.8 471.51,-48.8 704.49,-48.8 704.49,-84.8"/>
<text text-anchor="middle" x="588" y="-62.6" font-family="Times,serif" font-size="14.00">RadioButtonCheckboxRoutingModule</text>
</g>
<!-- RadioButtonCheckboxRoutingModule&#45;&gt;RadioButtonCheckboxModule -->
<g id="edge4" class="edge">
<title>RadioButtonCheckboxRoutingModule&#45;&gt;RadioButtonCheckboxModule</title>
<path fill="none" stroke="black" d="M517.22,-84.91C517.22,-84.91 517.22,-103.79 517.22,-103.79"/>
<polygon fill="black" stroke="black" points="513.72,-103.79 517.22,-113.79 520.72,-103.79 513.72,-103.79"/>
</g>
</g>
</svg>
