<?xml version="1.0" encoding="UTF-8" standalone="no"?>
<!DOCTYPE svg PUBLIC "-//W3C//DTD SVG 1.1//EN"
 "http://www.w3.org/Graphics/SVG/1.1/DTD/svg11.dtd">
<!-- Generated by graphviz version 2.47.3 (20210619.1520)
 -->
<!-- Title: dependencies Pages: 1 -->
<svg width="1053pt" height="174pt"
 viewBox="0.00 0.00 1053.00 173.80" xmlns="http://www.w3.org/2000/svg" xmlns:xlink="http://www.w3.org/1999/xlink">
<g id="graph0" class="graph" transform="scale(1 1) rotate(0) translate(4 169.8)">
<title>dependencies</title>
<polygon fill="white" stroke="transparent" points="-4,4 -4,-169.8 1049,-169.8 1049,4 -4,4"/>
<text text-anchor="middle" x="522.5" y="-8.2" font-family="sans-serif" font-size="14.00">dependencies</text>
<g id="clust1" class="cluster">
<title>cluster_RadioButtonCheckboxModule</title>
<polygon fill="none" stroke="black" stroke-dasharray="1,5" points="8,-32.8 8,-157.8 1037,-157.8 1037,-32.8 8,-32.8"/>
</g>
<g id="clust2" class="cluster">
<title>cluster_RadioButtonCheckboxModule_declarations</title>
<polygon fill="none" stroke="black" points="389,-40.8 389,-92.8 1029,-92.8 1029,-40.8 389,-40.8"/>
</g>
<g id="clust6" class="cluster">
<title>cluster_RadioButtonCheckboxModule_imports</title>
<polygon fill="none" stroke="black" points="16,-40.8 16,-92.8 381,-92.8 381,-40.8 16,-40.8"/>
</g>
<!-- CVARadioButtonComponent -->
<g id="node1" class="node">
<title>CVARadioButtonComponent</title>
<polygon fill="#ffffb3" stroke="black" points="1021.44,-84.8 838.56,-84.8 838.56,-48.8 1021.44,-48.8 1021.44,-84.8"/>
<text text-anchor="middle" x="930" y="-62.6" font-family="Times,serif" font-size="14.00">CVARadioButtonComponent</text>
</g>
<!-- RadioButtonCheckboxModule -->
<g id="node4" class="node">
<title>RadioButtonCheckboxModule</title>
<polygon fill="#8dd3c7" stroke="black" points="595.88,-149.8 592.88,-153.8 571.88,-153.8 568.88,-149.8 408.12,-149.8 408.12,-113.8 595.88,-113.8 595.88,-149.8"/>
<text text-anchor="middle" x="502" y="-127.6" font-family="Times,serif" font-size="14.00">RadioButtonCheckboxModule</text>
</g>
<!-- CVARadioButtonComponent&#45;&gt;RadioButtonCheckboxModule -->
<g id="edge1" class="edge">
<title>CVARadioButtonComponent&#45;&gt;RadioButtonCheckboxModule</title>
<path fill="none" stroke="black" d="M930,-85.08C930,-106.12 930,-137.8 930,-137.8 930,-137.8 605.93,-137.8 605.93,-137.8"/>
<polygon fill="black" stroke="black" points="605.93,-134.3 595.93,-137.8 605.93,-141.3 605.93,-134.3"/>
</g>
<!-- CustomRadioButtonComponent -->
<g id="node2" class="node">
<title>CustomRadioButtonComponent</title>
<polygon fill="#ffffb3" stroke="black" points="821.45,-84.8 624.55,-84.8 624.55,-48.8 821.45,-48.8 821.45,-84.8"/>
<text text-anchor="middle" x="723" y="-62.6" font-family="Times,serif" font-size="14.00">CustomRadioButtonComponent</text>
</g>
<!-- CustomRadioButtonComponent&#45;&gt;RadioButtonCheckboxModule -->
<g id="edge2" class="edge">
<title>CustomRadioButtonComponent&#45;&gt;RadioButtonCheckboxModule</title>
<path fill="none" stroke="black" d="M723,-84.82C723,-102.17 723,-125.8 723,-125.8 723,-125.8 606.04,-125.8 606.04,-125.8"/>
<polygon fill="black" stroke="black" points="606.04,-122.3 596.04,-125.8 606.04,-129.3 606.04,-122.3"/>
</g>
<!-- RadioButtonCheckboxComponent -->
<g id="node3" class="node">
<title>RadioButtonCheckboxComponent</title>
<polygon fill="#ffffb3" stroke="black" points="606.66,-84.8 397.34,-84.8 397.34,-48.8 606.66,-48.8 606.66,-84.8"/>
<text text-anchor="middle" x="502" y="-62.6" font-family="Times,serif" font-size="14.00">RadioButtonCheckboxComponent</text>
</g>
<!-- RadioButtonCheckboxComponent&#45;&gt;RadioButtonCheckboxModule -->
<g id="edge3" class="edge">
<title>RadioButtonCheckboxComponent&#45;&gt;RadioButtonCheckboxModule</title>
<path fill="none" stroke="black" d="M502,-84.91C502,-84.91 502,-103.79 502,-103.79"/>
<polygon fill="black" stroke="black" points="498.5,-103.79 502,-113.79 505.5,-103.79 498.5,-103.79"/>
</g>
<!-- RadioButtonCheckboxRoutingModule -->
<g id="node5" class="node">
<title>RadioButtonCheckboxRoutingModule</title>
<polygon fill="#8dd3c7" stroke="black" points="373.49,-84.8 370.49,-88.8 349.49,-88.8 346.49,-84.8 140.51,-84.8 140.51,-48.8 373.49,-48.8 373.49,-84.8"/>
<text text-anchor="middle" x="257" y="-62.6" font-family="Times,serif" font-size="14.00">RadioButtonCheckboxRoutingModule</text>
</g>
<!-- RadioButtonCheckboxRoutingModule&#45;&gt;RadioButtonCheckboxModule -->
<g id="edge4" class="edge">
<title>RadioButtonCheckboxRoutingModule&#45;&gt;RadioButtonCheckboxModule</title>
<path fill="none" stroke="black" d="M257,-84.82C257,-102.17 257,-125.8 257,-125.8 257,-125.8 397.98,-125.8 397.98,-125.8"/>
<polygon fill="black" stroke="black" points="397.98,-129.3 407.98,-125.8 397.98,-122.3 397.98,-129.3"/>
</g>
<!-- SharedModule -->
<g id="node6" class="node">
<title>SharedModule</title>
<polygon fill="#8dd3c7" stroke="black" points="122.42,-84.8 119.42,-88.8 98.42,-88.8 95.42,-84.8 23.58,-84.8 23.58,-48.8 122.42,-48.8 122.42,-84.8"/>
<text text-anchor="middle" x="73" y="-62.6" font-family="Times,serif" font-size="14.00">SharedModule</text>
</g>
<!-- SharedModule&#45;&gt;RadioButtonCheckboxModule -->
<g id="edge5" class="edge">
<title>SharedModule&#45;&gt;RadioButtonCheckboxModule</title>
<path fill="none" stroke="black" d="M73,-85.08C73,-106.12 73,-137.8 73,-137.8 73,-137.8 398.12,-137.8 398.12,-137.8"/>
<polygon fill="black" stroke="black" points="398.12,-141.3 408.12,-137.8 398.12,-134.3 398.12,-141.3"/>
</g>
</g>
</svg>
