<?xml version="1.0" encoding="UTF-8" standalone="no"?>
<!DOCTYPE svg PUBLIC "-//W3C//DTD SVG 1.1//EN"
 "http://www.w3.org/Graphics/SVG/1.1/DTD/svg11.dtd">
<!-- Generated by graphviz version 2.47.3 (20210619.1520)
 -->
<!-- Title: dependencies Pages: 1 -->
<svg width="1725pt" height="174pt"
 viewBox="0.00 0.00 1725.00 173.80" xmlns="http://www.w3.org/2000/svg" xmlns:xlink="http://www.w3.org/1999/xlink">
<g id="graph0" class="graph" transform="scale(1 1) rotate(0) translate(4 169.8)">
<title>dependencies</title>
<polygon fill="white" stroke="transparent" points="-4,4 -4,-169.8 1721,-169.8 1721,4 -4,4"/>
<text text-anchor="middle" x="858.5" y="-8.2" font-family="sans-serif" font-size="14.00">dependencies</text>
<g id="clust1" class="cluster">
<title>cluster_RadioButtonCheckboxModule</title>
<polygon fill="none" stroke="black" stroke-dasharray="1,5" points="8,-32.8 8,-157.8 1709,-157.8 1709,-32.8 8,-32.8"/>
</g>
<g id="clust2" class="cluster">
<title>cluster_RadioButtonCheckboxModule_declarations</title>
<polygon fill="none" stroke="black" points="595,-40.8 595,-92.8 1701,-92.8 1701,-40.8 595,-40.8"/>
</g>
<g id="clust8" class="cluster">
<title>cluster_RadioButtonCheckboxModule_imports</title>
<polygon fill="none" stroke="black" points="222,-40.8 222,-92.8 587,-92.8 587,-40.8 222,-40.8"/>
</g>
<g id="clust11" class="cluster">
<title>cluster_RadioButtonCheckboxModule_providers</title>
<polygon fill="none" stroke="black" points="16,-40.8 16,-92.8 214,-92.8 214,-40.8 16,-40.8"/>
</g>
<!-- CVARadioButtonComponent -->
<g id="node1" class="node">
<title>CVARadioButtonComponent</title>
<polygon fill="#ffffb3" stroke="black" points="1693.44,-84.8 1510.56,-84.8 1510.56,-48.8 1693.44,-48.8 1693.44,-84.8"/>
<text text-anchor="middle" x="1602" y="-62.6" font-family="Times,serif" font-size="14.00">CVARadioButtonComponent</text>
</g>
<!-- RadioButtonCheckboxModule -->
<g id="node6" class="node">
<title>RadioButtonCheckboxModule</title>
<polygon fill="#8dd3c7" stroke="black" points="910.88,-149.8 907.88,-153.8 886.88,-153.8 883.88,-149.8 723.12,-149.8 723.12,-113.8 910.88,-113.8 910.88,-149.8"/>
<text text-anchor="middle" x="817" y="-127.6" font-family="Times,serif" font-size="14.00">RadioButtonCheckboxModule</text>
</g>
<!-- CVARadioButtonComponent&#45;&gt;RadioButtonCheckboxModule -->
<g id="edge1" class="edge">
<title>CVARadioButtonComponent&#45;&gt;RadioButtonCheckboxModule</title>
<path fill="none" stroke="black" d="M1602,-85.09C1602,-107.01 1602,-140.8 1602,-140.8 1602,-140.8 920.91,-140.8 920.91,-140.8"/>
<polygon fill="black" stroke="black" points="920.91,-137.3 910.91,-140.8 920.91,-144.3 920.91,-137.3"/>
</g>
<!-- CVARadioButtonExampleComponent -->
<g id="node2" class="node">
<title>CVARadioButtonExampleComponent</title>
<polygon fill="#ffffb3" stroke="black" points="1493.2,-84.8 1260.8,-84.8 1260.8,-48.8 1493.2,-48.8 1493.2,-84.8"/>
<text text-anchor="middle" x="1377" y="-62.6" font-family="Times,serif" font-size="14.00">CVARadioButtonExampleComponent</text>
</g>
<!-- CVARadioButtonExampleComponent&#45;&gt;RadioButtonCheckboxModule -->
<g id="edge2" class="edge">
<title>CVARadioButtonExampleComponent&#45;&gt;RadioButtonCheckboxModule</title>
<path fill="none" stroke="black" d="M1377,-84.91C1377,-104.14 1377,-131.8 1377,-131.8 1377,-131.8 921.05,-131.8 921.05,-131.8"/>
<polygon fill="black" stroke="black" points="921.05,-128.3 911.05,-131.8 921.05,-135.3 921.05,-128.3"/>
</g>
<!-- CheckboxRequiredComponent -->
<g id="node3" class="node">
<title>CheckboxRequiredComponent</title>
<polygon fill="#ffffb3" stroke="black" points="1242.92,-84.8 1053.08,-84.8 1053.08,-48.8 1242.92,-48.8 1242.92,-84.8"/>
<text text-anchor="middle" x="1148" y="-62.6" font-family="Times,serif" font-size="14.00">CheckboxRequiredComponent</text>
</g>
<!-- CheckboxRequiredComponent&#45;&gt;RadioButtonCheckboxModule -->
<g id="edge3" class="edge">
<title>CheckboxRequiredComponent&#45;&gt;RadioButtonCheckboxModule</title>
<path fill="none" stroke="black" d="M1148,-84.83C1148,-101.2 1148,-122.8 1148,-122.8 1148,-122.8 920.97,-122.8 920.97,-122.8"/>
<polygon fill="black" stroke="black" points="920.97,-119.3 910.97,-122.8 920.97,-126.3 920.97,-119.3"/>
</g>
<!-- RadioButtonCheckboxComponent -->
<g id="node4" class="node">
<title>RadioButtonCheckboxComponent</title>
<polygon fill="#ffffb3" stroke="black" points="1034.66,-84.8 825.34,-84.8 825.34,-48.8 1034.66,-48.8 1034.66,-84.8"/>
<text text-anchor="middle" x="930" y="-62.6" font-family="Times,serif" font-size="14.00">RadioButtonCheckboxComponent</text>
</g>
<!-- RadioButtonCheckboxComponent&#45;&gt;RadioButtonCheckboxModule -->
<g id="edge4" class="edge">
<title>RadioButtonCheckboxComponent&#45;&gt;RadioButtonCheckboxModule</title>
<path fill="none" stroke="black" d="M868.05,-84.91C868.05,-84.91 868.05,-103.79 868.05,-103.79"/>
<polygon fill="black" stroke="black" points="864.55,-103.79 868.05,-113.79 871.55,-103.79 864.55,-103.79"/>
</g>
<!-- RadioButtonRequiredComponent -->
<g id="node5" class="node">
<title>RadioButtonRequiredComponent</title>
<polygon fill="#ffffb3" stroke="black" points="807.21,-84.8 602.79,-84.8 602.79,-48.8 807.21,-48.8 807.21,-84.8"/>
<text text-anchor="middle" x="705" y="-62.6" font-family="Times,serif" font-size="14.00">RadioButtonRequiredComponent</text>
</g>
<!-- RadioButtonRequiredComponent&#45;&gt;RadioButtonCheckboxModule -->
<g id="edge5" class="edge">
<title>RadioButtonRequiredComponent&#45;&gt;RadioButtonCheckboxModule</title>
<path fill="none" stroke="black" d="M765.08,-84.91C765.08,-84.91 765.08,-103.79 765.08,-103.79"/>
<polygon fill="black" stroke="black" points="761.58,-103.79 765.08,-113.79 768.58,-103.79 761.58,-103.79"/>
</g>
<!-- RadioButtonCheckboxRoutingModule -->
<g id="node7" class="node">
<title>RadioButtonCheckboxRoutingModule</title>
<polygon fill="#8dd3c7" stroke="black" points="579.49,-84.8 576.49,-88.8 555.49,-88.8 552.49,-84.8 346.51,-84.8 346.51,-48.8 579.49,-48.8 579.49,-84.8"/>
<text text-anchor="middle" x="463" y="-62.6" font-family="Times,serif" font-size="14.00">RadioButtonCheckboxRoutingModule</text>
</g>
<!-- RadioButtonCheckboxRoutingModule&#45;&gt;RadioButtonCheckboxModule -->
<g id="edge6" class="edge">
<title>RadioButtonCheckboxRoutingModule&#45;&gt;RadioButtonCheckboxModule</title>
<path fill="none" stroke="black" d="M463,-84.83C463,-101.2 463,-122.8 463,-122.8 463,-122.8 713.06,-122.8 713.06,-122.8"/>
<polygon fill="black" stroke="black" points="713.06,-126.3 723.06,-122.8 713.06,-119.3 713.06,-126.3"/>
</g>
<!-- SharedModule -->
<g id="node8" class="node">
<title>SharedModule</title>
<polygon fill="#8dd3c7" stroke="black" points="328.42,-84.8 325.42,-88.8 304.42,-88.8 301.42,-84.8 229.58,-84.8 229.58,-48.8 328.42,-48.8 328.42,-84.8"/>
<text text-anchor="middle" x="279" y="-62.6" font-family="Times,serif" font-size="14.00">SharedModule</text>
</g>
<!-- SharedModule&#45;&gt;RadioButtonCheckboxModule -->
<g id="edge7" class="edge">
<title>SharedModule&#45;&gt;RadioButtonCheckboxModule</title>
<path fill="none" stroke="black" d="M279,-84.91C279,-104.14 279,-131.8 279,-131.8 279,-131.8 712.98,-131.8 712.98,-131.8"/>
<polygon fill="black" stroke="black" points="712.98,-135.3 722.98,-131.8 712.98,-128.3 712.98,-135.3"/>
</g>
<!-- StyleSelectorService -->
<g id="node9" class="node">
<title>StyleSelectorService</title>
<ellipse fill="#fdb462" stroke="black" cx="115" cy="-66.8" rx="91.46" ry="18"/>
<text text-anchor="middle" x="115" y="-62.6" font-family="Times,serif" font-size="14.00">StyleSelectorService</text>
</g>
<!-- StyleSelectorService&#45;&gt;RadioButtonCheckboxModule -->
<g id="edge8" class="edge">
<title>StyleSelectorService&#45;&gt;RadioButtonCheckboxModule</title>
<path fill="none" stroke="black" d="M115,-85.09C115,-107.01 115,-140.8 115,-140.8 115,-140.8 713.05,-140.8 713.05,-140.8"/>
<polygon fill="black" stroke="black" points="713.05,-144.3 723.05,-140.8 713.05,-137.3 713.05,-144.3"/>
</g>
</g>
</svg>
