<?xml version="1.0" encoding="UTF-8" standalone="no"?>
<!DOCTYPE svg PUBLIC "-//W3C//DTD SVG 1.1//EN"
 "http://www.w3.org/Graphics/SVG/1.1/DTD/svg11.dtd">
<!-- Generated by graphviz version 2.47.3 (20210619.1520)
 -->
<!-- Title: dependencies Pages: 1 -->
<svg width="650pt" height="174pt"
 viewBox="0.00 0.00 650.00 173.80" xmlns="http://www.w3.org/2000/svg" xmlns:xlink="http://www.w3.org/1999/xlink">
<g id="graph0" class="graph" transform="scale(1 1) rotate(0) translate(4 169.8)">
<title>dependencies</title>
<polygon fill="white" stroke="transparent" points="-4,4 -4,-169.8 646,-169.8 646,4 -4,4"/>
<text text-anchor="middle" x="321" y="-8.2" font-family="sans-serif" font-size="14.00">dependencies</text>
<g id="clust1" class="cluster">
<title>cluster_FormularioModule</title>
<polygon fill="none" stroke="black" stroke-dasharray="1,5" points="8,-32.8 8,-157.8 634,-157.8 634,-32.8 8,-32.8"/>
</g>
<g id="clust2" class="cluster">
<title>cluster_FormularioModule_declarations</title>
<polygon fill="none" stroke="black" points="324,-40.8 324,-92.8 626,-92.8 626,-40.8 324,-40.8"/>
</g>
<g id="clust5" class="cluster">
<title>cluster_FormularioModule_imports</title>
<polygon fill="none" stroke="black" points="16,-40.8 16,-92.8 316,-92.8 316,-40.8 16,-40.8"/>
</g>
<!-- FormComponent -->
<g id="node1" class="node">
<title>FormComponent</title>
<polygon fill="#ffffb3" stroke="black" points="617.67,-84.8 506.33,-84.8 506.33,-48.8 617.67,-48.8 617.67,-84.8"/>
<text text-anchor="middle" x="562" y="-62.6" font-family="Times,serif" font-size="14.00">FormComponent</text>
</g>
<!-- FormularioModule -->
<g id="node3" class="node">
<title>FormularioModule</title>
<polygon fill="#8dd3c7" stroke="black" points="378.04,-149.8 375.04,-153.8 354.04,-153.8 351.04,-149.8 255.96,-149.8 255.96,-113.8 378.04,-113.8 378.04,-149.8"/>
<text text-anchor="middle" x="317" y="-127.6" font-family="Times,serif" font-size="14.00">FormularioModule</text>
</g>
<!-- FormComponent&#45;&gt;FormularioModule -->
<g id="edge1" class="edge">
<title>FormComponent&#45;&gt;FormularioModule</title>
<path fill="none" stroke="black" d="M562,-84.91C562,-104.14 562,-131.8 562,-131.8 562,-131.8 388.19,-131.8 388.19,-131.8"/>
<polygon fill="black" stroke="black" points="388.19,-128.3 378.19,-131.8 388.19,-135.3 388.19,-128.3"/>
</g>
<!-- LangSelectorComponent -->
<g id="node2" class="node">
<title>LangSelectorComponent</title>
<polygon fill="#ffffb3" stroke="black" points="487.97,-84.8 332.03,-84.8 332.03,-48.8 487.97,-48.8 487.97,-84.8"/>
<text text-anchor="middle" x="410" y="-62.6" font-family="Times,serif" font-size="14.00">LangSelectorComponent</text>
</g>
<!-- LangSelectorComponent&#45;&gt;FormularioModule -->
<g id="edge2" class="edge">
<title>LangSelectorComponent&#45;&gt;FormularioModule</title>
<path fill="none" stroke="black" d="M355.14,-84.91C355.14,-84.91 355.14,-103.79 355.14,-103.79"/>
<polygon fill="black" stroke="black" points="351.64,-103.79 355.14,-113.79 358.64,-103.79 351.64,-103.79"/>
</g>
<!-- FormularioRoutingModule -->
<g id="node4" class="node">
<title>FormularioRoutingModule</title>
<polygon fill="#8dd3c7" stroke="black" points="307.66,-84.8 304.66,-88.8 283.66,-88.8 280.66,-84.8 140.34,-84.8 140.34,-48.8 307.66,-48.8 307.66,-84.8"/>
<text text-anchor="middle" x="224" y="-62.6" font-family="Times,serif" font-size="14.00">FormularioRoutingModule</text>
</g>
<!-- FormularioRoutingModule&#45;&gt;FormularioModule -->
<g id="edge3" class="edge">
<title>FormularioRoutingModule&#45;&gt;FormularioModule</title>
<path fill="none" stroke="black" d="M281.78,-84.91C281.78,-84.91 281.78,-103.79 281.78,-103.79"/>
<polygon fill="black" stroke="black" points="278.28,-103.79 281.78,-113.79 285.28,-103.79 278.28,-103.79"/>
</g>
<!-- SharedModule -->
<g id="node5" class="node">
<title>SharedModule</title>
<polygon fill="#8dd3c7" stroke="black" points="122.42,-84.8 119.42,-88.8 98.42,-88.8 95.42,-84.8 23.58,-84.8 23.58,-48.8 122.42,-48.8 122.42,-84.8"/>
<text text-anchor="middle" x="73" y="-62.6" font-family="Times,serif" font-size="14.00">SharedModule</text>
</g>
<!-- SharedModule&#45;&gt;FormularioModule -->
<g id="edge4" class="edge">
<title>SharedModule&#45;&gt;FormularioModule</title>
<path fill="none" stroke="black" d="M73,-84.91C73,-104.14 73,-131.8 73,-131.8 73,-131.8 245.74,-131.8 245.74,-131.8"/>
<polygon fill="black" stroke="black" points="245.74,-135.3 255.74,-131.8 245.74,-128.3 245.74,-135.3"/>
</g>
</g>
</svg>
