<?xml version="1.0" encoding="UTF-8" standalone="no"?>
<!DOCTYPE svg PUBLIC "-//W3C//DTD SVG 1.1//EN"
 "http://www.w3.org/Graphics/SVG/1.1/DTD/svg11.dtd">
<!-- Generated by graphviz version 2.47.3 (20210619.1520)
 -->
<!-- Title: dependencies Pages: 1 -->
<svg width="1055pt" height="174pt"
 viewBox="0.00 0.00 1055.00 173.80" xmlns="http://www.w3.org/2000/svg" xmlns:xlink="http://www.w3.org/1999/xlink">
<g id="graph0" class="graph" transform="scale(1 1) rotate(0) translate(4 169.8)">
<title>dependencies</title>
<polygon fill="white" stroke="transparent" points="-4,4 -4,-169.8 1051,-169.8 1051,4 -4,4"/>
<text text-anchor="middle" x="523.5" y="-8.2" font-family="sans-serif" font-size="14.00">dependencies</text>
<g id="clust1" class="cluster">
<title>cluster_RadioButtonCheckboxModule</title>
<polygon fill="none" stroke="black" stroke-dasharray="1,5" points="8,-32.8 8,-157.8 1039,-157.8 1039,-32.8 8,-32.8"/>
</g>
<g id="clust6" class="cluster">
<title>cluster_RadioButtonCheckboxModule_imports</title>
<polygon fill="none" stroke="black" points="664,-40.8 664,-92.8 1031,-92.8 1031,-40.8 664,-40.8"/>
</g>
<g id="clust2" class="cluster">
<title>cluster_RadioButtonCheckboxModule_declarations</title>
<polygon fill="none" stroke="black" points="16,-40.8 16,-92.8 656,-92.8 656,-40.8 16,-40.8"/>
</g>
<!-- CVARadioButtonComponent -->
<g id="node1" class="node">
<title>CVARadioButtonComponent</title>
<polygon fill="#ffffb3" stroke="black" points="648.44,-84.8 465.56,-84.8 465.56,-48.8 648.44,-48.8 648.44,-84.8"/>
<text text-anchor="middle" x="557" y="-62.6" font-family="Times,serif" font-size="14.00">CVARadioButtonComponent</text>
</g>
<!-- RadioButtonCheckboxModule -->
<g id="node4" class="node">
<title>RadioButtonCheckboxModule</title>
<polygon fill="#8dd3c7" stroke="black" points="650.88,-149.8 647.88,-153.8 626.88,-153.8 623.88,-149.8 463.12,-149.8 463.12,-113.8 650.88,-113.8 650.88,-149.8"/>
<text text-anchor="middle" x="557" y="-127.6" font-family="Times,serif" font-size="14.00">RadioButtonCheckboxModule</text>
</g>
<!-- CVARadioButtonComponent&#45;&gt;RadioButtonCheckboxModule -->
<g id="edge1" class="edge">
<title>CVARadioButtonComponent&#45;&gt;RadioButtonCheckboxModule</title>
<path fill="none" stroke="black" d="M557,-84.91C557,-84.91 557,-103.79 557,-103.79"/>
<polygon fill="black" stroke="black" points="553.5,-103.79 557,-113.79 560.5,-103.79 553.5,-103.79"/>
</g>
<!-- CustomRadioButtonComponent -->
<g id="node2" class="node">
<title>CustomRadioButtonComponent</title>
<polygon fill="#ffffb3" stroke="black" points="448.45,-84.8 251.55,-84.8 251.55,-48.8 448.45,-48.8 448.45,-84.8"/>
<text text-anchor="middle" x="350" y="-62.6" font-family="Times,serif" font-size="14.00">CustomRadioButtonComponent</text>
</g>
<!-- CustomRadioButtonComponent&#45;&gt;RadioButtonCheckboxModule -->
<g id="edge2" class="edge">
<title>CustomRadioButtonComponent&#45;&gt;RadioButtonCheckboxModule</title>
<path fill="none" stroke="black" d="M350,-84.82C350,-102.17 350,-125.8 350,-125.8 350,-125.8 452.89,-125.8 452.89,-125.8"/>
<polygon fill="black" stroke="black" points="452.89,-129.3 462.89,-125.8 452.89,-122.3 452.89,-129.3"/>
</g>
<!-- RadioButtonCheckboxComponent -->
<g id="node3" class="node">
<title>RadioButtonCheckboxComponent</title>
<polygon fill="#ffffb3" stroke="black" points="233.66,-84.8 24.34,-84.8 24.34,-48.8 233.66,-48.8 233.66,-84.8"/>
<text text-anchor="middle" x="129" y="-62.6" font-family="Times,serif" font-size="14.00">RadioButtonCheckboxComponent</text>
</g>
<!-- RadioButtonCheckboxComponent&#45;&gt;RadioButtonCheckboxModule -->
<g id="edge3" class="edge">
<title>RadioButtonCheckboxComponent&#45;&gt;RadioButtonCheckboxModule</title>
<path fill="none" stroke="black" d="M129,-85.08C129,-106.12 129,-137.8 129,-137.8 129,-137.8 453.07,-137.8 453.07,-137.8"/>
<polygon fill="black" stroke="black" points="453.07,-141.3 463.07,-137.8 453.07,-134.3 453.07,-141.3"/>
</g>
<!-- ComunModule -->
<g id="node5" class="node">
<title>ComunModule</title>
<polygon fill="#8dd3c7" stroke="black" points="1023.28,-84.8 1020.28,-88.8 999.28,-88.8 996.28,-84.8 922.72,-84.8 922.72,-48.8 1023.28,-48.8 1023.28,-84.8"/>
<text text-anchor="middle" x="973" y="-62.6" font-family="Times,serif" font-size="14.00">ComunModule</text>
</g>
<!-- ComunModule&#45;&gt;RadioButtonCheckboxModule -->
<g id="edge4" class="edge">
<title>ComunModule&#45;&gt;RadioButtonCheckboxModule</title>
<path fill="none" stroke="black" d="M973,-85.08C973,-106.12 973,-137.8 973,-137.8 973,-137.8 660.88,-137.8 660.88,-137.8"/>
<polygon fill="black" stroke="black" points="660.88,-134.3 650.88,-137.8 660.88,-141.3 660.88,-134.3"/>
</g>
<!-- RadioButtonCheckboxRoutingModule -->
<g id="node6" class="node">
<title>RadioButtonCheckboxRoutingModule</title>
<polygon fill="#8dd3c7" stroke="black" points="904.49,-84.8 901.49,-88.8 880.49,-88.8 877.49,-84.8 671.51,-84.8 671.51,-48.8 904.49,-48.8 904.49,-84.8"/>
<text text-anchor="middle" x="788" y="-62.6" font-family="Times,serif" font-size="14.00">RadioButtonCheckboxRoutingModule</text>
</g>
<!-- RadioButtonCheckboxRoutingModule&#45;&gt;RadioButtonCheckboxModule -->
<g id="edge5" class="edge">
<title>RadioButtonCheckboxRoutingModule&#45;&gt;RadioButtonCheckboxModule</title>
<path fill="none" stroke="black" d="M788,-84.82C788,-102.17 788,-125.8 788,-125.8 788,-125.8 660.96,-125.8 660.96,-125.8"/>
<polygon fill="black" stroke="black" points="660.96,-122.3 650.96,-125.8 660.96,-129.3 660.96,-122.3"/>
</g>
</g>
</svg>
