<?xml version="1.0" encoding="UTF-8" standalone="no"?>
<!DOCTYPE svg PUBLIC "-//W3C//DTD SVG 1.1//EN"
 "http://www.w3.org/Graphics/SVG/1.1/DTD/svg11.dtd">
<!-- Generated by graphviz version 2.47.3 (20210619.1520)
 -->
<!-- Title: dependencies Pages: 1 -->
<svg width="1725pt" height="174pt"
 viewBox="0.00 0.00 1725.00 173.80" xmlns="http://www.w3.org/2000/svg" xmlns:xlink="http://www.w3.org/1999/xlink">
<g id="graph0" class="graph" transform="scale(1 1) rotate(0) translate(4 169.8)">
<title>dependencies</title>
<polygon fill="white" stroke="transparent" points="-4,4 -4,-169.8 1721,-169.8 1721,4 -4,4"/>
<text text-anchor="middle" x="858.5" y="-8.2" font-family="sans-serif" font-size="14.00">dependencies</text>
<g id="clust1" class="cluster">
<title>cluster_RadioButtonCheckboxModule</title>
<polygon fill="none" stroke="black" stroke-dasharray="1,5" points="8,-32.8 8,-157.8 1709,-157.8 1709,-32.8 8,-32.8"/>
</g>
<g id="clust8" class="cluster">
<title>cluster_RadioButtonCheckboxModule_imports</title>
<polygon fill="none" stroke="black" points="1336,-40.8 1336,-92.8 1701,-92.8 1701,-40.8 1336,-40.8"/>
</g>
<g id="clust2" class="cluster">
<title>cluster_RadioButtonCheckboxModule_declarations</title>
<polygon fill="none" stroke="black" points="222,-40.8 222,-92.8 1328,-92.8 1328,-40.8 222,-40.8"/>
</g>
<g id="clust11" class="cluster">
<title>cluster_RadioButtonCheckboxModule_providers</title>
<polygon fill="none" stroke="black" points="16,-40.8 16,-92.8 214,-92.8 214,-40.8 16,-40.8"/>
</g>
<!-- CVARadioButtonComponent -->
<g id="node1" class="node">
<title>CVARadioButtonComponent</title>
<polygon fill="#ffffb3" stroke="black" points="1320.44,-84.8 1137.56,-84.8 1137.56,-48.8 1320.44,-48.8 1320.44,-84.8"/>
<text text-anchor="middle" x="1229" y="-62.6" font-family="Times,serif" font-size="14.00">CVARadioButtonComponent</text>
</g>
<!-- RadioButtonCheckboxModule -->
<g id="node6" class="node">
<title>RadioButtonCheckboxModule</title>
<polygon fill="#8dd3c7" stroke="black" points="982.88,-149.8 979.88,-153.8 958.88,-153.8 955.88,-149.8 795.12,-149.8 795.12,-113.8 982.88,-113.8 982.88,-149.8"/>
<text text-anchor="middle" x="889" y="-127.6" font-family="Times,serif" font-size="14.00">RadioButtonCheckboxModule</text>
</g>
<!-- CVARadioButtonComponent&#45;&gt;RadioButtonCheckboxModule -->
<g id="edge1" class="edge">
<title>CVARadioButtonComponent&#45;&gt;RadioButtonCheckboxModule</title>
<path fill="none" stroke="black" d="M1229,-84.83C1229,-101.2 1229,-122.8 1229,-122.8 1229,-122.8 993.26,-122.8 993.26,-122.8"/>
<polygon fill="black" stroke="black" points="993.26,-119.3 983.26,-122.8 993.26,-126.3 993.26,-119.3"/>
</g>
<!-- CVARadioButtonExampleComponent -->
<g id="node2" class="node">
<title>CVARadioButtonExampleComponent</title>
<polygon fill="#ffffb3" stroke="black" points="1120.2,-84.8 887.8,-84.8 887.8,-48.8 1120.2,-48.8 1120.2,-84.8"/>
<text text-anchor="middle" x="1004" y="-62.6" font-family="Times,serif" font-size="14.00">CVARadioButtonExampleComponent</text>
</g>
<!-- CVARadioButtonExampleComponent&#45;&gt;RadioButtonCheckboxModule -->
<g id="edge2" class="edge">
<title>CVARadioButtonExampleComponent&#45;&gt;RadioButtonCheckboxModule</title>
<path fill="none" stroke="black" d="M935.42,-84.91C935.42,-84.91 935.42,-103.79 935.42,-103.79"/>
<polygon fill="black" stroke="black" points="931.92,-103.79 935.42,-113.79 938.92,-103.79 931.92,-103.79"/>
</g>
<!-- CheckboxRequiredComponent -->
<g id="node3" class="node">
<title>CheckboxRequiredComponent</title>
<polygon fill="#ffffb3" stroke="black" points="869.92,-84.8 680.08,-84.8 680.08,-48.8 869.92,-48.8 869.92,-84.8"/>
<text text-anchor="middle" x="775" y="-62.6" font-family="Times,serif" font-size="14.00">CheckboxRequiredComponent</text>
</g>
<!-- CheckboxRequiredComponent&#45;&gt;RadioButtonCheckboxModule -->
<g id="edge3" class="edge">
<title>CheckboxRequiredComponent&#45;&gt;RadioButtonCheckboxModule</title>
<path fill="none" stroke="black" d="M832.38,-84.91C832.38,-84.91 832.38,-103.79 832.38,-103.79"/>
<polygon fill="black" stroke="black" points="828.89,-103.79 832.38,-113.79 835.89,-103.79 828.89,-103.79"/>
</g>
<!-- RadioButtonCheckboxComponent -->
<g id="node4" class="node">
<title>RadioButtonCheckboxComponent</title>
<polygon fill="#ffffb3" stroke="black" points="661.66,-84.8 452.34,-84.8 452.34,-48.8 661.66,-48.8 661.66,-84.8"/>
<text text-anchor="middle" x="557" y="-62.6" font-family="Times,serif" font-size="14.00">RadioButtonCheckboxComponent</text>
</g>
<!-- RadioButtonCheckboxComponent&#45;&gt;RadioButtonCheckboxModule -->
<g id="edge4" class="edge">
<title>RadioButtonCheckboxComponent&#45;&gt;RadioButtonCheckboxModule</title>
<path fill="none" stroke="black" d="M557,-84.83C557,-101.2 557,-122.8 557,-122.8 557,-122.8 784.75,-122.8 784.75,-122.8"/>
<polygon fill="black" stroke="black" points="784.75,-126.3 794.75,-122.8 784.75,-119.3 784.75,-126.3"/>
</g>
<!-- RadioButtonRequiredComponent -->
<g id="node5" class="node">
<title>RadioButtonRequiredComponent</title>
<polygon fill="#ffffb3" stroke="black" points="434.21,-84.8 229.79,-84.8 229.79,-48.8 434.21,-48.8 434.21,-84.8"/>
<text text-anchor="middle" x="332" y="-62.6" font-family="Times,serif" font-size="14.00">RadioButtonRequiredComponent</text>
</g>
<!-- RadioButtonRequiredComponent&#45;&gt;RadioButtonCheckboxModule -->
<g id="edge5" class="edge">
<title>RadioButtonRequiredComponent&#45;&gt;RadioButtonCheckboxModule</title>
<path fill="none" stroke="black" d="M332,-84.91C332,-104.14 332,-131.8 332,-131.8 332,-131.8 784.83,-131.8 784.83,-131.8"/>
<polygon fill="black" stroke="black" points="784.83,-135.3 794.83,-131.8 784.83,-128.3 784.83,-135.3"/>
</g>
<!-- RadioButtonCheckboxRoutingModule -->
<g id="node7" class="node">
<title>RadioButtonCheckboxRoutingModule</title>
<polygon fill="#8dd3c7" stroke="black" points="1693.49,-84.8 1690.49,-88.8 1669.49,-88.8 1666.49,-84.8 1460.51,-84.8 1460.51,-48.8 1693.49,-48.8 1693.49,-84.8"/>
<text text-anchor="middle" x="1577" y="-62.6" font-family="Times,serif" font-size="14.00">RadioButtonCheckboxRoutingModule</text>
</g>
<!-- RadioButtonCheckboxRoutingModule&#45;&gt;RadioButtonCheckboxModule -->
<g id="edge6" class="edge">
<title>RadioButtonCheckboxRoutingModule&#45;&gt;RadioButtonCheckboxModule</title>
<path fill="none" stroke="black" d="M1577,-85.09C1577,-107.01 1577,-140.8 1577,-140.8 1577,-140.8 993.22,-140.8 993.22,-140.8"/>
<polygon fill="black" stroke="black" points="993.22,-137.3 983.22,-140.8 993.22,-144.3 993.22,-137.3"/>
</g>
<!-- SharedModule -->
<g id="node8" class="node">
<title>SharedModule</title>
<polygon fill="#8dd3c7" stroke="black" points="1442.42,-84.8 1439.42,-88.8 1418.42,-88.8 1415.42,-84.8 1343.58,-84.8 1343.58,-48.8 1442.42,-48.8 1442.42,-84.8"/>
<text text-anchor="middle" x="1393" y="-62.6" font-family="Times,serif" font-size="14.00">SharedModule</text>
</g>
<!-- SharedModule&#45;&gt;RadioButtonCheckboxModule -->
<g id="edge7" class="edge">
<title>SharedModule&#45;&gt;RadioButtonCheckboxModule</title>
<path fill="none" stroke="black" d="M1393,-84.91C1393,-104.14 1393,-131.8 1393,-131.8 1393,-131.8 992.91,-131.8 992.91,-131.8"/>
<polygon fill="black" stroke="black" points="992.91,-128.3 982.91,-131.8 992.91,-135.3 992.91,-128.3"/>
</g>
<!-- StyleSelectorService -->
<g id="node9" class="node">
<title>StyleSelectorService</title>
<ellipse fill="#fdb462" stroke="black" cx="115" cy="-66.8" rx="91.46" ry="18"/>
<text text-anchor="middle" x="115" y="-62.6" font-family="Times,serif" font-size="14.00">StyleSelectorService</text>
</g>
<!-- StyleSelectorService&#45;&gt;RadioButtonCheckboxModule -->
<g id="edge8" class="edge">
<title>StyleSelectorService&#45;&gt;RadioButtonCheckboxModule</title>
<path fill="none" stroke="black" d="M115,-85.09C115,-107.01 115,-140.8 115,-140.8 115,-140.8 784.87,-140.8 784.87,-140.8"/>
<polygon fill="black" stroke="black" points="784.87,-144.3 794.87,-140.8 784.87,-137.3 784.87,-144.3"/>
</g>
</g>
</svg>
