<?xml version="1.0" encoding="UTF-8" standalone="no"?>
<!DOCTYPE svg PUBLIC "-//W3C//DTD SVG 1.1//EN"
 "http://www.w3.org/Graphics/SVG/1.1/DTD/svg11.dtd">
<!-- Generated by graphviz version 2.47.3 (20210619.1520)
 -->
<!-- Title: dependencies Pages: 1 -->
<svg width="1725pt" height="174pt"
 viewBox="0.00 0.00 1725.00 173.80" xmlns="http://www.w3.org/2000/svg" xmlns:xlink="http://www.w3.org/1999/xlink">
<g id="graph0" class="graph" transform="scale(1 1) rotate(0) translate(4 169.8)">
<title>dependencies</title>
<polygon fill="white" stroke="transparent" points="-4,4 -4,-169.8 1721,-169.8 1721,4 -4,4"/>
<text text-anchor="middle" x="858.5" y="-8.2" font-family="sans-serif" font-size="14.00">dependencies</text>
<g id="clust1" class="cluster">
<title>cluster_RadioButtonCheckboxModule</title>
<polygon fill="none" stroke="black" stroke-dasharray="1,5" points="8,-32.8 8,-157.8 1709,-157.8 1709,-32.8 8,-32.8"/>
</g>
<g id="clust11" class="cluster">
<title>cluster_RadioButtonCheckboxModule_providers</title>
<polygon fill="none" stroke="black" points="1503,-40.8 1503,-92.8 1701,-92.8 1701,-40.8 1503,-40.8"/>
</g>
<g id="clust2" class="cluster">
<title>cluster_RadioButtonCheckboxModule_declarations</title>
<polygon fill="none" stroke="black" points="389,-40.8 389,-92.8 1495,-92.8 1495,-40.8 389,-40.8"/>
</g>
<g id="clust8" class="cluster">
<title>cluster_RadioButtonCheckboxModule_imports</title>
<polygon fill="none" stroke="black" points="16,-40.8 16,-92.8 381,-92.8 381,-40.8 16,-40.8"/>
</g>
<!-- CVARadioButtonComponent -->
<g id="node1" class="node">
<title>CVARadioButtonComponent</title>
<polygon fill="#ffffb3" stroke="black" points="1487.44,-84.8 1304.56,-84.8 1304.56,-48.8 1487.44,-48.8 1487.44,-84.8"/>
<text text-anchor="middle" x="1396" y="-62.6" font-family="Times,serif" font-size="14.00">CVARadioButtonComponent</text>
</g>
<!-- RadioButtonCheckboxModule -->
<g id="node6" class="node">
<title>RadioButtonCheckboxModule</title>
<polygon fill="#8dd3c7" stroke="black" points="926.88,-149.8 923.88,-153.8 902.88,-153.8 899.88,-149.8 739.12,-149.8 739.12,-113.8 926.88,-113.8 926.88,-149.8"/>
<text text-anchor="middle" x="833" y="-127.6" font-family="Times,serif" font-size="14.00">RadioButtonCheckboxModule</text>
</g>
<!-- CVARadioButtonComponent&#45;&gt;RadioButtonCheckboxModule -->
<g id="edge1" class="edge">
<title>CVARadioButtonComponent&#45;&gt;RadioButtonCheckboxModule</title>
<path fill="none" stroke="black" d="M1396,-84.91C1396,-104.14 1396,-131.8 1396,-131.8 1396,-131.8 936.92,-131.8 936.92,-131.8"/>
<polygon fill="black" stroke="black" points="936.92,-128.3 926.92,-131.8 936.92,-135.3 936.92,-128.3"/>
</g>
<!-- CVARadioButtonExampleComponent -->
<g id="node2" class="node">
<title>CVARadioButtonExampleComponent</title>
<polygon fill="#ffffb3" stroke="black" points="1287.2,-84.8 1054.8,-84.8 1054.8,-48.8 1287.2,-48.8 1287.2,-84.8"/>
<text text-anchor="middle" x="1171" y="-62.6" font-family="Times,serif" font-size="14.00">CVARadioButtonExampleComponent</text>
</g>
<!-- CVARadioButtonExampleComponent&#45;&gt;RadioButtonCheckboxModule -->
<g id="edge2" class="edge">
<title>CVARadioButtonExampleComponent&#45;&gt;RadioButtonCheckboxModule</title>
<path fill="none" stroke="black" d="M1171,-84.83C1171,-101.2 1171,-122.8 1171,-122.8 1171,-122.8 937.15,-122.8 937.15,-122.8"/>
<polygon fill="black" stroke="black" points="937.15,-119.3 927.15,-122.8 937.15,-126.3 937.15,-119.3"/>
</g>
<!-- CheckboxRequiredComponent -->
<g id="node3" class="node">
<title>CheckboxRequiredComponent</title>
<polygon fill="#ffffb3" stroke="black" points="1036.92,-84.8 847.08,-84.8 847.08,-48.8 1036.92,-48.8 1036.92,-84.8"/>
<text text-anchor="middle" x="942" y="-62.6" font-family="Times,serif" font-size="14.00">CheckboxRequiredComponent</text>
</g>
<!-- CheckboxRequiredComponent&#45;&gt;RadioButtonCheckboxModule -->
<g id="edge3" class="edge">
<title>CheckboxRequiredComponent&#45;&gt;RadioButtonCheckboxModule</title>
<path fill="none" stroke="black" d="M887.12,-84.91C887.12,-84.91 887.12,-103.79 887.12,-103.79"/>
<polygon fill="black" stroke="black" points="883.62,-103.79 887.12,-113.79 890.62,-103.79 883.62,-103.79"/>
</g>
<!-- RadioButtonCheckboxComponent -->
<g id="node4" class="node">
<title>RadioButtonCheckboxComponent</title>
<polygon fill="#ffffb3" stroke="black" points="828.66,-84.8 619.34,-84.8 619.34,-48.8 828.66,-48.8 828.66,-84.8"/>
<text text-anchor="middle" x="724" y="-62.6" font-family="Times,serif" font-size="14.00">RadioButtonCheckboxComponent</text>
</g>
<!-- RadioButtonCheckboxComponent&#45;&gt;RadioButtonCheckboxModule -->
<g id="edge4" class="edge">
<title>RadioButtonCheckboxComponent&#45;&gt;RadioButtonCheckboxModule</title>
<path fill="none" stroke="black" d="M783.95,-84.91C783.95,-84.91 783.95,-103.79 783.95,-103.79"/>
<polygon fill="black" stroke="black" points="780.45,-103.79 783.95,-113.79 787.45,-103.79 780.45,-103.79"/>
</g>
<!-- RadioButtonRequiredComponent -->
<g id="node5" class="node">
<title>RadioButtonRequiredComponent</title>
<polygon fill="#ffffb3" stroke="black" points="601.21,-84.8 396.79,-84.8 396.79,-48.8 601.21,-48.8 601.21,-84.8"/>
<text text-anchor="middle" x="499" y="-62.6" font-family="Times,serif" font-size="14.00">RadioButtonRequiredComponent</text>
</g>
<!-- RadioButtonRequiredComponent&#45;&gt;RadioButtonCheckboxModule -->
<g id="edge5" class="edge">
<title>RadioButtonRequiredComponent&#45;&gt;RadioButtonCheckboxModule</title>
<path fill="none" stroke="black" d="M499,-84.83C499,-101.2 499,-122.8 499,-122.8 499,-122.8 729.07,-122.8 729.07,-122.8"/>
<polygon fill="black" stroke="black" points="729.07,-126.3 739.07,-122.8 729.07,-119.3 729.07,-126.3"/>
</g>
<!-- RadioButtonCheckboxRoutingModule -->
<g id="node7" class="node">
<title>RadioButtonCheckboxRoutingModule</title>
<polygon fill="#8dd3c7" stroke="black" points="373.49,-84.8 370.49,-88.8 349.49,-88.8 346.49,-84.8 140.51,-84.8 140.51,-48.8 373.49,-48.8 373.49,-84.8"/>
<text text-anchor="middle" x="257" y="-62.6" font-family="Times,serif" font-size="14.00">RadioButtonCheckboxRoutingModule</text>
</g>
<!-- RadioButtonCheckboxRoutingModule&#45;&gt;RadioButtonCheckboxModule -->
<g id="edge6" class="edge">
<title>RadioButtonCheckboxRoutingModule&#45;&gt;RadioButtonCheckboxModule</title>
<path fill="none" stroke="black" d="M257,-84.91C257,-104.14 257,-131.8 257,-131.8 257,-131.8 728.85,-131.8 728.85,-131.8"/>
<polygon fill="black" stroke="black" points="728.85,-135.3 738.85,-131.8 728.85,-128.3 728.85,-135.3"/>
</g>
<!-- SharedModule -->
<g id="node8" class="node">
<title>SharedModule</title>
<polygon fill="#8dd3c7" stroke="black" points="122.42,-84.8 119.42,-88.8 98.42,-88.8 95.42,-84.8 23.58,-84.8 23.58,-48.8 122.42,-48.8 122.42,-84.8"/>
<text text-anchor="middle" x="73" y="-62.6" font-family="Times,serif" font-size="14.00">SharedModule</text>
</g>
<!-- SharedModule&#45;&gt;RadioButtonCheckboxModule -->
<g id="edge7" class="edge">
<title>SharedModule&#45;&gt;RadioButtonCheckboxModule</title>
<path fill="none" stroke="black" d="M73,-85.09C73,-107.01 73,-140.8 73,-140.8 73,-140.8 729.05,-140.8 729.05,-140.8"/>
<polygon fill="black" stroke="black" points="729.05,-144.3 739.05,-140.8 729.05,-137.3 729.05,-144.3"/>
</g>
<!-- StyleSelectorService -->
<g id="node9" class="node">
<title>StyleSelectorService</title>
<ellipse fill="#fdb462" stroke="black" cx="1602" cy="-66.8" rx="91.46" ry="18"/>
<text text-anchor="middle" x="1602" y="-62.6" font-family="Times,serif" font-size="14.00">StyleSelectorService</text>
</g>
<!-- StyleSelectorService&#45;&gt;RadioButtonCheckboxModule -->
<g id="edge8" class="edge">
<title>StyleSelectorService&#45;&gt;RadioButtonCheckboxModule</title>
<path fill="none" stroke="black" d="M1602,-85.09C1602,-107.01 1602,-140.8 1602,-140.8 1602,-140.8 936.91,-140.8 936.91,-140.8"/>
<polygon fill="black" stroke="black" points="936.91,-137.3 926.91,-140.8 936.91,-144.3 936.91,-137.3"/>
</g>
</g>
</svg>
