<?xml version="1.0" encoding="UTF-8" standalone="no"?>
<!DOCTYPE svg PUBLIC "-//W3C//DTD SVG 1.1//EN"
 "http://www.w3.org/Graphics/SVG/1.1/DTD/svg11.dtd">
<!-- Generated by graphviz version 2.47.3 (20210619.1520)
 -->
<!-- Title: dependencies Pages: 1 -->
<svg width="1653pt" height="174pt"
 viewBox="0.00 0.00 1653.00 173.80" xmlns="http://www.w3.org/2000/svg" xmlns:xlink="http://www.w3.org/1999/xlink">
<g id="graph0" class="graph" transform="scale(1 1) rotate(0) translate(4 169.8)">
<title>dependencies</title>
<polygon fill="white" stroke="transparent" points="-4,4 -4,-169.8 1649,-169.8 1649,4 -4,4"/>
<text text-anchor="middle" x="822.5" y="-8.2" font-family="sans-serif" font-size="14.00">dependencies</text>
<g id="clust1" class="cluster">
<title>cluster_SelectorModule</title>
<polygon fill="none" stroke="black" stroke-dasharray="1,5" points="8,-32.8 8,-157.8 1637,-157.8 1637,-32.8 8,-32.8"/>
</g>
<g id="clust2" class="cluster">
<title>cluster_SelectorModule_declarations</title>
<polygon fill="none" stroke="black" points="512,-40.8 512,-92.8 1629,-92.8 1629,-40.8 512,-40.8"/>
</g>
<g id="clust9" class="cluster">
<title>cluster_SelectorModule_imports</title>
<polygon fill="none" stroke="black" points="222,-40.8 222,-92.8 504,-92.8 504,-40.8 222,-40.8"/>
</g>
<g id="clust12" class="cluster">
<title>cluster_SelectorModule_providers</title>
<polygon fill="none" stroke="black" points="16,-40.8 16,-92.8 214,-92.8 214,-40.8 16,-40.8"/>
</g>
<!-- CVASelectorComponent -->
<g id="node1" class="node">
<title>CVASelectorComponent</title>
<polygon fill="#ffffb3" stroke="black" points="1621.25,-84.8 1464.75,-84.8 1464.75,-48.8 1621.25,-48.8 1621.25,-84.8"/>
<text text-anchor="middle" x="1543" y="-62.6" font-family="Times,serif" font-size="14.00">CVASelectorComponent</text>
</g>
<!-- SelectorModule -->
<g id="node7" class="node">
<title>SelectorModule</title>
<polygon fill="#8dd3c7" stroke="black" points="820.92,-149.8 817.92,-153.8 796.92,-153.8 793.92,-149.8 715.08,-149.8 715.08,-113.8 820.92,-113.8 820.92,-149.8"/>
<text text-anchor="middle" x="768" y="-127.6" font-family="Times,serif" font-size="14.00">SelectorModule</text>
</g>
<!-- CVASelectorComponent&#45;&gt;SelectorModule -->
<g id="edge1" class="edge">
<title>CVASelectorComponent&#45;&gt;SelectorModule</title>
<path fill="none" stroke="black" d="M1543,-84.81C1543,-107.29 1543,-142.8 1543,-142.8 1543,-142.8 830.96,-142.8 830.96,-142.8"/>
<polygon fill="black" stroke="black" points="830.96,-139.3 820.96,-142.8 830.96,-146.3 830.96,-139.3"/>
</g>
<!-- CVASelectorExampleComponent -->
<g id="node2" class="node">
<title>CVASelectorExampleComponent</title>
<polygon fill="#ffffb3" stroke="black" points="1446.01,-84.8 1239.99,-84.8 1239.99,-48.8 1446.01,-48.8 1446.01,-84.8"/>
<text text-anchor="middle" x="1343" y="-62.6" font-family="Times,serif" font-size="14.00">CVASelectorExampleComponent</text>
</g>
<!-- CVASelectorExampleComponent&#45;&gt;SelectorModule -->
<g id="edge2" class="edge">
<title>CVASelectorExampleComponent&#45;&gt;SelectorModule</title>
<path fill="none" stroke="black" d="M1343,-84.93C1343,-105.37 1343,-135.8 1343,-135.8 1343,-135.8 830.81,-135.8 830.81,-135.8"/>
<polygon fill="black" stroke="black" points="830.81,-132.3 820.81,-135.8 830.81,-139.3 830.81,-132.3"/>
</g>
<!-- MaterialSelectorComponent -->
<g id="node3" class="node">
<title>MaterialSelectorComponent</title>
<polygon fill="#ffffb3" stroke="black" points="1221.12,-84.8 1046.88,-84.8 1046.88,-48.8 1221.12,-48.8 1221.12,-84.8"/>
<text text-anchor="middle" x="1134" y="-62.6" font-family="Times,serif" font-size="14.00">MaterialSelectorComponent</text>
</g>
<!-- MaterialSelectorComponent&#45;&gt;SelectorModule -->
<g id="edge3" class="edge">
<title>MaterialSelectorComponent&#45;&gt;SelectorModule</title>
<path fill="none" stroke="black" d="M1134,-85.07C1134,-103.36 1134,-128.8 1134,-128.8 1134,-128.8 830.83,-128.8 830.83,-128.8"/>
<polygon fill="black" stroke="black" points="830.83,-125.3 820.83,-128.8 830.83,-132.3 830.83,-125.3"/>
</g>
<!-- RequiredSelectorComponent -->
<g id="node4" class="node">
<title>RequiredSelectorComponent</title>
<polygon fill="#ffffb3" stroke="black" points="1028.02,-84.8 849.98,-84.8 849.98,-48.8 1028.02,-48.8 1028.02,-84.8"/>
<text text-anchor="middle" x="939" y="-62.6" font-family="Times,serif" font-size="14.00">RequiredSelectorComponent</text>
</g>
<!-- RequiredSelectorComponent&#45;&gt;SelectorModule -->
<g id="edge4" class="edge">
<title>RequiredSelectorComponent&#45;&gt;SelectorModule</title>
<path fill="none" stroke="black" d="M939,-84.81C939,-100.85 939,-121.8 939,-121.8 939,-121.8 831.17,-121.8 831.17,-121.8"/>
<polygon fill="black" stroke="black" points="831.17,-118.3 821.17,-121.8 831.17,-125.3 831.17,-118.3"/>
</g>
<!-- SelectorComponent -->
<g id="node5" class="node">
<title>SelectorComponent</title>
<polygon fill="#ffffb3" stroke="black" points="831.7,-84.8 704.3,-84.8 704.3,-48.8 831.7,-48.8 831.7,-84.8"/>
<text text-anchor="middle" x="768" y="-62.6" font-family="Times,serif" font-size="14.00">SelectorComponent</text>
</g>
<!-- SelectorComponent&#45;&gt;SelectorModule -->
<g id="edge5" class="edge">
<title>SelectorComponent&#45;&gt;SelectorModule</title>
<path fill="none" stroke="black" d="M768,-84.91C768,-84.91 768,-103.79 768,-103.79"/>
<polygon fill="black" stroke="black" points="764.5,-103.79 768,-113.79 771.5,-103.79 764.5,-103.79"/>
</g>
<!-- SimpleSelectorComponent -->
<g id="node6" class="node">
<title>SimpleSelectorComponent</title>
<polygon fill="#ffffb3" stroke="black" points="686.37,-84.8 519.63,-84.8 519.63,-48.8 686.37,-48.8 686.37,-84.8"/>
<text text-anchor="middle" x="603" y="-62.6" font-family="Times,serif" font-size="14.00">SimpleSelectorComponent</text>
</g>
<!-- SimpleSelectorComponent&#45;&gt;SelectorModule -->
<g id="edge6" class="edge">
<title>SimpleSelectorComponent&#45;&gt;SelectorModule</title>
<path fill="none" stroke="black" d="M603,-84.81C603,-100.85 603,-121.8 603,-121.8 603,-121.8 704.88,-121.8 704.88,-121.8"/>
<polygon fill="black" stroke="black" points="704.88,-125.3 714.88,-121.8 704.88,-118.3 704.88,-125.3"/>
</g>
<!-- SelectorRoutingModule -->
<g id="node8" class="node">
<title>SelectorRoutingModule</title>
<polygon fill="#8dd3c7" stroke="black" points="496.04,-84.8 493.04,-88.8 472.04,-88.8 469.04,-84.8 345.96,-84.8 345.96,-48.8 496.04,-48.8 496.04,-84.8"/>
<text text-anchor="middle" x="421" y="-62.6" font-family="Times,serif" font-size="14.00">SelectorRoutingModule</text>
</g>
<!-- SelectorRoutingModule&#45;&gt;SelectorModule -->
<g id="edge7" class="edge">
<title>SelectorRoutingModule&#45;&gt;SelectorModule</title>
<path fill="none" stroke="black" d="M421,-85.07C421,-103.36 421,-128.8 421,-128.8 421,-128.8 704.92,-128.8 704.92,-128.8"/>
<polygon fill="black" stroke="black" points="704.92,-132.3 714.92,-128.8 704.92,-125.3 704.92,-132.3"/>
</g>
<!-- SharedModule -->
<g id="node9" class="node">
<title>SharedModule</title>
<polygon fill="#8dd3c7" stroke="black" points="328.42,-84.8 325.42,-88.8 304.42,-88.8 301.42,-84.8 229.58,-84.8 229.58,-48.8 328.42,-48.8 328.42,-84.8"/>
<text text-anchor="middle" x="279" y="-62.6" font-family="Times,serif" font-size="14.00">SharedModule</text>
</g>
<!-- SharedModule&#45;&gt;SelectorModule -->
<g id="edge8" class="edge">
<title>SharedModule&#45;&gt;SelectorModule</title>
<path fill="none" stroke="black" d="M279,-84.93C279,-105.37 279,-135.8 279,-135.8 279,-135.8 705.2,-135.8 705.2,-135.8"/>
<polygon fill="black" stroke="black" points="705.2,-139.3 715.2,-135.8 705.2,-132.3 705.2,-139.3"/>
</g>
<!-- StyleSelectorService -->
<g id="node10" class="node">
<title>StyleSelectorService</title>
<ellipse fill="#fdb462" stroke="black" cx="115" cy="-66.8" rx="91.46" ry="18"/>
<text text-anchor="middle" x="115" y="-62.6" font-family="Times,serif" font-size="14.00">StyleSelectorService</text>
</g>
<!-- StyleSelectorService&#45;&gt;SelectorModule -->
<g id="edge9" class="edge">
<title>StyleSelectorService&#45;&gt;SelectorModule</title>
<path fill="none" stroke="black" d="M115,-84.81C115,-107.29 115,-142.8 115,-142.8 115,-142.8 705.12,-142.8 705.12,-142.8"/>
<polygon fill="black" stroke="black" points="705.12,-146.3 715.12,-142.8 705.12,-139.3 705.12,-146.3"/>
</g>
</g>
</svg>
