<?xml version="1.0" encoding="UTF-8" standalone="no"?>
<!DOCTYPE svg PUBLIC "-//W3C//DTD SVG 1.1//EN"
 "http://www.w3.org/Graphics/SVG/1.1/DTD/svg11.dtd">
<!-- Generated by graphviz version 2.47.3 (20210619.1520)
 -->
<!-- Title: dependencies Pages: 1 -->
<svg width="844pt" height="174pt"
 viewBox="0.00 0.00 844.00 173.80" xmlns="http://www.w3.org/2000/svg" xmlns:xlink="http://www.w3.org/1999/xlink">
<g id="graph0" class="graph" transform="scale(1 1) rotate(0) translate(4 169.8)">
<title>dependencies</title>
<polygon fill="white" stroke="transparent" points="-4,4 -4,-169.8 840,-169.8 840,4 -4,4"/>
<text text-anchor="middle" x="418" y="-8.2" font-family="sans-serif" font-size="14.00">dependencies</text>
<g id="clust1" class="cluster">
<title>cluster_SelectorModule</title>
<polygon fill="none" stroke="black" stroke-dasharray="1,5" points="8,-32.8 8,-157.8 828,-157.8 828,-32.8 8,-32.8"/>
</g>
<g id="clust6" class="cluster">
<title>cluster_SelectorModule_imports</title>
<polygon fill="none" stroke="black" points="535,-40.8 535,-92.8 820,-92.8 820,-40.8 535,-40.8"/>
</g>
<g id="clust2" class="cluster">
<title>cluster_SelectorModule_declarations</title>
<polygon fill="none" stroke="black" points="16,-40.8 16,-92.8 527,-92.8 527,-40.8 16,-40.8"/>
</g>
<!-- CVASelectorComponent -->
<g id="node1" class="node">
<title>CVASelectorComponent</title>
<polygon fill="#ffffb3" stroke="black" points="519.25,-84.8 362.75,-84.8 362.75,-48.8 519.25,-48.8 519.25,-84.8"/>
<text text-anchor="middle" x="441" y="-62.6" font-family="Times,serif" font-size="14.00">CVASelectorComponent</text>
</g>
<!-- SelectorModule -->
<g id="node4" class="node">
<title>SelectorModule</title>
<polygon fill="#8dd3c7" stroke="black" points="493.92,-149.8 490.92,-153.8 469.92,-153.8 466.92,-149.8 388.08,-149.8 388.08,-113.8 493.92,-113.8 493.92,-149.8"/>
<text text-anchor="middle" x="441" y="-127.6" font-family="Times,serif" font-size="14.00">SelectorModule</text>
</g>
<!-- CVASelectorComponent&#45;&gt;SelectorModule -->
<g id="edge1" class="edge">
<title>CVASelectorComponent&#45;&gt;SelectorModule</title>
<path fill="none" stroke="black" d="M441,-84.91C441,-84.91 441,-103.79 441,-103.79"/>
<polygon fill="black" stroke="black" points="437.5,-103.79 441,-113.79 444.5,-103.79 437.5,-103.79"/>
</g>
<!-- MaterialSelectorComponent -->
<g id="node2" class="node">
<title>MaterialSelectorComponent</title>
<polygon fill="#ffffb3" stroke="black" points="344.12,-84.8 169.88,-84.8 169.88,-48.8 344.12,-48.8 344.12,-84.8"/>
<text text-anchor="middle" x="257" y="-62.6" font-family="Times,serif" font-size="14.00">MaterialSelectorComponent</text>
</g>
<!-- MaterialSelectorComponent&#45;&gt;SelectorModule -->
<g id="edge2" class="edge">
<title>MaterialSelectorComponent&#45;&gt;SelectorModule</title>
<path fill="none" stroke="black" d="M257,-84.82C257,-102.17 257,-125.8 257,-125.8 257,-125.8 378.27,-125.8 378.27,-125.8"/>
<polygon fill="black" stroke="black" points="378.27,-129.3 388.27,-125.8 378.27,-122.3 378.27,-129.3"/>
</g>
<!-- SelectorComponent -->
<g id="node3" class="node">
<title>SelectorComponent</title>
<polygon fill="#ffffb3" stroke="black" points="151.7,-84.8 24.3,-84.8 24.3,-48.8 151.7,-48.8 151.7,-84.8"/>
<text text-anchor="middle" x="88" y="-62.6" font-family="Times,serif" font-size="14.00">SelectorComponent</text>
</g>
<!-- SelectorComponent&#45;&gt;SelectorModule -->
<g id="edge3" class="edge">
<title>SelectorComponent&#45;&gt;SelectorModule</title>
<path fill="none" stroke="black" d="M88,-85.08C88,-106.12 88,-137.8 88,-137.8 88,-137.8 378.15,-137.8 378.15,-137.8"/>
<polygon fill="black" stroke="black" points="378.15,-141.3 388.15,-137.8 378.15,-134.3 378.15,-141.3"/>
</g>
<!-- ComunModule -->
<g id="node5" class="node">
<title>ComunModule</title>
<polygon fill="#8dd3c7" stroke="black" points="812.28,-84.8 809.28,-88.8 788.28,-88.8 785.28,-84.8 711.72,-84.8 711.72,-48.8 812.28,-48.8 812.28,-84.8"/>
<text text-anchor="middle" x="762" y="-62.6" font-family="Times,serif" font-size="14.00">ComunModule</text>
</g>
<!-- ComunModule&#45;&gt;SelectorModule -->
<g id="edge4" class="edge">
<title>ComunModule&#45;&gt;SelectorModule</title>
<path fill="none" stroke="black" d="M762,-85.08C762,-106.12 762,-137.8 762,-137.8 762,-137.8 504.01,-137.8 504.01,-137.8"/>
<polygon fill="black" stroke="black" points="504.01,-134.3 494.01,-137.8 504.01,-141.3 504.01,-134.3"/>
</g>
<!-- SelectorRoutingModule -->
<g id="node6" class="node">
<title>SelectorRoutingModule</title>
<polygon fill="#8dd3c7" stroke="black" points="693.04,-84.8 690.04,-88.8 669.04,-88.8 666.04,-84.8 542.96,-84.8 542.96,-48.8 693.04,-48.8 693.04,-84.8"/>
<text text-anchor="middle" x="618" y="-62.6" font-family="Times,serif" font-size="14.00">SelectorRoutingModule</text>
</g>
<!-- SelectorRoutingModule&#45;&gt;SelectorModule -->
<g id="edge5" class="edge">
<title>SelectorRoutingModule&#45;&gt;SelectorModule</title>
<path fill="none" stroke="black" d="M618,-84.82C618,-102.17 618,-125.8 618,-125.8 618,-125.8 504.11,-125.8 504.11,-125.8"/>
<polygon fill="black" stroke="black" points="504.11,-122.3 494.11,-125.8 504.11,-129.3 504.11,-122.3"/>
</g>
</g>
</svg>
