<?xml version="1.0" encoding="UTF-8" standalone="no"?>
<!DOCTYPE svg PUBLIC "-//W3C//DTD SVG 1.1//EN"
 "http://www.w3.org/Graphics/SVG/1.1/DTD/svg11.dtd">
<!-- Generated by graphviz version 2.47.3 (20210619.1520)
 -->
<!-- Title: dependencies Pages: 1 -->
<svg width="4886pt" height="250pt"
 viewBox="0.00 0.00 4886.00 249.80" xmlns="http://www.w3.org/2000/svg" xmlns:xlink="http://www.w3.org/1999/xlink">
<g id="graph0" class="graph" transform="scale(1 1) rotate(0) translate(4 245.8)">
<title>dependencies</title>
<polygon fill="white" stroke="transparent" points="-4,4 -4,-245.8 4882,-245.8 4882,4 -4,4"/>
<text text-anchor="middle" x="2439" y="-8.2" font-family="sans-serif" font-size="14.00">dependencies</text>
<g id="clust1" class="cluster">
<title>cluster_AppModule</title>
<polygon fill="none" stroke="black" stroke-dasharray="1,5" points="8,-32.8 8,-233.8 430,-233.8 430,-32.8 8,-32.8"/>
</g>
<g id="clust2" class="cluster">
<title>cluster_AppModule_declarations</title>
<polygon fill="none" stroke="black" points="168,-40.8 168,-92.8 422,-92.8 422,-40.8 168,-40.8"/>
</g>
<g id="clust5" class="cluster">
<title>cluster_AppModule_imports</title>
<polygon fill="none" stroke="black" points="16,-40.8 16,-92.8 160,-92.8 160,-40.8 16,-40.8"/>
</g>
<g id="clust7" class="cluster">
<title>cluster_AppModule_bootstrap</title>
<polygon fill="none" stroke="black" points="171,-173.8 171,-225.8 295,-225.8 295,-173.8 171,-173.8"/>
</g>
<g id="clust15" class="cluster">
<title>cluster_ComunModule</title>
<polygon fill="none" stroke="black" stroke-dasharray="1,5" points="999,-32.8 999,-233.8 1181,-233.8 1181,-32.8 999,-32.8"/>
</g>
<g id="clust16" class="cluster">
<title>cluster_ComunModule_declarations</title>
<polygon fill="none" stroke="black" points="1011,-40.8 1011,-92.8 1173,-92.8 1173,-40.8 1011,-40.8"/>
</g>
<g id="clust19" class="cluster">
<title>cluster_ComunModule_exports</title>
<polygon fill="none" stroke="black" points="1007,-173.8 1007,-225.8 1173,-225.8 1173,-173.8 1007,-173.8"/>
</g>
<g id="clust22" class="cluster">
<title>cluster_FormularioModule</title>
<polygon fill="none" stroke="black" stroke-dasharray="1,5" points="438,-100.8 438,-225.8 991,-225.8 991,-100.8 438,-100.8"/>
</g>
<g id="clust23" class="cluster">
<title>cluster_FormularioModule_declarations</title>
<polygon fill="none" stroke="black" points="638,-108.8 638,-160.8 983,-160.8 983,-108.8 638,-108.8"/>
</g>
<g id="clust26" class="cluster">
<title>cluster_FormularioModule_imports</title>
<polygon fill="none" stroke="black" points="446,-108.8 446,-160.8 630,-160.8 630,-108.8 446,-108.8"/>
</g>
<g id="clust36" class="cluster">
<title>cluster_InputTextModule</title>
<polygon fill="none" stroke="black" stroke-dasharray="1,5" points="1189,-100.8 1189,-225.8 3241,-225.8 3241,-100.8 1189,-100.8"/>
</g>
<g id="clust37" class="cluster">
<title>cluster_InputTextModule_declarations</title>
<polygon fill="none" stroke="black" points="1381,-108.8 1381,-160.8 3233,-160.8 3233,-108.8 1381,-108.8"/>
</g>
<g id="clust47" class="cluster">
<title>cluster_InputTextModule_imports</title>
<polygon fill="none" stroke="black" points="1197,-108.8 1197,-160.8 1373,-160.8 1373,-108.8 1197,-108.8"/>
</g>
<g id="clust57" class="cluster">
<title>cluster_RadioButtonCheckboxModule</title>
<polygon fill="none" stroke="black" stroke-dasharray="1,5" points="3249,-100.8 3249,-225.8 4161,-225.8 4161,-100.8 3249,-100.8"/>
</g>
<g id="clust58" class="cluster">
<title>cluster_RadioButtonCheckboxModule_declarations</title>
<polygon fill="none" stroke="black" points="3513,-108.8 3513,-160.8 4153,-160.8 4153,-108.8 3513,-108.8"/>
</g>
<g id="clust62" class="cluster">
<title>cluster_RadioButtonCheckboxModule_imports</title>
<polygon fill="none" stroke="black" points="3257,-108.8 3257,-160.8 3505,-160.8 3505,-108.8 3257,-108.8"/>
</g>
<g id="clust72" class="cluster">
<title>cluster_SelectorModule</title>
<polygon fill="none" stroke="black" stroke-dasharray="1,5" points="4169,-100.8 4169,-225.8 4870,-225.8 4870,-100.8 4169,-100.8"/>
</g>
<g id="clust73" class="cluster">
<title>cluster_SelectorModule_declarations</title>
<polygon fill="none" stroke="black" points="4351,-108.8 4351,-160.8 4862,-160.8 4862,-108.8 4351,-108.8"/>
</g>
<g id="clust77" class="cluster">
<title>cluster_SelectorModule_imports</title>
<polygon fill="none" stroke="black" points="4177,-108.8 4177,-160.8 4343,-160.8 4343,-108.8 4177,-108.8"/>
</g>
<!-- AppComponent -->
<g id="node1" class="node">
<title>AppComponent</title>
<polygon fill="#ffffb3" stroke="black" points="413.94,-84.8 308.06,-84.8 308.06,-48.8 413.94,-48.8 413.94,-84.8"/>
<text text-anchor="middle" x="361" y="-62.6" font-family="Times,serif" font-size="14.00">AppComponent</text>
</g>
<!-- AppModule -->
<g id="node3" class="node">
<title>AppModule</title>
<polygon fill="#8dd3c7" stroke="black" points="274.66,-152.8 271.66,-156.8 250.66,-156.8 247.66,-152.8 191.34,-152.8 191.34,-116.8 274.66,-116.8 274.66,-152.8"/>
<text text-anchor="middle" x="233" y="-130.6" font-family="Times,serif" font-size="14.00">AppModule</text>
</g>
<!-- AppComponent&#45;&gt;AppModule -->
<g id="edge1" class="edge">
<title>AppComponent&#45;&gt;AppModule</title>
<path fill="none" stroke="black" d="M361,-85.02C361,-105.17 361,-134.8 361,-134.8 361,-134.8 284.91,-134.8 284.91,-134.8"/>
<polygon fill="black" stroke="black" points="284.91,-131.3 274.91,-134.8 284.91,-138.3 284.91,-131.3"/>
</g>
<!-- InicioComponent -->
<g id="node2" class="node">
<title>InicioComponent</title>
<polygon fill="#ffffb3" stroke="black" points="289.99,-84.8 176.01,-84.8 176.01,-48.8 289.99,-48.8 289.99,-84.8"/>
<text text-anchor="middle" x="233" y="-62.6" font-family="Times,serif" font-size="14.00">InicioComponent</text>
</g>
<!-- InicioComponent&#45;&gt;AppModule -->
<g id="edge2" class="edge">
<title>InicioComponent&#45;&gt;AppModule</title>
<path fill="none" stroke="black" d="M233,-85.02C233,-85.02 233,-106.53 233,-106.53"/>
<polygon fill="black" stroke="black" points="229.5,-106.53 233,-116.53 236.5,-106.53 229.5,-106.53"/>
</g>
<!-- AppComponent  -->
<g id="node5" class="node">
<title>AppComponent </title>
<polygon fill="#80b1d3" stroke="black" points="287.44,-217.8 178.56,-217.8 178.56,-181.8 287.44,-181.8 287.44,-217.8"/>
<text text-anchor="middle" x="233" y="-195.6" font-family="Times,serif" font-size="14.00">AppComponent </text>
</g>
<!-- AppModule&#45;&gt;AppComponent  -->
<g id="edge4" class="edge">
<title>AppModule&#45;&gt;AppComponent </title>
<path fill="none" stroke="black" stroke-dasharray="1,5" d="M233,-152.91C233,-152.91 233,-171.79 233,-171.79"/>
<polygon fill="black" stroke="black" points="229.5,-171.79 233,-181.79 236.5,-171.79 229.5,-171.79"/>
</g>
<!-- AppRoutingModule -->
<g id="node4" class="node">
<title>AppRoutingModule</title>
<polygon fill="#8dd3c7" stroke="black" points="152.27,-84.8 149.27,-88.8 128.27,-88.8 125.27,-84.8 23.73,-84.8 23.73,-48.8 152.27,-48.8 152.27,-84.8"/>
<text text-anchor="middle" x="88" y="-62.6" font-family="Times,serif" font-size="14.00">AppRoutingModule</text>
</g>
<!-- AppRoutingModule&#45;&gt;AppModule -->
<g id="edge3" class="edge">
<title>AppRoutingModule&#45;&gt;AppModule</title>
<path fill="none" stroke="black" d="M88,-85.02C88,-105.17 88,-134.8 88,-134.8 88,-134.8 181.06,-134.8 181.06,-134.8"/>
<polygon fill="black" stroke="black" points="181.06,-138.3 191.06,-134.8 181.06,-131.3 181.06,-138.3"/>
</g>
<!-- TablaDatosComponent -->
<g id="node6" class="node">
<title>TablaDatosComponent</title>
<polygon fill="#ffffb3" stroke="black" points="1164.86,-84.8 1019.14,-84.8 1019.14,-48.8 1164.86,-48.8 1164.86,-84.8"/>
<text text-anchor="middle" x="1092" y="-62.6" font-family="Times,serif" font-size="14.00">TablaDatosComponent</text>
</g>
<!-- ComunModule -->
<g id="node7" class="node">
<title>ComunModule</title>
<polygon fill="#8dd3c7" stroke="black" points="1157.28,-152.8 1154.28,-156.8 1133.28,-156.8 1130.28,-152.8 1056.72,-152.8 1056.72,-116.8 1157.28,-116.8 1157.28,-152.8"/>
<text text-anchor="middle" x="1107" y="-130.6" font-family="Times,serif" font-size="14.00">ComunModule</text>
</g>
<!-- TablaDatosComponent&#45;&gt;ComunModule -->
<g id="edge5" class="edge">
<title>TablaDatosComponent&#45;&gt;ComunModule</title>
<path fill="none" stroke="black" d="M1107,-85.02C1107,-85.02 1107,-106.53 1107,-106.53"/>
<polygon fill="black" stroke="black" points="1103.5,-106.53 1107,-116.53 1110.5,-106.53 1103.5,-106.53"/>
</g>
<!-- TablaDatosComponent  -->
<g id="node8" class="node">
<title>TablaDatosComponent </title>
<polygon fill="#fb8072" stroke="black" points="1164.86,-217.8 1015.14,-217.8 1015.14,-181.8 1164.86,-181.8 1164.86,-217.8"/>
<text text-anchor="middle" x="1090" y="-195.6" font-family="Times,serif" font-size="14.00">TablaDatosComponent </text>
</g>
<!-- ComunModule&#45;&gt;TablaDatosComponent  -->
<g id="edge6" class="edge">
<title>ComunModule&#45;&gt;TablaDatosComponent </title>
<path fill="none" stroke="black" stroke-dasharray="5,2" d="M1081.81,-152.91C1081.81,-152.91 1081.81,-171.79 1081.81,-171.79"/>
<polygon fill="black" stroke="black" points="1078.31,-171.79 1081.81,-181.79 1085.31,-171.79 1078.31,-171.79"/>
</g>
<!-- FormularioModule -->
<g id="node11" class="node">
<title>FormularioModule</title>
<polygon fill="#8dd3c7" stroke="black" points="877.04,-217.8 874.04,-221.8 853.04,-221.8 850.04,-217.8 754.96,-217.8 754.96,-181.8 877.04,-181.8 877.04,-217.8"/>
<text text-anchor="middle" x="816" y="-195.6" font-family="Times,serif" font-size="14.00">FormularioModule</text>
</g>
<!-- ComunModule&#45;&gt;FormularioModule -->
<g id="edge9" class="edge">
<title>ComunModule&#45;&gt;FormularioModule</title>
<path fill="none" stroke="black" d="M1056.68,-134.8C1027.01,-134.8 995.24,-134.8 995.24,-134.8 995.24,-134.8 995.24,-199.8 995.24,-199.8 995.24,-199.8 887.18,-199.8 887.18,-199.8"/>
<polygon fill="black" stroke="black" points="887.18,-196.3 877.18,-199.8 887.18,-203.3 887.18,-196.3"/>
</g>
<!-- InputTextModule -->
<g id="node22" class="node">
<title>InputTextModule</title>
<polygon fill="#8dd3c7" stroke="black" points="2175.26,-217.8 2172.26,-221.8 2151.26,-221.8 2148.26,-217.8 2060.74,-217.8 2060.74,-181.8 2175.26,-181.8 2175.26,-217.8"/>
<text text-anchor="middle" x="2118" y="-195.6" font-family="Times,serif" font-size="14.00">InputTextModule</text>
</g>
<!-- ComunModule&#45;&gt;InputTextModule -->
<g id="edge20" class="edge">
<title>ComunModule&#45;&gt;InputTextModule</title>
<path fill="none" stroke="black" d="M1157.28,-134.8C1172.37,-134.8 1185,-134.8 1185,-134.8 1185,-134.8 1185,-211.8 1185,-211.8 1185,-211.8 2050.69,-211.8 2050.69,-211.8"/>
<polygon fill="black" stroke="black" points="2050.69,-215.3 2060.69,-211.8 2050.69,-208.3 2050.69,-215.3"/>
</g>
<!-- RadioButtonCheckboxModule -->
<g id="node27" class="node">
<title>RadioButtonCheckboxModule</title>
<polygon fill="#8dd3c7" stroke="black" points="3712.88,-217.8 3709.88,-221.8 3688.88,-221.8 3685.88,-217.8 3525.12,-217.8 3525.12,-181.8 3712.88,-181.8 3712.88,-217.8"/>
<text text-anchor="middle" x="3619" y="-195.6" font-family="Times,serif" font-size="14.00">RadioButtonCheckboxModule</text>
</g>
<!-- ComunModule&#45;&gt;RadioButtonCheckboxModule -->
<g id="edge25" class="edge">
<title>ComunModule&#45;&gt;RadioButtonCheckboxModule</title>
<path fill="none" stroke="black" d="M1107,-152.91C1107,-162.7 1107,-172.8 1107,-172.8 1107,-172.8 3587.69,-172.8 3587.69,-172.8 3587.69,-172.8 3587.69,-173.68 3587.69,-173.68"/>
<polygon fill="black" stroke="black" points="3584.19,-171.64 3587.69,-181.64 3591.19,-171.64 3584.19,-171.64"/>
</g>
<!-- SelectorModule -->
<g id="node32" class="node">
<title>SelectorModule</title>
<polygon fill="#8dd3c7" stroke="black" points="4498.92,-217.8 4495.92,-221.8 4474.92,-221.8 4471.92,-217.8 4393.08,-217.8 4393.08,-181.8 4498.92,-181.8 4498.92,-217.8"/>
<text text-anchor="middle" x="4446" y="-195.6" font-family="Times,serif" font-size="14.00">SelectorModule</text>
</g>
<!-- ComunModule&#45;&gt;SelectorModule -->
<g id="edge30" class="edge">
<title>ComunModule&#45;&gt;SelectorModule</title>
<path fill="none" stroke="black" d="M1132.19,-153.01C1132.19,-158.35 1132.19,-162.8 1132.19,-162.8 1132.19,-162.8 4428.43,-162.8 4428.43,-162.8 4428.43,-162.8 4428.43,-171.73 4428.43,-171.73"/>
<polygon fill="black" stroke="black" points="4424.93,-171.73 4428.43,-181.73 4431.93,-171.73 4424.93,-171.73"/>
</g>
<!-- FormularioComponent -->
<g id="node9" class="node">
<title>FormularioComponent</title>
<polygon fill="#ffffb3" stroke="black" points="975.32,-152.8 830.68,-152.8 830.68,-116.8 975.32,-116.8 975.32,-152.8"/>
<text text-anchor="middle" x="903" y="-130.6" font-family="Times,serif" font-size="14.00">FormularioComponent</text>
</g>
<!-- FormularioComponent&#45;&gt;FormularioModule -->
<g id="edge7" class="edge">
<title>FormularioComponent&#45;&gt;FormularioModule</title>
<path fill="none" stroke="black" d="M854.05,-152.91C854.05,-152.91 854.05,-171.79 854.05,-171.79"/>
<polygon fill="black" stroke="black" points="850.55,-171.79 854.05,-181.79 857.55,-171.79 850.55,-171.79"/>
</g>
<!-- SelectorIdiomaComponent -->
<g id="node10" class="node">
<title>SelectorIdiomaComponent</title>
<polygon fill="#ffffb3" stroke="black" points="812.36,-152.8 645.64,-152.8 645.64,-116.8 812.36,-116.8 812.36,-152.8"/>
<text text-anchor="middle" x="729" y="-130.6" font-family="Times,serif" font-size="14.00">SelectorIdiomaComponent</text>
</g>
<!-- SelectorIdiomaComponent&#45;&gt;FormularioModule -->
<g id="edge8" class="edge">
<title>SelectorIdiomaComponent&#45;&gt;FormularioModule</title>
<path fill="none" stroke="black" d="M783.58,-152.91C783.58,-152.91 783.58,-171.79 783.58,-171.79"/>
<polygon fill="black" stroke="black" points="780.08,-171.79 783.58,-181.79 787.08,-171.79 780.08,-171.79"/>
</g>
<!-- FormularioRoutingModule -->
<g id="node12" class="node">
<title>FormularioRoutingModule</title>
<polygon fill="#8dd3c7" stroke="black" points="621.66,-152.8 618.66,-156.8 597.66,-156.8 594.66,-152.8 454.34,-152.8 454.34,-116.8 621.66,-116.8 621.66,-152.8"/>
<text text-anchor="middle" x="538" y="-130.6" font-family="Times,serif" font-size="14.00">FormularioRoutingModule</text>
</g>
<!-- FormularioRoutingModule&#45;&gt;FormularioModule -->
<g id="edge10" class="edge">
<title>FormularioRoutingModule&#45;&gt;FormularioModule</title>
<path fill="none" stroke="black" d="M538,-152.91C538,-172.14 538,-199.8 538,-199.8 538,-199.8 744.65,-199.8 744.65,-199.8"/>
<polygon fill="black" stroke="black" points="744.65,-203.3 754.65,-199.8 744.65,-196.3 744.65,-203.3"/>
</g>
<!-- CVAInputTextComponent -->
<g id="node13" class="node">
<title>CVAInputTextComponent</title>
<polygon fill="#ffffb3" stroke="black" points="2999.09,-152.8 2832.91,-152.8 2832.91,-116.8 2999.09,-116.8 2999.09,-152.8"/>
<text text-anchor="middle" x="2916" y="-130.6" font-family="Times,serif" font-size="14.00">CVAInputTextComponent</text>
</g>
<!-- CVAInputTextComponent&#45;&gt;InputTextModule -->
<g id="edge11" class="edge">
<title>CVAInputTextComponent&#45;&gt;InputTextModule</title>
<path fill="none" stroke="black" d="M2916,-152.84C2916,-174.46 2916,-207.8 2916,-207.8 2916,-207.8 2185.39,-207.8 2185.39,-207.8"/>
<polygon fill="black" stroke="black" points="2185.39,-204.3 2175.39,-207.8 2185.39,-211.3 2185.39,-204.3"/>
</g>
<!-- CVAInputTextExampleComponent -->
<g id="node14" class="node">
<title>CVAInputTextExampleComponent</title>
<polygon fill="#ffffb3" stroke="black" points="2814.85,-152.8 2599.15,-152.8 2599.15,-116.8 2814.85,-116.8 2814.85,-152.8"/>
<text text-anchor="middle" x="2707" y="-130.6" font-family="Times,serif" font-size="14.00">CVAInputTextExampleComponent</text>
</g>
<!-- CVAInputTextExampleComponent&#45;&gt;InputTextModule -->
<g id="edge12" class="edge">
<title>CVAInputTextExampleComponent&#45;&gt;InputTextModule</title>
<path fill="none" stroke="black" d="M2707,-153.02C2707,-173.17 2707,-202.8 2707,-202.8 2707,-202.8 2185.28,-202.8 2185.28,-202.8"/>
<polygon fill="black" stroke="black" points="2185.28,-199.3 2175.28,-202.8 2185.28,-206.3 2185.28,-199.3"/>
</g>
<!-- InputNumberMinMaxComponent -->
<g id="node15" class="node">
<title>InputNumberMinMaxComponent</title>
<polygon fill="#ffffb3" stroke="black" points="2580.75,-152.8 2375.25,-152.8 2375.25,-116.8 2580.75,-116.8 2580.75,-152.8"/>
<text text-anchor="middle" x="2478" y="-130.6" font-family="Times,serif" font-size="14.00">InputNumberMinMaxComponent</text>
</g>
<!-- InputNumberMinMaxComponent&#45;&gt;InputTextModule -->
<g id="edge13" class="edge">
<title>InputNumberMinMaxComponent&#45;&gt;InputTextModule</title>
<path fill="none" stroke="black" d="M2478,-153.02C2478,-171.63 2478,-197.8 2478,-197.8 2478,-197.8 2185.44,-197.8 2185.44,-197.8"/>
<polygon fill="black" stroke="black" points="2185.44,-194.3 2175.44,-197.8 2185.44,-201.3 2185.44,-194.3"/>
</g>
<!-- InputTextComponent -->
<g id="node16" class="node">
<title>InputTextComponent</title>
<polygon fill="#ffffb3" stroke="black" points="2357.04,-152.8 2220.96,-152.8 2220.96,-116.8 2357.04,-116.8 2357.04,-152.8"/>
<text text-anchor="middle" x="2289" y="-130.6" font-family="Times,serif" font-size="14.00">InputTextComponent</text>
</g>
<!-- InputTextComponent&#45;&gt;InputTextModule -->
<g id="edge14" class="edge">
<title>InputTextComponent&#45;&gt;InputTextModule</title>
<path fill="none" stroke="black" d="M2289,-152.83C2289,-169.86 2289,-192.8 2289,-192.8 2289,-192.8 2185.42,-192.8 2185.42,-192.8"/>
<polygon fill="black" stroke="black" points="2185.42,-189.3 2175.42,-192.8 2185.42,-196.3 2185.42,-189.3"/>
</g>
<!-- InputTextEmailComponent -->
<g id="node17" class="node">
<title>InputTextEmailComponent</title>
<polygon fill="#ffffb3" stroke="black" points="2202.98,-152.8 2033.02,-152.8 2033.02,-116.8 2202.98,-116.8 2202.98,-152.8"/>
<text text-anchor="middle" x="2118" y="-130.6" font-family="Times,serif" font-size="14.00">InputTextEmailComponent</text>
</g>
<!-- InputTextEmailComponent&#45;&gt;InputTextModule -->
<g id="edge15" class="edge">
<title>InputTextEmailComponent&#45;&gt;InputTextModule</title>
<path fill="none" stroke="black" d="M2118,-152.91C2118,-152.91 2118,-171.79 2118,-171.79"/>
<polygon fill="black" stroke="black" points="2114.5,-171.79 2118,-181.79 2121.5,-171.79 2114.5,-171.79"/>
</g>
<!-- InputTextMinMaxLengthComponent -->
<g id="node18" class="node">
<title>InputTextMinMaxLengthComponent</title>
<polygon fill="#ffffb3" stroke="black" points="2014.69,-152.8 1789.31,-152.8 1789.31,-116.8 2014.69,-116.8 2014.69,-152.8"/>
<text text-anchor="middle" x="1902" y="-130.6" font-family="Times,serif" font-size="14.00">InputTextMinMaxLengthComponent</text>
</g>
<!-- InputTextMinMaxLengthComponent&#45;&gt;InputTextModule -->
<g id="edge16" class="edge">
<title>InputTextMinMaxLengthComponent&#45;&gt;InputTextModule</title>
<path fill="none" stroke="black" d="M1902,-153.04C1902,-168.37 1902,-187.8 1902,-187.8 1902,-187.8 2050.68,-187.8 2050.68,-187.8"/>
<polygon fill="black" stroke="black" points="2050.68,-191.3 2060.68,-187.8 2050.68,-184.3 2050.68,-191.3"/>
</g>
<!-- InputTextRequiredComponent -->
<g id="node19" class="node">
<title>InputTextRequiredComponent</title>
<polygon fill="#ffffb3" stroke="black" points="1770.86,-152.8 1583.14,-152.8 1583.14,-116.8 1770.86,-116.8 1770.86,-152.8"/>
<text text-anchor="middle" x="1677" y="-130.6" font-family="Times,serif" font-size="14.00">InputTextRequiredComponent</text>
</g>
<!-- InputTextRequiredComponent&#45;&gt;InputTextModule -->
<g id="edge17" class="edge">
<title>InputTextRequiredComponent&#45;&gt;InputTextModule</title>
<path fill="none" stroke="black" d="M1677,-152.82C1677,-170.17 1677,-193.8 1677,-193.8 1677,-193.8 2050.35,-193.8 2050.35,-193.8"/>
<polygon fill="black" stroke="black" points="2050.35,-197.3 2060.35,-193.8 2050.35,-190.3 2050.35,-197.3"/>
</g>
<!-- InputTextSimpleComponent -->
<g id="node20" class="node">
<title>InputTextSimpleComponent</title>
<polygon fill="#ffffb3" stroke="black" points="1565.21,-152.8 1388.79,-152.8 1388.79,-116.8 1565.21,-116.8 1565.21,-152.8"/>
<text text-anchor="middle" x="1477" y="-130.6" font-family="Times,serif" font-size="14.00">InputTextSimpleComponent</text>
</g>
<!-- InputTextSimpleComponent&#45;&gt;InputTextModule -->
<g id="edge18" class="edge">
<title>InputTextSimpleComponent&#45;&gt;InputTextModule</title>
<path fill="none" stroke="black" d="M1477,-152.91C1477,-172.14 1477,-199.8 1477,-199.8 1477,-199.8 2050.55,-199.8 2050.55,-199.8"/>
<polygon fill="black" stroke="black" points="2050.55,-203.3 2060.55,-199.8 2050.55,-196.3 2050.55,-203.3"/>
</g>
<!-- InputTextValidPatternComponent -->
<g id="node21" class="node">
<title>InputTextValidPatternComponent</title>
<polygon fill="#ffffb3" stroke="black" points="3224.8,-152.8 3017.2,-152.8 3017.2,-116.8 3224.8,-116.8 3224.8,-152.8"/>
<text text-anchor="middle" x="3121" y="-130.6" font-family="Times,serif" font-size="14.00">InputTextValidPatternComponent</text>
</g>
<!-- InputTextValidPatternComponent&#45;&gt;InputTextModule -->
<g id="edge19" class="edge">
<title>InputTextValidPatternComponent&#45;&gt;InputTextModule</title>
<path fill="none" stroke="black" d="M3121,-152.89C3121,-175.93 3121,-212.8 3121,-212.8 3121,-212.8 2185.53,-212.8 2185.53,-212.8"/>
<polygon fill="black" stroke="black" points="2185.53,-209.3 2175.53,-212.8 2185.53,-216.3 2185.53,-209.3"/>
</g>
<!-- InputTextRoutingModule -->
<g id="node23" class="node">
<title>InputTextRoutingModule</title>
<polygon fill="#8dd3c7" stroke="black" points="1364.88,-152.8 1361.88,-156.8 1340.88,-156.8 1337.88,-152.8 1205.12,-152.8 1205.12,-116.8 1364.88,-116.8 1364.88,-152.8"/>
<text text-anchor="middle" x="1285" y="-130.6" font-family="Times,serif" font-size="14.00">InputTextRoutingModule</text>
</g>
<!-- InputTextRoutingModule&#45;&gt;InputTextModule -->
<g id="edge21" class="edge">
<title>InputTextRoutingModule&#45;&gt;InputTextModule</title>
<path fill="none" stroke="black" d="M1285,-153.08C1285,-174.12 1285,-205.8 1285,-205.8 1285,-205.8 2050.42,-205.8 2050.42,-205.8"/>
<polygon fill="black" stroke="black" points="2050.42,-209.3 2060.42,-205.8 2050.42,-202.3 2050.42,-209.3"/>
</g>
<!-- CVARadioButtonComponent -->
<g id="node24" class="node">
<title>CVARadioButtonComponent</title>
<polygon fill="#ffffb3" stroke="black" points="3917.44,-152.8 3734.56,-152.8 3734.56,-116.8 3917.44,-116.8 3917.44,-152.8"/>
<text text-anchor="middle" x="3826" y="-130.6" font-family="Times,serif" font-size="14.00">CVARadioButtonComponent</text>
</g>
<!-- CVARadioButtonComponent&#45;&gt;RadioButtonCheckboxModule -->
<g id="edge22" class="edge">
<title>CVARadioButtonComponent&#45;&gt;RadioButtonCheckboxModule</title>
<path fill="none" stroke="black" d="M3826,-152.83C3826,-169.2 3826,-190.8 3826,-190.8 3826,-190.8 3723.11,-190.8 3723.11,-190.8"/>
<polygon fill="black" stroke="black" points="3723.11,-187.3 3713.11,-190.8 3723.11,-194.3 3723.11,-187.3"/>
</g>
<!-- CustomRadioButtonComponent -->
<g id="node25" class="node">
<title>CustomRadioButtonComponent</title>
<polygon fill="#ffffb3" stroke="black" points="3717.45,-152.8 3520.55,-152.8 3520.55,-116.8 3717.45,-116.8 3717.45,-152.8"/>
<text text-anchor="middle" x="3619" y="-130.6" font-family="Times,serif" font-size="14.00">CustomRadioButtonComponent</text>
</g>
<!-- CustomRadioButtonComponent&#45;&gt;RadioButtonCheckboxModule -->
<g id="edge23" class="edge">
<title>CustomRadioButtonComponent&#45;&gt;RadioButtonCheckboxModule</title>
<path fill="none" stroke="black" d="M3650.31,-152.91C3650.31,-152.91 3650.31,-171.79 3650.31,-171.79"/>
<polygon fill="black" stroke="black" points="3646.81,-171.79 3650.31,-181.79 3653.81,-171.79 3646.81,-171.79"/>
</g>
<!-- RadioButtonCheckboxComponent -->
<g id="node26" class="node">
<title>RadioButtonCheckboxComponent</title>
<polygon fill="#ffffb3" stroke="black" points="4144.66,-152.8 3935.34,-152.8 3935.34,-116.8 4144.66,-116.8 4144.66,-152.8"/>
<text text-anchor="middle" x="4040" y="-130.6" font-family="Times,serif" font-size="14.00">RadioButtonCheckboxComponent</text>
</g>
<!-- RadioButtonCheckboxComponent&#45;&gt;RadioButtonCheckboxModule -->
<g id="edge24" class="edge">
<title>RadioButtonCheckboxComponent&#45;&gt;RadioButtonCheckboxModule</title>
<path fill="none" stroke="black" d="M4040,-152.91C4040,-172.14 4040,-199.8 4040,-199.8 4040,-199.8 3722.96,-199.8 3722.96,-199.8"/>
<polygon fill="black" stroke="black" points="3722.96,-196.3 3712.96,-199.8 3722.96,-203.3 3722.96,-196.3"/>
</g>
<!-- RadioButtonCheckboxRoutingModule -->
<g id="node28" class="node">
<title>RadioButtonCheckboxRoutingModule</title>
<polygon fill="#8dd3c7" stroke="black" points="3497.49,-152.8 3494.49,-156.8 3473.49,-156.8 3470.49,-152.8 3264.51,-152.8 3264.51,-116.8 3497.49,-116.8 3497.49,-152.8"/>
<text text-anchor="middle" x="3381" y="-130.6" font-family="Times,serif" font-size="14.00">RadioButtonCheckboxRoutingModule</text>
</g>
<!-- RadioButtonCheckboxRoutingModule&#45;&gt;RadioButtonCheckboxModule -->
<g id="edge26" class="edge">
<title>RadioButtonCheckboxRoutingModule&#45;&gt;RadioButtonCheckboxModule</title>
<path fill="none" stroke="black" d="M3381,-153.04C3381,-168.37 3381,-187.8 3381,-187.8 3381,-187.8 3514.94,-187.8 3514.94,-187.8"/>
<polygon fill="black" stroke="black" points="3514.94,-191.3 3524.94,-187.8 3514.94,-184.3 3514.94,-191.3"/>
</g>
<!-- CVASelectorComponent -->
<g id="node29" class="node">
<title>CVASelectorComponent</title>
<polygon fill="#ffffb3" stroke="black" points="4708.25,-152.8 4551.75,-152.8 4551.75,-116.8 4708.25,-116.8 4708.25,-152.8"/>
<text text-anchor="middle" x="4630" y="-130.6" font-family="Times,serif" font-size="14.00">CVASelectorComponent</text>
</g>
<!-- CVASelectorComponent&#45;&gt;SelectorModule -->
<g id="edge27" class="edge">
<title>CVASelectorComponent&#45;&gt;SelectorModule</title>
<path fill="none" stroke="black" d="M4630,-152.82C4630,-170.17 4630,-193.8 4630,-193.8 4630,-193.8 4508.73,-193.8 4508.73,-193.8"/>
<polygon fill="black" stroke="black" points="4508.73,-190.3 4498.73,-193.8 4508.73,-197.3 4508.73,-190.3"/>
</g>
<!-- MaterialSelectorComponent -->
<g id="node30" class="node">
<title>MaterialSelectorComponent</title>
<polygon fill="#ffffb3" stroke="black" points="4533.12,-152.8 4358.88,-152.8 4358.88,-116.8 4533.12,-116.8 4533.12,-152.8"/>
<text text-anchor="middle" x="4446" y="-130.6" font-family="Times,serif" font-size="14.00">MaterialSelectorComponent</text>
</g>
<!-- MaterialSelectorComponent&#45;&gt;SelectorModule -->
<g id="edge28" class="edge">
<title>MaterialSelectorComponent&#45;&gt;SelectorModule</title>
<path fill="none" stroke="black" d="M4463.57,-152.91C4463.57,-152.91 4463.57,-171.79 4463.57,-171.79"/>
<polygon fill="black" stroke="black" points="4460.07,-171.79 4463.57,-181.79 4467.07,-171.79 4460.07,-171.79"/>
</g>
<!-- SelectorComponent -->
<g id="node31" class="node">
<title>SelectorComponent</title>
<polygon fill="#ffffb3" stroke="black" points="4853.7,-152.8 4726.3,-152.8 4726.3,-116.8 4853.7,-116.8 4853.7,-152.8"/>
<text text-anchor="middle" x="4790" y="-130.6" font-family="Times,serif" font-size="14.00">SelectorComponent</text>
</g>
<!-- SelectorComponent&#45;&gt;SelectorModule -->
<g id="edge29" class="edge">
<title>SelectorComponent&#45;&gt;SelectorModule</title>
<path fill="none" stroke="black" d="M4790,-153.08C4790,-174.12 4790,-205.8 4790,-205.8 4790,-205.8 4509,-205.8 4509,-205.8"/>
<polygon fill="black" stroke="black" points="4509,-202.3 4499,-205.8 4509,-209.3 4509,-202.3"/>
</g>
<!-- SelectorRoutingModule -->
<g id="node33" class="node">
<title>SelectorRoutingModule</title>
<polygon fill="#8dd3c7" stroke="black" points="4335.04,-152.8 4332.04,-156.8 4311.04,-156.8 4308.04,-152.8 4184.96,-152.8 4184.96,-116.8 4335.04,-116.8 4335.04,-152.8"/>
<text text-anchor="middle" x="4260" y="-130.6" font-family="Times,serif" font-size="14.00">SelectorRoutingModule</text>
</g>
<!-- SelectorRoutingModule&#45;&gt;SelectorModule -->
<g id="edge31" class="edge">
<title>SelectorRoutingModule&#45;&gt;SelectorModule</title>
<path fill="none" stroke="black" d="M4260,-153.09C4260,-175.01 4260,-208.8 4260,-208.8 4260,-208.8 4383.2,-208.8 4383.2,-208.8"/>
<polygon fill="black" stroke="black" points="4383.2,-212.3 4393.2,-208.8 4383.2,-205.3 4383.2,-212.3"/>
</g>
</g>
</svg>
