<?xml version="1.0" encoding="UTF-8" standalone="no"?>
<!DOCTYPE svg PUBLIC "-//W3C//DTD SVG 1.1//EN"
 "http://www.w3.org/Graphics/SVG/1.1/DTD/svg11.dtd">
<!-- Generated by graphviz version 2.47.3 (20210619.1520)
 -->
<!-- Title: dependencies Pages: 1 -->
<svg width="6801pt" height="253pt"
 viewBox="0.00 0.00 6801.00 252.80" xmlns="http://www.w3.org/2000/svg" xmlns:xlink="http://www.w3.org/1999/xlink">
<g id="graph0" class="graph" transform="scale(1 1) rotate(0) translate(4 248.8)">
<title>dependencies</title>
<polygon fill="white" stroke="transparent" points="-4,4 -4,-248.8 6797,-248.8 6797,4 -4,4"/>
<text text-anchor="middle" x="3396.5" y="-8.2" font-family="sans-serif" font-size="14.00">dependencies</text>
<g id="clust1" class="cluster">
<title>cluster_AppModule</title>
<polygon fill="none" stroke="black" stroke-dasharray="1,5" points="8,-32.8 8,-236.8 431,-236.8 431,-32.8 8,-32.8"/>
</g>
<g id="clust2" class="cluster">
<title>cluster_AppModule_declarations</title>
<polygon fill="none" stroke="black" points="168,-40.8 168,-92.8 423,-92.8 423,-40.8 168,-40.8"/>
</g>
<g id="clust5" class="cluster">
<title>cluster_AppModule_imports</title>
<polygon fill="none" stroke="black" points="16,-40.8 16,-92.8 160,-92.8 160,-40.8 16,-40.8"/>
</g>
<g id="clust7" class="cluster">
<title>cluster_AppModule_bootstrap</title>
<polygon fill="none" stroke="black" points="172,-176.8 172,-228.8 296,-228.8 296,-176.8 172,-176.8"/>
</g>
<g id="clust15" class="cluster">
<title>cluster_FormModule</title>
<polygon fill="none" stroke="black" stroke-dasharray="1,5" points="1223,-32.8 1223,-160.8 1817,-160.8 1817,-32.8 1223,-32.8"/>
</g>
<g id="clust16" class="cluster">
<title>cluster_FormModule_declarations</title>
<polygon fill="none" stroke="black" points="1507,-40.8 1507,-92.8 1809,-92.8 1809,-40.8 1507,-40.8"/>
</g>
<g id="clust19" class="cluster">
<title>cluster_FormModule_imports</title>
<polygon fill="none" stroke="black" points="1231,-40.8 1231,-92.8 1499,-92.8 1499,-40.8 1231,-40.8"/>
</g>
<g id="clust29" class="cluster">
<title>cluster_InputTextModule</title>
<polygon fill="none" stroke="black" stroke-dasharray="1,5" points="1825,-32.8 1825,-160.8 4083,-160.8 4083,-32.8 1825,-32.8"/>
</g>
<g id="clust30" class="cluster">
<title>cluster_InputTextModule_declarations</title>
<polygon fill="none" stroke="black" points="2017,-40.8 2017,-92.8 3869,-92.8 3869,-40.8 2017,-40.8"/>
</g>
<g id="clust40" class="cluster">
<title>cluster_InputTextModule_imports</title>
<polygon fill="none" stroke="black" points="1833,-40.8 1833,-92.8 2009,-92.8 2009,-40.8 1833,-40.8"/>
</g>
<g id="clust43" class="cluster">
<title>cluster_InputTextModule_providers</title>
<polygon fill="none" stroke="black" points="3877,-40.8 3877,-92.8 4075,-92.8 4075,-40.8 3877,-40.8"/>
</g>
<g id="clust50" class="cluster">
<title>cluster_RadioButtonCheckboxModule</title>
<polygon fill="none" stroke="black" stroke-dasharray="1,5" points="5407,-32.8 5407,-160.8 6785,-160.8 6785,-32.8 5407,-32.8"/>
</g>
<g id="clust51" class="cluster">
<title>cluster_RadioButtonCheckboxModule_declarations</title>
<polygon fill="none" stroke="black" points="5671,-40.8 5671,-92.8 6777,-92.8 6777,-40.8 5671,-40.8"/>
</g>
<g id="clust57" class="cluster">
<title>cluster_RadioButtonCheckboxModule_imports</title>
<polygon fill="none" stroke="black" points="5415,-40.8 5415,-92.8 5663,-92.8 5663,-40.8 5415,-40.8"/>
</g>
<g id="clust67" class="cluster">
<title>cluster_SelectorModule</title>
<polygon fill="none" stroke="black" stroke-dasharray="1,5" points="4091,-32.8 4091,-160.8 5399,-160.8 5399,-32.8 4091,-32.8"/>
</g>
<g id="clust68" class="cluster">
<title>cluster_SelectorModule_declarations</title>
<polygon fill="none" stroke="black" points="4273,-40.8 4273,-92.8 5391,-92.8 5391,-40.8 4273,-40.8"/>
</g>
<g id="clust75" class="cluster">
<title>cluster_SelectorModule_imports</title>
<polygon fill="none" stroke="black" points="4099,-40.8 4099,-92.8 4265,-92.8 4265,-40.8 4099,-40.8"/>
</g>
<g id="clust85" class="cluster">
<title>cluster_SharedModule</title>
<polygon fill="none" stroke="black" stroke-dasharray="1,5" points="439,-100.8 439,-168.8 1215,-168.8 1215,-100.8 439,-100.8"/>
</g>
<g id="clust86" class="cluster">
<title>cluster_SharedModule_declarations</title>
<polygon fill="none" stroke="black" points="835,-108.8 835,-160.8 1207,-160.8 1207,-108.8 835,-108.8"/>
</g>
<g id="clust90" class="cluster">
<title>cluster_SharedModule_exports</title>
<polygon fill="none" stroke="black" points="447,-108.8 447,-160.8 827,-160.8 827,-108.8 447,-108.8"/>
</g>
<!-- AppComponent -->
<g id="node1" class="node">
<title>AppComponent</title>
<polygon fill="#ffffb3" stroke="black" points="414.94,-84.8 309.06,-84.8 309.06,-48.8 414.94,-48.8 414.94,-84.8"/>
<text text-anchor="middle" x="362" y="-62.6" font-family="Times,serif" font-size="14.00">AppComponent</text>
</g>
<!-- AppModule -->
<g id="node3" class="node">
<title>AppModule</title>
<polygon fill="#8dd3c7" stroke="black" points="275.66,-152.8 272.66,-156.8 251.66,-156.8 248.66,-152.8 192.34,-152.8 192.34,-116.8 275.66,-116.8 275.66,-152.8"/>
<text text-anchor="middle" x="234" y="-130.6" font-family="Times,serif" font-size="14.00">AppModule</text>
</g>
<!-- AppComponent&#45;&gt;AppModule -->
<g id="edge1" class="edge">
<title>AppComponent&#45;&gt;AppModule</title>
<path fill="none" stroke="black" d="M362,-85.02C362,-105.17 362,-134.8 362,-134.8 362,-134.8 285.91,-134.8 285.91,-134.8"/>
<polygon fill="black" stroke="black" points="285.91,-131.3 275.91,-134.8 285.91,-138.3 285.91,-131.3"/>
</g>
<!-- HomeComponent -->
<g id="node2" class="node">
<title>HomeComponent</title>
<polygon fill="#ffffb3" stroke="black" points="291.55,-84.8 176.45,-84.8 176.45,-48.8 291.55,-48.8 291.55,-84.8"/>
<text text-anchor="middle" x="234" y="-62.6" font-family="Times,serif" font-size="14.00">HomeComponent</text>
</g>
<!-- HomeComponent&#45;&gt;AppModule -->
<g id="edge2" class="edge">
<title>HomeComponent&#45;&gt;AppModule</title>
<path fill="none" stroke="black" d="M234,-85.02C234,-85.02 234,-106.53 234,-106.53"/>
<polygon fill="black" stroke="black" points="230.5,-106.53 234,-116.53 237.5,-106.53 230.5,-106.53"/>
</g>
<!-- AppComponent  -->
<g id="node5" class="node">
<title>AppComponent </title>
<polygon fill="#80b1d3" stroke="black" points="288.44,-220.8 179.56,-220.8 179.56,-184.8 288.44,-184.8 288.44,-220.8"/>
<text text-anchor="middle" x="234" y="-198.6" font-family="Times,serif" font-size="14.00">AppComponent </text>
</g>
<!-- AppModule&#45;&gt;AppComponent  -->
<g id="edge4" class="edge">
<title>AppModule&#45;&gt;AppComponent </title>
<path fill="none" stroke="black" stroke-dasharray="1,5" d="M234,-153.02C234,-153.02 234,-174.53 234,-174.53"/>
<polygon fill="black" stroke="black" points="230.5,-174.53 234,-184.53 237.5,-174.53 230.5,-174.53"/>
</g>
<!-- AppRoutingModule -->
<g id="node4" class="node">
<title>AppRoutingModule</title>
<polygon fill="#8dd3c7" stroke="black" points="152.27,-84.8 149.27,-88.8 128.27,-88.8 125.27,-84.8 23.73,-84.8 23.73,-48.8 152.27,-48.8 152.27,-84.8"/>
<text text-anchor="middle" x="88" y="-62.6" font-family="Times,serif" font-size="14.00">AppRoutingModule</text>
</g>
<!-- AppRoutingModule&#45;&gt;AppModule -->
<g id="edge3" class="edge">
<title>AppRoutingModule&#45;&gt;AppModule</title>
<path fill="none" stroke="black" d="M88,-85.02C88,-105.17 88,-134.8 88,-134.8 88,-134.8 182.16,-134.8 182.16,-134.8"/>
<polygon fill="black" stroke="black" points="182.16,-138.3 192.16,-134.8 182.16,-131.3 182.16,-138.3"/>
</g>
<!-- FormComponent -->
<g id="node6" class="node">
<title>FormComponent</title>
<polygon fill="#ffffb3" stroke="black" points="1800.67,-84.8 1689.33,-84.8 1689.33,-48.8 1800.67,-48.8 1800.67,-84.8"/>
<text text-anchor="middle" x="1745" y="-62.6" font-family="Times,serif" font-size="14.00">FormComponent</text>
</g>
<!-- FormModule -->
<g id="node8" class="node">
<title>FormModule</title>
<polygon fill="#8dd3c7" stroke="black" points="1552.88,-152.8 1549.88,-156.8 1528.88,-156.8 1525.88,-152.8 1463.12,-152.8 1463.12,-116.8 1552.88,-116.8 1552.88,-152.8"/>
<text text-anchor="middle" x="1508" y="-130.6" font-family="Times,serif" font-size="14.00">FormModule</text>
</g>
<!-- FormComponent&#45;&gt;FormModule -->
<g id="edge5" class="edge">
<title>FormComponent&#45;&gt;FormModule</title>
<path fill="none" stroke="black" d="M1745,-84.95C1745,-108.56 1745,-146.8 1745,-146.8 1745,-146.8 1563.14,-146.8 1563.14,-146.8"/>
<polygon fill="black" stroke="black" points="1563.14,-143.3 1553.14,-146.8 1563.14,-150.3 1563.14,-143.3"/>
</g>
<!-- LangSelectorComponent -->
<g id="node7" class="node">
<title>LangSelectorComponent</title>
<polygon fill="#ffffb3" stroke="black" points="1670.97,-84.8 1515.03,-84.8 1515.03,-48.8 1670.97,-48.8 1670.97,-84.8"/>
<text text-anchor="middle" x="1593" y="-62.6" font-family="Times,serif" font-size="14.00">LangSelectorComponent</text>
</g>
<!-- LangSelectorComponent&#45;&gt;FormModule -->
<g id="edge6" class="edge">
<title>LangSelectorComponent&#45;&gt;FormModule</title>
<path fill="none" stroke="black" d="M1533.98,-85.02C1533.98,-85.02 1533.98,-106.53 1533.98,-106.53"/>
<polygon fill="black" stroke="black" points="1530.48,-106.53 1533.98,-116.53 1537.48,-106.53 1530.48,-106.53"/>
</g>
<!-- FormRoutingModule -->
<g id="node9" class="node">
<title>FormRoutingModule</title>
<polygon fill="#8dd3c7" stroke="black" points="1490.5,-84.8 1487.5,-88.8 1466.5,-88.8 1463.5,-84.8 1355.5,-84.8 1355.5,-48.8 1490.5,-48.8 1490.5,-84.8"/>
<text text-anchor="middle" x="1423" y="-62.6" font-family="Times,serif" font-size="14.00">FormRoutingModule</text>
</g>
<!-- FormRoutingModule&#45;&gt;FormModule -->
<g id="edge7" class="edge">
<title>FormRoutingModule&#45;&gt;FormModule</title>
<path fill="none" stroke="black" d="M1476.78,-85.02C1476.78,-85.02 1476.78,-106.53 1476.78,-106.53"/>
<polygon fill="black" stroke="black" points="1473.28,-106.53 1476.78,-116.53 1480.28,-106.53 1473.28,-106.53"/>
</g>
<!-- SharedModule -->
<g id="node10" class="node">
<title>SharedModule</title>
<polygon fill="#8dd3c7" stroke="black" points="1337.42,-84.8 1334.42,-88.8 1313.42,-88.8 1310.42,-84.8 1238.58,-84.8 1238.58,-48.8 1337.42,-48.8 1337.42,-84.8"/>
<text text-anchor="middle" x="1288" y="-62.6" font-family="Times,serif" font-size="14.00">SharedModule</text>
</g>
<!-- SharedModule&#45;&gt;FormModule -->
<g id="edge8" class="edge">
<title>SharedModule&#45;&gt;FormModule</title>
<path fill="none" stroke="black" d="M1320.81,-85.07C1320.81,-103.36 1320.81,-128.8 1320.81,-128.8 1320.81,-128.8 1452.69,-128.8 1452.69,-128.8"/>
<polygon fill="black" stroke="black" points="1452.69,-132.3 1462.69,-128.8 1452.69,-125.3 1452.69,-132.3"/>
</g>
<!-- InputTextModule -->
<g id="node20" class="node">
<title>InputTextModule</title>
<polygon fill="#8dd3c7" stroke="black" points="2892.26,-152.8 2889.26,-156.8 2868.26,-156.8 2865.26,-152.8 2777.74,-152.8 2777.74,-116.8 2892.26,-116.8 2892.26,-152.8"/>
<text text-anchor="middle" x="2835" y="-130.6" font-family="Times,serif" font-size="14.00">InputTextModule</text>
</g>
<!-- SharedModule&#45;&gt;InputTextModule -->
<g id="edge19" class="edge">
<title>SharedModule&#45;&gt;InputTextModule</title>
<path fill="none" stroke="black" d="M1255.19,-84.95C1255.19,-97.07 1255.19,-110.8 1255.19,-110.8 1255.19,-110.8 2790.72,-110.8 2790.72,-110.8 2790.72,-110.8 2790.72,-111.38 2790.72,-111.38"/>
<polygon fill="black" stroke="black" points="2787.22,-106.61 2790.72,-116.61 2794.22,-106.61 2787.22,-106.61"/>
</g>
<!-- RadioButtonCheckboxModule -->
<g id="node28" class="node">
<title>RadioButtonCheckboxModule</title>
<polygon fill="#8dd3c7" stroke="black" points="5981.88,-152.8 5978.88,-156.8 5957.88,-156.8 5954.88,-152.8 5794.12,-152.8 5794.12,-116.8 5981.88,-116.8 5981.88,-152.8"/>
<text text-anchor="middle" x="5888" y="-130.6" font-family="Times,serif" font-size="14.00">RadioButtonCheckboxModule</text>
</g>
<!-- SharedModule&#45;&gt;RadioButtonCheckboxModule -->
<g id="edge27" class="edge">
<title>SharedModule&#45;&gt;RadioButtonCheckboxModule</title>
<path fill="none" stroke="black" d="M1288,-84.83C1288,-91.65 1288,-97.8 1288,-97.8 1288,-97.8 5812.72,-97.8 5812.72,-97.8 5812.72,-97.8 5812.72,-106.73 5812.72,-106.73"/>
<polygon fill="black" stroke="black" points="5809.22,-106.73 5812.72,-116.73 5816.22,-106.73 5809.22,-106.73"/>
</g>
<!-- SelectorModule -->
<g id="node36" class="node">
<title>SelectorModule</title>
<polygon fill="#8dd3c7" stroke="black" points="4617.92,-152.8 4614.92,-156.8 4593.92,-156.8 4590.92,-152.8 4512.08,-152.8 4512.08,-116.8 4617.92,-116.8 4617.92,-152.8"/>
<text text-anchor="middle" x="4565" y="-130.6" font-family="Times,serif" font-size="14.00">SelectorModule</text>
</g>
<!-- SharedModule&#45;&gt;SelectorModule -->
<g id="edge36" class="edge">
<title>SharedModule&#45;&gt;SelectorModule</title>
<path fill="none" stroke="black" d="M1271.6,-84.91C1271.6,-94.7 1271.6,-104.8 1271.6,-104.8 1271.6,-104.8 4547.43,-104.8 4547.43,-104.8 4547.43,-104.8 4547.43,-106.66 4547.43,-106.66"/>
<polygon fill="black" stroke="black" points="4543.93,-106.66 4547.43,-116.66 4550.93,-106.66 4543.93,-106.66"/>
</g>
<!-- ControlDataTableComponent  -->
<g id="node40" class="node">
<title>ControlDataTableComponent </title>
<polygon fill="#fb8072" stroke="black" points="818.91,-152.8 633.09,-152.8 633.09,-116.8 818.91,-116.8 818.91,-152.8"/>
<text text-anchor="middle" x="726" y="-130.6" font-family="Times,serif" font-size="14.00">ControlDataTableComponent </text>
</g>
<!-- SharedModule&#45;&gt;ControlDataTableComponent  -->
<g id="edge40" class="edge">
<title>SharedModule&#45;&gt;ControlDataTableComponent </title>
<path fill="none" stroke="black" stroke-dasharray="5,2" d="M1238.62,-66.8C1101.48,-66.8 726,-66.8 726,-66.8 726,-66.8 726,-106.58 726,-106.58"/>
<polygon fill="black" stroke="black" points="722.5,-106.58 726,-116.58 729.5,-106.58 722.5,-106.58"/>
</g>
<!-- StyleSelectorComponent  -->
<g id="node41" class="node">
<title>StyleSelectorComponent </title>
<polygon fill="#fb8072" stroke="black" points="614.98,-152.8 455.02,-152.8 455.02,-116.8 614.98,-116.8 614.98,-152.8"/>
<text text-anchor="middle" x="535" y="-130.6" font-family="Times,serif" font-size="14.00">StyleSelectorComponent </text>
</g>
<!-- SharedModule&#45;&gt;StyleSelectorComponent  -->
<g id="edge41" class="edge">
<title>SharedModule&#45;&gt;StyleSelectorComponent </title>
<path fill="none" stroke="black" stroke-dasharray="5,2" d="M1238.59,-57.8C1071.07,-57.8 535,-57.8 535,-57.8 535,-57.8 535,-106.55 535,-106.55"/>
<polygon fill="black" stroke="black" points="531.5,-106.55 535,-116.55 538.5,-106.55 531.5,-106.55"/>
</g>
<!-- CVAInputTextComponent -->
<g id="node11" class="node">
<title>CVAInputTextComponent</title>
<polygon fill="#ffffb3" stroke="black" points="2191.09,-84.8 2024.91,-84.8 2024.91,-48.8 2191.09,-48.8 2191.09,-84.8"/>
<text text-anchor="middle" x="2108" y="-62.6" font-family="Times,serif" font-size="14.00">CVAInputTextComponent</text>
</g>
<!-- CVAInputTextComponent&#45;&gt;InputTextModule -->
<g id="edge9" class="edge">
<title>CVAInputTextComponent&#45;&gt;InputTextModule</title>
<path fill="none" stroke="black" d="M2108,-85.02C2108,-105.17 2108,-134.8 2108,-134.8 2108,-134.8 2767.65,-134.8 2767.65,-134.8"/>
<polygon fill="black" stroke="black" points="2767.65,-138.3 2777.65,-134.8 2767.65,-131.3 2767.65,-138.3"/>
</g>
<!-- CVAInputTextExampleComponent -->
<g id="node12" class="node">
<title>CVAInputTextExampleComponent</title>
<polygon fill="#ffffb3" stroke="black" points="3860.85,-84.8 3645.15,-84.8 3645.15,-48.8 3860.85,-48.8 3860.85,-84.8"/>
<text text-anchor="middle" x="3753" y="-62.6" font-family="Times,serif" font-size="14.00">CVAInputTextExampleComponent</text>
</g>
<!-- CVAInputTextExampleComponent&#45;&gt;InputTextModule -->
<g id="edge10" class="edge">
<title>CVAInputTextExampleComponent&#45;&gt;InputTextModule</title>
<path fill="none" stroke="black" d="M3753,-84.83C3753,-104.38 3753,-132.8 3753,-132.8 3753,-132.8 2902.43,-132.8 2902.43,-132.8"/>
<polygon fill="black" stroke="black" points="2902.43,-129.3 2892.43,-132.8 2902.42,-136.3 2902.43,-129.3"/>
</g>
<!-- InputNumberMinMaxComponent -->
<g id="node13" class="node">
<title>InputNumberMinMaxComponent</title>
<polygon fill="#ffffb3" stroke="black" points="3626.75,-84.8 3421.25,-84.8 3421.25,-48.8 3626.75,-48.8 3626.75,-84.8"/>
<text text-anchor="middle" x="3524" y="-62.6" font-family="Times,serif" font-size="14.00">InputNumberMinMaxComponent</text>
</g>
<!-- InputNumberMinMaxComponent&#45;&gt;InputTextModule -->
<g id="edge11" class="edge">
<title>InputNumberMinMaxComponent&#45;&gt;InputTextModule</title>
<path fill="none" stroke="black" d="M3524,-85.07C3524,-103.36 3524,-128.8 3524,-128.8 3524,-128.8 2902.26,-128.8 2902.26,-128.8"/>
<polygon fill="black" stroke="black" points="2902.26,-125.3 2892.26,-128.8 2902.26,-132.3 2902.26,-125.3"/>
</g>
<!-- InputTextComponent -->
<g id="node14" class="node">
<title>InputTextComponent</title>
<polygon fill="#ffffb3" stroke="black" points="3403.04,-84.8 3266.96,-84.8 3266.96,-48.8 3403.04,-48.8 3403.04,-84.8"/>
<text text-anchor="middle" x="3335" y="-62.6" font-family="Times,serif" font-size="14.00">InputTextComponent</text>
</g>
<!-- InputTextComponent&#45;&gt;InputTextModule -->
<g id="edge12" class="edge">
<title>InputTextComponent&#45;&gt;InputTextModule</title>
<path fill="none" stroke="black" d="M3335,-84.83C3335,-101.86 3335,-124.8 3335,-124.8 3335,-124.8 2902.36,-124.8 2902.36,-124.8"/>
<polygon fill="black" stroke="black" points="2902.36,-121.3 2892.36,-124.8 2902.36,-128.3 2902.36,-121.3"/>
</g>
<!-- InputTextEmailComponent -->
<g id="node15" class="node">
<title>InputTextEmailComponent</title>
<polygon fill="#ffffb3" stroke="black" points="3248.98,-84.8 3079.02,-84.8 3079.02,-48.8 3248.98,-48.8 3248.98,-84.8"/>
<text text-anchor="middle" x="3164" y="-62.6" font-family="Times,serif" font-size="14.00">InputTextEmailComponent</text>
</g>
<!-- InputTextEmailComponent&#45;&gt;InputTextModule -->
<g id="edge13" class="edge">
<title>InputTextEmailComponent&#45;&gt;InputTextModule</title>
<path fill="none" stroke="black" d="M3164,-85.08C3164,-100.75 3164,-120.8 3164,-120.8 3164,-120.8 2902.31,-120.8 2902.31,-120.8"/>
<polygon fill="black" stroke="black" points="2902.31,-117.3 2892.31,-120.8 2902.31,-124.3 2902.31,-117.3"/>
</g>
<!-- InputTextMinMaxLengthComponent -->
<g id="node16" class="node">
<title>InputTextMinMaxLengthComponent</title>
<polygon fill="#ffffb3" stroke="black" points="3060.69,-84.8 2835.31,-84.8 2835.31,-48.8 3060.69,-48.8 3060.69,-84.8"/>
<text text-anchor="middle" x="2948" y="-62.6" font-family="Times,serif" font-size="14.00">InputTextMinMaxLengthComponent</text>
</g>
<!-- InputTextMinMaxLengthComponent&#45;&gt;InputTextModule -->
<g id="edge14" class="edge">
<title>InputTextMinMaxLengthComponent&#45;&gt;InputTextModule</title>
<path fill="none" stroke="black" d="M2863.89,-85.02C2863.89,-85.02 2863.89,-106.53 2863.89,-106.53"/>
<polygon fill="black" stroke="black" points="2860.39,-106.53 2863.89,-116.53 2867.39,-106.53 2860.39,-106.53"/>
</g>
<!-- InputTextRequiredComponent -->
<g id="node17" class="node">
<title>InputTextRequiredComponent</title>
<polygon fill="#ffffb3" stroke="black" points="2816.86,-84.8 2629.14,-84.8 2629.14,-48.8 2816.86,-48.8 2816.86,-84.8"/>
<text text-anchor="middle" x="2723" y="-62.6" font-family="Times,serif" font-size="14.00">InputTextRequiredComponent</text>
</g>
<!-- InputTextRequiredComponent&#45;&gt;InputTextModule -->
<g id="edge15" class="edge">
<title>InputTextRequiredComponent&#45;&gt;InputTextModule</title>
<path fill="none" stroke="black" d="M2803.83,-85.02C2803.83,-85.02 2803.83,-106.53 2803.83,-106.53"/>
<polygon fill="black" stroke="black" points="2800.33,-106.53 2803.83,-116.53 2807.33,-106.53 2800.33,-106.53"/>
</g>
<!-- InputTextSimpleComponent -->
<g id="node18" class="node">
<title>InputTextSimpleComponent</title>
<polygon fill="#ffffb3" stroke="black" points="2611.21,-84.8 2434.79,-84.8 2434.79,-48.8 2611.21,-48.8 2611.21,-84.8"/>
<text text-anchor="middle" x="2523" y="-62.6" font-family="Times,serif" font-size="14.00">InputTextSimpleComponent</text>
</g>
<!-- InputTextSimpleComponent&#45;&gt;InputTextModule -->
<g id="edge16" class="edge">
<title>InputTextSimpleComponent&#45;&gt;InputTextModule</title>
<path fill="none" stroke="black" d="M2523,-84.83C2523,-101.2 2523,-122.8 2523,-122.8 2523,-122.8 2767.41,-122.8 2767.41,-122.8"/>
<polygon fill="black" stroke="black" points="2767.41,-126.3 2777.41,-122.8 2767.41,-119.3 2767.41,-126.3"/>
</g>
<!-- InputTextValidPatternComponent -->
<g id="node19" class="node">
<title>InputTextValidPatternComponent</title>
<polygon fill="#ffffb3" stroke="black" points="2416.8,-84.8 2209.2,-84.8 2209.2,-48.8 2416.8,-48.8 2416.8,-84.8"/>
<text text-anchor="middle" x="2313" y="-62.6" font-family="Times,serif" font-size="14.00">InputTextValidPatternComponent</text>
</g>
<!-- InputTextValidPatternComponent&#45;&gt;InputTextModule -->
<g id="edge17" class="edge">
<title>InputTextValidPatternComponent&#45;&gt;InputTextModule</title>
<path fill="none" stroke="black" d="M2313,-85.07C2313,-103.36 2313,-128.8 2313,-128.8 2313,-128.8 2767.64,-128.8 2767.64,-128.8"/>
<polygon fill="black" stroke="black" points="2767.64,-132.3 2777.64,-128.8 2767.64,-125.3 2767.64,-132.3"/>
</g>
<!-- InputTextRoutingModule -->
<g id="node21" class="node">
<title>InputTextRoutingModule</title>
<polygon fill="#8dd3c7" stroke="black" points="2000.88,-84.8 1997.88,-88.8 1976.88,-88.8 1973.88,-84.8 1841.12,-84.8 1841.12,-48.8 2000.88,-48.8 2000.88,-84.8"/>
<text text-anchor="middle" x="1921" y="-62.6" font-family="Times,serif" font-size="14.00">InputTextRoutingModule</text>
</g>
<!-- InputTextRoutingModule&#45;&gt;InputTextModule -->
<g id="edge18" class="edge">
<title>InputTextRoutingModule&#45;&gt;InputTextModule</title>
<path fill="none" stroke="black" d="M1921,-85.09C1921,-107.01 1921,-140.8 1921,-140.8 1921,-140.8 2767.48,-140.8 2767.48,-140.8"/>
<polygon fill="black" stroke="black" points="2767.48,-144.3 2777.48,-140.8 2767.48,-137.3 2767.48,-144.3"/>
</g>
<!-- StyleSelectorService -->
<g id="node22" class="node">
<title>StyleSelectorService</title>
<ellipse fill="#fdb462" stroke="black" cx="3976" cy="-66.8" rx="91.46" ry="18"/>
<text text-anchor="middle" x="3976" y="-62.6" font-family="Times,serif" font-size="14.00">StyleSelectorService</text>
</g>
<!-- StyleSelectorService&#45;&gt;InputTextModule -->
<g id="edge20" class="edge">
<title>StyleSelectorService&#45;&gt;InputTextModule</title>
<path fill="none" stroke="black" d="M3976,-84.83C3976,-105.57 3976,-136.8 3976,-136.8 3976,-136.8 2902.36,-136.8 2902.36,-136.8"/>
<polygon fill="black" stroke="black" points="2902.36,-133.3 2892.36,-136.8 2902.36,-140.3 2902.36,-133.3"/>
</g>
<!-- StyleSelectorService&#45;&gt;RadioButtonCheckboxModule -->
<g id="edge28" class="edge">
<title>StyleSelectorService&#45;&gt;RadioButtonCheckboxModule</title>
<path fill="none" stroke="black" d="M3930.26,-82.49C3930.26,-87.51 3930.26,-91.8 3930.26,-91.8 3930.26,-91.8 5831.39,-91.8 5831.39,-91.8 5831.39,-91.8 5831.39,-106.31 5831.39,-106.31"/>
<polygon fill="black" stroke="black" points="5827.89,-106.31 5831.39,-116.31 5834.89,-106.31 5827.89,-106.31"/>
</g>
<!-- StyleSelectorService&#45;&gt;SelectorModule -->
<g id="edge37" class="edge">
<title>StyleSelectorService&#45;&gt;SelectorModule</title>
<path fill="none" stroke="black" d="M4021.74,-82.61C4021.74,-106.44 4021.74,-148.8 4021.74,-148.8 4021.74,-148.8 4501.92,-148.8 4501.92,-148.8"/>
<polygon fill="black" stroke="black" points="4501.92,-152.3 4511.92,-148.8 4501.92,-145.3 4501.92,-152.3"/>
</g>
<!-- CVARadioButtonComponent -->
<g id="node23" class="node">
<title>CVARadioButtonComponent</title>
<polygon fill="#ffffb3" stroke="black" points="6319.44,-84.8 6136.56,-84.8 6136.56,-48.8 6319.44,-48.8 6319.44,-84.8"/>
<text text-anchor="middle" x="6228" y="-62.6" font-family="Times,serif" font-size="14.00">CVARadioButtonComponent</text>
</g>
<!-- CVARadioButtonComponent&#45;&gt;RadioButtonCheckboxModule -->
<g id="edge21" class="edge">
<title>CVARadioButtonComponent&#45;&gt;RadioButtonCheckboxModule</title>
<path fill="none" stroke="black" d="M6228,-84.82C6228,-102.17 6228,-125.8 6228,-125.8 6228,-125.8 5992.26,-125.8 5992.26,-125.8"/>
<polygon fill="black" stroke="black" points="5992.26,-122.3 5982.26,-125.8 5992.26,-129.3 5992.26,-122.3"/>
</g>
<!-- CVARadioButtonExampleComponent -->
<g id="node24" class="node">
<title>CVARadioButtonExampleComponent</title>
<polygon fill="#ffffb3" stroke="black" points="6119.2,-84.8 5886.8,-84.8 5886.8,-48.8 6119.2,-48.8 6119.2,-84.8"/>
<text text-anchor="middle" x="6003" y="-62.6" font-family="Times,serif" font-size="14.00">CVARadioButtonExampleComponent</text>
</g>
<!-- CVARadioButtonExampleComponent&#45;&gt;RadioButtonCheckboxModule -->
<g id="edge22" class="edge">
<title>CVARadioButtonExampleComponent&#45;&gt;RadioButtonCheckboxModule</title>
<path fill="none" stroke="black" d="M5934.42,-85.02C5934.42,-85.02 5934.42,-106.53 5934.42,-106.53"/>
<polygon fill="black" stroke="black" points="5930.92,-106.53 5934.42,-116.53 5937.92,-106.53 5930.92,-106.53"/>
</g>
<!-- CheckboxRequiredComponent -->
<g id="node25" class="node">
<title>CheckboxRequiredComponent</title>
<polygon fill="#ffffb3" stroke="black" points="5868.92,-84.8 5679.08,-84.8 5679.08,-48.8 5868.92,-48.8 5868.92,-84.8"/>
<text text-anchor="middle" x="5774" y="-62.6" font-family="Times,serif" font-size="14.00">CheckboxRequiredComponent</text>
</g>
<!-- CheckboxRequiredComponent&#45;&gt;RadioButtonCheckboxModule -->
<g id="edge23" class="edge">
<title>CheckboxRequiredComponent&#45;&gt;RadioButtonCheckboxModule</title>
<path fill="none" stroke="black" d="M5850.05,-85.02C5850.05,-85.02 5850.05,-106.53 5850.05,-106.53"/>
<polygon fill="black" stroke="black" points="5846.55,-106.53 5850.05,-116.53 5853.55,-106.53 5846.55,-106.53"/>
</g>
<!-- RadioButtonCheckboxComponent -->
<g id="node26" class="node">
<title>RadioButtonCheckboxComponent</title>
<polygon fill="#ffffb3" stroke="black" points="6768.66,-84.8 6559.34,-84.8 6559.34,-48.8 6768.66,-48.8 6768.66,-84.8"/>
<text text-anchor="middle" x="6664" y="-62.6" font-family="Times,serif" font-size="14.00">RadioButtonCheckboxComponent</text>
</g>
<!-- RadioButtonCheckboxComponent&#45;&gt;RadioButtonCheckboxModule -->
<g id="edge24" class="edge">
<title>RadioButtonCheckboxComponent&#45;&gt;RadioButtonCheckboxModule</title>
<path fill="none" stroke="black" d="M6664,-85.05C6664,-107.82 6664,-143.8 6664,-143.8 6664,-143.8 5991.99,-143.8 5991.99,-143.8"/>
<polygon fill="black" stroke="black" points="5991.99,-140.3 5981.99,-143.8 5991.99,-147.3 5991.99,-140.3"/>
</g>
<!-- RadioButtonRequiredComponent -->
<g id="node27" class="node">
<title>RadioButtonRequiredComponent</title>
<polygon fill="#ffffb3" stroke="black" points="6541.21,-84.8 6336.79,-84.8 6336.79,-48.8 6541.21,-48.8 6541.21,-84.8"/>
<text text-anchor="middle" x="6439" y="-62.6" font-family="Times,serif" font-size="14.00">RadioButtonRequiredComponent</text>
</g>
<!-- RadioButtonRequiredComponent&#45;&gt;RadioButtonCheckboxModule -->
<g id="edge25" class="edge">
<title>RadioButtonRequiredComponent&#45;&gt;RadioButtonCheckboxModule</title>
<path fill="none" stroke="black" d="M6439,-85.02C6439,-105.17 6439,-134.8 6439,-134.8 6439,-134.8 5992.09,-134.8 5992.09,-134.8"/>
<polygon fill="black" stroke="black" points="5992.09,-131.3 5982.09,-134.8 5992.09,-138.3 5992.09,-131.3"/>
</g>
<!-- RadioButtonCheckboxRoutingModule -->
<g id="node29" class="node">
<title>RadioButtonCheckboxRoutingModule</title>
<polygon fill="#8dd3c7" stroke="black" points="5655.49,-84.8 5652.49,-88.8 5631.49,-88.8 5628.49,-84.8 5422.51,-84.8 5422.51,-48.8 5655.49,-48.8 5655.49,-84.8"/>
<text text-anchor="middle" x="5539" y="-62.6" font-family="Times,serif" font-size="14.00">RadioButtonCheckboxRoutingModule</text>
</g>
<!-- RadioButtonCheckboxRoutingModule&#45;&gt;RadioButtonCheckboxModule -->
<g id="edge26" class="edge">
<title>RadioButtonCheckboxRoutingModule&#45;&gt;RadioButtonCheckboxModule</title>
<path fill="none" stroke="black" d="M5539,-84.83C5539,-101.2 5539,-122.8 5539,-122.8 5539,-122.8 5784.02,-122.8 5784.02,-122.8"/>
<polygon fill="black" stroke="black" points="5784.02,-126.3 5794.02,-122.8 5784.02,-119.3 5784.02,-126.3"/>
</g>
<!-- CVASelectorComponent -->
<g id="node30" class="node">
<title>CVASelectorComponent</title>
<polygon fill="#ffffb3" stroke="black" points="5052.25,-84.8 4895.75,-84.8 4895.75,-48.8 5052.25,-48.8 5052.25,-84.8"/>
<text text-anchor="middle" x="4974" y="-62.6" font-family="Times,serif" font-size="14.00">CVASelectorComponent</text>
</g>
<!-- CVASelectorComponent&#45;&gt;SelectorModule -->
<g id="edge29" class="edge">
<title>CVASelectorComponent&#45;&gt;SelectorModule</title>
<path fill="none" stroke="black" d="M4974,-85.02C4974,-105.17 4974,-134.8 4974,-134.8 4974,-134.8 4628.05,-134.8 4628.05,-134.8"/>
<polygon fill="black" stroke="black" points="4628.05,-131.3 4618.05,-134.8 4628.05,-138.3 4628.05,-131.3"/>
</g>
<!-- CVASelectorExampleComponent -->
<g id="node31" class="node">
<title>CVASelectorExampleComponent</title>
<polygon fill="#ffffb3" stroke="black" points="4877.01,-84.8 4670.99,-84.8 4670.99,-48.8 4877.01,-48.8 4877.01,-84.8"/>
<text text-anchor="middle" x="4774" y="-62.6" font-family="Times,serif" font-size="14.00">CVASelectorExampleComponent</text>
</g>
<!-- CVASelectorExampleComponent&#45;&gt;SelectorModule -->
<g id="edge30" class="edge">
<title>CVASelectorExampleComponent&#45;&gt;SelectorModule</title>
<path fill="none" stroke="black" d="M4774,-85.07C4774,-103.36 4774,-128.8 4774,-128.8 4774,-128.8 4627.74,-128.8 4627.74,-128.8"/>
<polygon fill="black" stroke="black" points="4627.74,-125.3 4617.74,-128.8 4627.74,-132.3 4627.74,-125.3"/>
</g>
<!-- MaterialSelectorComponent -->
<g id="node32" class="node">
<title>MaterialSelectorComponent</title>
<polygon fill="#ffffb3" stroke="black" points="4652.12,-84.8 4477.88,-84.8 4477.88,-48.8 4652.12,-48.8 4652.12,-84.8"/>
<text text-anchor="middle" x="4565" y="-62.6" font-family="Times,serif" font-size="14.00">MaterialSelectorComponent</text>
</g>
<!-- MaterialSelectorComponent&#45;&gt;SelectorModule -->
<g id="edge31" class="edge">
<title>MaterialSelectorComponent&#45;&gt;SelectorModule</title>
<path fill="none" stroke="black" d="M4582.57,-85.02C4582.57,-85.02 4582.57,-106.53 4582.57,-106.53"/>
<polygon fill="black" stroke="black" points="4579.07,-106.53 4582.57,-116.53 4586.07,-106.53 4579.07,-106.53"/>
</g>
<!-- RequiredSelectorComponent -->
<g id="node33" class="node">
<title>RequiredSelectorComponent</title>
<polygon fill="#ffffb3" stroke="black" points="4459.02,-84.8 4280.98,-84.8 4280.98,-48.8 4459.02,-48.8 4459.02,-84.8"/>
<text text-anchor="middle" x="4370" y="-62.6" font-family="Times,serif" font-size="14.00">RequiredSelectorComponent</text>
</g>
<!-- RequiredSelectorComponent&#45;&gt;SelectorModule -->
<g id="edge32" class="edge">
<title>RequiredSelectorComponent&#45;&gt;SelectorModule</title>
<path fill="none" stroke="black" d="M4370,-85.09C4370,-107.01 4370,-140.8 4370,-140.8 4370,-140.8 4502.23,-140.8 4502.23,-140.8"/>
<polygon fill="black" stroke="black" points="4502.23,-144.3 4512.23,-140.8 4502.23,-137.3 4502.23,-144.3"/>
</g>
<!-- SelectorComponent -->
<g id="node34" class="node">
<title>SelectorComponent</title>
<polygon fill="#ffffb3" stroke="black" points="5382.7,-84.8 5255.3,-84.8 5255.3,-48.8 5382.7,-48.8 5382.7,-84.8"/>
<text text-anchor="middle" x="5319" y="-62.6" font-family="Times,serif" font-size="14.00">SelectorComponent</text>
</g>
<!-- SelectorComponent&#45;&gt;SelectorModule -->
<g id="edge33" class="edge">
<title>SelectorComponent&#45;&gt;SelectorModule</title>
<path fill="none" stroke="black" d="M5319,-84.95C5319,-108.56 5319,-146.8 5319,-146.8 5319,-146.8 4627.72,-146.8 4627.72,-146.8"/>
<polygon fill="black" stroke="black" points="4627.72,-143.3 4617.72,-146.8 4627.72,-150.3 4627.72,-143.3"/>
</g>
<!-- SimpleSelectorComponent -->
<g id="node35" class="node">
<title>SimpleSelectorComponent</title>
<polygon fill="#ffffb3" stroke="black" points="5237.37,-84.8 5070.63,-84.8 5070.63,-48.8 5237.37,-48.8 5237.37,-84.8"/>
<text text-anchor="middle" x="5154" y="-62.6" font-family="Times,serif" font-size="14.00">SimpleSelectorComponent</text>
</g>
<!-- SimpleSelectorComponent&#45;&gt;SelectorModule -->
<g id="edge34" class="edge">
<title>SimpleSelectorComponent&#45;&gt;SelectorModule</title>
<path fill="none" stroke="black" d="M5154,-85.09C5154,-107.01 5154,-140.8 5154,-140.8 5154,-140.8 4627.79,-140.8 4627.79,-140.8"/>
<polygon fill="black" stroke="black" points="4627.79,-137.3 4617.79,-140.8 4627.79,-144.3 4627.79,-137.3"/>
</g>
<!-- SelectorRoutingModule -->
<g id="node37" class="node">
<title>SelectorRoutingModule</title>
<polygon fill="#8dd3c7" stroke="black" points="4257.04,-84.8 4254.04,-88.8 4233.04,-88.8 4230.04,-84.8 4106.96,-84.8 4106.96,-48.8 4257.04,-48.8 4257.04,-84.8"/>
<text text-anchor="middle" x="4182" y="-62.6" font-family="Times,serif" font-size="14.00">SelectorRoutingModule</text>
</g>
<!-- SelectorRoutingModule&#45;&gt;SelectorModule -->
<g id="edge35" class="edge">
<title>SelectorRoutingModule&#45;&gt;SelectorModule</title>
<path fill="none" stroke="black" d="M4182,-84.89C4182,-107.93 4182,-144.8 4182,-144.8 4182,-144.8 4502.15,-144.8 4502.15,-144.8"/>
<polygon fill="black" stroke="black" points="4502.15,-148.3 4512.15,-144.8 4502.15,-141.3 4502.15,-148.3"/>
</g>
<!-- ControlDataTableComponent -->
<g id="node38" class="node">
<title>ControlDataTableComponent</title>
<polygon fill="#ffffb3" stroke="black" points="1199.41,-152.8 1016.59,-152.8 1016.59,-116.8 1199.41,-116.8 1199.41,-152.8"/>
<text text-anchor="middle" x="1108" y="-130.6" font-family="Times,serif" font-size="14.00">ControlDataTableComponent</text>
</g>
<!-- ControlDataTableComponent&#45;&gt;SharedModule -->
<g id="edge38" class="edge">
<title>ControlDataTableComponent&#45;&gt;SharedModule</title>
<path fill="none" stroke="black" d="M1199.3,-140.8C1250.59,-140.8 1304.4,-140.8 1304.4,-140.8 1304.4,-140.8 1304.4,-95.09 1304.4,-95.09"/>
<polygon fill="black" stroke="black" points="1307.9,-95.09 1304.4,-85.09 1300.9,-95.09 1307.9,-95.09"/>
</g>
<!-- StyleSelectorComponent -->
<g id="node39" class="node">
<title>StyleSelectorComponent</title>
<polygon fill="#ffffb3" stroke="black" points="998.98,-152.8 843.02,-152.8 843.02,-116.8 998.98,-116.8 998.98,-152.8"/>
<text text-anchor="middle" x="921" y="-130.6" font-family="Times,serif" font-size="14.00">StyleSelectorComponent</text>
</g>
<!-- StyleSelectorComponent&#45;&gt;SharedModule -->
<g id="edge39" class="edge">
<title>StyleSelectorComponent&#45;&gt;SharedModule</title>
<path fill="none" stroke="black" d="M921,-116.78C921,-99.43 921,-75.8 921,-75.8 921,-75.8 1228.5,-75.8 1228.5,-75.8"/>
<polygon fill="black" stroke="black" points="1228.5,-79.3 1238.5,-75.8 1228.5,-72.3 1228.5,-79.3"/>
</g>
</g>
</svg>
