<?xml version="1.0" encoding="UTF-8" standalone="no"?>
<!DOCTYPE svg PUBLIC "-//W3C//DTD SVG 1.1//EN"
 "http://www.w3.org/Graphics/SVG/1.1/DTD/svg11.dtd">
<!-- Generated by graphviz version 2.47.3 (20210619.1520)
 -->
<!-- Title: dependencies Pages: 1 -->
<svg width="1058pt" height="174pt"
 viewBox="0.00 0.00 1058.00 173.80" xmlns="http://www.w3.org/2000/svg" xmlns:xlink="http://www.w3.org/1999/xlink">
<g id="graph0" class="graph" transform="scale(1 1) rotate(0) translate(4 169.8)">
<title>dependencies</title>
<polygon fill="white" stroke="transparent" points="-4,4 -4,-169.8 1054,-169.8 1054,4 -4,4"/>
<text text-anchor="middle" x="525" y="-8.2" font-family="sans-serif" font-size="14.00">dependencies</text>
<g id="clust1" class="cluster">
<title>cluster_TextAreaModule</title>
<polygon fill="none" stroke="black" stroke-dasharray="1,5" points="8,-32.8 8,-157.8 1042,-157.8 1042,-32.8 8,-32.8"/>
</g>
<g id="clust9" class="cluster">
<title>cluster_TextAreaModule_providers</title>
<polygon fill="none" stroke="black" points="836,-40.8 836,-92.8 1034,-92.8 1034,-40.8 836,-40.8"/>
</g>
<g id="clust2" class="cluster">
<title>cluster_TextAreaModule_declarations</title>
<polygon fill="none" stroke="black" points="314,-40.8 314,-92.8 828,-92.8 828,-40.8 314,-40.8"/>
</g>
<g id="clust6" class="cluster">
<title>cluster_TextAreaModule_imports</title>
<polygon fill="none" stroke="black" points="16,-40.8 16,-92.8 306,-92.8 306,-40.8 16,-40.8"/>
</g>
<!-- TextAreaComponent -->
<g id="node1" class="node">
<title>TextAreaComponent</title>
<polygon fill="#ffffb3" stroke="black" points="820.19,-84.8 685.81,-84.8 685.81,-48.8 820.19,-48.8 820.19,-84.8"/>
<text text-anchor="middle" x="753" y="-62.6" font-family="Times,serif" font-size="14.00">TextAreaComponent</text>
</g>
<!-- TextAreaModule -->
<g id="node4" class="node">
<title>TextAreaModule</title>
<polygon fill="#8dd3c7" stroke="black" points="549.4,-149.8 546.4,-153.8 525.4,-153.8 522.4,-149.8 436.6,-149.8 436.6,-113.8 549.4,-113.8 549.4,-149.8"/>
<text text-anchor="middle" x="493" y="-127.6" font-family="Times,serif" font-size="14.00">TextAreaModule</text>
</g>
<!-- TextAreaComponent&#45;&gt;TextAreaModule -->
<g id="edge1" class="edge">
<title>TextAreaComponent&#45;&gt;TextAreaModule</title>
<path fill="none" stroke="black" d="M753,-84.82C753,-102.17 753,-125.8 753,-125.8 753,-125.8 559.42,-125.8 559.42,-125.8"/>
<polygon fill="black" stroke="black" points="559.42,-122.3 549.42,-125.8 559.42,-129.3 559.42,-122.3"/>
</g>
<!-- TextAreaCountComponent -->
<g id="node2" class="node">
<title>TextAreaCountComponent</title>
<polygon fill="#ffffb3" stroke="black" points="668.41,-84.8 499.59,-84.8 499.59,-48.8 668.41,-48.8 668.41,-84.8"/>
<text text-anchor="middle" x="584" y="-62.6" font-family="Times,serif" font-size="14.00">TextAreaCountComponent</text>
</g>
<!-- TextAreaCountComponent&#45;&gt;TextAreaModule -->
<g id="edge2" class="edge">
<title>TextAreaCountComponent&#45;&gt;TextAreaModule</title>
<path fill="none" stroke="black" d="M524.5,-84.91C524.5,-84.91 524.5,-103.79 524.5,-103.79"/>
<polygon fill="black" stroke="black" points="521,-103.79 524.5,-113.79 528,-103.79 521,-103.79"/>
</g>
<!-- TextAreaMaxComponent -->
<g id="node3" class="node">
<title>TextAreaMaxComponent</title>
<polygon fill="#ffffb3" stroke="black" points="481.85,-84.8 322.15,-84.8 322.15,-48.8 481.85,-48.8 481.85,-84.8"/>
<text text-anchor="middle" x="402" y="-62.6" font-family="Times,serif" font-size="14.00">TextAreaMaxComponent</text>
</g>
<!-- TextAreaMaxComponent&#45;&gt;TextAreaModule -->
<g id="edge3" class="edge">
<title>TextAreaMaxComponent&#45;&gt;TextAreaModule</title>
<path fill="none" stroke="black" d="M459.36,-84.91C459.36,-84.91 459.36,-103.79 459.36,-103.79"/>
<polygon fill="black" stroke="black" points="455.86,-103.79 459.36,-113.79 462.86,-103.79 455.86,-103.79"/>
</g>
<!-- SharedModule -->
<g id="node5" class="node">
<title>SharedModule</title>
<polygon fill="#8dd3c7" stroke="black" points="298.42,-84.8 295.42,-88.8 274.42,-88.8 271.42,-84.8 199.58,-84.8 199.58,-48.8 298.42,-48.8 298.42,-84.8"/>
<text text-anchor="middle" x="249" y="-62.6" font-family="Times,serif" font-size="14.00">SharedModule</text>
</g>
<!-- SharedModule&#45;&gt;TextAreaModule -->
<g id="edge4" class="edge">
<title>SharedModule&#45;&gt;TextAreaModule</title>
<path fill="none" stroke="black" d="M249,-84.82C249,-102.17 249,-125.8 249,-125.8 249,-125.8 426.72,-125.8 426.72,-125.8"/>
<polygon fill="black" stroke="black" points="426.72,-129.3 436.72,-125.8 426.72,-122.3 426.72,-129.3"/>
</g>
<!-- TextAreaRoutingModule -->
<g id="node6" class="node">
<title>TextAreaRoutingModule</title>
<polygon fill="#8dd3c7" stroke="black" points="181.52,-84.8 178.52,-88.8 157.52,-88.8 154.52,-84.8 24.48,-84.8 24.48,-48.8 181.52,-48.8 181.52,-84.8"/>
<text text-anchor="middle" x="103" y="-62.6" font-family="Times,serif" font-size="14.00">TextAreaRoutingModule</text>
</g>
<!-- TextAreaRoutingModule&#45;&gt;TextAreaModule -->
<g id="edge5" class="edge">
<title>TextAreaRoutingModule&#45;&gt;TextAreaModule</title>
<path fill="none" stroke="black" d="M103,-85.08C103,-106.12 103,-137.8 103,-137.8 103,-137.8 426.71,-137.8 426.71,-137.8"/>
<polygon fill="black" stroke="black" points="426.71,-141.3 436.71,-137.8 426.71,-134.3 426.71,-141.3"/>
</g>
<!-- StyleSelectorService -->
<g id="node7" class="node">
<title>StyleSelectorService</title>
<ellipse fill="#fdb462" stroke="black" cx="935" cy="-66.8" rx="91.46" ry="18"/>
<text text-anchor="middle" x="935" y="-62.6" font-family="Times,serif" font-size="14.00">StyleSelectorService</text>
</g>
<!-- StyleSelectorService&#45;&gt;TextAreaModule -->
<g id="edge6" class="edge">
<title>StyleSelectorService&#45;&gt;TextAreaModule</title>
<path fill="none" stroke="black" d="M935,-85.08C935,-106.12 935,-137.8 935,-137.8 935,-137.8 559.43,-137.8 559.43,-137.8"/>
<polygon fill="black" stroke="black" points="559.43,-134.3 549.43,-137.8 559.43,-141.3 559.43,-134.3"/>
</g>
</g>
</svg>
