<?xml version="1.0" encoding="UTF-8" standalone="no"?>
<!DOCTYPE svg PUBLIC "-//W3C//DTD SVG 1.1//EN"
 "http://www.w3.org/Graphics/SVG/1.1/DTD/svg11.dtd">
<!-- Generated by graphviz version 2.47.3 (20210619.1520)
 -->
<!-- Title: dependencies Pages: 1 -->
<svg width="618pt" height="174pt"
 viewBox="0.00 0.00 618.00 173.80" xmlns="http://www.w3.org/2000/svg" xmlns:xlink="http://www.w3.org/1999/xlink">
<g id="graph0" class="graph" transform="scale(1 1) rotate(0) translate(4 169.8)">
<title>dependencies</title>
<polygon fill="white" stroke="transparent" points="-4,4 -4,-169.8 614,-169.8 614,4 -4,4"/>
<text text-anchor="middle" x="305" y="-8.2" font-family="sans-serif" font-size="14.00">dependencies</text>
<g id="clust1" class="cluster">
<title>cluster_FormModule</title>
<polygon fill="none" stroke="black" stroke-dasharray="1,5" points="8,-32.8 8,-157.8 602,-157.8 602,-32.8 8,-32.8"/>
</g>
<g id="clust5" class="cluster">
<title>cluster_FormModule_imports</title>
<polygon fill="none" stroke="black" points="326,-40.8 326,-92.8 594,-92.8 594,-40.8 326,-40.8"/>
</g>
<g id="clust2" class="cluster">
<title>cluster_FormModule_declarations</title>
<polygon fill="none" stroke="black" points="16,-40.8 16,-92.8 318,-92.8 318,-40.8 16,-40.8"/>
</g>
<!-- FormComponent -->
<g id="node1" class="node">
<title>FormComponent</title>
<polygon fill="#ffffb3" stroke="black" points="309.67,-84.8 198.33,-84.8 198.33,-48.8 309.67,-48.8 309.67,-84.8"/>
<text text-anchor="middle" x="254" y="-62.6" font-family="Times,serif" font-size="14.00">FormComponent</text>
</g>
<!-- FormModule -->
<g id="node3" class="node">
<title>FormModule</title>
<polygon fill="#8dd3c7" stroke="black" points="362.88,-149.8 359.88,-153.8 338.88,-153.8 335.88,-149.8 273.12,-149.8 273.12,-113.8 362.88,-113.8 362.88,-149.8"/>
<text text-anchor="middle" x="318" y="-127.6" font-family="Times,serif" font-size="14.00">FormModule</text>
</g>
<!-- FormComponent&#45;&gt;FormModule -->
<g id="edge1" class="edge">
<title>FormComponent&#45;&gt;FormModule</title>
<path fill="none" stroke="black" d="M291.45,-84.91C291.45,-84.91 291.45,-103.79 291.45,-103.79"/>
<polygon fill="black" stroke="black" points="287.95,-103.79 291.45,-113.79 294.95,-103.79 287.95,-103.79"/>
</g>
<!-- LangSelectorComponent -->
<g id="node2" class="node">
<title>LangSelectorComponent</title>
<polygon fill="#ffffb3" stroke="black" points="179.97,-84.8 24.03,-84.8 24.03,-48.8 179.97,-48.8 179.97,-84.8"/>
<text text-anchor="middle" x="102" y="-62.6" font-family="Times,serif" font-size="14.00">LangSelectorComponent</text>
</g>
<!-- LangSelectorComponent&#45;&gt;FormModule -->
<g id="edge2" class="edge">
<title>LangSelectorComponent&#45;&gt;FormModule</title>
<path fill="none" stroke="black" d="M102,-84.91C102,-104.14 102,-131.8 102,-131.8 102,-131.8 262.98,-131.8 262.98,-131.8"/>
<polygon fill="black" stroke="black" points="262.98,-135.3 272.98,-131.8 262.98,-128.3 262.98,-135.3"/>
</g>
<!-- FormRoutingModule -->
<g id="node4" class="node">
<title>FormRoutingModule</title>
<polygon fill="#8dd3c7" stroke="black" points="585.5,-84.8 582.5,-88.8 561.5,-88.8 558.5,-84.8 450.5,-84.8 450.5,-48.8 585.5,-48.8 585.5,-84.8"/>
<text text-anchor="middle" x="518" y="-62.6" font-family="Times,serif" font-size="14.00">FormRoutingModule</text>
</g>
<!-- FormRoutingModule&#45;&gt;FormModule -->
<g id="edge3" class="edge">
<title>FormRoutingModule&#45;&gt;FormModule</title>
<path fill="none" stroke="black" d="M518,-84.91C518,-104.14 518,-131.8 518,-131.8 518,-131.8 372.88,-131.8 372.88,-131.8"/>
<polygon fill="black" stroke="black" points="372.88,-128.3 362.88,-131.8 372.88,-135.3 372.88,-128.3"/>
</g>
<!-- SharedModule -->
<g id="node5" class="node">
<title>SharedModule</title>
<polygon fill="#8dd3c7" stroke="black" points="432.42,-84.8 429.42,-88.8 408.42,-88.8 405.42,-84.8 333.58,-84.8 333.58,-48.8 432.42,-48.8 432.42,-84.8"/>
<text text-anchor="middle" x="383" y="-62.6" font-family="Times,serif" font-size="14.00">SharedModule</text>
</g>
<!-- SharedModule&#45;&gt;FormModule -->
<g id="edge4" class="edge">
<title>SharedModule&#45;&gt;FormModule</title>
<path fill="none" stroke="black" d="M348.37,-84.91C348.37,-84.91 348.37,-103.79 348.37,-103.79"/>
<polygon fill="black" stroke="black" points="344.87,-103.79 348.37,-113.79 351.87,-103.79 344.87,-103.79"/>
</g>
</g>
</svg>
