<?xml version="1.0" encoding="UTF-8" standalone="no"?>
<!DOCTYPE svg PUBLIC "-//W3C//DTD SVG 1.1//EN"
 "http://www.w3.org/Graphics/SVG/1.1/DTD/svg11.dtd">
<!-- Generated by graphviz version 2.47.3 (20210619.1520)
 -->
<!-- Title: dependencies Pages: 1 -->
<svg width="618pt" height="174pt"
 viewBox="0.00 0.00 618.00 173.80" xmlns="http://www.w3.org/2000/svg" xmlns:xlink="http://www.w3.org/1999/xlink">
<g id="graph0" class="graph" transform="scale(1 1) rotate(0) translate(4 169.8)">
<title>dependencies</title>
<polygon fill="white" stroke="transparent" points="-4,4 -4,-169.8 614,-169.8 614,4 -4,4"/>
<text text-anchor="middle" x="305" y="-8.2" font-family="sans-serif" font-size="14.00">dependencies</text>
<g id="clust1" class="cluster">
<title>cluster_FormModule</title>
<polygon fill="none" stroke="black" stroke-dasharray="1,5" points="8,-32.8 8,-157.8 602,-157.8 602,-32.8 8,-32.8"/>
</g>
<g id="clust2" class="cluster">
<title>cluster_FormModule_declarations</title>
<polygon fill="none" stroke="black" points="292,-40.8 292,-92.8 594,-92.8 594,-40.8 292,-40.8"/>
</g>
<g id="clust5" class="cluster">
<title>cluster_FormModule_imports</title>
<polygon fill="none" stroke="black" points="16,-40.8 16,-92.8 284,-92.8 284,-40.8 16,-40.8"/>
</g>
<!-- FormComponent -->
<g id="node1" class="node">
<title>FormComponent</title>
<polygon fill="#ffffb3" stroke="black" points="585.67,-84.8 474.33,-84.8 474.33,-48.8 585.67,-48.8 585.67,-84.8"/>
<text text-anchor="middle" x="530" y="-62.6" font-family="Times,serif" font-size="14.00">FormComponent</text>
</g>
<!-- FormModule -->
<g id="node3" class="node">
<title>FormModule</title>
<polygon fill="#8dd3c7" stroke="black" points="337.88,-149.8 334.88,-153.8 313.88,-153.8 310.88,-149.8 248.12,-149.8 248.12,-113.8 337.88,-113.8 337.88,-149.8"/>
<text text-anchor="middle" x="293" y="-127.6" font-family="Times,serif" font-size="14.00">FormModule</text>
</g>
<!-- FormComponent&#45;&gt;FormModule -->
<g id="edge1" class="edge">
<title>FormComponent&#45;&gt;FormModule</title>
<path fill="none" stroke="black" d="M530,-84.91C530,-104.14 530,-131.8 530,-131.8 530,-131.8 348.14,-131.8 348.14,-131.8"/>
<polygon fill="black" stroke="black" points="348.14,-128.3 338.14,-131.8 348.14,-135.3 348.14,-128.3"/>
</g>
<!-- LangSelectorComponent -->
<g id="node2" class="node">
<title>LangSelectorComponent</title>
<polygon fill="#ffffb3" stroke="black" points="455.97,-84.8 300.03,-84.8 300.03,-48.8 455.97,-48.8 455.97,-84.8"/>
<text text-anchor="middle" x="378" y="-62.6" font-family="Times,serif" font-size="14.00">LangSelectorComponent</text>
</g>
<!-- LangSelectorComponent&#45;&gt;FormModule -->
<g id="edge2" class="edge">
<title>LangSelectorComponent&#45;&gt;FormModule</title>
<path fill="none" stroke="black" d="M318.98,-84.91C318.98,-84.91 318.98,-103.79 318.98,-103.79"/>
<polygon fill="black" stroke="black" points="315.48,-103.79 318.98,-113.79 322.48,-103.79 315.48,-103.79"/>
</g>
<!-- FormRoutingModule -->
<g id="node4" class="node">
<title>FormRoutingModule</title>
<polygon fill="#8dd3c7" stroke="black" points="275.5,-84.8 272.5,-88.8 251.5,-88.8 248.5,-84.8 140.5,-84.8 140.5,-48.8 275.5,-48.8 275.5,-84.8"/>
<text text-anchor="middle" x="208" y="-62.6" font-family="Times,serif" font-size="14.00">FormRoutingModule</text>
</g>
<!-- FormRoutingModule&#45;&gt;FormModule -->
<g id="edge3" class="edge">
<title>FormRoutingModule&#45;&gt;FormModule</title>
<path fill="none" stroke="black" d="M261.78,-84.91C261.78,-84.91 261.78,-103.79 261.78,-103.79"/>
<polygon fill="black" stroke="black" points="258.28,-103.79 261.78,-113.79 265.28,-103.79 258.28,-103.79"/>
</g>
<!-- SharedModule -->
<g id="node5" class="node">
<title>SharedModule</title>
<polygon fill="#8dd3c7" stroke="black" points="122.42,-84.8 119.42,-88.8 98.42,-88.8 95.42,-84.8 23.58,-84.8 23.58,-48.8 122.42,-48.8 122.42,-84.8"/>
<text text-anchor="middle" x="73" y="-62.6" font-family="Times,serif" font-size="14.00">SharedModule</text>
</g>
<!-- SharedModule&#45;&gt;FormModule -->
<g id="edge4" class="edge">
<title>SharedModule&#45;&gt;FormModule</title>
<path fill="none" stroke="black" d="M73,-84.91C73,-104.14 73,-131.8 73,-131.8 73,-131.8 237.95,-131.8 237.95,-131.8"/>
<polygon fill="black" stroke="black" points="237.95,-135.3 247.95,-131.8 237.95,-128.3 237.95,-135.3"/>
</g>
</g>
</svg>
