<?xml version="1.0" encoding="UTF-8" standalone="no"?>
<!DOCTYPE svg PUBLIC "-//W3C//DTD SVG 1.1//EN"
 "http://www.w3.org/Graphics/SVG/1.1/DTD/svg11.dtd">
<!-- Generated by graphviz version 2.47.3 (20210619.1520)
 -->
<!-- Title: dependencies Pages: 1 -->
<svg width="695pt" height="174pt"
 viewBox="0.00 0.00 695.00 173.80" xmlns="http://www.w3.org/2000/svg" xmlns:xlink="http://www.w3.org/1999/xlink">
<g id="graph0" class="graph" transform="scale(1 1) rotate(0) translate(4 169.8)">
<title>dependencies</title>
<polygon fill="white" stroke="transparent" points="-4,4 -4,-169.8 691,-169.8 691,4 -4,4"/>
<text text-anchor="middle" x="343.5" y="-8.2" font-family="sans-serif" font-size="14.00">dependencies</text>
<g id="clust1" class="cluster">
<title>cluster_FormularioModule</title>
<polygon fill="none" stroke="black" stroke-dasharray="1,5" points="8,-32.8 8,-157.8 679,-157.8 679,-32.8 8,-32.8"/>
</g>
<g id="clust2" class="cluster">
<title>cluster_FormularioModule_declarations</title>
<polygon fill="none" stroke="black" points="326,-40.8 326,-92.8 671,-92.8 671,-40.8 326,-40.8"/>
</g>
<g id="clust5" class="cluster">
<title>cluster_FormularioModule_imports</title>
<polygon fill="none" stroke="black" points="16,-40.8 16,-92.8 318,-92.8 318,-40.8 16,-40.8"/>
</g>
<!-- FormularioComponent -->
<g id="node1" class="node">
<title>FormularioComponent</title>
<polygon fill="#ffffb3" stroke="black" points="663.32,-84.8 518.68,-84.8 518.68,-48.8 663.32,-48.8 663.32,-84.8"/>
<text text-anchor="middle" x="591" y="-62.6" font-family="Times,serif" font-size="14.00">FormularioComponent</text>
</g>
<!-- FormularioModule -->
<g id="node3" class="node">
<title>FormularioModule</title>
<polygon fill="#8dd3c7" stroke="black" points="399.04,-149.8 396.04,-153.8 375.04,-153.8 372.04,-149.8 276.96,-149.8 276.96,-113.8 399.04,-113.8 399.04,-149.8"/>
<text text-anchor="middle" x="338" y="-127.6" font-family="Times,serif" font-size="14.00">FormularioModule</text>
</g>
<!-- FormularioComponent&#45;&gt;FormularioModule -->
<g id="edge1" class="edge">
<title>FormularioComponent&#45;&gt;FormularioModule</title>
<path fill="none" stroke="black" d="M591,-84.91C591,-104.14 591,-131.8 591,-131.8 591,-131.8 409.24,-131.8 409.24,-131.8"/>
<polygon fill="black" stroke="black" points="409.24,-128.3 399.24,-131.8 409.24,-135.3 409.24,-128.3"/>
</g>
<!-- SelectorIdiomaComponent -->
<g id="node2" class="node">
<title>SelectorIdiomaComponent</title>
<polygon fill="#ffffb3" stroke="black" points="500.36,-84.8 333.64,-84.8 333.64,-48.8 500.36,-48.8 500.36,-84.8"/>
<text text-anchor="middle" x="417" y="-62.6" font-family="Times,serif" font-size="14.00">SelectorIdiomaComponent</text>
</g>
<!-- SelectorIdiomaComponent&#45;&gt;FormularioModule -->
<g id="edge2" class="edge">
<title>SelectorIdiomaComponent&#45;&gt;FormularioModule</title>
<path fill="none" stroke="black" d="M366.42,-84.91C366.42,-84.91 366.42,-103.79 366.42,-103.79"/>
<polygon fill="black" stroke="black" points="362.92,-103.79 366.42,-113.79 369.92,-103.79 362.92,-103.79"/>
</g>
<!-- ComunModule -->
<g id="node4" class="node">
<title>ComunModule</title>
<polygon fill="#8dd3c7" stroke="black" points="310.28,-84.8 307.28,-88.8 286.28,-88.8 283.28,-84.8 209.72,-84.8 209.72,-48.8 310.28,-48.8 310.28,-84.8"/>
<text text-anchor="middle" x="260" y="-62.6" font-family="Times,serif" font-size="14.00">ComunModule</text>
</g>
<!-- ComunModule&#45;&gt;FormularioModule -->
<g id="edge3" class="edge">
<title>ComunModule&#45;&gt;FormularioModule</title>
<path fill="none" stroke="black" d="M293.56,-84.91C293.56,-84.91 293.56,-103.79 293.56,-103.79"/>
<polygon fill="black" stroke="black" points="290.06,-103.79 293.56,-113.79 297.06,-103.79 290.06,-103.79"/>
</g>
<!-- FormularioRoutingModule -->
<g id="node5" class="node">
<title>FormularioRoutingModule</title>
<polygon fill="#8dd3c7" stroke="black" points="191.66,-84.8 188.66,-88.8 167.66,-88.8 164.66,-84.8 24.34,-84.8 24.34,-48.8 191.66,-48.8 191.66,-84.8"/>
<text text-anchor="middle" x="108" y="-62.6" font-family="Times,serif" font-size="14.00">FormularioRoutingModule</text>
</g>
<!-- FormularioRoutingModule&#45;&gt;FormularioModule -->
<g id="edge4" class="edge">
<title>FormularioRoutingModule&#45;&gt;FormularioModule</title>
<path fill="none" stroke="black" d="M108,-84.91C108,-104.14 108,-131.8 108,-131.8 108,-131.8 266.67,-131.8 266.67,-131.8"/>
<polygon fill="black" stroke="black" points="266.67,-135.3 276.67,-131.8 266.67,-128.3 266.67,-135.3"/>
</g>
</g>
</svg>
