<?xml version="1.0" encoding="UTF-8" standalone="no"?>
<!DOCTYPE svg PUBLIC "-//W3C//DTD SVG 1.1//EN"
 "http://www.w3.org/Graphics/SVG/1.1/DTD/svg11.dtd">
<!-- Generated by graphviz version 2.47.3 (20210619.1520)
 -->
<!-- Title: dependencies Pages: 1 -->
<svg width="693pt" height="174pt"
 viewBox="0.00 0.00 693.00 173.80" xmlns="http://www.w3.org/2000/svg" xmlns:xlink="http://www.w3.org/1999/xlink">
<g id="graph0" class="graph" transform="scale(1 1) rotate(0) translate(4 169.8)">
<title>dependencies</title>
<polygon fill="white" stroke="transparent" points="-4,4 -4,-169.8 689,-169.8 689,4 -4,4"/>
<text text-anchor="middle" x="342.5" y="-8.2" font-family="sans-serif" font-size="14.00">dependencies</text>
<g id="clust1" class="cluster">
<title>cluster_FormularioModule</title>
<polygon fill="none" stroke="black" stroke-dasharray="1,5" points="8,-32.8 8,-157.8 677,-157.8 677,-32.8 8,-32.8"/>
</g>
<g id="clust2" class="cluster">
<title>cluster_FormularioModule_declarations</title>
<polygon fill="none" stroke="black" points="324,-40.8 324,-92.8 669,-92.8 669,-40.8 324,-40.8"/>
</g>
<g id="clust5" class="cluster">
<title>cluster_FormularioModule_imports</title>
<polygon fill="none" stroke="black" points="16,-40.8 16,-92.8 316,-92.8 316,-40.8 16,-40.8"/>
</g>
<!-- FormularioComponent -->
<g id="node1" class="node">
<title>FormularioComponent</title>
<polygon fill="#ffffb3" stroke="black" points="661.32,-84.8 516.68,-84.8 516.68,-48.8 661.32,-48.8 661.32,-84.8"/>
<text text-anchor="middle" x="589" y="-62.6" font-family="Times,serif" font-size="14.00">FormularioComponent</text>
</g>
<!-- FormularioModule -->
<g id="node3" class="node">
<title>FormularioModule</title>
<polygon fill="#8dd3c7" stroke="black" points="380.04,-149.8 377.04,-153.8 356.04,-153.8 353.04,-149.8 257.96,-149.8 257.96,-113.8 380.04,-113.8 380.04,-149.8"/>
<text text-anchor="middle" x="319" y="-127.6" font-family="Times,serif" font-size="14.00">FormularioModule</text>
</g>
<!-- FormularioComponent&#45;&gt;FormularioModule -->
<g id="edge1" class="edge">
<title>FormularioComponent&#45;&gt;FormularioModule</title>
<path fill="none" stroke="black" d="M589,-84.91C589,-104.14 589,-131.8 589,-131.8 589,-131.8 390.27,-131.8 390.27,-131.8"/>
<polygon fill="black" stroke="black" points="390.27,-128.3 380.27,-131.8 390.27,-135.3 390.27,-128.3"/>
</g>
<!-- SelectorIdiomaComponent -->
<g id="node2" class="node">
<title>SelectorIdiomaComponent</title>
<polygon fill="#ffffb3" stroke="black" points="498.36,-84.8 331.64,-84.8 331.64,-48.8 498.36,-48.8 498.36,-84.8"/>
<text text-anchor="middle" x="415" y="-62.6" font-family="Times,serif" font-size="14.00">SelectorIdiomaComponent</text>
</g>
<!-- SelectorIdiomaComponent&#45;&gt;FormularioModule -->
<g id="edge2" class="edge">
<title>SelectorIdiomaComponent&#45;&gt;FormularioModule</title>
<path fill="none" stroke="black" d="M355.92,-84.91C355.92,-84.91 355.92,-103.79 355.92,-103.79"/>
<polygon fill="black" stroke="black" points="352.42,-103.79 355.92,-113.79 359.42,-103.79 352.42,-103.79"/>
</g>
<!-- FormularioRoutingModule -->
<g id="node4" class="node">
<title>FormularioRoutingModule</title>
<polygon fill="#8dd3c7" stroke="black" points="307.66,-84.8 304.66,-88.8 283.66,-88.8 280.66,-84.8 140.34,-84.8 140.34,-48.8 307.66,-48.8 307.66,-84.8"/>
<text text-anchor="middle" x="224" y="-62.6" font-family="Times,serif" font-size="14.00">FormularioRoutingModule</text>
</g>
<!-- FormularioRoutingModule&#45;&gt;FormularioModule -->
<g id="edge3" class="edge">
<title>FormularioRoutingModule&#45;&gt;FormularioModule</title>
<path fill="none" stroke="black" d="M282.78,-84.91C282.78,-84.91 282.78,-103.79 282.78,-103.79"/>
<polygon fill="black" stroke="black" points="279.28,-103.79 282.78,-113.79 286.28,-103.79 279.28,-103.79"/>
</g>
<!-- SharedModule -->
<g id="node5" class="node">
<title>SharedModule</title>
<polygon fill="#8dd3c7" stroke="black" points="122.42,-84.8 119.42,-88.8 98.42,-88.8 95.42,-84.8 23.58,-84.8 23.58,-48.8 122.42,-48.8 122.42,-84.8"/>
<text text-anchor="middle" x="73" y="-62.6" font-family="Times,serif" font-size="14.00">SharedModule</text>
</g>
<!-- SharedModule&#45;&gt;FormularioModule -->
<g id="edge4" class="edge">
<title>SharedModule&#45;&gt;FormularioModule</title>
<path fill="none" stroke="black" d="M73,-84.91C73,-104.14 73,-131.8 73,-131.8 73,-131.8 247.87,-131.8 247.87,-131.8"/>
<polygon fill="black" stroke="black" points="247.87,-135.3 257.87,-131.8 247.87,-128.3 247.87,-135.3"/>
</g>
</g>
</svg>
