<?xml version="1.0" encoding="UTF-8" standalone="no"?>
<!DOCTYPE svg PUBLIC "-//W3C//DTD SVG 1.1//EN"
 "http://www.w3.org/Graphics/SVG/1.1/DTD/svg11.dtd">
<!-- Generated by graphviz version 2.47.3 (20210619.1520)
 -->
<!-- Title: dependencies Pages: 1 -->
<svg width="2977pt" height="250pt"
 viewBox="0.00 0.00 2977.00 249.80" xmlns="http://www.w3.org/2000/svg" xmlns:xlink="http://www.w3.org/1999/xlink">
<g id="graph0" class="graph" transform="scale(1 1) rotate(0) translate(4 245.8)">
<title>dependencies</title>
<polygon fill="white" stroke="transparent" points="-4,4 -4,-245.8 2973,-245.8 2973,4 -4,4"/>
<text text-anchor="middle" x="1484.5" y="-8.2" font-family="sans-serif" font-size="14.00">dependencies</text>
<g id="clust1" class="cluster">
<title>cluster_AppModule</title>
<polygon fill="none" stroke="black" stroke-dasharray="1,5" points="8,-32.8 8,-233.8 430,-233.8 430,-32.8 8,-32.8"/>
</g>
<g id="clust2" class="cluster">
<title>cluster_AppModule_declarations</title>
<polygon fill="none" stroke="black" points="168,-40.8 168,-92.8 422,-92.8 422,-40.8 168,-40.8"/>
</g>
<g id="clust5" class="cluster">
<title>cluster_AppModule_imports</title>
<polygon fill="none" stroke="black" points="16,-40.8 16,-92.8 160,-92.8 160,-40.8 16,-40.8"/>
</g>
<g id="clust7" class="cluster">
<title>cluster_AppModule_bootstrap</title>
<polygon fill="none" stroke="black" points="171,-173.8 171,-225.8 295,-225.8 295,-173.8 171,-173.8"/>
</g>
<g id="clust15" class="cluster">
<title>cluster_ComunModule</title>
<polygon fill="none" stroke="black" stroke-dasharray="1,5" points="999,-32.8 999,-233.8 1181,-233.8 1181,-32.8 999,-32.8"/>
</g>
<g id="clust16" class="cluster">
<title>cluster_ComunModule_declarations</title>
<polygon fill="none" stroke="black" points="1011,-40.8 1011,-92.8 1173,-92.8 1173,-40.8 1011,-40.8"/>
</g>
<g id="clust19" class="cluster">
<title>cluster_ComunModule_exports</title>
<polygon fill="none" stroke="black" points="1007,-173.8 1007,-225.8 1173,-225.8 1173,-173.8 1007,-173.8"/>
</g>
<g id="clust22" class="cluster">
<title>cluster_FormularioModule</title>
<polygon fill="none" stroke="black" stroke-dasharray="1,5" points="438,-100.8 438,-225.8 991,-225.8 991,-100.8 438,-100.8"/>
</g>
<g id="clust23" class="cluster">
<title>cluster_FormularioModule_declarations</title>
<polygon fill="none" stroke="black" points="638,-108.8 638,-160.8 983,-160.8 983,-108.8 638,-108.8"/>
</g>
<g id="clust26" class="cluster">
<title>cluster_FormularioModule_imports</title>
<polygon fill="none" stroke="black" points="446,-108.8 446,-160.8 630,-160.8 630,-108.8 446,-108.8"/>
</g>
<g id="clust36" class="cluster">
<title>cluster_InputTextModule</title>
<polygon fill="none" stroke="black" stroke-dasharray="1,5" points="1189,-100.8 1189,-225.8 1725,-225.8 1725,-100.8 1189,-100.8"/>
</g>
<g id="clust37" class="cluster">
<title>cluster_InputTextModule_declarations</title>
<polygon fill="none" stroke="black" points="1381,-108.8 1381,-160.8 1717,-160.8 1717,-108.8 1381,-108.8"/>
</g>
<g id="clust40" class="cluster">
<title>cluster_InputTextModule_imports</title>
<polygon fill="none" stroke="black" points="1197,-108.8 1197,-160.8 1373,-160.8 1373,-108.8 1197,-108.8"/>
</g>
<g id="clust50" class="cluster">
<title>cluster_RadioButtonCheckboxModule</title>
<polygon fill="none" stroke="black" stroke-dasharray="1,5" points="1733,-100.8 1733,-225.8 2445,-225.8 2445,-100.8 1733,-100.8"/>
</g>
<g id="clust51" class="cluster">
<title>cluster_RadioButtonCheckboxModule_declarations</title>
<polygon fill="none" stroke="black" points="1997,-108.8 1997,-160.8 2437,-160.8 2437,-108.8 1997,-108.8"/>
</g>
<g id="clust54" class="cluster">
<title>cluster_RadioButtonCheckboxModule_imports</title>
<polygon fill="none" stroke="black" points="1741,-108.8 1741,-160.8 1989,-160.8 1989,-108.8 1741,-108.8"/>
</g>
<g id="clust64" class="cluster">
<title>cluster_SelectorModule</title>
<polygon fill="none" stroke="black" stroke-dasharray="1,5" points="2453,-100.8 2453,-225.8 2961,-225.8 2961,-100.8 2453,-100.8"/>
</g>
<g id="clust65" class="cluster">
<title>cluster_SelectorModule_declarations</title>
<polygon fill="none" stroke="black" points="2635,-108.8 2635,-160.8 2953,-160.8 2953,-108.8 2635,-108.8"/>
</g>
<g id="clust68" class="cluster">
<title>cluster_SelectorModule_imports</title>
<polygon fill="none" stroke="black" points="2461,-108.8 2461,-160.8 2627,-160.8 2627,-108.8 2461,-108.8"/>
</g>
<!-- AppComponent -->
<g id="node1" class="node">
<title>AppComponent</title>
<polygon fill="#ffffb3" stroke="black" points="413.94,-84.8 308.06,-84.8 308.06,-48.8 413.94,-48.8 413.94,-84.8"/>
<text text-anchor="middle" x="361" y="-62.6" font-family="Times,serif" font-size="14.00">AppComponent</text>
</g>
<!-- AppModule -->
<g id="node3" class="node">
<title>AppModule</title>
<polygon fill="#8dd3c7" stroke="black" points="274.66,-152.8 271.66,-156.8 250.66,-156.8 247.66,-152.8 191.34,-152.8 191.34,-116.8 274.66,-116.8 274.66,-152.8"/>
<text text-anchor="middle" x="233" y="-130.6" font-family="Times,serif" font-size="14.00">AppModule</text>
</g>
<!-- AppComponent&#45;&gt;AppModule -->
<g id="edge1" class="edge">
<title>AppComponent&#45;&gt;AppModule</title>
<path fill="none" stroke="black" d="M361,-85.02C361,-105.17 361,-134.8 361,-134.8 361,-134.8 284.91,-134.8 284.91,-134.8"/>
<polygon fill="black" stroke="black" points="284.91,-131.3 274.91,-134.8 284.91,-138.3 284.91,-131.3"/>
</g>
<!-- InicioComponent -->
<g id="node2" class="node">
<title>InicioComponent</title>
<polygon fill="#ffffb3" stroke="black" points="289.99,-84.8 176.01,-84.8 176.01,-48.8 289.99,-48.8 289.99,-84.8"/>
<text text-anchor="middle" x="233" y="-62.6" font-family="Times,serif" font-size="14.00">InicioComponent</text>
</g>
<!-- InicioComponent&#45;&gt;AppModule -->
<g id="edge2" class="edge">
<title>InicioComponent&#45;&gt;AppModule</title>
<path fill="none" stroke="black" d="M233,-85.02C233,-85.02 233,-106.53 233,-106.53"/>
<polygon fill="black" stroke="black" points="229.5,-106.53 233,-116.53 236.5,-106.53 229.5,-106.53"/>
</g>
<!-- AppComponent  -->
<g id="node5" class="node">
<title>AppComponent </title>
<polygon fill="#80b1d3" stroke="black" points="287.44,-217.8 178.56,-217.8 178.56,-181.8 287.44,-181.8 287.44,-217.8"/>
<text text-anchor="middle" x="233" y="-195.6" font-family="Times,serif" font-size="14.00">AppComponent </text>
</g>
<!-- AppModule&#45;&gt;AppComponent  -->
<g id="edge4" class="edge">
<title>AppModule&#45;&gt;AppComponent </title>
<path fill="none" stroke="black" stroke-dasharray="1,5" d="M233,-152.91C233,-152.91 233,-171.79 233,-171.79"/>
<polygon fill="black" stroke="black" points="229.5,-171.79 233,-181.79 236.5,-171.79 229.5,-171.79"/>
</g>
<!-- AppRoutingModule -->
<g id="node4" class="node">
<title>AppRoutingModule</title>
<polygon fill="#8dd3c7" stroke="black" points="152.27,-84.8 149.27,-88.8 128.27,-88.8 125.27,-84.8 23.73,-84.8 23.73,-48.8 152.27,-48.8 152.27,-84.8"/>
<text text-anchor="middle" x="88" y="-62.6" font-family="Times,serif" font-size="14.00">AppRoutingModule</text>
</g>
<!-- AppRoutingModule&#45;&gt;AppModule -->
<g id="edge3" class="edge">
<title>AppRoutingModule&#45;&gt;AppModule</title>
<path fill="none" stroke="black" d="M88,-85.02C88,-105.17 88,-134.8 88,-134.8 88,-134.8 181.06,-134.8 181.06,-134.8"/>
<polygon fill="black" stroke="black" points="181.06,-138.3 191.06,-134.8 181.06,-131.3 181.06,-138.3"/>
</g>
<!-- TablaDatosComponent -->
<g id="node6" class="node">
<title>TablaDatosComponent</title>
<polygon fill="#ffffb3" stroke="black" points="1164.86,-84.8 1019.14,-84.8 1019.14,-48.8 1164.86,-48.8 1164.86,-84.8"/>
<text text-anchor="middle" x="1092" y="-62.6" font-family="Times,serif" font-size="14.00">TablaDatosComponent</text>
</g>
<!-- ComunModule -->
<g id="node7" class="node">
<title>ComunModule</title>
<polygon fill="#8dd3c7" stroke="black" points="1157.28,-152.8 1154.28,-156.8 1133.28,-156.8 1130.28,-152.8 1056.72,-152.8 1056.72,-116.8 1157.28,-116.8 1157.28,-152.8"/>
<text text-anchor="middle" x="1107" y="-130.6" font-family="Times,serif" font-size="14.00">ComunModule</text>
</g>
<!-- TablaDatosComponent&#45;&gt;ComunModule -->
<g id="edge5" class="edge">
<title>TablaDatosComponent&#45;&gt;ComunModule</title>
<path fill="none" stroke="black" d="M1107,-85.02C1107,-85.02 1107,-106.53 1107,-106.53"/>
<polygon fill="black" stroke="black" points="1103.5,-106.53 1107,-116.53 1110.5,-106.53 1103.5,-106.53"/>
</g>
<!-- TablaDatosComponent  -->
<g id="node8" class="node">
<title>TablaDatosComponent </title>
<polygon fill="#fb8072" stroke="black" points="1164.86,-217.8 1015.14,-217.8 1015.14,-181.8 1164.86,-181.8 1164.86,-217.8"/>
<text text-anchor="middle" x="1090" y="-195.6" font-family="Times,serif" font-size="14.00">TablaDatosComponent </text>
</g>
<!-- ComunModule&#45;&gt;TablaDatosComponent  -->
<g id="edge6" class="edge">
<title>ComunModule&#45;&gt;TablaDatosComponent </title>
<path fill="none" stroke="black" stroke-dasharray="5,2" d="M1081.81,-152.91C1081.81,-152.91 1081.81,-171.79 1081.81,-171.79"/>
<polygon fill="black" stroke="black" points="1078.31,-171.79 1081.81,-181.79 1085.31,-171.79 1078.31,-171.79"/>
</g>
<!-- FormularioModule -->
<g id="node11" class="node">
<title>FormularioModule</title>
<polygon fill="#8dd3c7" stroke="black" points="877.04,-217.8 874.04,-221.8 853.04,-221.8 850.04,-217.8 754.96,-217.8 754.96,-181.8 877.04,-181.8 877.04,-217.8"/>
<text text-anchor="middle" x="816" y="-195.6" font-family="Times,serif" font-size="14.00">FormularioModule</text>
</g>
<!-- ComunModule&#45;&gt;FormularioModule -->
<g id="edge9" class="edge">
<title>ComunModule&#45;&gt;FormularioModule</title>
<path fill="none" stroke="black" d="M1056.68,-134.8C1027.01,-134.8 995.24,-134.8 995.24,-134.8 995.24,-134.8 995.24,-199.8 995.24,-199.8 995.24,-199.8 887.18,-199.8 887.18,-199.8"/>
<polygon fill="black" stroke="black" points="887.18,-196.3 877.18,-199.8 887.18,-203.3 887.18,-196.3"/>
</g>
<!-- InputTextModule -->
<g id="node15" class="node">
<title>InputTextModule</title>
<polygon fill="#8dd3c7" stroke="black" points="1428.26,-217.8 1425.26,-221.8 1404.26,-221.8 1401.26,-217.8 1313.74,-217.8 1313.74,-181.8 1428.26,-181.8 1428.26,-217.8"/>
<text text-anchor="middle" x="1371" y="-195.6" font-family="Times,serif" font-size="14.00">InputTextModule</text>
</g>
<!-- ComunModule&#45;&gt;InputTextModule -->
<g id="edge13" class="edge">
<title>ComunModule&#45;&gt;InputTextModule</title>
<path fill="none" stroke="black" d="M1157.28,-134.8C1172.37,-134.8 1185,-134.8 1185,-134.8 1185,-134.8 1185,-199.8 1185,-199.8 1185,-199.8 1303.67,-199.8 1303.67,-199.8"/>
<polygon fill="black" stroke="black" points="1303.68,-203.3 1313.67,-199.8 1303.67,-196.3 1303.68,-203.3"/>
</g>
<!-- RadioButtonCheckboxModule -->
<g id="node19" class="node">
<title>RadioButtonCheckboxModule</title>
<polygon fill="#8dd3c7" stroke="black" points="2080.88,-217.8 2077.88,-221.8 2056.88,-221.8 2053.88,-217.8 1893.12,-217.8 1893.12,-181.8 2080.88,-181.8 2080.88,-217.8"/>
<text text-anchor="middle" x="1987" y="-195.6" font-family="Times,serif" font-size="14.00">RadioButtonCheckboxModule</text>
</g>
<!-- ComunModule&#45;&gt;RadioButtonCheckboxModule -->
<g id="edge17" class="edge">
<title>ComunModule&#45;&gt;RadioButtonCheckboxModule</title>
<path fill="none" stroke="black" d="M1107,-152.91C1107,-162.7 1107,-172.8 1107,-172.8 1107,-172.8 1922.54,-172.8 1922.54,-172.8 1922.54,-172.8 1922.54,-173.68 1922.54,-173.68"/>
<polygon fill="black" stroke="black" points="1919.04,-171.64 1922.54,-181.64 1926.04,-171.64 1919.04,-171.64"/>
</g>
<!-- SelectorModule -->
<g id="node23" class="node">
<title>SelectorModule</title>
<polygon fill="#8dd3c7" stroke="black" points="2677.92,-217.8 2674.92,-221.8 2653.92,-221.8 2650.92,-217.8 2572.08,-217.8 2572.08,-181.8 2677.92,-181.8 2677.92,-217.8"/>
<text text-anchor="middle" x="2625" y="-195.6" font-family="Times,serif" font-size="14.00">SelectorModule</text>
</g>
<!-- ComunModule&#45;&gt;SelectorModule -->
<g id="edge21" class="edge">
<title>ComunModule&#45;&gt;SelectorModule</title>
<path fill="none" stroke="black" d="M1132.19,-153.01C1132.19,-158.35 1132.19,-162.8 1132.19,-162.8 1132.19,-162.8 2587.95,-162.8 2587.95,-162.8 2587.95,-162.8 2587.95,-171.73 2587.95,-171.73"/>
<polygon fill="black" stroke="black" points="2584.45,-171.73 2587.95,-181.73 2591.45,-171.73 2584.45,-171.73"/>
</g>
<!-- FormularioComponent -->
<g id="node9" class="node">
<title>FormularioComponent</title>
<polygon fill="#ffffb3" stroke="black" points="975.32,-152.8 830.68,-152.8 830.68,-116.8 975.32,-116.8 975.32,-152.8"/>
<text text-anchor="middle" x="903" y="-130.6" font-family="Times,serif" font-size="14.00">FormularioComponent</text>
</g>
<!-- FormularioComponent&#45;&gt;FormularioModule -->
<g id="edge7" class="edge">
<title>FormularioComponent&#45;&gt;FormularioModule</title>
<path fill="none" stroke="black" d="M854.05,-152.91C854.05,-152.91 854.05,-171.79 854.05,-171.79"/>
<polygon fill="black" stroke="black" points="850.55,-171.79 854.05,-181.79 857.55,-171.79 850.55,-171.79"/>
</g>
<!-- SelectorIdiomaComponent -->
<g id="node10" class="node">
<title>SelectorIdiomaComponent</title>
<polygon fill="#ffffb3" stroke="black" points="812.36,-152.8 645.64,-152.8 645.64,-116.8 812.36,-116.8 812.36,-152.8"/>
<text text-anchor="middle" x="729" y="-130.6" font-family="Times,serif" font-size="14.00">SelectorIdiomaComponent</text>
</g>
<!-- SelectorIdiomaComponent&#45;&gt;FormularioModule -->
<g id="edge8" class="edge">
<title>SelectorIdiomaComponent&#45;&gt;FormularioModule</title>
<path fill="none" stroke="black" d="M783.58,-152.91C783.58,-152.91 783.58,-171.79 783.58,-171.79"/>
<polygon fill="black" stroke="black" points="780.08,-171.79 783.58,-181.79 787.08,-171.79 780.08,-171.79"/>
</g>
<!-- FormularioRoutingModule -->
<g id="node12" class="node">
<title>FormularioRoutingModule</title>
<polygon fill="#8dd3c7" stroke="black" points="621.66,-152.8 618.66,-156.8 597.66,-156.8 594.66,-152.8 454.34,-152.8 454.34,-116.8 621.66,-116.8 621.66,-152.8"/>
<text text-anchor="middle" x="538" y="-130.6" font-family="Times,serif" font-size="14.00">FormularioRoutingModule</text>
</g>
<!-- FormularioRoutingModule&#45;&gt;FormularioModule -->
<g id="edge10" class="edge">
<title>FormularioRoutingModule&#45;&gt;FormularioModule</title>
<path fill="none" stroke="black" d="M538,-152.91C538,-172.14 538,-199.8 538,-199.8 538,-199.8 744.65,-199.8 744.65,-199.8"/>
<polygon fill="black" stroke="black" points="744.65,-203.3 754.65,-199.8 744.65,-196.3 744.65,-203.3"/>
</g>
<!-- CVAInputTextComponent -->
<g id="node13" class="node">
<title>CVAInputTextComponent</title>
<polygon fill="#ffffb3" stroke="black" points="1709.09,-152.8 1542.91,-152.8 1542.91,-116.8 1709.09,-116.8 1709.09,-152.8"/>
<text text-anchor="middle" x="1626" y="-130.6" font-family="Times,serif" font-size="14.00">CVAInputTextComponent</text>
</g>
<!-- CVAInputTextComponent&#45;&gt;InputTextModule -->
<g id="edge11" class="edge">
<title>CVAInputTextComponent&#45;&gt;InputTextModule</title>
<path fill="none" stroke="black" d="M1626,-152.91C1626,-172.14 1626,-199.8 1626,-199.8 1626,-199.8 1438.54,-199.8 1438.54,-199.8"/>
<polygon fill="black" stroke="black" points="1438.54,-196.3 1428.54,-199.8 1438.54,-203.3 1438.54,-196.3"/>
</g>
<!-- InputTextComponent -->
<g id="node14" class="node">
<title>InputTextComponent</title>
<polygon fill="#ffffb3" stroke="black" points="1525.04,-152.8 1388.96,-152.8 1388.96,-116.8 1525.04,-116.8 1525.04,-152.8"/>
<text text-anchor="middle" x="1457" y="-130.6" font-family="Times,serif" font-size="14.00">InputTextComponent</text>
</g>
<!-- InputTextComponent&#45;&gt;InputTextModule -->
<g id="edge12" class="edge">
<title>InputTextComponent&#45;&gt;InputTextModule</title>
<path fill="none" stroke="black" d="M1408.55,-152.91C1408.55,-152.91 1408.55,-171.79 1408.55,-171.79"/>
<polygon fill="black" stroke="black" points="1405.05,-171.79 1408.55,-181.79 1412.05,-171.79 1405.05,-171.79"/>
</g>
<!-- InputTextRoutingModule -->
<g id="node16" class="node">
<title>InputTextRoutingModule</title>
<polygon fill="#8dd3c7" stroke="black" points="1364.88,-152.8 1361.88,-156.8 1340.88,-156.8 1337.88,-152.8 1205.12,-152.8 1205.12,-116.8 1364.88,-116.8 1364.88,-152.8"/>
<text text-anchor="middle" x="1285" y="-130.6" font-family="Times,serif" font-size="14.00">InputTextRoutingModule</text>
</g>
<!-- InputTextRoutingModule&#45;&gt;InputTextModule -->
<g id="edge14" class="edge">
<title>InputTextRoutingModule&#45;&gt;InputTextModule</title>
<path fill="none" stroke="black" d="M1339.28,-152.91C1339.28,-152.91 1339.28,-171.79 1339.28,-171.79"/>
<polygon fill="black" stroke="black" points="1335.78,-171.79 1339.28,-181.79 1342.78,-171.79 1335.78,-171.79"/>
</g>
<!-- CustomRadioButtonComponent -->
<g id="node17" class="node">
<title>CustomRadioButtonComponent</title>
<polygon fill="#ffffb3" stroke="black" points="2429.45,-152.8 2232.55,-152.8 2232.55,-116.8 2429.45,-116.8 2429.45,-152.8"/>
<text text-anchor="middle" x="2331" y="-130.6" font-family="Times,serif" font-size="14.00">CustomRadioButtonComponent</text>
</g>
<!-- CustomRadioButtonComponent&#45;&gt;RadioButtonCheckboxModule -->
<g id="edge15" class="edge">
<title>CustomRadioButtonComponent&#45;&gt;RadioButtonCheckboxModule</title>
<path fill="none" stroke="black" d="M2331,-152.91C2331,-172.14 2331,-199.8 2331,-199.8 2331,-199.8 2091,-199.8 2091,-199.8"/>
<polygon fill="black" stroke="black" points="2091,-196.3 2081,-199.8 2091,-203.3 2091,-196.3"/>
</g>
<!-- RadioButtonCheckboxComponent -->
<g id="node18" class="node">
<title>RadioButtonCheckboxComponent</title>
<polygon fill="#ffffb3" stroke="black" points="2214.66,-152.8 2005.34,-152.8 2005.34,-116.8 2214.66,-116.8 2214.66,-152.8"/>
<text text-anchor="middle" x="2110" y="-130.6" font-family="Times,serif" font-size="14.00">RadioButtonCheckboxComponent</text>
</g>
<!-- RadioButtonCheckboxComponent&#45;&gt;RadioButtonCheckboxModule -->
<g id="edge16" class="edge">
<title>RadioButtonCheckboxComponent&#45;&gt;RadioButtonCheckboxModule</title>
<path fill="none" stroke="black" d="M2043.05,-152.91C2043.05,-152.91 2043.05,-171.79 2043.05,-171.79"/>
<polygon fill="black" stroke="black" points="2039.55,-171.79 2043.05,-181.79 2046.55,-171.79 2039.55,-171.79"/>
</g>
<!-- RadioButtonCheckboxRoutingModule -->
<g id="node20" class="node">
<title>RadioButtonCheckboxRoutingModule</title>
<polygon fill="#8dd3c7" stroke="black" points="1981.49,-152.8 1978.49,-156.8 1957.49,-156.8 1954.49,-152.8 1748.51,-152.8 1748.51,-116.8 1981.49,-116.8 1981.49,-152.8"/>
<text text-anchor="middle" x="1865" y="-130.6" font-family="Times,serif" font-size="14.00">RadioButtonCheckboxRoutingModule</text>
</g>
<!-- RadioButtonCheckboxRoutingModule&#45;&gt;RadioButtonCheckboxModule -->
<g id="edge18" class="edge">
<title>RadioButtonCheckboxRoutingModule&#45;&gt;RadioButtonCheckboxModule</title>
<path fill="none" stroke="black" d="M1952.02,-152.91C1952.02,-152.91 1952.02,-171.79 1952.02,-171.79"/>
<polygon fill="black" stroke="black" points="1948.52,-171.79 1952.02,-181.79 1955.52,-171.79 1948.52,-171.79"/>
</g>
<!-- CVASelectorComponent -->
<g id="node21" class="node">
<title>CVASelectorComponent</title>
<polygon fill="#ffffb3" stroke="black" points="2945.25,-152.8 2788.75,-152.8 2788.75,-116.8 2945.25,-116.8 2945.25,-152.8"/>
<text text-anchor="middle" x="2867" y="-130.6" font-family="Times,serif" font-size="14.00">CVASelectorComponent</text>
</g>
<!-- CVASelectorComponent&#45;&gt;SelectorModule -->
<g id="edge19" class="edge">
<title>CVASelectorComponent&#45;&gt;SelectorModule</title>
<path fill="none" stroke="black" d="M2867,-152.91C2867,-172.14 2867,-199.8 2867,-199.8 2867,-199.8 2687.81,-199.8 2687.81,-199.8"/>
<polygon fill="black" stroke="black" points="2687.81,-196.3 2677.81,-199.8 2687.81,-203.3 2687.81,-196.3"/>
</g>
<!-- SelectorComponent -->
<g id="node22" class="node">
<title>SelectorComponent</title>
<polygon fill="#ffffb3" stroke="black" points="2770.7,-152.8 2643.3,-152.8 2643.3,-116.8 2770.7,-116.8 2770.7,-152.8"/>
<text text-anchor="middle" x="2707" y="-130.6" font-family="Times,serif" font-size="14.00">SelectorComponent</text>
</g>
<!-- SelectorComponent&#45;&gt;SelectorModule -->
<g id="edge20" class="edge">
<title>SelectorComponent&#45;&gt;SelectorModule</title>
<path fill="none" stroke="black" d="M2660.55,-152.91C2660.55,-152.91 2660.55,-171.79 2660.55,-171.79"/>
<polygon fill="black" stroke="black" points="2657.05,-171.79 2660.55,-181.79 2664.05,-171.79 2657.05,-171.79"/>
</g>
<!-- SelectorRoutingModule -->
<g id="node24" class="node">
<title>SelectorRoutingModule</title>
<polygon fill="#8dd3c7" stroke="black" points="2619.04,-152.8 2616.04,-156.8 2595.04,-156.8 2592.04,-152.8 2468.96,-152.8 2468.96,-116.8 2619.04,-116.8 2619.04,-152.8"/>
<text text-anchor="middle" x="2544" y="-130.6" font-family="Times,serif" font-size="14.00">SelectorRoutingModule</text>
</g>
<!-- SelectorRoutingModule&#45;&gt;SelectorModule -->
<g id="edge22" class="edge">
<title>SelectorRoutingModule&#45;&gt;SelectorModule</title>
<path fill="none" stroke="black" d="M2603.61,-152.91C2603.61,-152.91 2603.61,-171.79 2603.61,-171.79"/>
<polygon fill="black" stroke="black" points="2600.11,-171.79 2603.61,-181.79 2607.11,-171.79 2600.11,-171.79"/>
</g>
</g>
</svg>
