<?xml version="1.0" encoding="UTF-8" standalone="no"?>
<!DOCTYPE svg PUBLIC "-//W3C//DTD SVG 1.1//EN"
 "http://www.w3.org/Graphics/SVG/1.1/DTD/svg11.dtd">
<!-- Generated by graphviz version 2.47.3 (20210619.1520)
 -->
<!-- Title: dependencies Pages: 1 -->
<svg width="1730pt" height="250pt"
 viewBox="0.00 0.00 1730.00 249.80" xmlns="http://www.w3.org/2000/svg" xmlns:xlink="http://www.w3.org/1999/xlink">
<g id="graph0" class="graph" transform="scale(1 1) rotate(0) translate(4 245.8)">
<title>dependencies</title>
<polygon fill="white" stroke="transparent" points="-4,4 -4,-245.8 1726,-245.8 1726,4 -4,4"/>
<text text-anchor="middle" x="861" y="-8.2" font-family="sans-serif" font-size="14.00">dependencies</text>
<g id="clust1" class="cluster">
<title>cluster_AppModule</title>
<polygon fill="none" stroke="black" stroke-dasharray="1,5" points="8,-32.8 8,-233.8 430,-233.8 430,-32.8 8,-32.8"/>
</g>
<g id="clust2" class="cluster">
<title>cluster_AppModule_declarations</title>
<polygon fill="none" stroke="black" points="168,-40.8 168,-92.8 422,-92.8 422,-40.8 168,-40.8"/>
</g>
<g id="clust5" class="cluster">
<title>cluster_AppModule_imports</title>
<polygon fill="none" stroke="black" points="16,-40.8 16,-92.8 160,-92.8 160,-40.8 16,-40.8"/>
</g>
<g id="clust7" class="cluster">
<title>cluster_AppModule_bootstrap</title>
<polygon fill="none" stroke="black" points="171,-173.8 171,-225.8 295,-225.8 295,-173.8 171,-173.8"/>
</g>
<g id="clust15" class="cluster">
<title>cluster_ComunModule</title>
<polygon fill="none" stroke="black" stroke-dasharray="1,5" points="438,-32.8 438,-233.8 620,-233.8 620,-32.8 438,-32.8"/>
</g>
<g id="clust16" class="cluster">
<title>cluster_ComunModule_declarations</title>
<polygon fill="none" stroke="black" points="449,-40.8 449,-92.8 611,-92.8 611,-40.8 449,-40.8"/>
</g>
<g id="clust19" class="cluster">
<title>cluster_ComunModule_exports</title>
<polygon fill="none" stroke="black" points="446,-173.8 446,-225.8 612,-225.8 612,-173.8 446,-173.8"/>
</g>
<g id="clust22" class="cluster">
<title>cluster_InputTextModule</title>
<polygon fill="none" stroke="black" stroke-dasharray="1,5" points="628,-100.8 628,-225.8 980,-225.8 980,-100.8 628,-100.8"/>
</g>
<g id="clust23" class="cluster">
<title>cluster_InputTextModule_declarations</title>
<polygon fill="none" stroke="black" points="820,-108.8 820,-160.8 972,-160.8 972,-108.8 820,-108.8"/>
</g>
<g id="clust25" class="cluster">
<title>cluster_InputTextModule_imports</title>
<polygon fill="none" stroke="black" points="636,-108.8 636,-160.8 812,-160.8 812,-108.8 636,-108.8"/>
</g>
<g id="clust35" class="cluster">
<title>cluster_RadioButtonModule</title>
<polygon fill="none" stroke="black" stroke-dasharray="1,5" points="988,-32.8 988,-160.8 1372,-160.8 1372,-32.8 988,-32.8"/>
</g>
<g id="clust36" class="cluster">
<title>cluster_RadioButtonModule_declarations</title>
<polygon fill="none" stroke="black" points="1196,-40.8 1196,-92.8 1364,-92.8 1364,-40.8 1196,-40.8"/>
</g>
<g id="clust38" class="cluster">
<title>cluster_RadioButtonModule_imports</title>
<polygon fill="none" stroke="black" points="996,-40.8 996,-92.8 1188,-92.8 1188,-40.8 996,-40.8"/>
</g>
<g id="clust48" class="cluster">
<title>cluster_SelectorModule</title>
<polygon fill="none" stroke="black" stroke-dasharray="1,5" points="1380,-32.8 1380,-160.8 1714,-160.8 1714,-32.8 1380,-32.8"/>
</g>
<g id="clust49" class="cluster">
<title>cluster_SelectorModule_declarations</title>
<polygon fill="none" stroke="black" points="1562,-40.8 1562,-92.8 1706,-92.8 1706,-40.8 1562,-40.8"/>
</g>
<g id="clust51" class="cluster">
<title>cluster_SelectorModule_imports</title>
<polygon fill="none" stroke="black" points="1388,-40.8 1388,-92.8 1554,-92.8 1554,-40.8 1388,-40.8"/>
</g>
<!-- AppComponent -->
<g id="node1" class="node">
<title>AppComponent</title>
<polygon fill="#ffffb3" stroke="black" points="413.94,-84.8 308.06,-84.8 308.06,-48.8 413.94,-48.8 413.94,-84.8"/>
<text text-anchor="middle" x="361" y="-62.6" font-family="Times,serif" font-size="14.00">AppComponent</text>
</g>
<!-- AppModule -->
<g id="node3" class="node">
<title>AppModule</title>
<polygon fill="#8dd3c7" stroke="black" points="274.66,-152.8 271.66,-156.8 250.66,-156.8 247.66,-152.8 191.34,-152.8 191.34,-116.8 274.66,-116.8 274.66,-152.8"/>
<text text-anchor="middle" x="233" y="-130.6" font-family="Times,serif" font-size="14.00">AppModule</text>
</g>
<!-- AppComponent&#45;&gt;AppModule -->
<g id="edge1" class="edge">
<title>AppComponent&#45;&gt;AppModule</title>
<path fill="none" stroke="black" d="M361,-85.02C361,-105.17 361,-134.8 361,-134.8 361,-134.8 284.91,-134.8 284.91,-134.8"/>
<polygon fill="black" stroke="black" points="284.91,-131.3 274.91,-134.8 284.91,-138.3 284.91,-131.3"/>
</g>
<!-- InicioComponent -->
<g id="node2" class="node">
<title>InicioComponent</title>
<polygon fill="#ffffb3" stroke="black" points="289.99,-84.8 176.01,-84.8 176.01,-48.8 289.99,-48.8 289.99,-84.8"/>
<text text-anchor="middle" x="233" y="-62.6" font-family="Times,serif" font-size="14.00">InicioComponent</text>
</g>
<!-- InicioComponent&#45;&gt;AppModule -->
<g id="edge2" class="edge">
<title>InicioComponent&#45;&gt;AppModule</title>
<path fill="none" stroke="black" d="M233,-85.02C233,-85.02 233,-106.53 233,-106.53"/>
<polygon fill="black" stroke="black" points="229.5,-106.53 233,-116.53 236.5,-106.53 229.5,-106.53"/>
</g>
<!-- AppComponent  -->
<g id="node5" class="node">
<title>AppComponent </title>
<polygon fill="#80b1d3" stroke="black" points="287.44,-217.8 178.56,-217.8 178.56,-181.8 287.44,-181.8 287.44,-217.8"/>
<text text-anchor="middle" x="233" y="-195.6" font-family="Times,serif" font-size="14.00">AppComponent </text>
</g>
<!-- AppModule&#45;&gt;AppComponent  -->
<g id="edge4" class="edge">
<title>AppModule&#45;&gt;AppComponent </title>
<path fill="none" stroke="black" stroke-dasharray="1,5" d="M233,-152.91C233,-152.91 233,-171.79 233,-171.79"/>
<polygon fill="black" stroke="black" points="229.5,-171.79 233,-181.79 236.5,-171.79 229.5,-171.79"/>
</g>
<!-- AppRoutingModule -->
<g id="node4" class="node">
<title>AppRoutingModule</title>
<polygon fill="#8dd3c7" stroke="black" points="152.27,-84.8 149.27,-88.8 128.27,-88.8 125.27,-84.8 23.73,-84.8 23.73,-48.8 152.27,-48.8 152.27,-84.8"/>
<text text-anchor="middle" x="88" y="-62.6" font-family="Times,serif" font-size="14.00">AppRoutingModule</text>
</g>
<!-- AppRoutingModule&#45;&gt;AppModule -->
<g id="edge3" class="edge">
<title>AppRoutingModule&#45;&gt;AppModule</title>
<path fill="none" stroke="black" d="M88,-85.02C88,-105.17 88,-134.8 88,-134.8 88,-134.8 181.06,-134.8 181.06,-134.8"/>
<polygon fill="black" stroke="black" points="181.06,-138.3 191.06,-134.8 181.06,-131.3 181.06,-138.3"/>
</g>
<!-- TablaDatosComponent -->
<g id="node6" class="node">
<title>TablaDatosComponent</title>
<polygon fill="#ffffb3" stroke="black" points="602.86,-84.8 457.14,-84.8 457.14,-48.8 602.86,-48.8 602.86,-84.8"/>
<text text-anchor="middle" x="530" y="-62.6" font-family="Times,serif" font-size="14.00">TablaDatosComponent</text>
</g>
<!-- ComunModule -->
<g id="node7" class="node">
<title>ComunModule</title>
<polygon fill="#8dd3c7" stroke="black" points="580.28,-152.8 577.28,-156.8 556.28,-156.8 553.28,-152.8 479.72,-152.8 479.72,-116.8 580.28,-116.8 580.28,-152.8"/>
<text text-anchor="middle" x="530" y="-130.6" font-family="Times,serif" font-size="14.00">ComunModule</text>
</g>
<!-- TablaDatosComponent&#45;&gt;ComunModule -->
<g id="edge5" class="edge">
<title>TablaDatosComponent&#45;&gt;ComunModule</title>
<path fill="none" stroke="black" d="M530,-85.02C530,-85.02 530,-106.53 530,-106.53"/>
<polygon fill="black" stroke="black" points="526.5,-106.53 530,-116.53 533.5,-106.53 526.5,-106.53"/>
</g>
<!-- TablaDatosComponent  -->
<g id="node8" class="node">
<title>TablaDatosComponent </title>
<polygon fill="#fb8072" stroke="black" points="603.86,-217.8 454.14,-217.8 454.14,-181.8 603.86,-181.8 603.86,-217.8"/>
<text text-anchor="middle" x="529" y="-195.6" font-family="Times,serif" font-size="14.00">TablaDatosComponent </text>
</g>
<!-- ComunModule&#45;&gt;TablaDatosComponent  -->
<g id="edge6" class="edge">
<title>ComunModule&#45;&gt;TablaDatosComponent </title>
<path fill="none" stroke="black" stroke-dasharray="5,2" d="M530,-152.91C530,-152.91 530,-171.79 530,-171.79"/>
<polygon fill="black" stroke="black" points="526.5,-171.79 530,-181.79 533.5,-171.79 526.5,-171.79"/>
</g>
<!-- InputTextModule -->
<g id="node10" class="node">
<title>InputTextModule</title>
<polygon fill="#8dd3c7" stroke="black" points="781.26,-217.8 778.26,-221.8 757.26,-221.8 754.26,-217.8 666.74,-217.8 666.74,-181.8 781.26,-181.8 781.26,-217.8"/>
<text text-anchor="middle" x="724" y="-195.6" font-family="Times,serif" font-size="14.00">InputTextModule</text>
</g>
<!-- ComunModule&#45;&gt;InputTextModule -->
<g id="edge8" class="edge">
<title>ComunModule&#45;&gt;InputTextModule</title>
<path fill="none" stroke="black" d="M580.51,-134.8C602.73,-134.8 623.87,-134.8 623.87,-134.8 623.87,-134.8 623.87,-199.8 623.87,-199.8 623.87,-199.8 656.63,-199.8 656.63,-199.8"/>
<polygon fill="black" stroke="black" points="656.63,-203.3 666.63,-199.8 656.63,-196.3 656.63,-203.3"/>
</g>
<!-- InputTextComponent -->
<g id="node9" class="node">
<title>InputTextComponent</title>
<polygon fill="#ffffb3" stroke="black" points="964.04,-152.8 827.96,-152.8 827.96,-116.8 964.04,-116.8 964.04,-152.8"/>
<text text-anchor="middle" x="896" y="-130.6" font-family="Times,serif" font-size="14.00">InputTextComponent</text>
</g>
<!-- InputTextComponent&#45;&gt;InputTextModule -->
<g id="edge7" class="edge">
<title>InputTextComponent&#45;&gt;InputTextModule</title>
<path fill="none" stroke="black" d="M896,-152.91C896,-172.14 896,-199.8 896,-199.8 896,-199.8 791.27,-199.8 791.27,-199.8"/>
<polygon fill="black" stroke="black" points="791.27,-196.3 781.27,-199.8 791.27,-203.3 791.27,-196.3"/>
</g>
<!-- InputTextRoutingModule -->
<g id="node11" class="node">
<title>InputTextRoutingModule</title>
<polygon fill="#8dd3c7" stroke="black" points="803.88,-152.8 800.88,-156.8 779.88,-156.8 776.88,-152.8 644.12,-152.8 644.12,-116.8 803.88,-116.8 803.88,-152.8"/>
<text text-anchor="middle" x="724" y="-130.6" font-family="Times,serif" font-size="14.00">InputTextRoutingModule</text>
</g>
<!-- InputTextRoutingModule&#45;&gt;InputTextModule -->
<g id="edge9" class="edge">
<title>InputTextRoutingModule&#45;&gt;InputTextModule</title>
<path fill="none" stroke="black" d="M724,-152.91C724,-152.91 724,-171.79 724,-171.79"/>
<polygon fill="black" stroke="black" points="720.5,-171.79 724,-181.79 727.5,-171.79 720.5,-171.79"/>
</g>
<!-- RadioButtonComponent -->
<g id="node12" class="node">
<title>RadioButtonComponent</title>
<polygon fill="#ffffb3" stroke="black" points="1356.39,-84.8 1203.61,-84.8 1203.61,-48.8 1356.39,-48.8 1356.39,-84.8"/>
<text text-anchor="middle" x="1280" y="-62.6" font-family="Times,serif" font-size="14.00">RadioButtonComponent</text>
</g>
<!-- RadioButtonModule -->
<g id="node13" class="node">
<title>RadioButtonModule</title>
<polygon fill="#8dd3c7" stroke="black" points="1251.61,-152.8 1248.61,-156.8 1227.61,-156.8 1224.61,-152.8 1120.39,-152.8 1120.39,-116.8 1251.61,-116.8 1251.61,-152.8"/>
<text text-anchor="middle" x="1186" y="-130.6" font-family="Times,serif" font-size="14.00">RadioButtonModule</text>
</g>
<!-- RadioButtonComponent&#45;&gt;RadioButtonModule -->
<g id="edge10" class="edge">
<title>RadioButtonComponent&#45;&gt;RadioButtonModule</title>
<path fill="none" stroke="black" d="M1227.55,-85.02C1227.55,-85.02 1227.55,-106.53 1227.55,-106.53"/>
<polygon fill="black" stroke="black" points="1224.05,-106.53 1227.55,-116.53 1231.05,-106.53 1224.05,-106.53"/>
</g>
<!-- RadioButtonRoutingModule -->
<g id="node14" class="node">
<title>RadioButtonRoutingModule</title>
<polygon fill="#8dd3c7" stroke="black" points="1180.23,-84.8 1177.23,-88.8 1156.23,-88.8 1153.23,-84.8 1003.77,-84.8 1003.77,-48.8 1180.23,-48.8 1180.23,-84.8"/>
<text text-anchor="middle" x="1092" y="-62.6" font-family="Times,serif" font-size="14.00">RadioButtonRoutingModule</text>
</g>
<!-- RadioButtonRoutingModule&#45;&gt;RadioButtonModule -->
<g id="edge11" class="edge">
<title>RadioButtonRoutingModule&#45;&gt;RadioButtonModule</title>
<path fill="none" stroke="black" d="M1150.28,-85.02C1150.28,-85.02 1150.28,-106.53 1150.28,-106.53"/>
<polygon fill="black" stroke="black" points="1146.78,-106.53 1150.28,-116.53 1153.78,-106.53 1146.78,-106.53"/>
</g>
<!-- SelectorComponent -->
<g id="node15" class="node">
<title>SelectorComponent</title>
<polygon fill="#ffffb3" stroke="black" points="1697.7,-84.8 1570.3,-84.8 1570.3,-48.8 1697.7,-48.8 1697.7,-84.8"/>
<text text-anchor="middle" x="1634" y="-62.6" font-family="Times,serif" font-size="14.00">SelectorComponent</text>
</g>
<!-- SelectorModule -->
<g id="node16" class="node">
<title>SelectorModule</title>
<polygon fill="#8dd3c7" stroke="black" points="1604.92,-152.8 1601.92,-156.8 1580.92,-156.8 1577.92,-152.8 1499.08,-152.8 1499.08,-116.8 1604.92,-116.8 1604.92,-152.8"/>
<text text-anchor="middle" x="1552" y="-130.6" font-family="Times,serif" font-size="14.00">SelectorModule</text>
</g>
<!-- SelectorComponent&#45;&gt;SelectorModule -->
<g id="edge12" class="edge">
<title>SelectorComponent&#45;&gt;SelectorModule</title>
<path fill="none" stroke="black" d="M1587.55,-85.02C1587.55,-85.02 1587.55,-106.53 1587.55,-106.53"/>
<polygon fill="black" stroke="black" points="1584.05,-106.53 1587.55,-116.53 1591.05,-106.53 1584.05,-106.53"/>
</g>
<!-- SelectorRoutingModule -->
<g id="node17" class="node">
<title>SelectorRoutingModule</title>
<polygon fill="#8dd3c7" stroke="black" points="1546.04,-84.8 1543.04,-88.8 1522.04,-88.8 1519.04,-84.8 1395.96,-84.8 1395.96,-48.8 1546.04,-48.8 1546.04,-84.8"/>
<text text-anchor="middle" x="1471" y="-62.6" font-family="Times,serif" font-size="14.00">SelectorRoutingModule</text>
</g>
<!-- SelectorRoutingModule&#45;&gt;SelectorModule -->
<g id="edge13" class="edge">
<title>SelectorRoutingModule&#45;&gt;SelectorModule</title>
<path fill="none" stroke="black" d="M1522.78,-85.02C1522.78,-85.02 1522.78,-106.53 1522.78,-106.53"/>
<polygon fill="black" stroke="black" points="1519.28,-106.53 1522.78,-116.53 1526.28,-106.53 1519.28,-106.53"/>
</g>
</g>
</svg>
