<?xml version="1.0" encoding="UTF-8" standalone="no"?>
<!DOCTYPE svg PUBLIC "-//W3C//DTD SVG 1.1//EN"
 "http://www.w3.org/Graphics/SVG/1.1/DTD/svg11.dtd">
<!-- Generated by graphviz version 2.47.3 (20210619.1520)
 -->
<!-- Title: dependencies Pages: 1 -->
<svg width="7520pt" height="253pt"
 viewBox="0.00 0.00 7520.00 252.80" xmlns="http://www.w3.org/2000/svg" xmlns:xlink="http://www.w3.org/1999/xlink">
<g id="graph0" class="graph" transform="scale(1 1) rotate(0) translate(4 248.8)">
<title>dependencies</title>
<polygon fill="white" stroke="transparent" points="-4,4 -4,-248.8 7516,-248.8 7516,4 -4,4"/>
<text text-anchor="middle" x="3756" y="-8.2" font-family="sans-serif" font-size="14.00">dependencies</text>
<g id="clust1" class="cluster">
<title>cluster_AppModule</title>
<polygon fill="none" stroke="black" stroke-dasharray="1,5" points="8,-32.8 8,-236.8 431,-236.8 431,-32.8 8,-32.8"/>
</g>
<g id="clust2" class="cluster">
<title>cluster_AppModule_declarations</title>
<polygon fill="none" stroke="black" points="168,-40.8 168,-92.8 423,-92.8 423,-40.8 168,-40.8"/>
</g>
<g id="clust5" class="cluster">
<title>cluster_AppModule_imports</title>
<polygon fill="none" stroke="black" points="16,-40.8 16,-92.8 160,-92.8 160,-40.8 16,-40.8"/>
</g>
<g id="clust7" class="cluster">
<title>cluster_AppModule_bootstrap</title>
<polygon fill="none" stroke="black" points="172,-176.8 172,-228.8 296,-228.8 296,-176.8 172,-176.8"/>
</g>
<g id="clust15" class="cluster">
<title>cluster_FormModule</title>
<polygon fill="none" stroke="black" stroke-dasharray="1,5" points="439,-32.8 439,-160.8 1033,-160.8 1033,-32.8 439,-32.8"/>
</g>
<g id="clust16" class="cluster">
<title>cluster_FormModule_declarations</title>
<polygon fill="none" stroke="black" points="447,-40.8 447,-92.8 749,-92.8 749,-40.8 447,-40.8"/>
</g>
<g id="clust19" class="cluster">
<title>cluster_FormModule_imports</title>
<polygon fill="none" stroke="black" points="757,-40.8 757,-92.8 1025,-92.8 1025,-40.8 757,-40.8"/>
</g>
<g id="clust29" class="cluster">
<title>cluster_InputTextModule</title>
<polygon fill="none" stroke="black" stroke-dasharray="1,5" points="1825,-32.8 1825,-160.8 4083,-160.8 4083,-32.8 1825,-32.8"/>
</g>
<g id="clust30" class="cluster">
<title>cluster_InputTextModule_declarations</title>
<polygon fill="none" stroke="black" points="2017,-40.8 2017,-92.8 3869,-92.8 3869,-40.8 2017,-40.8"/>
</g>
<g id="clust40" class="cluster">
<title>cluster_InputTextModule_imports</title>
<polygon fill="none" stroke="black" points="1833,-40.8 1833,-92.8 2009,-92.8 2009,-40.8 1833,-40.8"/>
</g>
<g id="clust43" class="cluster">
<title>cluster_InputTextModule_providers</title>
<polygon fill="none" stroke="black" points="3877,-40.8 3877,-92.8 4075,-92.8 4075,-40.8 3877,-40.8"/>
</g>
<g id="clust50" class="cluster">
<title>cluster_RadioButtonCheckboxModule</title>
<polygon fill="none" stroke="black" stroke-dasharray="1,5" points="4091,-32.8 4091,-160.8 5469,-160.8 5469,-32.8 4091,-32.8"/>
</g>
<g id="clust51" class="cluster">
<title>cluster_RadioButtonCheckboxModule_declarations</title>
<polygon fill="none" stroke="black" points="4355,-40.8 4355,-92.8 5461,-92.8 5461,-40.8 4355,-40.8"/>
</g>
<g id="clust57" class="cluster">
<title>cluster_RadioButtonCheckboxModule_imports</title>
<polygon fill="none" stroke="black" points="4099,-40.8 4099,-92.8 4347,-92.8 4347,-40.8 4099,-40.8"/>
</g>
<g id="clust67" class="cluster">
<title>cluster_SelectorModule</title>
<polygon fill="none" stroke="black" stroke-dasharray="1,5" points="5477,-32.8 5477,-160.8 6784,-160.8 6784,-32.8 5477,-32.8"/>
</g>
<g id="clust68" class="cluster">
<title>cluster_SelectorModule_declarations</title>
<polygon fill="none" stroke="black" points="5659,-40.8 5659,-92.8 6776,-92.8 6776,-40.8 5659,-40.8"/>
</g>
<g id="clust75" class="cluster">
<title>cluster_SelectorModule_imports</title>
<polygon fill="none" stroke="black" points="5485,-40.8 5485,-92.8 5651,-92.8 5651,-40.8 5485,-40.8"/>
</g>
<g id="clust85" class="cluster">
<title>cluster_SharedModule</title>
<polygon fill="none" stroke="black" stroke-dasharray="1,5" points="1041,-100.8 1041,-168.8 1817,-168.8 1817,-100.8 1041,-100.8"/>
</g>
<g id="clust86" class="cluster">
<title>cluster_SharedModule_declarations</title>
<polygon fill="none" stroke="black" points="1437,-108.8 1437,-160.8 1809,-160.8 1809,-108.8 1437,-108.8"/>
</g>
<g id="clust90" class="cluster">
<title>cluster_SharedModule_exports</title>
<polygon fill="none" stroke="black" points="1049,-108.8 1049,-160.8 1429,-160.8 1429,-108.8 1049,-108.8"/>
</g>
<g id="clust93" class="cluster">
<title>cluster_TextAreaModule</title>
<polygon fill="none" stroke="black" stroke-dasharray="1,5" points="6792,-32.8 6792,-160.8 7504,-160.8 7504,-32.8 6792,-32.8"/>
</g>
<g id="clust94" class="cluster">
<title>cluster_TextAreaModule_declarations</title>
<polygon fill="none" stroke="black" points="6982,-40.8 6982,-92.8 7496,-92.8 7496,-40.8 6982,-40.8"/>
</g>
<g id="clust98" class="cluster">
<title>cluster_TextAreaModule_imports</title>
<polygon fill="none" stroke="black" points="6800,-40.8 6800,-92.8 6974,-92.8 6974,-40.8 6800,-40.8"/>
</g>
<!-- AppComponent -->
<g id="node1" class="node">
<title>AppComponent</title>
<polygon fill="#ffffb3" stroke="black" points="414.94,-84.8 309.06,-84.8 309.06,-48.8 414.94,-48.8 414.94,-84.8"/>
<text text-anchor="middle" x="362" y="-62.6" font-family="Times,serif" font-size="14.00">AppComponent</text>
</g>
<!-- AppModule -->
<g id="node3" class="node">
<title>AppModule</title>
<polygon fill="#8dd3c7" stroke="black" points="275.66,-152.8 272.66,-156.8 251.66,-156.8 248.66,-152.8 192.34,-152.8 192.34,-116.8 275.66,-116.8 275.66,-152.8"/>
<text text-anchor="middle" x="234" y="-130.6" font-family="Times,serif" font-size="14.00">AppModule</text>
</g>
<!-- AppComponent&#45;&gt;AppModule -->
<g id="edge1" class="edge">
<title>AppComponent&#45;&gt;AppModule</title>
<path fill="none" stroke="black" d="M362,-85.09C362,-107.01 362,-140.8 362,-140.8 362,-140.8 285.91,-140.8 285.91,-140.8"/>
<polygon fill="black" stroke="black" points="285.91,-137.3 275.91,-140.8 285.91,-144.3 285.91,-137.3"/>
</g>
<!-- HomeComponent -->
<g id="node2" class="node">
<title>HomeComponent</title>
<polygon fill="#ffffb3" stroke="black" points="291.55,-84.8 176.45,-84.8 176.45,-48.8 291.55,-48.8 291.55,-84.8"/>
<text text-anchor="middle" x="234" y="-62.6" font-family="Times,serif" font-size="14.00">HomeComponent</text>
</g>
<!-- HomeComponent&#45;&gt;AppModule -->
<g id="edge2" class="edge">
<title>HomeComponent&#45;&gt;AppModule</title>
<path fill="none" stroke="black" d="M234,-85.02C234,-85.02 234,-106.53 234,-106.53"/>
<polygon fill="black" stroke="black" points="230.5,-106.53 234,-116.53 237.5,-106.53 230.5,-106.53"/>
</g>
<!-- AppComponent  -->
<g id="node5" class="node">
<title>AppComponent </title>
<polygon fill="#80b1d3" stroke="black" points="288.44,-220.8 179.56,-220.8 179.56,-184.8 288.44,-184.8 288.44,-220.8"/>
<text text-anchor="middle" x="234" y="-198.6" font-family="Times,serif" font-size="14.00">AppComponent </text>
</g>
<!-- AppModule&#45;&gt;AppComponent  -->
<g id="edge4" class="edge">
<title>AppModule&#45;&gt;AppComponent </title>
<path fill="none" stroke="black" stroke-dasharray="1,5" d="M234,-153.02C234,-153.02 234,-174.53 234,-174.53"/>
<polygon fill="black" stroke="black" points="230.5,-174.53 234,-184.53 237.5,-174.53 230.5,-174.53"/>
</g>
<!-- AppRoutingModule -->
<g id="node4" class="node">
<title>AppRoutingModule</title>
<polygon fill="#8dd3c7" stroke="black" points="152.27,-84.8 149.27,-88.8 128.27,-88.8 125.27,-84.8 23.73,-84.8 23.73,-48.8 152.27,-48.8 152.27,-84.8"/>
<text text-anchor="middle" x="88" y="-62.6" font-family="Times,serif" font-size="14.00">AppRoutingModule</text>
</g>
<!-- AppRoutingModule&#45;&gt;AppModule -->
<g id="edge3" class="edge">
<title>AppRoutingModule&#45;&gt;AppModule</title>
<path fill="none" stroke="black" d="M88,-85.02C88,-105.17 88,-134.8 88,-134.8 88,-134.8 182.16,-134.8 182.16,-134.8"/>
<polygon fill="black" stroke="black" points="182.16,-138.3 192.16,-134.8 182.16,-131.3 182.16,-138.3"/>
</g>
<!-- FormComponent -->
<g id="node6" class="node">
<title>FormComponent</title>
<polygon fill="#ffffb3" stroke="black" points="740.67,-84.8 629.33,-84.8 629.33,-48.8 740.67,-48.8 740.67,-84.8"/>
<text text-anchor="middle" x="685" y="-62.6" font-family="Times,serif" font-size="14.00">FormComponent</text>
</g>
<!-- FormModule -->
<g id="node8" class="node">
<title>FormModule</title>
<polygon fill="#8dd3c7" stroke="black" points="803.88,-152.8 800.88,-156.8 779.88,-156.8 776.88,-152.8 714.12,-152.8 714.12,-116.8 803.88,-116.8 803.88,-152.8"/>
<text text-anchor="middle" x="759" y="-130.6" font-family="Times,serif" font-size="14.00">FormModule</text>
</g>
<!-- FormComponent&#45;&gt;FormModule -->
<g id="edge5" class="edge">
<title>FormComponent&#45;&gt;FormModule</title>
<path fill="none" stroke="black" d="M727.45,-85.02C727.45,-85.02 727.45,-106.53 727.45,-106.53"/>
<polygon fill="black" stroke="black" points="723.95,-106.53 727.45,-116.53 730.95,-106.53 723.95,-106.53"/>
</g>
<!-- LangSelectorComponent -->
<g id="node7" class="node">
<title>LangSelectorComponent</title>
<polygon fill="#ffffb3" stroke="black" points="610.97,-84.8 455.03,-84.8 455.03,-48.8 610.97,-48.8 610.97,-84.8"/>
<text text-anchor="middle" x="533" y="-62.6" font-family="Times,serif" font-size="14.00">LangSelectorComponent</text>
</g>
<!-- LangSelectorComponent&#45;&gt;FormModule -->
<g id="edge6" class="edge">
<title>LangSelectorComponent&#45;&gt;FormModule</title>
<path fill="none" stroke="black" d="M533,-85.07C533,-103.36 533,-128.8 533,-128.8 533,-128.8 704.08,-128.8 704.08,-128.8"/>
<polygon fill="black" stroke="black" points="704.08,-132.3 714.08,-128.8 704.08,-125.3 704.08,-132.3"/>
</g>
<!-- FormRoutingModule -->
<g id="node9" class="node">
<title>FormRoutingModule</title>
<polygon fill="#8dd3c7" stroke="black" points="900.5,-84.8 897.5,-88.8 876.5,-88.8 873.5,-84.8 765.5,-84.8 765.5,-48.8 900.5,-48.8 900.5,-84.8"/>
<text text-anchor="middle" x="833" y="-62.6" font-family="Times,serif" font-size="14.00">FormRoutingModule</text>
</g>
<!-- FormRoutingModule&#45;&gt;FormModule -->
<g id="edge7" class="edge">
<title>FormRoutingModule&#45;&gt;FormModule</title>
<path fill="none" stroke="black" d="M784.72,-85.02C784.72,-85.02 784.72,-106.53 784.72,-106.53"/>
<polygon fill="black" stroke="black" points="781.22,-106.53 784.72,-116.53 788.22,-106.53 781.22,-106.53"/>
</g>
<!-- SharedModule -->
<g id="node10" class="node">
<title>SharedModule</title>
<polygon fill="#8dd3c7" stroke="black" points="1017.42,-84.8 1014.42,-88.8 993.42,-88.8 990.42,-84.8 918.58,-84.8 918.58,-48.8 1017.42,-48.8 1017.42,-84.8"/>
<text text-anchor="middle" x="968" y="-62.6" font-family="Times,serif" font-size="14.00">SharedModule</text>
</g>
<!-- SharedModule&#45;&gt;FormModule -->
<g id="edge8" class="edge">
<title>SharedModule&#45;&gt;FormModule</title>
<path fill="none" stroke="black" d="M984.4,-85.07C984.4,-103.36 984.4,-128.8 984.4,-128.8 984.4,-128.8 814.07,-128.8 814.07,-128.8"/>
<polygon fill="black" stroke="black" points="814.07,-125.3 804.07,-128.8 814.07,-132.3 814.07,-125.3"/>
</g>
<!-- InputTextModule -->
<g id="node20" class="node">
<title>InputTextModule</title>
<polygon fill="#8dd3c7" stroke="black" points="2914.26,-152.8 2911.26,-156.8 2890.26,-156.8 2887.26,-152.8 2799.74,-152.8 2799.74,-116.8 2914.26,-116.8 2914.26,-152.8"/>
<text text-anchor="middle" x="2857" y="-130.6" font-family="Times,serif" font-size="14.00">InputTextModule</text>
</g>
<!-- SharedModule&#45;&gt;InputTextModule -->
<g id="edge19" class="edge">
<title>SharedModule&#45;&gt;InputTextModule</title>
<path fill="none" stroke="black" d="M1017.24,-56.8C1198.92,-56.8 1821.13,-56.8 1821.13,-56.8 1821.13,-56.8 1821.13,-146.8 1821.13,-146.8 1821.13,-146.8 2789.46,-146.8 2789.46,-146.8"/>
<polygon fill="black" stroke="black" points="2789.46,-150.3 2799.46,-146.8 2789.46,-143.3 2789.46,-150.3"/>
</g>
<!-- RadioButtonCheckboxModule -->
<g id="node28" class="node">
<title>RadioButtonCheckboxModule</title>
<polygon fill="#8dd3c7" stroke="black" points="4670.88,-152.8 4667.88,-156.8 4646.88,-156.8 4643.88,-152.8 4483.12,-152.8 4483.12,-116.8 4670.88,-116.8 4670.88,-152.8"/>
<text text-anchor="middle" x="4577" y="-130.6" font-family="Times,serif" font-size="14.00">RadioButtonCheckboxModule</text>
</g>
<!-- SharedModule&#45;&gt;RadioButtonCheckboxModule -->
<g id="edge27" class="edge">
<title>SharedModule&#45;&gt;RadioButtonCheckboxModule</title>
<path fill="none" stroke="black" d="M935.19,-84.84C935.19,-97.36 935.19,-111.8 935.19,-111.8 935.19,-111.8 4511.08,-111.8 4511.08,-111.8 4511.08,-111.8 4511.08,-112.29 4511.08,-112.29"/>
<polygon fill="black" stroke="black" points="4507.58,-106.68 4511.08,-116.68 4514.58,-106.68 4507.58,-106.68"/>
</g>
<!-- SelectorModule -->
<g id="node36" class="node">
<title>SelectorModule</title>
<polygon fill="#8dd3c7" stroke="black" points="6022.92,-152.8 6019.92,-156.8 5998.92,-156.8 5995.92,-152.8 5917.08,-152.8 5917.08,-116.8 6022.92,-116.8 6022.92,-152.8"/>
<text text-anchor="middle" x="5970" y="-130.6" font-family="Times,serif" font-size="14.00">SelectorModule</text>
</g>
<!-- SharedModule&#45;&gt;SelectorModule -->
<g id="edge36" class="edge">
<title>SharedModule&#45;&gt;SelectorModule</title>
<path fill="none" stroke="black" d="M951.6,-84.93C951.6,-95.51 951.6,-106.8 951.6,-106.8 951.6,-106.8 5943.65,-106.8 5943.65,-106.8 5943.65,-106.8 5943.65,-107.78 5943.65,-107.78"/>
<polygon fill="black" stroke="black" points="5940.15,-106.59 5943.65,-116.59 5947.15,-106.59 5940.15,-106.59"/>
</g>
<!-- ControlDataTableComponent  -->
<g id="node40" class="node">
<title>ControlDataTableComponent </title>
<polygon fill="#fb8072" stroke="black" points="1420.91,-152.8 1235.09,-152.8 1235.09,-116.8 1420.91,-116.8 1420.91,-152.8"/>
<text text-anchor="middle" x="1328" y="-130.6" font-family="Times,serif" font-size="14.00">ControlDataTableComponent </text>
</g>
<!-- SharedModule&#45;&gt;ControlDataTableComponent  -->
<g id="edge40" class="edge">
<title>SharedModule&#45;&gt;ControlDataTableComponent </title>
<path fill="none" stroke="black" stroke-dasharray="5,2" d="M1017.3,-77.8C1115.9,-77.8 1328,-77.8 1328,-77.8 1328,-77.8 1328,-106.76 1328,-106.76"/>
<polygon fill="black" stroke="black" points="1324.5,-106.76 1328,-116.76 1331.5,-106.76 1324.5,-106.76"/>
</g>
<!-- StyleSelectorComponent  -->
<g id="node41" class="node">
<title>StyleSelectorComponent </title>
<polygon fill="#fb8072" stroke="black" points="1216.98,-152.8 1057.02,-152.8 1057.02,-116.8 1216.98,-116.8 1216.98,-152.8"/>
<text text-anchor="middle" x="1137" y="-130.6" font-family="Times,serif" font-size="14.00">StyleSelectorComponent </text>
</g>
<!-- SharedModule&#45;&gt;StyleSelectorComponent  -->
<g id="edge41" class="edge">
<title>SharedModule&#45;&gt;StyleSelectorComponent </title>
<path fill="none" stroke="black" stroke-dasharray="5,2" d="M1000.81,-85.09C1000.81,-107.01 1000.81,-140.8 1000.81,-140.8 1000.81,-140.8 1046.99,-140.8 1046.99,-140.8"/>
<polygon fill="black" stroke="black" points="1046.99,-144.3 1056.99,-140.8 1046.99,-137.3 1046.99,-144.3"/>
</g>
<!-- TextAreaModule -->
<g id="node45" class="node">
<title>TextAreaModule</title>
<polygon fill="#8dd3c7" stroke="black" points="7036.4,-152.8 7033.4,-156.8 7012.4,-156.8 7009.4,-152.8 6923.6,-152.8 6923.6,-116.8 7036.4,-116.8 7036.4,-152.8"/>
<text text-anchor="middle" x="6980" y="-130.6" font-family="Times,serif" font-size="14.00">TextAreaModule</text>
</g>
<!-- SharedModule&#45;&gt;TextAreaModule -->
<g id="edge45" class="edge">
<title>SharedModule&#45;&gt;TextAreaModule</title>
<path fill="none" stroke="black" d="M968,-85C968,-90.83 968,-95.8 968,-95.8 968,-95.8 6934.29,-95.8 6934.29,-95.8 6934.29,-95.8 6934.29,-106.67 6934.29,-106.67"/>
<polygon fill="black" stroke="black" points="6930.79,-106.67 6934.29,-116.67 6937.79,-106.67 6930.79,-106.67"/>
</g>
<!-- CVAInputTextComponent -->
<g id="node11" class="node">
<title>CVAInputTextComponent</title>
<polygon fill="#ffffb3" stroke="black" points="2425.09,-84.8 2258.91,-84.8 2258.91,-48.8 2425.09,-48.8 2425.09,-84.8"/>
<text text-anchor="middle" x="2342" y="-62.6" font-family="Times,serif" font-size="14.00">CVAInputTextComponent</text>
</g>
<!-- CVAInputTextComponent&#45;&gt;InputTextModule -->
<g id="edge9" class="edge">
<title>CVAInputTextComponent&#45;&gt;InputTextModule</title>
<path fill="none" stroke="black" d="M2342,-85.07C2342,-103.36 2342,-128.8 2342,-128.8 2342,-128.8 2789.42,-128.8 2789.42,-128.8"/>
<polygon fill="black" stroke="black" points="2789.42,-132.3 2799.42,-128.8 2789.42,-125.3 2789.42,-132.3"/>
</g>
<!-- CVAInputTextExampleComponent -->
<g id="node12" class="node">
<title>CVAInputTextExampleComponent</title>
<polygon fill="#ffffb3" stroke="black" points="2240.85,-84.8 2025.15,-84.8 2025.15,-48.8 2240.85,-48.8 2240.85,-84.8"/>
<text text-anchor="middle" x="2133" y="-62.6" font-family="Times,serif" font-size="14.00">CVAInputTextExampleComponent</text>
</g>
<!-- CVAInputTextExampleComponent&#45;&gt;InputTextModule -->
<g id="edge10" class="edge">
<title>CVAInputTextExampleComponent&#45;&gt;InputTextModule</title>
<path fill="none" stroke="black" d="M2133,-85.02C2133,-105.17 2133,-134.8 2133,-134.8 2133,-134.8 2789.58,-134.8 2789.58,-134.8"/>
<polygon fill="black" stroke="black" points="2789.58,-138.3 2799.58,-134.8 2789.58,-131.3 2789.58,-138.3"/>
</g>
<!-- InputNumberMinMaxComponent -->
<g id="node13" class="node">
<title>InputNumberMinMaxComponent</title>
<polygon fill="#ffffb3" stroke="black" points="3860.75,-84.8 3655.25,-84.8 3655.25,-48.8 3860.75,-48.8 3860.75,-84.8"/>
<text text-anchor="middle" x="3758" y="-62.6" font-family="Times,serif" font-size="14.00">InputNumberMinMaxComponent</text>
</g>
<!-- InputNumberMinMaxComponent&#45;&gt;InputTextModule -->
<g id="edge11" class="edge">
<title>InputNumberMinMaxComponent&#45;&gt;InputTextModule</title>
<path fill="none" stroke="black" d="M3758,-85.05C3758,-107.82 3758,-143.8 3758,-143.8 3758,-143.8 2924.39,-143.8 2924.39,-143.8"/>
<polygon fill="black" stroke="black" points="2924.39,-140.3 2914.39,-143.8 2924.39,-147.3 2924.39,-140.3"/>
</g>
<!-- InputTextComponent -->
<g id="node14" class="node">
<title>InputTextComponent</title>
<polygon fill="#ffffb3" stroke="black" points="3637.04,-84.8 3500.96,-84.8 3500.96,-48.8 3637.04,-48.8 3637.04,-84.8"/>
<text text-anchor="middle" x="3569" y="-62.6" font-family="Times,serif" font-size="14.00">InputTextComponent</text>
</g>
<!-- InputTextComponent&#45;&gt;InputTextModule -->
<g id="edge12" class="edge">
<title>InputTextComponent&#45;&gt;InputTextModule</title>
<path fill="none" stroke="black" d="M3569,-84.84C3569,-106.46 3569,-139.8 3569,-139.8 3569,-139.8 2924.36,-139.8 2924.36,-139.8"/>
<polygon fill="black" stroke="black" points="2924.36,-136.3 2914.36,-139.8 2924.36,-143.3 2924.36,-136.3"/>
</g>
<!-- InputTextEmailComponent -->
<g id="node15" class="node">
<title>InputTextEmailComponent</title>
<polygon fill="#ffffb3" stroke="black" points="3482.98,-84.8 3313.02,-84.8 3313.02,-48.8 3482.98,-48.8 3482.98,-84.8"/>
<text text-anchor="middle" x="3398" y="-62.6" font-family="Times,serif" font-size="14.00">InputTextEmailComponent</text>
</g>
<!-- InputTextEmailComponent&#45;&gt;InputTextModule -->
<g id="edge13" class="edge">
<title>InputTextEmailComponent&#45;&gt;InputTextModule</title>
<path fill="none" stroke="black" d="M3398,-85.02C3398,-105.17 3398,-134.8 3398,-134.8 3398,-134.8 2924.38,-134.8 2924.38,-134.8"/>
<polygon fill="black" stroke="black" points="2924.38,-131.3 2914.38,-134.8 2924.38,-138.3 2924.38,-131.3"/>
</g>
<!-- InputTextMinMaxLengthComponent -->
<g id="node16" class="node">
<title>InputTextMinMaxLengthComponent</title>
<polygon fill="#ffffb3" stroke="black" points="3294.69,-84.8 3069.31,-84.8 3069.31,-48.8 3294.69,-48.8 3294.69,-84.8"/>
<text text-anchor="middle" x="3182" y="-62.6" font-family="Times,serif" font-size="14.00">InputTextMinMaxLengthComponent</text>
</g>
<!-- InputTextMinMaxLengthComponent&#45;&gt;InputTextModule -->
<g id="edge14" class="edge">
<title>InputTextMinMaxLengthComponent&#45;&gt;InputTextModule</title>
<path fill="none" stroke="black" d="M3182,-84.97C3182,-103.89 3182,-130.8 3182,-130.8 3182,-130.8 2924.36,-130.8 2924.36,-130.8"/>
<polygon fill="black" stroke="black" points="2924.36,-127.3 2914.36,-130.8 2924.36,-134.3 2924.36,-127.3"/>
</g>
<!-- InputTextRequiredComponent -->
<g id="node17" class="node">
<title>InputTextRequiredComponent</title>
<polygon fill="#ffffb3" stroke="black" points="3050.86,-84.8 2863.14,-84.8 2863.14,-48.8 3050.86,-48.8 3050.86,-84.8"/>
<text text-anchor="middle" x="2957" y="-62.6" font-family="Times,serif" font-size="14.00">InputTextRequiredComponent</text>
</g>
<!-- InputTextRequiredComponent&#45;&gt;InputTextModule -->
<g id="edge15" class="edge">
<title>InputTextRequiredComponent&#45;&gt;InputTextModule</title>
<path fill="none" stroke="black" d="M2888.73,-85.02C2888.73,-85.02 2888.73,-106.53 2888.73,-106.53"/>
<polygon fill="black" stroke="black" points="2885.23,-106.53 2888.73,-116.53 2892.23,-106.53 2885.23,-106.53"/>
</g>
<!-- InputTextSimpleComponent -->
<g id="node18" class="node">
<title>InputTextSimpleComponent</title>
<polygon fill="#ffffb3" stroke="black" points="2845.21,-84.8 2668.79,-84.8 2668.79,-48.8 2845.21,-48.8 2845.21,-84.8"/>
<text text-anchor="middle" x="2757" y="-62.6" font-family="Times,serif" font-size="14.00">InputTextSimpleComponent</text>
</g>
<!-- InputTextSimpleComponent&#45;&gt;InputTextModule -->
<g id="edge16" class="edge">
<title>InputTextSimpleComponent&#45;&gt;InputTextModule</title>
<path fill="none" stroke="black" d="M2822.36,-85.02C2822.36,-85.02 2822.36,-106.53 2822.36,-106.53"/>
<polygon fill="black" stroke="black" points="2818.86,-106.53 2822.36,-116.53 2825.86,-106.53 2818.86,-106.53"/>
</g>
<!-- InputTextValidPatternComponent -->
<g id="node19" class="node">
<title>InputTextValidPatternComponent</title>
<polygon fill="#ffffb3" stroke="black" points="2650.8,-84.8 2443.2,-84.8 2443.2,-48.8 2650.8,-48.8 2650.8,-84.8"/>
<text text-anchor="middle" x="2547" y="-62.6" font-family="Times,serif" font-size="14.00">InputTextValidPatternComponent</text>
</g>
<!-- InputTextValidPatternComponent&#45;&gt;InputTextModule -->
<g id="edge17" class="edge">
<title>InputTextValidPatternComponent&#45;&gt;InputTextModule</title>
<path fill="none" stroke="black" d="M2547,-84.83C2547,-101.2 2547,-122.8 2547,-122.8 2547,-122.8 2789.42,-122.8 2789.42,-122.8"/>
<polygon fill="black" stroke="black" points="2789.42,-126.3 2799.42,-122.8 2789.42,-119.3 2789.42,-126.3"/>
</g>
<!-- InputTextRoutingModule -->
<g id="node21" class="node">
<title>InputTextRoutingModule</title>
<polygon fill="#8dd3c7" stroke="black" points="2000.88,-84.8 1997.88,-88.8 1976.88,-88.8 1973.88,-84.8 1841.12,-84.8 1841.12,-48.8 2000.88,-48.8 2000.88,-84.8"/>
<text text-anchor="middle" x="1921" y="-62.6" font-family="Times,serif" font-size="14.00">InputTextRoutingModule</text>
</g>
<!-- InputTextRoutingModule&#45;&gt;InputTextModule -->
<g id="edge18" class="edge">
<title>InputTextRoutingModule&#45;&gt;InputTextModule</title>
<path fill="none" stroke="black" d="M1921,-85.09C1921,-107.01 1921,-140.8 1921,-140.8 1921,-140.8 2789.51,-140.8 2789.51,-140.8"/>
<polygon fill="black" stroke="black" points="2789.51,-144.3 2799.51,-140.8 2789.51,-137.3 2789.51,-144.3"/>
</g>
<!-- StyleSelectorService -->
<g id="node22" class="node">
<title>StyleSelectorService</title>
<ellipse fill="#fdb462" stroke="black" cx="3976" cy="-66.8" rx="91.46" ry="18"/>
<text text-anchor="middle" x="3976" y="-62.6" font-family="Times,serif" font-size="14.00">StyleSelectorService</text>
</g>
<!-- StyleSelectorService&#45;&gt;InputTextModule -->
<g id="edge20" class="edge">
<title>StyleSelectorService&#45;&gt;InputTextModule</title>
<path fill="none" stroke="black" d="M3994.3,-84.59C3994.3,-108.71 3994.3,-148.8 3994.3,-148.8 3994.3,-148.8 2924.57,-148.8 2924.57,-148.8"/>
<polygon fill="black" stroke="black" points="2924.57,-145.3 2914.57,-148.8 2924.57,-152.3 2924.57,-145.3"/>
</g>
<!-- StyleSelectorService&#45;&gt;RadioButtonCheckboxModule -->
<g id="edge28" class="edge">
<title>StyleSelectorService&#45;&gt;RadioButtonCheckboxModule</title>
<path fill="none" stroke="black" d="M4030.89,-81.38C4030.89,-98.86 4030.89,-125.8 4030.89,-125.8 4030.89,-125.8 4473.12,-125.8 4473.12,-125.8"/>
<polygon fill="black" stroke="black" points="4473.12,-129.3 4483.12,-125.8 4473.12,-122.3 4473.12,-129.3"/>
</g>
<!-- StyleSelectorService&#45;&gt;SelectorModule -->
<g id="edge37" class="edge">
<title>StyleSelectorService&#45;&gt;SelectorModule</title>
<path fill="none" stroke="black" d="M3921.11,-81.42C3921.11,-90.63 3921.11,-100.8 3921.11,-100.8 3921.11,-100.8 5970,-100.8 5970,-100.8 5970,-100.8 5970,-106.61 5970,-106.61"/>
<polygon fill="black" stroke="black" points="5966.5,-106.61 5970,-116.61 5973.5,-106.61 5966.5,-106.61"/>
</g>
<!-- StyleSelectorService&#45;&gt;TextAreaModule -->
<g id="edge47" class="edge">
<title>StyleSelectorService&#45;&gt;TextAreaModule</title>
<path fill="none" stroke="black" d="M3957.7,-84.49C3957.7,-88.09 3957.7,-90.8 3957.7,-90.8 3957.7,-90.8 6944.78,-90.8 6944.78,-90.8 6944.78,-90.8 6944.78,-106.65 6944.78,-106.65"/>
<polygon fill="black" stroke="black" points="6941.28,-106.65 6944.78,-116.65 6948.28,-106.65 6941.28,-106.65"/>
</g>
<!-- CVARadioButtonComponent -->
<g id="node23" class="node">
<title>CVARadioButtonComponent</title>
<polygon fill="#ffffb3" stroke="black" points="5453.44,-84.8 5270.56,-84.8 5270.56,-48.8 5453.44,-48.8 5453.44,-84.8"/>
<text text-anchor="middle" x="5362" y="-62.6" font-family="Times,serif" font-size="14.00">CVARadioButtonComponent</text>
</g>
<!-- CVARadioButtonComponent&#45;&gt;RadioButtonCheckboxModule -->
<g id="edge21" class="edge">
<title>CVARadioButtonComponent&#45;&gt;RadioButtonCheckboxModule</title>
<path fill="none" stroke="black" d="M5362,-85.02C5362,-105.17 5362,-134.8 5362,-134.8 5362,-134.8 4680.91,-134.8 4680.91,-134.8"/>
<polygon fill="black" stroke="black" points="4680.91,-131.3 4670.91,-134.8 4680.91,-138.3 4680.91,-131.3"/>
</g>
<!-- CVARadioButtonExampleComponent -->
<g id="node24" class="node">
<title>CVARadioButtonExampleComponent</title>
<polygon fill="#ffffb3" stroke="black" points="5253.2,-84.8 5020.8,-84.8 5020.8,-48.8 5253.2,-48.8 5253.2,-84.8"/>
<text text-anchor="middle" x="5137" y="-62.6" font-family="Times,serif" font-size="14.00">CVARadioButtonExampleComponent</text>
</g>
<!-- CVARadioButtonExampleComponent&#45;&gt;RadioButtonCheckboxModule -->
<g id="edge22" class="edge">
<title>CVARadioButtonExampleComponent&#45;&gt;RadioButtonCheckboxModule</title>
<path fill="none" stroke="black" d="M5137,-85.07C5137,-103.36 5137,-128.8 5137,-128.8 5137,-128.8 4681.05,-128.8 4681.05,-128.8"/>
<polygon fill="black" stroke="black" points="4681.05,-125.3 4671.05,-128.8 4681.05,-132.3 4681.05,-125.3"/>
</g>
<!-- CheckboxRequiredComponent -->
<g id="node25" class="node">
<title>CheckboxRequiredComponent</title>
<polygon fill="#ffffb3" stroke="black" points="5002.92,-84.8 4813.08,-84.8 4813.08,-48.8 5002.92,-48.8 5002.92,-84.8"/>
<text text-anchor="middle" x="4908" y="-62.6" font-family="Times,serif" font-size="14.00">CheckboxRequiredComponent</text>
</g>
<!-- CheckboxRequiredComponent&#45;&gt;RadioButtonCheckboxModule -->
<g id="edge23" class="edge">
<title>CheckboxRequiredComponent&#45;&gt;RadioButtonCheckboxModule</title>
<path fill="none" stroke="black" d="M4908,-84.83C4908,-101.2 4908,-122.8 4908,-122.8 4908,-122.8 4680.97,-122.8 4680.97,-122.8"/>
<polygon fill="black" stroke="black" points="4680.97,-119.3 4670.97,-122.8 4680.97,-126.3 4680.97,-119.3"/>
</g>
<!-- RadioButtonCheckboxComponent -->
<g id="node26" class="node">
<title>RadioButtonCheckboxComponent</title>
<polygon fill="#ffffb3" stroke="black" points="4794.66,-84.8 4585.34,-84.8 4585.34,-48.8 4794.66,-48.8 4794.66,-84.8"/>
<text text-anchor="middle" x="4690" y="-62.6" font-family="Times,serif" font-size="14.00">RadioButtonCheckboxComponent</text>
</g>
<!-- RadioButtonCheckboxComponent&#45;&gt;RadioButtonCheckboxModule -->
<g id="edge24" class="edge">
<title>RadioButtonCheckboxComponent&#45;&gt;RadioButtonCheckboxModule</title>
<path fill="none" stroke="black" d="M4628.05,-85.02C4628.05,-85.02 4628.05,-106.53 4628.05,-106.53"/>
<polygon fill="black" stroke="black" points="4624.55,-106.53 4628.05,-116.53 4631.55,-106.53 4624.55,-106.53"/>
</g>
<!-- RadioButtonRequiredComponent -->
<g id="node27" class="node">
<title>RadioButtonRequiredComponent</title>
<polygon fill="#ffffb3" stroke="black" points="4567.21,-84.8 4362.79,-84.8 4362.79,-48.8 4567.21,-48.8 4567.21,-84.8"/>
<text text-anchor="middle" x="4465" y="-62.6" font-family="Times,serif" font-size="14.00">RadioButtonRequiredComponent</text>
</g>
<!-- RadioButtonRequiredComponent&#45;&gt;RadioButtonCheckboxModule -->
<g id="edge25" class="edge">
<title>RadioButtonRequiredComponent&#45;&gt;RadioButtonCheckboxModule</title>
<path fill="none" stroke="black" d="M4539.09,-85.02C4539.09,-85.02 4539.09,-106.53 4539.09,-106.53"/>
<polygon fill="black" stroke="black" points="4535.59,-106.53 4539.09,-116.53 4542.59,-106.53 4535.59,-106.53"/>
</g>
<!-- RadioButtonCheckboxRoutingModule -->
<g id="node29" class="node">
<title>RadioButtonCheckboxRoutingModule</title>
<polygon fill="#8dd3c7" stroke="black" points="4339.49,-84.8 4336.49,-88.8 4315.49,-88.8 4312.49,-84.8 4106.51,-84.8 4106.51,-48.8 4339.49,-48.8 4339.49,-84.8"/>
<text text-anchor="middle" x="4223" y="-62.6" font-family="Times,serif" font-size="14.00">RadioButtonCheckboxRoutingModule</text>
</g>
<!-- RadioButtonCheckboxRoutingModule&#45;&gt;RadioButtonCheckboxModule -->
<g id="edge26" class="edge">
<title>RadioButtonCheckboxRoutingModule&#45;&gt;RadioButtonCheckboxModule</title>
<path fill="none" stroke="black" d="M4223,-84.81C4223,-100.85 4223,-121.8 4223,-121.8 4223,-121.8 4473.06,-121.8 4473.06,-121.8"/>
<polygon fill="black" stroke="black" points="4473.06,-125.3 4483.06,-121.8 4473.06,-118.3 4473.06,-125.3"/>
</g>
<!-- CVASelectorComponent -->
<g id="node30" class="node">
<title>CVASelectorComponent</title>
<polygon fill="#ffffb3" stroke="black" points="6048.25,-84.8 5891.75,-84.8 5891.75,-48.8 6048.25,-48.8 6048.25,-84.8"/>
<text text-anchor="middle" x="5970" y="-62.6" font-family="Times,serif" font-size="14.00">CVASelectorComponent</text>
</g>
<!-- CVASelectorComponent&#45;&gt;SelectorModule -->
<g id="edge29" class="edge">
<title>CVASelectorComponent&#45;&gt;SelectorModule</title>
<path fill="none" stroke="black" d="M5996.35,-85.02C5996.35,-85.02 5996.35,-106.53 5996.35,-106.53"/>
<polygon fill="black" stroke="black" points="5992.85,-106.53 5996.35,-116.53 5999.85,-106.53 5992.85,-106.53"/>
</g>
<!-- CVASelectorExampleComponent -->
<g id="node31" class="node">
<title>CVASelectorExampleComponent</title>
<polygon fill="#ffffb3" stroke="black" points="5873.01,-84.8 5666.99,-84.8 5666.99,-48.8 5873.01,-48.8 5873.01,-84.8"/>
<text text-anchor="middle" x="5770" y="-62.6" font-family="Times,serif" font-size="14.00">CVASelectorExampleComponent</text>
</g>
<!-- CVASelectorExampleComponent&#45;&gt;SelectorModule -->
<g id="edge30" class="edge">
<title>CVASelectorExampleComponent&#45;&gt;SelectorModule</title>
<path fill="none" stroke="black" d="M5770,-85.09C5770,-107.01 5770,-140.8 5770,-140.8 5770,-140.8 5907.19,-140.8 5907.19,-140.8"/>
<polygon fill="black" stroke="black" points="5907.19,-144.3 5917.19,-140.8 5907.19,-137.3 5907.19,-144.3"/>
</g>
<!-- MaterialSelectorComponent -->
<g id="node32" class="node">
<title>MaterialSelectorComponent</title>
<polygon fill="#ffffb3" stroke="black" points="6768.12,-84.8 6593.88,-84.8 6593.88,-48.8 6768.12,-48.8 6768.12,-84.8"/>
<text text-anchor="middle" x="6681" y="-62.6" font-family="Times,serif" font-size="14.00">MaterialSelectorComponent</text>
</g>
<!-- MaterialSelectorComponent&#45;&gt;SelectorModule -->
<g id="edge31" class="edge">
<title>MaterialSelectorComponent&#45;&gt;SelectorModule</title>
<path fill="none" stroke="black" d="M6681,-85.12C6681,-108.46 6681,-145.8 6681,-145.8 6681,-145.8 6032.86,-145.8 6032.86,-145.8"/>
<polygon fill="black" stroke="black" points="6032.86,-142.3 6022.86,-145.8 6032.86,-149.3 6032.86,-142.3"/>
</g>
<!-- RequiredSelectorComponent -->
<g id="node33" class="node">
<title>RequiredSelectorComponent</title>
<polygon fill="#ffffb3" stroke="black" points="6575.02,-84.8 6396.98,-84.8 6396.98,-48.8 6575.02,-48.8 6575.02,-84.8"/>
<text text-anchor="middle" x="6486" y="-62.6" font-family="Times,serif" font-size="14.00">RequiredSelectorComponent</text>
</g>
<!-- RequiredSelectorComponent&#45;&gt;SelectorModule -->
<g id="edge32" class="edge">
<title>RequiredSelectorComponent&#45;&gt;SelectorModule</title>
<path fill="none" stroke="black" d="M6486,-84.97C6486,-106.3 6486,-138.8 6486,-138.8 6486,-138.8 6032.8,-138.8 6032.8,-138.8"/>
<polygon fill="black" stroke="black" points="6032.8,-135.3 6022.8,-138.8 6032.8,-142.3 6032.8,-135.3"/>
</g>
<!-- SelectorComponent -->
<g id="node34" class="node">
<title>SelectorComponent</title>
<polygon fill="#ffffb3" stroke="black" points="6378.7,-84.8 6251.3,-84.8 6251.3,-48.8 6378.7,-48.8 6378.7,-84.8"/>
<text text-anchor="middle" x="6315" y="-62.6" font-family="Times,serif" font-size="14.00">SelectorComponent</text>
</g>
<!-- SelectorComponent&#45;&gt;SelectorModule -->
<g id="edge33" class="edge">
<title>SelectorComponent&#45;&gt;SelectorModule</title>
<path fill="none" stroke="black" d="M6315,-84.91C6315,-104.14 6315,-131.8 6315,-131.8 6315,-131.8 6032.77,-131.8 6032.77,-131.8"/>
<polygon fill="black" stroke="black" points="6032.77,-128.3 6022.77,-131.8 6032.77,-135.3 6032.77,-128.3"/>
</g>
<!-- SimpleSelectorComponent -->
<g id="node35" class="node">
<title>SimpleSelectorComponent</title>
<polygon fill="#ffffb3" stroke="black" points="6233.37,-84.8 6066.63,-84.8 6066.63,-48.8 6233.37,-48.8 6233.37,-84.8"/>
<text text-anchor="middle" x="6150" y="-62.6" font-family="Times,serif" font-size="14.00">SimpleSelectorComponent</text>
</g>
<!-- SimpleSelectorComponent&#45;&gt;SelectorModule -->
<g id="edge34" class="edge">
<title>SimpleSelectorComponent&#45;&gt;SelectorModule</title>
<path fill="none" stroke="black" d="M6150,-84.83C6150,-101.86 6150,-124.8 6150,-124.8 6150,-124.8 6033.03,-124.8 6033.03,-124.8"/>
<polygon fill="black" stroke="black" points="6033.03,-121.3 6023.03,-124.8 6033.03,-128.3 6033.03,-121.3"/>
</g>
<!-- SelectorRoutingModule -->
<g id="node37" class="node">
<title>SelectorRoutingModule</title>
<polygon fill="#8dd3c7" stroke="black" points="5643.04,-84.8 5640.04,-88.8 5619.04,-88.8 5616.04,-84.8 5492.96,-84.8 5492.96,-48.8 5643.04,-48.8 5643.04,-84.8"/>
<text text-anchor="middle" x="5568" y="-62.6" font-family="Times,serif" font-size="14.00">SelectorRoutingModule</text>
</g>
<!-- SelectorRoutingModule&#45;&gt;SelectorModule -->
<g id="edge35" class="edge">
<title>SelectorRoutingModule&#45;&gt;SelectorModule</title>
<path fill="none" stroke="black" d="M5568,-84.95C5568,-108.56 5568,-146.8 5568,-146.8 5568,-146.8 5907.03,-146.8 5907.03,-146.8"/>
<polygon fill="black" stroke="black" points="5907.03,-150.3 5917.03,-146.8 5907.03,-143.3 5907.03,-150.3"/>
</g>
<!-- ControlDataTableComponent -->
<g id="node38" class="node">
<title>ControlDataTableComponent</title>
<polygon fill="#ffffb3" stroke="black" points="1801.41,-152.8 1618.59,-152.8 1618.59,-116.8 1801.41,-116.8 1801.41,-152.8"/>
<text text-anchor="middle" x="1710" y="-130.6" font-family="Times,serif" font-size="14.00">ControlDataTableComponent</text>
</g>
<!-- ControlDataTableComponent&#45;&gt;SharedModule -->
<g id="edge38" class="edge">
<title>ControlDataTableComponent&#45;&gt;SharedModule</title>
<path fill="none" stroke="black" d="M1710,-116.52C1710,-95.48 1710,-63.8 1710,-63.8 1710,-63.8 1027.26,-63.8 1027.26,-63.8"/>
<polygon fill="black" stroke="black" points="1027.26,-60.3 1017.26,-63.8 1027.26,-67.3 1027.26,-60.3"/>
</g>
<!-- StyleSelectorComponent -->
<g id="node39" class="node">
<title>StyleSelectorComponent</title>
<polygon fill="#ffffb3" stroke="black" points="1600.98,-152.8 1445.02,-152.8 1445.02,-116.8 1600.98,-116.8 1600.98,-152.8"/>
<text text-anchor="middle" x="1523" y="-130.6" font-family="Times,serif" font-size="14.00">StyleSelectorComponent</text>
</g>
<!-- StyleSelectorComponent&#45;&gt;SharedModule -->
<g id="edge39" class="edge">
<title>StyleSelectorComponent&#45;&gt;SharedModule</title>
<path fill="none" stroke="black" d="M1523,-116.63C1523,-97.71 1523,-70.8 1523,-70.8 1523,-70.8 1027.25,-70.8 1027.25,-70.8"/>
<polygon fill="black" stroke="black" points="1027.25,-67.3 1017.25,-70.8 1027.25,-74.3 1027.25,-67.3"/>
</g>
<!-- TextAreaComponent -->
<g id="node42" class="node">
<title>TextAreaComponent</title>
<polygon fill="#ffffb3" stroke="black" points="7310.19,-84.8 7175.81,-84.8 7175.81,-48.8 7310.19,-48.8 7310.19,-84.8"/>
<text text-anchor="middle" x="7243" y="-62.6" font-family="Times,serif" font-size="14.00">TextAreaComponent</text>
</g>
<!-- TextAreaComponent&#45;&gt;TextAreaModule -->
<g id="edge42" class="edge">
<title>TextAreaComponent&#45;&gt;TextAreaModule</title>
<path fill="none" stroke="black" d="M7243,-85.07C7243,-103.36 7243,-128.8 7243,-128.8 7243,-128.8 7046.42,-128.8 7046.42,-128.8"/>
<polygon fill="black" stroke="black" points="7046.42,-125.3 7036.42,-128.8 7046.42,-132.3 7046.42,-125.3"/>
</g>
<!-- TextAreaCountComponent -->
<g id="node43" class="node">
<title>TextAreaCountComponent</title>
<polygon fill="#ffffb3" stroke="black" points="7158.41,-84.8 6989.59,-84.8 6989.59,-48.8 7158.41,-48.8 7158.41,-84.8"/>
<text text-anchor="middle" x="7074" y="-62.6" font-family="Times,serif" font-size="14.00">TextAreaCountComponent</text>
</g>
<!-- TextAreaCountComponent&#45;&gt;TextAreaModule -->
<g id="edge43" class="edge">
<title>TextAreaCountComponent&#45;&gt;TextAreaModule</title>
<path fill="none" stroke="black" d="M7013,-85.02C7013,-85.02 7013,-106.53 7013,-106.53"/>
<polygon fill="black" stroke="black" points="7009.5,-106.53 7013,-116.53 7016.5,-106.53 7009.5,-106.53"/>
</g>
<!-- TextAreaMaxComponent -->
<g id="node44" class="node">
<title>TextAreaMaxComponent</title>
<polygon fill="#ffffb3" stroke="black" points="7487.85,-84.8 7328.15,-84.8 7328.15,-48.8 7487.85,-48.8 7487.85,-84.8"/>
<text text-anchor="middle" x="7408" y="-62.6" font-family="Times,serif" font-size="14.00">TextAreaMaxComponent</text>
</g>
<!-- TextAreaMaxComponent&#45;&gt;TextAreaModule -->
<g id="edge44" class="edge">
<title>TextAreaMaxComponent&#45;&gt;TextAreaModule</title>
<path fill="none" stroke="black" d="M7408,-85.09C7408,-107.01 7408,-140.8 7408,-140.8 7408,-140.8 7046.39,-140.8 7046.39,-140.8"/>
<polygon fill="black" stroke="black" points="7046.39,-137.3 7036.39,-140.8 7046.39,-144.3 7046.39,-137.3"/>
</g>
<!-- TextAreaRoutingModule -->
<g id="node46" class="node">
<title>TextAreaRoutingModule</title>
<polygon fill="#8dd3c7" stroke="black" points="6965.52,-84.8 6962.52,-88.8 6941.52,-88.8 6938.52,-84.8 6808.48,-84.8 6808.48,-48.8 6965.52,-48.8 6965.52,-84.8"/>
<text text-anchor="middle" x="6887" y="-62.6" font-family="Times,serif" font-size="14.00">TextAreaRoutingModule</text>
</g>
<!-- TextAreaRoutingModule&#45;&gt;TextAreaModule -->
<g id="edge46" class="edge">
<title>TextAreaRoutingModule&#45;&gt;TextAreaModule</title>
<path fill="none" stroke="black" d="M6955.27,-85.02C6955.27,-85.02 6955.27,-106.53 6955.27,-106.53"/>
<polygon fill="black" stroke="black" points="6951.77,-106.53 6955.27,-116.53 6958.77,-106.53 6951.77,-106.53"/>
</g>
</g>
</svg>
